%TF.GenerationSoftware,KiCad,Pcbnew,(6.0.9)*%
%TF.CreationDate,2022-12-19T09:49:19-08:00*%
%TF.ProjectId,TinyG-SuperPid-Integrator,54696e79-472d-4537-9570-65725069642d,rev?*%
%TF.SameCoordinates,Original*%
%TF.FileFunction,Copper,L4,Bot*%
%TF.FilePolarity,Positive*%
%FSLAX46Y46*%
G04 Gerber Fmt 4.6, Leading zero omitted, Abs format (unit mm)*
G04 Created by KiCad (PCBNEW (6.0.9)) date 2022-12-19 09:49:19*
%MOMM*%
%LPD*%
G01*
G04 APERTURE LIST*
%TA.AperFunction,ComponentPad*%
%ADD10C,1.270000*%
%TD*%
%TA.AperFunction,ComponentPad*%
%ADD11R,1.950000X1.950000*%
%TD*%
%TA.AperFunction,ComponentPad*%
%ADD12C,1.950000*%
%TD*%
%TA.AperFunction,ComponentPad*%
%ADD13C,2.000000*%
%TD*%
%TA.AperFunction,ComponentPad*%
%ADD14C,1.600000*%
%TD*%
%TA.AperFunction,ComponentPad*%
%ADD15O,1.600000X1.600000*%
%TD*%
%TA.AperFunction,ComponentPad*%
%ADD16R,1.371600X1.371600*%
%TD*%
%TA.AperFunction,ComponentPad*%
%ADD17C,1.371600*%
%TD*%
%TA.AperFunction,ComponentPad*%
%ADD18R,2.000000X2.000000*%
%TD*%
%TA.AperFunction,ComponentPad*%
%ADD19O,2.000000X2.000000*%
%TD*%
%TA.AperFunction,ComponentPad*%
%ADD20R,1.800000X1.800000*%
%TD*%
%TA.AperFunction,ComponentPad*%
%ADD21O,1.800000X1.800000*%
%TD*%
%TA.AperFunction,ComponentPad*%
%ADD22R,1.408000X1.408000*%
%TD*%
%TA.AperFunction,ComponentPad*%
%ADD23C,1.408000*%
%TD*%
%TA.AperFunction,ComponentPad*%
%ADD24C,3.316000*%
%TD*%
%TA.AperFunction,ComponentPad*%
%ADD25R,1.600000X1.600000*%
%TD*%
%TA.AperFunction,ComponentPad*%
%ADD26C,1.800000*%
%TD*%
%TA.AperFunction,ViaPad*%
%ADD27C,0.800000*%
%TD*%
%TA.AperFunction,Conductor*%
%ADD28C,2.000000*%
%TD*%
%TA.AperFunction,Conductor*%
%ADD29C,0.250000*%
%TD*%
G04 APERTURE END LIST*
D10*
%TO.P,U2,1,A1*%
%TO.N,Net-(J1-Pad1)*%
X86995000Y-47585000D03*
%TO.P,U2,2,C1*%
%TO.N,Net-(R1-Pad1)*%
X84455000Y-47585000D03*
%TO.P,U2,3,C2*%
%TO.N,Net-(R2-Pad1)*%
X81915000Y-47585000D03*
%TO.P,U2,4,A2*%
%TO.N,Net-(J1-Pad2)*%
X79375000Y-47585000D03*
%TO.P,U2,5,GND*%
%TO.N,GND*%
X79375000Y-57745000D03*
%TO.P,U2,6,O2*%
%TO.N,Net-(J2-Pad3)*%
X81915000Y-57745000D03*
%TO.P,U2,7,O1*%
%TO.N,Net-(J2-Pad2)*%
X84455000Y-57745000D03*
%TO.P,U2,8,Vcc*%
%TO.N,+5V*%
X86995000Y-57745000D03*
%TD*%
D11*
%TO.P,J2,1,+5*%
%TO.N,+5V*%
X104775000Y-90170000D03*
D12*
%TO.P,J2,2,PWM*%
%TO.N,Net-(J2-Pad2)*%
X104775000Y-85170000D03*
%TO.P,J2,3,RUN*%
%TO.N,Net-(J2-Pad3)*%
X104775000Y-80170000D03*
%TO.P,J2,4,GND*%
%TO.N,GND*%
X104775000Y-75170000D03*
%TD*%
D13*
%TO.P,L1,1,1*%
%TO.N,Net-(Cb1-Pad1)*%
X45085000Y-73570000D03*
%TO.P,L1,2,2*%
%TO.N,+5V*%
X45085000Y-85640000D03*
%TD*%
D14*
%TO.P,RL1,1*%
%TO.N,GND*%
X79375000Y-75565000D03*
D15*
%TO.P,RL1,2*%
%TO.N,+5V*%
X92075000Y-75565000D03*
%TD*%
D16*
%TO.P,R1,1*%
%TO.N,Net-(R1-Pad1)*%
X76415700Y-48260000D03*
D17*
%TO.P,R1,2*%
%TO.N,GND*%
X65290500Y-48260000D03*
%TD*%
D18*
%TO.P,D1,1,K*%
%TO.N,Net-(Cb1-Pad1)*%
X54013318Y-69387801D03*
D19*
%TO.P,D1,2,A*%
%TO.N,GND*%
X59093318Y-69387801D03*
%TD*%
D16*
%TO.P,R9,1*%
%TO.N,GND*%
X79159300Y-86995000D03*
D17*
%TO.P,R9,2*%
%TO.N,Net-(R9-Pad2)*%
X90284500Y-86995000D03*
%TD*%
D11*
%TO.P,J1,1,PWM*%
%TO.N,Net-(J1-Pad1)*%
X29807500Y-49015000D03*
D12*
%TO.P,J1,2,SPIN*%
%TO.N,Net-(J1-Pad2)*%
X29807500Y-54015000D03*
%TO.P,J1,3,COOL*%
%TO.N,Net-(J1-Pad3)*%
X29807500Y-59015000D03*
%TO.P,J1,4,GND*%
%TO.N,GND*%
X29807500Y-64015000D03*
%TD*%
D20*
%TO.P,U1,1,Switch_Out*%
%TO.N,Net-(Cb1-Pad1)*%
X58905000Y-72390000D03*
D21*
%TO.P,U1,2,VIN*%
%TO.N,Net-(Cin1-Pad1)*%
X55105000Y-73660000D03*
%TO.P,U1,3,BOOST*%
%TO.N,Net-(Cb1-Pad2)*%
X58905000Y-74930000D03*
%TO.P,U1,4,GND*%
%TO.N,GND*%
X55105000Y-76200000D03*
%TO.P,U1,5,NC*%
%TO.N,unconnected-(U1-Pad5)*%
X58905000Y-77470000D03*
%TO.P,U1,6,FB*%
%TO.N,+5V*%
X55105000Y-78740000D03*
%TO.P,U1,7,ON/OFF*%
%TO.N,unconnected-(U1-Pad7)*%
X58905000Y-80010000D03*
%TD*%
D11*
%TO.P,J5,1,+*%
%TO.N,Net-(J5-Pad1)*%
X104812500Y-53420000D03*
D12*
%TO.P,J5,2,-*%
%TO.N,GND*%
X104812500Y-48420000D03*
%TD*%
D14*
%TO.P,C2,1*%
%TO.N,+5V*%
X90805000Y-63520000D03*
%TO.P,C2,2*%
%TO.N,GND*%
X90805000Y-66020000D03*
%TD*%
D22*
%TO.P,J4,1,Vcc*%
%TO.N,+5V*%
X96365000Y-67782500D03*
D23*
%TO.P,J4,2,D-*%
%TO.N,Net-(J4-Pad2)*%
X96365000Y-65282500D03*
%TO.P,J4,3,D+*%
%TO.N,Net-(J4-Pad3)*%
X96365000Y-63282500D03*
%TO.P,J4,4,GND*%
%TO.N,GND*%
X96365000Y-60782500D03*
D24*
%TO.P,J4,5,SHIELD*%
X99035000Y-69282500D03*
X99035000Y-59282500D03*
%TD*%
D16*
%TO.P,R8,1*%
%TO.N,Net-(J4-Pad3)*%
X79159300Y-83345678D03*
D17*
%TO.P,R8,2*%
%TO.N,+5V*%
X90284500Y-83345678D03*
%TD*%
D25*
%TO.P,Cin1,1*%
%TO.N,Net-(Cin1-Pad1)*%
X31115000Y-71372349D03*
D14*
%TO.P,Cin1,2*%
%TO.N,GND*%
X31115000Y-74872349D03*
%TD*%
D16*
%TO.P,R10,1*%
%TO.N,Net-(D2-Pad1)*%
X79159300Y-90805000D03*
D17*
%TO.P,R10,2*%
%TO.N,GND*%
X90284500Y-90805000D03*
%TD*%
D10*
%TO.P,U3,1,A1*%
%TO.N,unconnected-(U3-Pad1)*%
X86995000Y-60285000D03*
%TO.P,U3,2,C1*%
%TO.N,unconnected-(U3-Pad2)*%
X84455000Y-60285000D03*
%TO.P,U3,3,C2*%
%TO.N,Net-(R9-Pad2)*%
X81915000Y-60285000D03*
%TO.P,U3,4,A2*%
%TO.N,Net-(J1-Pad3)*%
X79375000Y-60285000D03*
%TO.P,U3,5,GND*%
%TO.N,GND*%
X79375000Y-70445000D03*
%TO.P,U3,6,O2*%
%TO.N,Net-(J5-Pad1)*%
X81915000Y-70445000D03*
%TO.P,U3,7,O1*%
%TO.N,unconnected-(U3-Pad7)*%
X84455000Y-70445000D03*
%TO.P,U3,8,Vcc*%
%TO.N,+5V*%
X86995000Y-70445000D03*
%TD*%
D14*
%TO.P,Cb1,1*%
%TO.N,Net-(Cb1-Pad1)*%
X63000203Y-69084865D03*
%TO.P,Cb1,2*%
%TO.N,Net-(Cb1-Pad2)*%
X65500203Y-69084865D03*
%TD*%
%TO.P,Cinx1,1*%
%TO.N,Net-(Cin1-Pad1)*%
X49562685Y-69592058D03*
%TO.P,Cinx1,2*%
%TO.N,GND*%
X49562685Y-67092058D03*
%TD*%
%TO.P,C1,1*%
%TO.N,+5V*%
X90805000Y-51435000D03*
%TO.P,C1,2*%
%TO.N,GND*%
X90805000Y-53935000D03*
%TD*%
D18*
%TO.P,Cout1,1*%
%TO.N,+5V*%
X59752077Y-84696742D03*
D13*
%TO.P,Cout1,2*%
%TO.N,GND*%
X59752077Y-89696742D03*
%TD*%
D11*
%TO.P,J3,1,+*%
%TO.N,Net-(Cin1-Pad1)*%
X29828410Y-84380787D03*
D12*
%TO.P,J3,2,-*%
%TO.N,GND*%
X29828410Y-89380787D03*
%TD*%
D16*
%TO.P,R7,1*%
%TO.N,GND*%
X79227567Y-79696356D03*
D17*
%TO.P,R7,2*%
%TO.N,Net-(J4-Pad3)*%
X90352767Y-79696356D03*
%TD*%
D16*
%TO.P,R2,1*%
%TO.N,Net-(R2-Pad1)*%
X76415700Y-51585365D03*
D17*
%TO.P,R2,2*%
%TO.N,GND*%
X65290500Y-51585365D03*
%TD*%
D20*
%TO.P,D2,1,K*%
%TO.N,Net-(D2-Pad1)*%
X71120000Y-86355000D03*
D26*
%TO.P,D2,2,A*%
%TO.N,+5V*%
X71120000Y-88895000D03*
%TD*%
D16*
%TO.P,R5,1*%
%TO.N,GND*%
X65312152Y-62214758D03*
D17*
%TO.P,R5,2*%
%TO.N,Net-(J4-Pad2)*%
X76437352Y-62214758D03*
%TD*%
D16*
%TO.P,R3,1*%
%TO.N,Net-(J2-Pad2)*%
X76415700Y-54910730D03*
D17*
%TO.P,R3,2*%
%TO.N,+5V*%
X65290500Y-54910730D03*
%TD*%
D16*
%TO.P,R4,1*%
%TO.N,Net-(J2-Pad3)*%
X76390749Y-58532218D03*
D17*
%TO.P,R4,2*%
%TO.N,+5V*%
X65265549Y-58532218D03*
%TD*%
D16*
%TO.P,R6,1*%
%TO.N,Net-(J4-Pad2)*%
X76446305Y-65864080D03*
D17*
%TO.P,R6,2*%
%TO.N,+5V*%
X65321105Y-65864080D03*
%TD*%
D27*
%TO.N,Net-(J1-Pad3)*%
X62865000Y-47714500D03*
X62865000Y-60325000D03*
%TO.N,Net-(J2-Pad2)*%
X83185000Y-85090000D03*
X84455000Y-55245000D03*
%TO.N,Net-(J2-Pad3)*%
X80645000Y-78105000D03*
X81915000Y-55880000D03*
%TO.N,Net-(J4-Pad3)*%
X94615000Y-63500000D03*
X94615000Y-68580000D03*
X88900000Y-68580000D03*
%TO.N,Net-(R1-Pad1)*%
X84455000Y-50165000D03*
%TO.N,Net-(R2-Pad1)*%
X81915000Y-51435000D03*
%TO.N,Net-(R9-Pad2)*%
X78105000Y-85090000D03*
X78105000Y-62230000D03*
%TO.N,Net-(J5-Pad1)*%
X88900000Y-66675000D03*
X93980000Y-61595000D03*
X88900000Y-61595000D03*
%TO.N,Net-(D2-Pad1)*%
X75565000Y-86360000D03*
X75565000Y-90805000D03*
%TD*%
D28*
%TO.N,GND*%
X59436122Y-89380787D02*
X59752077Y-89696742D01*
X34232349Y-74872349D02*
X35560000Y-76200000D01*
X29828410Y-89380787D02*
X59436122Y-89380787D01*
X29828410Y-89380787D02*
X35560000Y-83649197D01*
X35560000Y-83649197D02*
X35560000Y-76200000D01*
X35560000Y-76200000D02*
X55105000Y-76200000D01*
X31115000Y-74872349D02*
X34232349Y-74872349D01*
%TO.N,Net-(Cb1-Pad1)*%
X58905000Y-72390000D02*
X59695068Y-72390000D01*
X49831119Y-73570000D02*
X54013318Y-69387801D01*
X54013318Y-69387801D02*
X54782801Y-69387801D01*
X57785000Y-72390000D02*
X58905000Y-72390000D01*
X59695068Y-72390000D02*
X63000203Y-69084865D01*
X54782801Y-69387801D02*
X57785000Y-72390000D01*
X45085000Y-73570000D02*
X49831119Y-73570000D01*
%TO.N,Net-(Cb1-Pad2)*%
X65500203Y-71024797D02*
X65500203Y-69084865D01*
X58905000Y-74930000D02*
X61595000Y-74930000D01*
X61595000Y-74930000D02*
X65500203Y-71024797D01*
D29*
%TO.N,Net-(J1-Pad1)*%
X85765000Y-46355000D02*
X86995000Y-47585000D01*
X38100000Y-46355000D02*
X35440000Y-49015000D01*
X38100000Y-46355000D02*
X85765000Y-46355000D01*
X35440000Y-49015000D02*
X29807500Y-49015000D01*
%TO.N,Net-(J1-Pad3)*%
X29807500Y-59015000D02*
X41197500Y-47625000D01*
X62865000Y-60325000D02*
X62905000Y-60285000D01*
X42545000Y-47625000D02*
X62775500Y-47625000D01*
X41197500Y-47625000D02*
X42545000Y-47625000D01*
X62905000Y-60285000D02*
X79375000Y-60285000D01*
X62775500Y-47625000D02*
X62865000Y-47714500D01*
%TO.N,Net-(J2-Pad2)*%
X104775000Y-85170000D02*
X83265000Y-85170000D01*
X83265000Y-85170000D02*
X83185000Y-85090000D01*
X84120730Y-54910730D02*
X84455000Y-55245000D01*
X76415700Y-54910730D02*
X84120730Y-54910730D01*
%TO.N,Net-(J2-Pad3)*%
X76390749Y-58532218D02*
X76390749Y-58229251D01*
X104775000Y-80170000D02*
X103030000Y-80170000D01*
X78740000Y-55880000D02*
X81915000Y-55880000D01*
X100965000Y-78105000D02*
X80645000Y-78105000D01*
X76390749Y-58229251D02*
X78740000Y-55880000D01*
X103030000Y-80170000D02*
X100965000Y-78105000D01*
%TO.N,Net-(J4-Pad2)*%
X95852500Y-64770000D02*
X96365000Y-65282500D01*
X85900920Y-65864080D02*
X86995000Y-64770000D01*
X86995000Y-64770000D02*
X95852500Y-64770000D01*
X76446305Y-65864080D02*
X85900920Y-65864080D01*
%TO.N,Net-(J4-Pad3)*%
X87943644Y-79696356D02*
X90352767Y-79696356D01*
X96147500Y-63500000D02*
X96365000Y-63282500D01*
X88900000Y-68580000D02*
X91067500Y-68580000D01*
X91067500Y-68580000D02*
X94615000Y-68580000D01*
X94615000Y-63500000D02*
X96147500Y-63500000D01*
X79159300Y-83345678D02*
X84294322Y-83345678D01*
X84294322Y-83345678D02*
X87943644Y-79696356D01*
%TO.N,Net-(J1-Pad2)*%
X78780000Y-46990000D02*
X79375000Y-47585000D01*
X39370000Y-46990000D02*
X78780000Y-46990000D01*
X29807500Y-54015000D02*
X32345000Y-54015000D01*
X32345000Y-54015000D02*
X39370000Y-46990000D01*
%TO.N,Net-(R1-Pad1)*%
X78320700Y-50165000D02*
X84455000Y-50165000D01*
X76415700Y-48260000D02*
X78320700Y-50165000D01*
%TO.N,Net-(R2-Pad1)*%
X81764635Y-51585365D02*
X76415700Y-51585365D01*
X81915000Y-51435000D02*
X81764635Y-51585365D01*
%TO.N,Net-(R9-Pad2)*%
X81915000Y-85090000D02*
X83820000Y-86995000D01*
X78105000Y-62230000D02*
X81280000Y-62230000D01*
X83820000Y-86995000D02*
X90284500Y-86995000D01*
X81280000Y-62230000D02*
X81915000Y-61595000D01*
X81915000Y-61595000D02*
X81915000Y-60285000D01*
X78105000Y-85090000D02*
X81915000Y-85090000D01*
%TO.N,Net-(J5-Pad1)*%
X93980000Y-61595000D02*
X88900000Y-61595000D01*
X81915000Y-68580000D02*
X86995000Y-68580000D01*
X86995000Y-68580000D02*
X88900000Y-66675000D01*
X81915000Y-68580000D02*
X81915000Y-70445000D01*
%TO.N,Net-(D2-Pad1)*%
X75565000Y-90805000D02*
X79159300Y-90805000D01*
X71120000Y-86355000D02*
X75560000Y-86355000D01*
X75560000Y-86355000D02*
X75565000Y-86360000D01*
%TD*%
M02*
