%TF.GenerationSoftware,KiCad,Pcbnew,(6.0.9)*%
%TF.CreationDate,2022-12-19T09:42:54-08:00*%
%TF.ProjectId,TinyG-SuperPid-Integrator,54696e79-472d-4537-9570-65725069642d,rev?*%
%TF.SameCoordinates,Original*%
%TF.FileFunction,Drillmap*%
%TF.FilePolarity,Positive*%
%FSLAX45Y45*%
G04 Gerber Fmt 4.5, Leading zero omitted, Abs format (unit mm)*
G04 Created by KiCad (PCBNEW (6.0.9)) date 2022-12-19 09:42:54*
%MOMM*%
%LPD*%
G01*
G04 APERTURE LIST*
%ADD10C,0.100000*%
%ADD11C,0.200000*%
%ADD12C,0.040000*%
%ADD13C,0.076200*%
%ADD14C,0.080000*%
%ADD15C,0.086360*%
%ADD16C,0.090000*%
%ADD17C,0.110000*%
%ADD18C,0.130000*%
%ADD19C,0.230000*%
G04 APERTURE END LIST*
D10*
X2476500Y-9334500D02*
X11049000Y-9334500D01*
X11049000Y-9334500D02*
X11049000Y-4508500D01*
X11049000Y-4508500D02*
X2476500Y-4508500D01*
X2476500Y-4508500D02*
X2476500Y-9334500D01*
D11*
D12*
X6266500Y-4751450D02*
X6306500Y-4791450D01*
X6306500Y-4751450D02*
X6266500Y-4791450D01*
X6266500Y-6012500D02*
X6306500Y-6052500D01*
X6306500Y-6012500D02*
X6266500Y-6052500D01*
X7536500Y-8616000D02*
X7576500Y-8656000D01*
X7576500Y-8616000D02*
X7536500Y-8656000D01*
X7536500Y-9060500D02*
X7576500Y-9100500D01*
X7576500Y-9060500D02*
X7536500Y-9100500D01*
X7790500Y-6203000D02*
X7830500Y-6243000D01*
X7830500Y-6203000D02*
X7790500Y-6243000D01*
X7790500Y-8489000D02*
X7830500Y-8529000D01*
X7830500Y-8489000D02*
X7790500Y-8529000D01*
X8044500Y-7790500D02*
X8084500Y-7830500D01*
X8084500Y-7790500D02*
X8044500Y-7830500D01*
X8171500Y-5123500D02*
X8211500Y-5163500D01*
X8211500Y-5123500D02*
X8171500Y-5163500D01*
X8171500Y-5568000D02*
X8211500Y-5608000D01*
X8211500Y-5568000D02*
X8171500Y-5608000D01*
X8298500Y-8489000D02*
X8338500Y-8529000D01*
X8338500Y-8489000D02*
X8298500Y-8529000D01*
X8425500Y-4996500D02*
X8465500Y-5036500D01*
X8465500Y-4996500D02*
X8425500Y-5036500D01*
X8425500Y-5504500D02*
X8465500Y-5544500D01*
X8465500Y-5504500D02*
X8425500Y-5544500D01*
X8870000Y-6139500D02*
X8910000Y-6179500D01*
X8910000Y-6139500D02*
X8870000Y-6179500D01*
X8870000Y-6647500D02*
X8910000Y-6687500D01*
X8910000Y-6647500D02*
X8870000Y-6687500D01*
X8870000Y-6838000D02*
X8910000Y-6878000D01*
X8910000Y-6838000D02*
X8870000Y-6878000D01*
X9378000Y-6139500D02*
X9418000Y-6179500D01*
X9418000Y-6139500D02*
X9378000Y-6179500D01*
X9441500Y-6330000D02*
X9481500Y-6370000D01*
X9481500Y-6330000D02*
X9441500Y-6370000D01*
X9441500Y-6838000D02*
X9481500Y-6878000D01*
X9481500Y-6838000D02*
X9441500Y-6878000D01*
D13*
X7975600Y-4758500D02*
G75*
G03*
X7975600Y-4758500I-38100J0D01*
G01*
X7975600Y-5774500D02*
G75*
G03*
X7975600Y-5774500I-38100J0D01*
G01*
X7975600Y-6028500D02*
G75*
G03*
X7975600Y-6028500I-38100J0D01*
G01*
X7975600Y-7044500D02*
G75*
G03*
X7975600Y-7044500I-38100J0D01*
G01*
X8229600Y-4758500D02*
G75*
G03*
X8229600Y-4758500I-38100J0D01*
G01*
X8229600Y-5774500D02*
G75*
G03*
X8229600Y-5774500I-38100J0D01*
G01*
X8229600Y-6028500D02*
G75*
G03*
X8229600Y-6028500I-38100J0D01*
G01*
X8229600Y-7044500D02*
G75*
G03*
X8229600Y-7044500I-38100J0D01*
G01*
X8483600Y-4758500D02*
G75*
G03*
X8483600Y-4758500I-38100J0D01*
G01*
X8483600Y-5774500D02*
G75*
G03*
X8483600Y-5774500I-38100J0D01*
G01*
X8483600Y-6028500D02*
G75*
G03*
X8483600Y-6028500I-38100J0D01*
G01*
X8483600Y-7044500D02*
G75*
G03*
X8483600Y-7044500I-38100J0D01*
G01*
X8737600Y-4758500D02*
G75*
G03*
X8737600Y-4758500I-38100J0D01*
G01*
X8737600Y-5774500D02*
G75*
G03*
X8737600Y-5774500I-38100J0D01*
G01*
X8737600Y-6028500D02*
G75*
G03*
X8737600Y-6028500I-38100J0D01*
G01*
X8737600Y-7044500D02*
G75*
G03*
X8737600Y-7044500I-38100J0D01*
G01*
D14*
X3111500Y-7097235D02*
X3111500Y-7177235D01*
X3071500Y-7137235D02*
X3151500Y-7137235D01*
X3111500Y-7447235D02*
X3111500Y-7527235D01*
X3071500Y-7487235D02*
X3151500Y-7487235D01*
X4956269Y-6669206D02*
X4956269Y-6749206D01*
X4916269Y-6709206D02*
X4996269Y-6709206D01*
X4956269Y-6919206D02*
X4956269Y-6999206D01*
X4916269Y-6959206D02*
X4996269Y-6959206D01*
X6300020Y-6868486D02*
X6300020Y-6948486D01*
X6260020Y-6908486D02*
X6340020Y-6908486D01*
X6550020Y-6868486D02*
X6550020Y-6948486D01*
X6510020Y-6908486D02*
X6590020Y-6908486D01*
X7937500Y-7516500D02*
X7937500Y-7596500D01*
X7897500Y-7556500D02*
X7977500Y-7556500D01*
X9080500Y-5103500D02*
X9080500Y-5183500D01*
X9040500Y-5143500D02*
X9120500Y-5143500D01*
X9080500Y-5353500D02*
X9080500Y-5433500D01*
X9040500Y-5393500D02*
X9120500Y-5393500D01*
X9080500Y-6312000D02*
X9080500Y-6392000D01*
X9040500Y-6352000D02*
X9120500Y-6352000D01*
X9080500Y-6562000D02*
X9080500Y-6642000D01*
X9040500Y-6602000D02*
X9120500Y-6602000D01*
X9207500Y-7516500D02*
X9207500Y-7596500D01*
X9167500Y-7556500D02*
X9247500Y-7556500D01*
D15*
X6557088Y-5883755D02*
X6557088Y-5822689D01*
X6496022Y-5822689D01*
X6496022Y-5883755D01*
X6557088Y-5883755D01*
X6559583Y-4856533D02*
X6559583Y-4795467D01*
X6498517Y-4795467D01*
X6498517Y-4856533D01*
X6559583Y-4856533D01*
X6559583Y-5189070D02*
X6559583Y-5128003D01*
X6498517Y-5128003D01*
X6498517Y-5189070D01*
X6559583Y-5189070D01*
X6559583Y-5521606D02*
X6559583Y-5460540D01*
X6498517Y-5460540D01*
X6498517Y-5521606D01*
X6559583Y-5521606D01*
X6561748Y-6252009D02*
X6561748Y-6190943D01*
X6500682Y-6190943D01*
X6500682Y-6252009D01*
X6561748Y-6252009D01*
X6562644Y-6616941D02*
X6562644Y-6555875D01*
X6501577Y-6555875D01*
X6501577Y-6616941D01*
X6562644Y-6616941D01*
X7669608Y-5883755D02*
X7669608Y-5822689D01*
X7608542Y-5822689D01*
X7608542Y-5883755D01*
X7669608Y-5883755D01*
X7672103Y-4856533D02*
X7672103Y-4795467D01*
X7611037Y-4795467D01*
X7611037Y-4856533D01*
X7672103Y-4856533D01*
X7672103Y-5189070D02*
X7672103Y-5128003D01*
X7611037Y-5128003D01*
X7611037Y-5189070D01*
X7672103Y-5189070D01*
X7672103Y-5521606D02*
X7672103Y-5460540D01*
X7611037Y-5460540D01*
X7611037Y-5521606D01*
X7672103Y-5521606D01*
X7674268Y-6252009D02*
X7674268Y-6190943D01*
X7613202Y-6190943D01*
X7613202Y-6252009D01*
X7674268Y-6252009D01*
X7675164Y-6616941D02*
X7675164Y-6555875D01*
X7614097Y-6555875D01*
X7614097Y-6616941D01*
X7675164Y-6616941D01*
X7946463Y-8365101D02*
X7946463Y-8304035D01*
X7885397Y-8304035D01*
X7885397Y-8365101D01*
X7946463Y-8365101D01*
X7946463Y-8730033D02*
X7946463Y-8668967D01*
X7885397Y-8668967D01*
X7885397Y-8730033D01*
X7946463Y-8730033D01*
X7946463Y-9111033D02*
X7946463Y-9049967D01*
X7885397Y-9049967D01*
X7885397Y-9111033D01*
X7946463Y-9111033D01*
X7953290Y-8000169D02*
X7953290Y-7939102D01*
X7892223Y-7939102D01*
X7892223Y-8000169D01*
X7953290Y-8000169D01*
X9058983Y-8365101D02*
X9058983Y-8304035D01*
X8997917Y-8304035D01*
X8997917Y-8365101D01*
X9058983Y-8365101D01*
X9058983Y-8730033D02*
X9058983Y-8668967D01*
X8997917Y-8668967D01*
X8997917Y-8730033D01*
X9058983Y-8730033D01*
X9058983Y-9111033D02*
X9058983Y-9049967D01*
X8997917Y-9049967D01*
X8997917Y-9111033D01*
X9058983Y-9111033D01*
X9065810Y-8000169D02*
X9065810Y-7939102D01*
X9004744Y-7939102D01*
X9004744Y-8000169D01*
X9065810Y-8000169D01*
D16*
X7112000Y-8680500D02*
X7157000Y-8635500D01*
X7112000Y-8590500D01*
X7067000Y-8635500D01*
X7112000Y-8680500D01*
X7112000Y-8934500D02*
X7157000Y-8889500D01*
X7112000Y-8844500D01*
X7067000Y-8889500D01*
X7112000Y-8934500D01*
X9636500Y-6123250D02*
X9681500Y-6078250D01*
X9636500Y-6033250D01*
X9591500Y-6078250D01*
X9636500Y-6123250D01*
X9636500Y-6373250D02*
X9681500Y-6328250D01*
X9636500Y-6283250D01*
X9591500Y-6328250D01*
X9636500Y-6373250D01*
X9636500Y-6573250D02*
X9681500Y-6528250D01*
X9636500Y-6483250D01*
X9591500Y-6528250D01*
X9636500Y-6573250D01*
X9636500Y-6823250D02*
X9681500Y-6778250D01*
X9636500Y-6733250D01*
X9591500Y-6778250D01*
X9636500Y-6823250D01*
D10*
X4458500Y-7307000D02*
X4558500Y-7407000D01*
X4558500Y-7307000D02*
X4458500Y-7407000D01*
X4558500Y-7357000D02*
G75*
G03*
X4558500Y-7357000I-50000J0D01*
G01*
X4458500Y-8514000D02*
X4558500Y-8614000D01*
X4558500Y-8514000D02*
X4458500Y-8614000D01*
X4558500Y-8564000D02*
G75*
G03*
X4558500Y-8564000I-50000J0D01*
G01*
X5925208Y-8419674D02*
X6025208Y-8519674D01*
X6025208Y-8419674D02*
X5925208Y-8519674D01*
X6025208Y-8469674D02*
G75*
G03*
X6025208Y-8469674I-50000J0D01*
G01*
X5925208Y-8919674D02*
X6025208Y-9019674D01*
X6025208Y-8919674D02*
X5925208Y-9019674D01*
X6025208Y-8969674D02*
G75*
G03*
X6025208Y-8969674I-50000J0D01*
G01*
D17*
X5346332Y-6883780D02*
X5456332Y-6993780D01*
X5456332Y-6883780D02*
X5346332Y-6993780D01*
X5401332Y-6883780D02*
X5401332Y-6993780D01*
X5346332Y-6938780D02*
X5456332Y-6938780D01*
X5455500Y-7311000D02*
X5565500Y-7421000D01*
X5565500Y-7311000D02*
X5455500Y-7421000D01*
X5510500Y-7311000D02*
X5510500Y-7421000D01*
X5455500Y-7366000D02*
X5565500Y-7366000D01*
X5455500Y-7565000D02*
X5565500Y-7675000D01*
X5565500Y-7565000D02*
X5455500Y-7675000D01*
X5510500Y-7565000D02*
X5510500Y-7675000D01*
X5455500Y-7620000D02*
X5565500Y-7620000D01*
X5455500Y-7819000D02*
X5565500Y-7929000D01*
X5565500Y-7819000D02*
X5455500Y-7929000D01*
X5510500Y-7819000D02*
X5510500Y-7929000D01*
X5455500Y-7874000D02*
X5565500Y-7874000D01*
X5835500Y-7184000D02*
X5945500Y-7294000D01*
X5945500Y-7184000D02*
X5835500Y-7294000D01*
X5890500Y-7184000D02*
X5890500Y-7294000D01*
X5835500Y-7239000D02*
X5945500Y-7239000D01*
X5835500Y-7438000D02*
X5945500Y-7548000D01*
X5945500Y-7438000D02*
X5835500Y-7548000D01*
X5890500Y-7438000D02*
X5890500Y-7548000D01*
X5835500Y-7493000D02*
X5945500Y-7493000D01*
X5835500Y-7692000D02*
X5945500Y-7802000D01*
X5945500Y-7692000D02*
X5835500Y-7802000D01*
X5890500Y-7692000D02*
X5890500Y-7802000D01*
X5835500Y-7747000D02*
X5945500Y-7747000D01*
X5835500Y-7946000D02*
X5945500Y-8056000D01*
X5945500Y-7946000D02*
X5835500Y-8056000D01*
X5890500Y-7946000D02*
X5890500Y-8056000D01*
X5835500Y-8001000D02*
X5945500Y-8001000D01*
X5854332Y-6883780D02*
X5964332Y-6993780D01*
X5964332Y-6883780D02*
X5854332Y-6993780D01*
X5909332Y-6883780D02*
X5909332Y-6993780D01*
X5854332Y-6938780D02*
X5964332Y-6938780D01*
D18*
X2915750Y-4836500D02*
X3045750Y-4966500D01*
X3045750Y-4836500D02*
X2915750Y-4966500D01*
X3026712Y-4947462D02*
X3026712Y-4855538D01*
X2934788Y-4855538D01*
X2934788Y-4947462D01*
X3026712Y-4947462D01*
X2915750Y-5336500D02*
X3045750Y-5466500D01*
X3045750Y-5336500D02*
X2915750Y-5466500D01*
X3026712Y-5447462D02*
X3026712Y-5355538D01*
X2934788Y-5355538D01*
X2934788Y-5447462D01*
X3026712Y-5447462D01*
X2915750Y-5836500D02*
X3045750Y-5966500D01*
X3045750Y-5836500D02*
X2915750Y-5966500D01*
X3026712Y-5947462D02*
X3026712Y-5855538D01*
X2934788Y-5855538D01*
X2934788Y-5947462D01*
X3026712Y-5947462D01*
X2915750Y-6336500D02*
X3045750Y-6466500D01*
X3045750Y-6336500D02*
X2915750Y-6466500D01*
X3026712Y-6447462D02*
X3026712Y-6355538D01*
X2934788Y-6355538D01*
X2934788Y-6447462D01*
X3026712Y-6447462D01*
X2917841Y-8373079D02*
X3047841Y-8503079D01*
X3047841Y-8373079D02*
X2917841Y-8503079D01*
X3028803Y-8484041D02*
X3028803Y-8392116D01*
X2936879Y-8392116D01*
X2936879Y-8484041D01*
X3028803Y-8484041D01*
X2917841Y-8873079D02*
X3047841Y-9003079D01*
X3047841Y-8873079D02*
X2917841Y-9003079D01*
X3028803Y-8984041D02*
X3028803Y-8892116D01*
X2936879Y-8892116D01*
X2936879Y-8984041D01*
X3028803Y-8984041D01*
X10412500Y-7452000D02*
X10542500Y-7582000D01*
X10542500Y-7452000D02*
X10412500Y-7582000D01*
X10523462Y-7562962D02*
X10523462Y-7471038D01*
X10431538Y-7471038D01*
X10431538Y-7562962D01*
X10523462Y-7562962D01*
X10412500Y-7952000D02*
X10542500Y-8082000D01*
X10542500Y-7952000D02*
X10412500Y-8082000D01*
X10523462Y-8062962D02*
X10523462Y-7971038D01*
X10431538Y-7971038D01*
X10431538Y-8062962D01*
X10523462Y-8062962D01*
X10412500Y-8452000D02*
X10542500Y-8582000D01*
X10542500Y-8452000D02*
X10412500Y-8582000D01*
X10523462Y-8562962D02*
X10523462Y-8471038D01*
X10431538Y-8471038D01*
X10431538Y-8562962D01*
X10523462Y-8562962D01*
X10412500Y-8952000D02*
X10542500Y-9082000D01*
X10542500Y-8952000D02*
X10412500Y-9082000D01*
X10523462Y-9062962D02*
X10523462Y-8971038D01*
X10431538Y-8971038D01*
X10431538Y-9062962D01*
X10523462Y-9062962D01*
X10416250Y-4777000D02*
X10546250Y-4907000D01*
X10546250Y-4777000D02*
X10416250Y-4907000D01*
X10527212Y-4887962D02*
X10527212Y-4796038D01*
X10435288Y-4796038D01*
X10435288Y-4887962D01*
X10527212Y-4887962D01*
X10416250Y-5277000D02*
X10546250Y-5407000D01*
X10546250Y-5277000D02*
X10416250Y-5407000D01*
X10527212Y-5387962D02*
X10527212Y-5296038D01*
X10435288Y-5296038D01*
X10435288Y-5387962D01*
X10527212Y-5387962D01*
D19*
X9788500Y-5813250D02*
X10018500Y-6043250D01*
X10018500Y-5813250D02*
X9788500Y-6043250D01*
X9903500Y-6043250D02*
X10018500Y-5928250D01*
X9903500Y-5813250D01*
X9788500Y-5928250D01*
X9903500Y-6043250D01*
X9788500Y-6813250D02*
X10018500Y-7043250D01*
X10018500Y-6813250D02*
X9788500Y-7043250D01*
X9903500Y-7043250D02*
X10018500Y-6928250D01*
X9903500Y-6813250D01*
X9788500Y-6928250D01*
X9903500Y-7043250D01*
D11*
X2729119Y-9649976D02*
X2729119Y-9449976D01*
X2776738Y-9449976D01*
X2805309Y-9459500D01*
X2824357Y-9478548D01*
X2833881Y-9497595D01*
X2843405Y-9535690D01*
X2843405Y-9564262D01*
X2833881Y-9602357D01*
X2824357Y-9621405D01*
X2805309Y-9640452D01*
X2776738Y-9649976D01*
X2729119Y-9649976D01*
X2929119Y-9649976D02*
X2929119Y-9516643D01*
X2929119Y-9554738D02*
X2938643Y-9535690D01*
X2948167Y-9526167D01*
X2967214Y-9516643D01*
X2986262Y-9516643D01*
X3052928Y-9649976D02*
X3052928Y-9516643D01*
X3052928Y-9449976D02*
X3043405Y-9459500D01*
X3052928Y-9469024D01*
X3062452Y-9459500D01*
X3052928Y-9449976D01*
X3052928Y-9469024D01*
X3176738Y-9649976D02*
X3157690Y-9640452D01*
X3148167Y-9621405D01*
X3148167Y-9449976D01*
X3281500Y-9649976D02*
X3262452Y-9640452D01*
X3252928Y-9621405D01*
X3252928Y-9449976D01*
X3510071Y-9649976D02*
X3510071Y-9449976D01*
X3576738Y-9592833D01*
X3643405Y-9449976D01*
X3643405Y-9649976D01*
X3824357Y-9649976D02*
X3824357Y-9545214D01*
X3814833Y-9526167D01*
X3795786Y-9516643D01*
X3757690Y-9516643D01*
X3738643Y-9526167D01*
X3824357Y-9640452D02*
X3805309Y-9649976D01*
X3757690Y-9649976D01*
X3738643Y-9640452D01*
X3729119Y-9621405D01*
X3729119Y-9602357D01*
X3738643Y-9583310D01*
X3757690Y-9573786D01*
X3805309Y-9573786D01*
X3824357Y-9564262D01*
X3919595Y-9516643D02*
X3919595Y-9716643D01*
X3919595Y-9526167D02*
X3938643Y-9516643D01*
X3976738Y-9516643D01*
X3995786Y-9526167D01*
X4005309Y-9535690D01*
X4014833Y-9554738D01*
X4014833Y-9611881D01*
X4005309Y-9630929D01*
X3995786Y-9640452D01*
X3976738Y-9649976D01*
X3938643Y-9649976D01*
X3919595Y-9640452D01*
X4100548Y-9630929D02*
X4110071Y-9640452D01*
X4100548Y-9649976D01*
X4091024Y-9640452D01*
X4100548Y-9630929D01*
X4100548Y-9649976D01*
X4100548Y-9526167D02*
X4110071Y-9535690D01*
X4100548Y-9545214D01*
X4091024Y-9535690D01*
X4100548Y-9526167D01*
X4100548Y-9545214D01*
D12*
X2431500Y-9959500D02*
X2471500Y-9999500D01*
X2471500Y-9959500D02*
X2431500Y-9999500D01*
D11*
X2767214Y-9869976D02*
X2786262Y-9869976D01*
X2805309Y-9879500D01*
X2814833Y-9889024D01*
X2824357Y-9908071D01*
X2833881Y-9946167D01*
X2833881Y-9993786D01*
X2824357Y-10031881D01*
X2814833Y-10050929D01*
X2805309Y-10060452D01*
X2786262Y-10069976D01*
X2767214Y-10069976D01*
X2748167Y-10060452D01*
X2738643Y-10050929D01*
X2729119Y-10031881D01*
X2719595Y-9993786D01*
X2719595Y-9946167D01*
X2729119Y-9908071D01*
X2738643Y-9889024D01*
X2748167Y-9879500D01*
X2767214Y-9869976D01*
X2919595Y-10050929D02*
X2929119Y-10060452D01*
X2919595Y-10069976D01*
X2910071Y-10060452D01*
X2919595Y-10050929D01*
X2919595Y-10069976D01*
X3100548Y-9936643D02*
X3100548Y-10069976D01*
X3052928Y-9860452D02*
X3005309Y-10003310D01*
X3129119Y-10003310D01*
X3243405Y-9869976D02*
X3262452Y-9869976D01*
X3281500Y-9879500D01*
X3291024Y-9889024D01*
X3300548Y-9908071D01*
X3310071Y-9946167D01*
X3310071Y-9993786D01*
X3300548Y-10031881D01*
X3291024Y-10050929D01*
X3281500Y-10060452D01*
X3262452Y-10069976D01*
X3243405Y-10069976D01*
X3224357Y-10060452D01*
X3214833Y-10050929D01*
X3205309Y-10031881D01*
X3195786Y-9993786D01*
X3195786Y-9946167D01*
X3205309Y-9908071D01*
X3214833Y-9889024D01*
X3224357Y-9879500D01*
X3243405Y-9869976D01*
X3433881Y-9869976D02*
X3452928Y-9869976D01*
X3471976Y-9879500D01*
X3481500Y-9889024D01*
X3491024Y-9908071D01*
X3500548Y-9946167D01*
X3500548Y-9993786D01*
X3491024Y-10031881D01*
X3481500Y-10050929D01*
X3471976Y-10060452D01*
X3452928Y-10069976D01*
X3433881Y-10069976D01*
X3414833Y-10060452D01*
X3405309Y-10050929D01*
X3395786Y-10031881D01*
X3386262Y-9993786D01*
X3386262Y-9946167D01*
X3395786Y-9908071D01*
X3405309Y-9889024D01*
X3414833Y-9879500D01*
X3433881Y-9869976D01*
X3586262Y-10069976D02*
X3586262Y-9936643D01*
X3586262Y-9955690D02*
X3595786Y-9946167D01*
X3614833Y-9936643D01*
X3643405Y-9936643D01*
X3662452Y-9946167D01*
X3671976Y-9965214D01*
X3671976Y-10069976D01*
X3671976Y-9965214D02*
X3681500Y-9946167D01*
X3700548Y-9936643D01*
X3729119Y-9936643D01*
X3748167Y-9946167D01*
X3757690Y-9965214D01*
X3757690Y-10069976D01*
X3852928Y-10069976D02*
X3852928Y-9936643D01*
X3852928Y-9955690D02*
X3862452Y-9946167D01*
X3881500Y-9936643D01*
X3910071Y-9936643D01*
X3929119Y-9946167D01*
X3938643Y-9965214D01*
X3938643Y-10069976D01*
X3938643Y-9965214D02*
X3948167Y-9946167D01*
X3967214Y-9936643D01*
X3995786Y-9936643D01*
X4014833Y-9946167D01*
X4024357Y-9965214D01*
X4024357Y-10069976D01*
X4414833Y-9860452D02*
X4243405Y-10117595D01*
X4671976Y-9869976D02*
X4691024Y-9869976D01*
X4710071Y-9879500D01*
X4719595Y-9889024D01*
X4729119Y-9908071D01*
X4738643Y-9946167D01*
X4738643Y-9993786D01*
X4729119Y-10031881D01*
X4719595Y-10050929D01*
X4710071Y-10060452D01*
X4691024Y-10069976D01*
X4671976Y-10069976D01*
X4652929Y-10060452D01*
X4643405Y-10050929D01*
X4633881Y-10031881D01*
X4624357Y-9993786D01*
X4624357Y-9946167D01*
X4633881Y-9908071D01*
X4643405Y-9889024D01*
X4652929Y-9879500D01*
X4671976Y-9869976D01*
X4824357Y-10050929D02*
X4833881Y-10060452D01*
X4824357Y-10069976D01*
X4814833Y-10060452D01*
X4824357Y-10050929D01*
X4824357Y-10069976D01*
X4957690Y-9869976D02*
X4976738Y-9869976D01*
X4995786Y-9879500D01*
X5005310Y-9889024D01*
X5014833Y-9908071D01*
X5024357Y-9946167D01*
X5024357Y-9993786D01*
X5014833Y-10031881D01*
X5005310Y-10050929D01*
X4995786Y-10060452D01*
X4976738Y-10069976D01*
X4957690Y-10069976D01*
X4938643Y-10060452D01*
X4929119Y-10050929D01*
X4919595Y-10031881D01*
X4910071Y-9993786D01*
X4910071Y-9946167D01*
X4919595Y-9908071D01*
X4929119Y-9889024D01*
X4938643Y-9879500D01*
X4957690Y-9869976D01*
X5214833Y-10069976D02*
X5100548Y-10069976D01*
X5157690Y-10069976D02*
X5157690Y-9869976D01*
X5138643Y-9898548D01*
X5119595Y-9917595D01*
X5100548Y-9927119D01*
X5395786Y-9869976D02*
X5300548Y-9869976D01*
X5291024Y-9965214D01*
X5300548Y-9955690D01*
X5319595Y-9946167D01*
X5367214Y-9946167D01*
X5386262Y-9955690D01*
X5395786Y-9965214D01*
X5405310Y-9984262D01*
X5405310Y-10031881D01*
X5395786Y-10050929D01*
X5386262Y-10060452D01*
X5367214Y-10069976D01*
X5319595Y-10069976D01*
X5300548Y-10060452D01*
X5291024Y-10050929D01*
X5471976Y-9869976D02*
X5605309Y-9869976D01*
X5519595Y-10069976D01*
X5671976Y-9869976D02*
X5671976Y-9908071D01*
X5748167Y-9869976D02*
X5748167Y-9908071D01*
X6043405Y-10146167D02*
X6033881Y-10136643D01*
X6014833Y-10108071D01*
X6005309Y-10089024D01*
X5995786Y-10060452D01*
X5986262Y-10012833D01*
X5986262Y-9974738D01*
X5995786Y-9927119D01*
X6005309Y-9898548D01*
X6014833Y-9879500D01*
X6033881Y-9850929D01*
X6043405Y-9841405D01*
X6224357Y-10069976D02*
X6110071Y-10069976D01*
X6167214Y-10069976D02*
X6167214Y-9869976D01*
X6148167Y-9898548D01*
X6129119Y-9917595D01*
X6110071Y-9927119D01*
X6338643Y-9955690D02*
X6319595Y-9946167D01*
X6310071Y-9936643D01*
X6300548Y-9917595D01*
X6300548Y-9908071D01*
X6310071Y-9889024D01*
X6319595Y-9879500D01*
X6338643Y-9869976D01*
X6376738Y-9869976D01*
X6395786Y-9879500D01*
X6405309Y-9889024D01*
X6414833Y-9908071D01*
X6414833Y-9917595D01*
X6405309Y-9936643D01*
X6395786Y-9946167D01*
X6376738Y-9955690D01*
X6338643Y-9955690D01*
X6319595Y-9965214D01*
X6310071Y-9974738D01*
X6300548Y-9993786D01*
X6300548Y-10031881D01*
X6310071Y-10050929D01*
X6319595Y-10060452D01*
X6338643Y-10069976D01*
X6376738Y-10069976D01*
X6395786Y-10060452D01*
X6405309Y-10050929D01*
X6414833Y-10031881D01*
X6414833Y-9993786D01*
X6405309Y-9974738D01*
X6395786Y-9965214D01*
X6376738Y-9955690D01*
X6652928Y-10069976D02*
X6652928Y-9869976D01*
X6738643Y-10069976D02*
X6738643Y-9965214D01*
X6729119Y-9946167D01*
X6710071Y-9936643D01*
X6681500Y-9936643D01*
X6662452Y-9946167D01*
X6652928Y-9955690D01*
X6862452Y-10069976D02*
X6843405Y-10060452D01*
X6833881Y-10050929D01*
X6824357Y-10031881D01*
X6824357Y-9974738D01*
X6833881Y-9955690D01*
X6843405Y-9946167D01*
X6862452Y-9936643D01*
X6891024Y-9936643D01*
X6910071Y-9946167D01*
X6919595Y-9955690D01*
X6929119Y-9974738D01*
X6929119Y-10031881D01*
X6919595Y-10050929D01*
X6910071Y-10060452D01*
X6891024Y-10069976D01*
X6862452Y-10069976D01*
X7043405Y-10069976D02*
X7024357Y-10060452D01*
X7014833Y-10041405D01*
X7014833Y-9869976D01*
X7195786Y-10060452D02*
X7176738Y-10069976D01*
X7138643Y-10069976D01*
X7119595Y-10060452D01*
X7110071Y-10041405D01*
X7110071Y-9965214D01*
X7119595Y-9946167D01*
X7138643Y-9936643D01*
X7176738Y-9936643D01*
X7195786Y-9946167D01*
X7205309Y-9965214D01*
X7205309Y-9984262D01*
X7110071Y-10003310D01*
X7281500Y-10060452D02*
X7300548Y-10069976D01*
X7338643Y-10069976D01*
X7357690Y-10060452D01*
X7367214Y-10041405D01*
X7367214Y-10031881D01*
X7357690Y-10012833D01*
X7338643Y-10003310D01*
X7310071Y-10003310D01*
X7291024Y-9993786D01*
X7281500Y-9974738D01*
X7281500Y-9965214D01*
X7291024Y-9946167D01*
X7310071Y-9936643D01*
X7338643Y-9936643D01*
X7357690Y-9946167D01*
X7433881Y-10146167D02*
X7443405Y-10136643D01*
X7462452Y-10108071D01*
X7471976Y-10089024D01*
X7481500Y-10060452D01*
X7491024Y-10012833D01*
X7491024Y-9974738D01*
X7481500Y-9927119D01*
X7471976Y-9898548D01*
X7462452Y-9879500D01*
X7443405Y-9850929D01*
X7433881Y-9841405D01*
D13*
X2471500Y-10243500D02*
G75*
G03*
X2471500Y-10243500I-38100J0D01*
G01*
D11*
X2767214Y-10133976D02*
X2786262Y-10133976D01*
X2805309Y-10143500D01*
X2814833Y-10153024D01*
X2824357Y-10172071D01*
X2833881Y-10210167D01*
X2833881Y-10257786D01*
X2824357Y-10295881D01*
X2814833Y-10314929D01*
X2805309Y-10324452D01*
X2786262Y-10333976D01*
X2767214Y-10333976D01*
X2748167Y-10324452D01*
X2738643Y-10314929D01*
X2729119Y-10295881D01*
X2719595Y-10257786D01*
X2719595Y-10210167D01*
X2729119Y-10172071D01*
X2738643Y-10153024D01*
X2748167Y-10143500D01*
X2767214Y-10133976D01*
X2919595Y-10314929D02*
X2929119Y-10324452D01*
X2919595Y-10333976D01*
X2910071Y-10324452D01*
X2919595Y-10314929D01*
X2919595Y-10333976D01*
X2995786Y-10133976D02*
X3129119Y-10133976D01*
X3043405Y-10333976D01*
X3291024Y-10133976D02*
X3252928Y-10133976D01*
X3233881Y-10143500D01*
X3224357Y-10153024D01*
X3205309Y-10181595D01*
X3195786Y-10219690D01*
X3195786Y-10295881D01*
X3205309Y-10314929D01*
X3214833Y-10324452D01*
X3233881Y-10333976D01*
X3271976Y-10333976D01*
X3291024Y-10324452D01*
X3300548Y-10314929D01*
X3310071Y-10295881D01*
X3310071Y-10248262D01*
X3300548Y-10229214D01*
X3291024Y-10219690D01*
X3271976Y-10210167D01*
X3233881Y-10210167D01*
X3214833Y-10219690D01*
X3205309Y-10229214D01*
X3195786Y-10248262D01*
X3386262Y-10153024D02*
X3395786Y-10143500D01*
X3414833Y-10133976D01*
X3462452Y-10133976D01*
X3481500Y-10143500D01*
X3491024Y-10153024D01*
X3500548Y-10172071D01*
X3500548Y-10191119D01*
X3491024Y-10219690D01*
X3376738Y-10333976D01*
X3500548Y-10333976D01*
X3586262Y-10333976D02*
X3586262Y-10200643D01*
X3586262Y-10219690D02*
X3595786Y-10210167D01*
X3614833Y-10200643D01*
X3643405Y-10200643D01*
X3662452Y-10210167D01*
X3671976Y-10229214D01*
X3671976Y-10333976D01*
X3671976Y-10229214D02*
X3681500Y-10210167D01*
X3700548Y-10200643D01*
X3729119Y-10200643D01*
X3748167Y-10210167D01*
X3757690Y-10229214D01*
X3757690Y-10333976D01*
X3852928Y-10333976D02*
X3852928Y-10200643D01*
X3852928Y-10219690D02*
X3862452Y-10210167D01*
X3881500Y-10200643D01*
X3910071Y-10200643D01*
X3929119Y-10210167D01*
X3938643Y-10229214D01*
X3938643Y-10333976D01*
X3938643Y-10229214D02*
X3948167Y-10210167D01*
X3967214Y-10200643D01*
X3995786Y-10200643D01*
X4014833Y-10210167D01*
X4024357Y-10229214D01*
X4024357Y-10333976D01*
X4414833Y-10124452D02*
X4243405Y-10381595D01*
X4671976Y-10133976D02*
X4691024Y-10133976D01*
X4710071Y-10143500D01*
X4719595Y-10153024D01*
X4729119Y-10172071D01*
X4738643Y-10210167D01*
X4738643Y-10257786D01*
X4729119Y-10295881D01*
X4719595Y-10314929D01*
X4710071Y-10324452D01*
X4691024Y-10333976D01*
X4671976Y-10333976D01*
X4652929Y-10324452D01*
X4643405Y-10314929D01*
X4633881Y-10295881D01*
X4624357Y-10257786D01*
X4624357Y-10210167D01*
X4633881Y-10172071D01*
X4643405Y-10153024D01*
X4652929Y-10143500D01*
X4671976Y-10133976D01*
X4824357Y-10314929D02*
X4833881Y-10324452D01*
X4824357Y-10333976D01*
X4814833Y-10324452D01*
X4824357Y-10314929D01*
X4824357Y-10333976D01*
X4957690Y-10133976D02*
X4976738Y-10133976D01*
X4995786Y-10143500D01*
X5005310Y-10153024D01*
X5014833Y-10172071D01*
X5024357Y-10210167D01*
X5024357Y-10257786D01*
X5014833Y-10295881D01*
X5005310Y-10314929D01*
X4995786Y-10324452D01*
X4976738Y-10333976D01*
X4957690Y-10333976D01*
X4938643Y-10324452D01*
X4929119Y-10314929D01*
X4919595Y-10295881D01*
X4910071Y-10257786D01*
X4910071Y-10210167D01*
X4919595Y-10172071D01*
X4929119Y-10153024D01*
X4938643Y-10143500D01*
X4957690Y-10133976D01*
X5091024Y-10133976D02*
X5214833Y-10133976D01*
X5148167Y-10210167D01*
X5176738Y-10210167D01*
X5195786Y-10219690D01*
X5205310Y-10229214D01*
X5214833Y-10248262D01*
X5214833Y-10295881D01*
X5205310Y-10314929D01*
X5195786Y-10324452D01*
X5176738Y-10333976D01*
X5119595Y-10333976D01*
X5100548Y-10324452D01*
X5091024Y-10314929D01*
X5338643Y-10133976D02*
X5357690Y-10133976D01*
X5376738Y-10143500D01*
X5386262Y-10153024D01*
X5395786Y-10172071D01*
X5405310Y-10210167D01*
X5405310Y-10257786D01*
X5395786Y-10295881D01*
X5386262Y-10314929D01*
X5376738Y-10324452D01*
X5357690Y-10333976D01*
X5338643Y-10333976D01*
X5319595Y-10324452D01*
X5310071Y-10314929D01*
X5300548Y-10295881D01*
X5291024Y-10257786D01*
X5291024Y-10210167D01*
X5300548Y-10172071D01*
X5310071Y-10153024D01*
X5319595Y-10143500D01*
X5338643Y-10133976D01*
X5529119Y-10133976D02*
X5548167Y-10133976D01*
X5567214Y-10143500D01*
X5576738Y-10153024D01*
X5586262Y-10172071D01*
X5595786Y-10210167D01*
X5595786Y-10257786D01*
X5586262Y-10295881D01*
X5576738Y-10314929D01*
X5567214Y-10324452D01*
X5548167Y-10333976D01*
X5529119Y-10333976D01*
X5510071Y-10324452D01*
X5500548Y-10314929D01*
X5491024Y-10295881D01*
X5481500Y-10257786D01*
X5481500Y-10210167D01*
X5491024Y-10172071D01*
X5500548Y-10153024D01*
X5510071Y-10143500D01*
X5529119Y-10133976D01*
X5671976Y-10133976D02*
X5671976Y-10172071D01*
X5748167Y-10133976D02*
X5748167Y-10172071D01*
X6043405Y-10410167D02*
X6033881Y-10400643D01*
X6014833Y-10372071D01*
X6005309Y-10353024D01*
X5995786Y-10324452D01*
X5986262Y-10276833D01*
X5986262Y-10238738D01*
X5995786Y-10191119D01*
X6005309Y-10162548D01*
X6014833Y-10143500D01*
X6033881Y-10114929D01*
X6043405Y-10105405D01*
X6224357Y-10333976D02*
X6110071Y-10333976D01*
X6167214Y-10333976D02*
X6167214Y-10133976D01*
X6148167Y-10162548D01*
X6129119Y-10181595D01*
X6110071Y-10191119D01*
X6395786Y-10133976D02*
X6357690Y-10133976D01*
X6338643Y-10143500D01*
X6329119Y-10153024D01*
X6310071Y-10181595D01*
X6300548Y-10219690D01*
X6300548Y-10295881D01*
X6310071Y-10314929D01*
X6319595Y-10324452D01*
X6338643Y-10333976D01*
X6376738Y-10333976D01*
X6395786Y-10324452D01*
X6405309Y-10314929D01*
X6414833Y-10295881D01*
X6414833Y-10248262D01*
X6405309Y-10229214D01*
X6395786Y-10219690D01*
X6376738Y-10210167D01*
X6338643Y-10210167D01*
X6319595Y-10219690D01*
X6310071Y-10229214D01*
X6300548Y-10248262D01*
X6652928Y-10333976D02*
X6652928Y-10133976D01*
X6738643Y-10333976D02*
X6738643Y-10229214D01*
X6729119Y-10210167D01*
X6710071Y-10200643D01*
X6681500Y-10200643D01*
X6662452Y-10210167D01*
X6652928Y-10219690D01*
X6862452Y-10333976D02*
X6843405Y-10324452D01*
X6833881Y-10314929D01*
X6824357Y-10295881D01*
X6824357Y-10238738D01*
X6833881Y-10219690D01*
X6843405Y-10210167D01*
X6862452Y-10200643D01*
X6891024Y-10200643D01*
X6910071Y-10210167D01*
X6919595Y-10219690D01*
X6929119Y-10238738D01*
X6929119Y-10295881D01*
X6919595Y-10314929D01*
X6910071Y-10324452D01*
X6891024Y-10333976D01*
X6862452Y-10333976D01*
X7043405Y-10333976D02*
X7024357Y-10324452D01*
X7014833Y-10305405D01*
X7014833Y-10133976D01*
X7195786Y-10324452D02*
X7176738Y-10333976D01*
X7138643Y-10333976D01*
X7119595Y-10324452D01*
X7110071Y-10305405D01*
X7110071Y-10229214D01*
X7119595Y-10210167D01*
X7138643Y-10200643D01*
X7176738Y-10200643D01*
X7195786Y-10210167D01*
X7205309Y-10229214D01*
X7205309Y-10248262D01*
X7110071Y-10267310D01*
X7281500Y-10324452D02*
X7300548Y-10333976D01*
X7338643Y-10333976D01*
X7357690Y-10324452D01*
X7367214Y-10305405D01*
X7367214Y-10295881D01*
X7357690Y-10276833D01*
X7338643Y-10267310D01*
X7310071Y-10267310D01*
X7291024Y-10257786D01*
X7281500Y-10238738D01*
X7281500Y-10229214D01*
X7291024Y-10210167D01*
X7310071Y-10200643D01*
X7338643Y-10200643D01*
X7357690Y-10210167D01*
X7433881Y-10410167D02*
X7443405Y-10400643D01*
X7462452Y-10372071D01*
X7471976Y-10353024D01*
X7481500Y-10324452D01*
X7491024Y-10276833D01*
X7491024Y-10238738D01*
X7481500Y-10191119D01*
X7471976Y-10162548D01*
X7462452Y-10143500D01*
X7443405Y-10114929D01*
X7433881Y-10105405D01*
D14*
X2431500Y-10467500D02*
X2431500Y-10547500D01*
X2391500Y-10507500D02*
X2471500Y-10507500D01*
D11*
X2767214Y-10397976D02*
X2786262Y-10397976D01*
X2805309Y-10407500D01*
X2814833Y-10417024D01*
X2824357Y-10436071D01*
X2833881Y-10474167D01*
X2833881Y-10521786D01*
X2824357Y-10559881D01*
X2814833Y-10578929D01*
X2805309Y-10588452D01*
X2786262Y-10597976D01*
X2767214Y-10597976D01*
X2748167Y-10588452D01*
X2738643Y-10578929D01*
X2729119Y-10559881D01*
X2719595Y-10521786D01*
X2719595Y-10474167D01*
X2729119Y-10436071D01*
X2738643Y-10417024D01*
X2748167Y-10407500D01*
X2767214Y-10397976D01*
X2919595Y-10578929D02*
X2929119Y-10588452D01*
X2919595Y-10597976D01*
X2910071Y-10588452D01*
X2919595Y-10578929D01*
X2919595Y-10597976D01*
X3043405Y-10483690D02*
X3024357Y-10474167D01*
X3014833Y-10464643D01*
X3005309Y-10445595D01*
X3005309Y-10436071D01*
X3014833Y-10417024D01*
X3024357Y-10407500D01*
X3043405Y-10397976D01*
X3081500Y-10397976D01*
X3100548Y-10407500D01*
X3110071Y-10417024D01*
X3119595Y-10436071D01*
X3119595Y-10445595D01*
X3110071Y-10464643D01*
X3100548Y-10474167D01*
X3081500Y-10483690D01*
X3043405Y-10483690D01*
X3024357Y-10493214D01*
X3014833Y-10502738D01*
X3005309Y-10521786D01*
X3005309Y-10559881D01*
X3014833Y-10578929D01*
X3024357Y-10588452D01*
X3043405Y-10597976D01*
X3081500Y-10597976D01*
X3100548Y-10588452D01*
X3110071Y-10578929D01*
X3119595Y-10559881D01*
X3119595Y-10521786D01*
X3110071Y-10502738D01*
X3100548Y-10493214D01*
X3081500Y-10483690D01*
X3243405Y-10397976D02*
X3262452Y-10397976D01*
X3281500Y-10407500D01*
X3291024Y-10417024D01*
X3300548Y-10436071D01*
X3310071Y-10474167D01*
X3310071Y-10521786D01*
X3300548Y-10559881D01*
X3291024Y-10578929D01*
X3281500Y-10588452D01*
X3262452Y-10597976D01*
X3243405Y-10597976D01*
X3224357Y-10588452D01*
X3214833Y-10578929D01*
X3205309Y-10559881D01*
X3195786Y-10521786D01*
X3195786Y-10474167D01*
X3205309Y-10436071D01*
X3214833Y-10417024D01*
X3224357Y-10407500D01*
X3243405Y-10397976D01*
X3433881Y-10397976D02*
X3452928Y-10397976D01*
X3471976Y-10407500D01*
X3481500Y-10417024D01*
X3491024Y-10436071D01*
X3500548Y-10474167D01*
X3500548Y-10521786D01*
X3491024Y-10559881D01*
X3481500Y-10578929D01*
X3471976Y-10588452D01*
X3452928Y-10597976D01*
X3433881Y-10597976D01*
X3414833Y-10588452D01*
X3405309Y-10578929D01*
X3395786Y-10559881D01*
X3386262Y-10521786D01*
X3386262Y-10474167D01*
X3395786Y-10436071D01*
X3405309Y-10417024D01*
X3414833Y-10407500D01*
X3433881Y-10397976D01*
X3586262Y-10597976D02*
X3586262Y-10464643D01*
X3586262Y-10483690D02*
X3595786Y-10474167D01*
X3614833Y-10464643D01*
X3643405Y-10464643D01*
X3662452Y-10474167D01*
X3671976Y-10493214D01*
X3671976Y-10597976D01*
X3671976Y-10493214D02*
X3681500Y-10474167D01*
X3700548Y-10464643D01*
X3729119Y-10464643D01*
X3748167Y-10474167D01*
X3757690Y-10493214D01*
X3757690Y-10597976D01*
X3852928Y-10597976D02*
X3852928Y-10464643D01*
X3852928Y-10483690D02*
X3862452Y-10474167D01*
X3881500Y-10464643D01*
X3910071Y-10464643D01*
X3929119Y-10474167D01*
X3938643Y-10493214D01*
X3938643Y-10597976D01*
X3938643Y-10493214D02*
X3948167Y-10474167D01*
X3967214Y-10464643D01*
X3995786Y-10464643D01*
X4014833Y-10474167D01*
X4024357Y-10493214D01*
X4024357Y-10597976D01*
X4414833Y-10388452D02*
X4243405Y-10645595D01*
X4671976Y-10397976D02*
X4691024Y-10397976D01*
X4710071Y-10407500D01*
X4719595Y-10417024D01*
X4729119Y-10436071D01*
X4738643Y-10474167D01*
X4738643Y-10521786D01*
X4729119Y-10559881D01*
X4719595Y-10578929D01*
X4710071Y-10588452D01*
X4691024Y-10597976D01*
X4671976Y-10597976D01*
X4652929Y-10588452D01*
X4643405Y-10578929D01*
X4633881Y-10559881D01*
X4624357Y-10521786D01*
X4624357Y-10474167D01*
X4633881Y-10436071D01*
X4643405Y-10417024D01*
X4652929Y-10407500D01*
X4671976Y-10397976D01*
X4824357Y-10578929D02*
X4833881Y-10588452D01*
X4824357Y-10597976D01*
X4814833Y-10588452D01*
X4824357Y-10578929D01*
X4824357Y-10597976D01*
X4957690Y-10397976D02*
X4976738Y-10397976D01*
X4995786Y-10407500D01*
X5005310Y-10417024D01*
X5014833Y-10436071D01*
X5024357Y-10474167D01*
X5024357Y-10521786D01*
X5014833Y-10559881D01*
X5005310Y-10578929D01*
X4995786Y-10588452D01*
X4976738Y-10597976D01*
X4957690Y-10597976D01*
X4938643Y-10588452D01*
X4929119Y-10578929D01*
X4919595Y-10559881D01*
X4910071Y-10521786D01*
X4910071Y-10474167D01*
X4919595Y-10436071D01*
X4929119Y-10417024D01*
X4938643Y-10407500D01*
X4957690Y-10397976D01*
X5091024Y-10397976D02*
X5214833Y-10397976D01*
X5148167Y-10474167D01*
X5176738Y-10474167D01*
X5195786Y-10483690D01*
X5205310Y-10493214D01*
X5214833Y-10512262D01*
X5214833Y-10559881D01*
X5205310Y-10578929D01*
X5195786Y-10588452D01*
X5176738Y-10597976D01*
X5119595Y-10597976D01*
X5100548Y-10588452D01*
X5091024Y-10578929D01*
X5405310Y-10597976D02*
X5291024Y-10597976D01*
X5348167Y-10597976D02*
X5348167Y-10397976D01*
X5329119Y-10426548D01*
X5310071Y-10445595D01*
X5291024Y-10455119D01*
X5586262Y-10397976D02*
X5491024Y-10397976D01*
X5481500Y-10493214D01*
X5491024Y-10483690D01*
X5510071Y-10474167D01*
X5557690Y-10474167D01*
X5576738Y-10483690D01*
X5586262Y-10493214D01*
X5595786Y-10512262D01*
X5595786Y-10559881D01*
X5586262Y-10578929D01*
X5576738Y-10588452D01*
X5557690Y-10597976D01*
X5510071Y-10597976D01*
X5491024Y-10588452D01*
X5481500Y-10578929D01*
X5671976Y-10397976D02*
X5671976Y-10436071D01*
X5748167Y-10397976D02*
X5748167Y-10436071D01*
X6043405Y-10674167D02*
X6033881Y-10664643D01*
X6014833Y-10636071D01*
X6005309Y-10617024D01*
X5995786Y-10588452D01*
X5986262Y-10540833D01*
X5986262Y-10502738D01*
X5995786Y-10455119D01*
X6005309Y-10426548D01*
X6014833Y-10407500D01*
X6033881Y-10378929D01*
X6043405Y-10369405D01*
X6224357Y-10597976D02*
X6110071Y-10597976D01*
X6167214Y-10597976D02*
X6167214Y-10397976D01*
X6148167Y-10426548D01*
X6129119Y-10445595D01*
X6110071Y-10455119D01*
X6300548Y-10417024D02*
X6310071Y-10407500D01*
X6329119Y-10397976D01*
X6376738Y-10397976D01*
X6395786Y-10407500D01*
X6405309Y-10417024D01*
X6414833Y-10436071D01*
X6414833Y-10455119D01*
X6405309Y-10483690D01*
X6291024Y-10597976D01*
X6414833Y-10597976D01*
X6652928Y-10597976D02*
X6652928Y-10397976D01*
X6738643Y-10597976D02*
X6738643Y-10493214D01*
X6729119Y-10474167D01*
X6710071Y-10464643D01*
X6681500Y-10464643D01*
X6662452Y-10474167D01*
X6652928Y-10483690D01*
X6862452Y-10597976D02*
X6843405Y-10588452D01*
X6833881Y-10578929D01*
X6824357Y-10559881D01*
X6824357Y-10502738D01*
X6833881Y-10483690D01*
X6843405Y-10474167D01*
X6862452Y-10464643D01*
X6891024Y-10464643D01*
X6910071Y-10474167D01*
X6919595Y-10483690D01*
X6929119Y-10502738D01*
X6929119Y-10559881D01*
X6919595Y-10578929D01*
X6910071Y-10588452D01*
X6891024Y-10597976D01*
X6862452Y-10597976D01*
X7043405Y-10597976D02*
X7024357Y-10588452D01*
X7014833Y-10569405D01*
X7014833Y-10397976D01*
X7195786Y-10588452D02*
X7176738Y-10597976D01*
X7138643Y-10597976D01*
X7119595Y-10588452D01*
X7110071Y-10569405D01*
X7110071Y-10493214D01*
X7119595Y-10474167D01*
X7138643Y-10464643D01*
X7176738Y-10464643D01*
X7195786Y-10474167D01*
X7205309Y-10493214D01*
X7205309Y-10512262D01*
X7110071Y-10531310D01*
X7281500Y-10588452D02*
X7300548Y-10597976D01*
X7338643Y-10597976D01*
X7357690Y-10588452D01*
X7367214Y-10569405D01*
X7367214Y-10559881D01*
X7357690Y-10540833D01*
X7338643Y-10531310D01*
X7310071Y-10531310D01*
X7291024Y-10521786D01*
X7281500Y-10502738D01*
X7281500Y-10493214D01*
X7291024Y-10474167D01*
X7310071Y-10464643D01*
X7338643Y-10464643D01*
X7357690Y-10474167D01*
X7433881Y-10674167D02*
X7443405Y-10664643D01*
X7462452Y-10636071D01*
X7471976Y-10617024D01*
X7481500Y-10588452D01*
X7491024Y-10540833D01*
X7491024Y-10502738D01*
X7481500Y-10455119D01*
X7471976Y-10426548D01*
X7462452Y-10407500D01*
X7443405Y-10378929D01*
X7433881Y-10369405D01*
D15*
X2458853Y-10802033D02*
X2458853Y-10740967D01*
X2397787Y-10740967D01*
X2397787Y-10802033D01*
X2458853Y-10802033D01*
D11*
X2767214Y-10661976D02*
X2786262Y-10661976D01*
X2805309Y-10671500D01*
X2814833Y-10681024D01*
X2824357Y-10700071D01*
X2833881Y-10738167D01*
X2833881Y-10785786D01*
X2824357Y-10823881D01*
X2814833Y-10842929D01*
X2805309Y-10852452D01*
X2786262Y-10861976D01*
X2767214Y-10861976D01*
X2748167Y-10852452D01*
X2738643Y-10842929D01*
X2729119Y-10823881D01*
X2719595Y-10785786D01*
X2719595Y-10738167D01*
X2729119Y-10700071D01*
X2738643Y-10681024D01*
X2748167Y-10671500D01*
X2767214Y-10661976D01*
X2919595Y-10842929D02*
X2929119Y-10852452D01*
X2919595Y-10861976D01*
X2910071Y-10852452D01*
X2919595Y-10842929D01*
X2919595Y-10861976D01*
X3043405Y-10747690D02*
X3024357Y-10738167D01*
X3014833Y-10728643D01*
X3005309Y-10709595D01*
X3005309Y-10700071D01*
X3014833Y-10681024D01*
X3024357Y-10671500D01*
X3043405Y-10661976D01*
X3081500Y-10661976D01*
X3100548Y-10671500D01*
X3110071Y-10681024D01*
X3119595Y-10700071D01*
X3119595Y-10709595D01*
X3110071Y-10728643D01*
X3100548Y-10738167D01*
X3081500Y-10747690D01*
X3043405Y-10747690D01*
X3024357Y-10757214D01*
X3014833Y-10766738D01*
X3005309Y-10785786D01*
X3005309Y-10823881D01*
X3014833Y-10842929D01*
X3024357Y-10852452D01*
X3043405Y-10861976D01*
X3081500Y-10861976D01*
X3100548Y-10852452D01*
X3110071Y-10842929D01*
X3119595Y-10823881D01*
X3119595Y-10785786D01*
X3110071Y-10766738D01*
X3100548Y-10757214D01*
X3081500Y-10747690D01*
X3291024Y-10661976D02*
X3252928Y-10661976D01*
X3233881Y-10671500D01*
X3224357Y-10681024D01*
X3205309Y-10709595D01*
X3195786Y-10747690D01*
X3195786Y-10823881D01*
X3205309Y-10842929D01*
X3214833Y-10852452D01*
X3233881Y-10861976D01*
X3271976Y-10861976D01*
X3291024Y-10852452D01*
X3300548Y-10842929D01*
X3310071Y-10823881D01*
X3310071Y-10776262D01*
X3300548Y-10757214D01*
X3291024Y-10747690D01*
X3271976Y-10738167D01*
X3233881Y-10738167D01*
X3214833Y-10747690D01*
X3205309Y-10757214D01*
X3195786Y-10776262D01*
X3481500Y-10728643D02*
X3481500Y-10861976D01*
X3433881Y-10652452D02*
X3386262Y-10795310D01*
X3510071Y-10795310D01*
X3586262Y-10861976D02*
X3586262Y-10728643D01*
X3586262Y-10747690D02*
X3595786Y-10738167D01*
X3614833Y-10728643D01*
X3643405Y-10728643D01*
X3662452Y-10738167D01*
X3671976Y-10757214D01*
X3671976Y-10861976D01*
X3671976Y-10757214D02*
X3681500Y-10738167D01*
X3700548Y-10728643D01*
X3729119Y-10728643D01*
X3748167Y-10738167D01*
X3757690Y-10757214D01*
X3757690Y-10861976D01*
X3852928Y-10861976D02*
X3852928Y-10728643D01*
X3852928Y-10747690D02*
X3862452Y-10738167D01*
X3881500Y-10728643D01*
X3910071Y-10728643D01*
X3929119Y-10738167D01*
X3938643Y-10757214D01*
X3938643Y-10861976D01*
X3938643Y-10757214D02*
X3948167Y-10738167D01*
X3967214Y-10728643D01*
X3995786Y-10728643D01*
X4014833Y-10738167D01*
X4024357Y-10757214D01*
X4024357Y-10861976D01*
X4414833Y-10652452D02*
X4243405Y-10909595D01*
X4671976Y-10661976D02*
X4691024Y-10661976D01*
X4710071Y-10671500D01*
X4719595Y-10681024D01*
X4729119Y-10700071D01*
X4738643Y-10738167D01*
X4738643Y-10785786D01*
X4729119Y-10823881D01*
X4719595Y-10842929D01*
X4710071Y-10852452D01*
X4691024Y-10861976D01*
X4671976Y-10861976D01*
X4652929Y-10852452D01*
X4643405Y-10842929D01*
X4633881Y-10823881D01*
X4624357Y-10785786D01*
X4624357Y-10738167D01*
X4633881Y-10700071D01*
X4643405Y-10681024D01*
X4652929Y-10671500D01*
X4671976Y-10661976D01*
X4824357Y-10842929D02*
X4833881Y-10852452D01*
X4824357Y-10861976D01*
X4814833Y-10852452D01*
X4824357Y-10842929D01*
X4824357Y-10861976D01*
X4957690Y-10661976D02*
X4976738Y-10661976D01*
X4995786Y-10671500D01*
X5005310Y-10681024D01*
X5014833Y-10700071D01*
X5024357Y-10738167D01*
X5024357Y-10785786D01*
X5014833Y-10823881D01*
X5005310Y-10842929D01*
X4995786Y-10852452D01*
X4976738Y-10861976D01*
X4957690Y-10861976D01*
X4938643Y-10852452D01*
X4929119Y-10842929D01*
X4919595Y-10823881D01*
X4910071Y-10785786D01*
X4910071Y-10738167D01*
X4919595Y-10700071D01*
X4929119Y-10681024D01*
X4938643Y-10671500D01*
X4957690Y-10661976D01*
X5091024Y-10661976D02*
X5214833Y-10661976D01*
X5148167Y-10738167D01*
X5176738Y-10738167D01*
X5195786Y-10747690D01*
X5205310Y-10757214D01*
X5214833Y-10776262D01*
X5214833Y-10823881D01*
X5205310Y-10842929D01*
X5195786Y-10852452D01*
X5176738Y-10861976D01*
X5119595Y-10861976D01*
X5100548Y-10852452D01*
X5091024Y-10842929D01*
X5386262Y-10728643D02*
X5386262Y-10861976D01*
X5338643Y-10652452D02*
X5291024Y-10795310D01*
X5414833Y-10795310D01*
X5529119Y-10661976D02*
X5548167Y-10661976D01*
X5567214Y-10671500D01*
X5576738Y-10681024D01*
X5586262Y-10700071D01*
X5595786Y-10738167D01*
X5595786Y-10785786D01*
X5586262Y-10823881D01*
X5576738Y-10842929D01*
X5567214Y-10852452D01*
X5548167Y-10861976D01*
X5529119Y-10861976D01*
X5510071Y-10852452D01*
X5500548Y-10842929D01*
X5491024Y-10823881D01*
X5481500Y-10785786D01*
X5481500Y-10738167D01*
X5491024Y-10700071D01*
X5500548Y-10681024D01*
X5510071Y-10671500D01*
X5529119Y-10661976D01*
X5671976Y-10661976D02*
X5671976Y-10700071D01*
X5748167Y-10661976D02*
X5748167Y-10700071D01*
X6043405Y-10938167D02*
X6033881Y-10928643D01*
X6014833Y-10900071D01*
X6005309Y-10881024D01*
X5995786Y-10852452D01*
X5986262Y-10804833D01*
X5986262Y-10766738D01*
X5995786Y-10719119D01*
X6005309Y-10690548D01*
X6014833Y-10671500D01*
X6033881Y-10642929D01*
X6043405Y-10633405D01*
X6110071Y-10681024D02*
X6119595Y-10671500D01*
X6138643Y-10661976D01*
X6186262Y-10661976D01*
X6205309Y-10671500D01*
X6214833Y-10681024D01*
X6224357Y-10700071D01*
X6224357Y-10719119D01*
X6214833Y-10747690D01*
X6100548Y-10861976D01*
X6224357Y-10861976D01*
X6348167Y-10661976D02*
X6367214Y-10661976D01*
X6386262Y-10671500D01*
X6395786Y-10681024D01*
X6405309Y-10700071D01*
X6414833Y-10738167D01*
X6414833Y-10785786D01*
X6405309Y-10823881D01*
X6395786Y-10842929D01*
X6386262Y-10852452D01*
X6367214Y-10861976D01*
X6348167Y-10861976D01*
X6329119Y-10852452D01*
X6319595Y-10842929D01*
X6310071Y-10823881D01*
X6300548Y-10785786D01*
X6300548Y-10738167D01*
X6310071Y-10700071D01*
X6319595Y-10681024D01*
X6329119Y-10671500D01*
X6348167Y-10661976D01*
X6652928Y-10861976D02*
X6652928Y-10661976D01*
X6738643Y-10861976D02*
X6738643Y-10757214D01*
X6729119Y-10738167D01*
X6710071Y-10728643D01*
X6681500Y-10728643D01*
X6662452Y-10738167D01*
X6652928Y-10747690D01*
X6862452Y-10861976D02*
X6843405Y-10852452D01*
X6833881Y-10842929D01*
X6824357Y-10823881D01*
X6824357Y-10766738D01*
X6833881Y-10747690D01*
X6843405Y-10738167D01*
X6862452Y-10728643D01*
X6891024Y-10728643D01*
X6910071Y-10738167D01*
X6919595Y-10747690D01*
X6929119Y-10766738D01*
X6929119Y-10823881D01*
X6919595Y-10842929D01*
X6910071Y-10852452D01*
X6891024Y-10861976D01*
X6862452Y-10861976D01*
X7043405Y-10861976D02*
X7024357Y-10852452D01*
X7014833Y-10833405D01*
X7014833Y-10661976D01*
X7195786Y-10852452D02*
X7176738Y-10861976D01*
X7138643Y-10861976D01*
X7119595Y-10852452D01*
X7110071Y-10833405D01*
X7110071Y-10757214D01*
X7119595Y-10738167D01*
X7138643Y-10728643D01*
X7176738Y-10728643D01*
X7195786Y-10738167D01*
X7205309Y-10757214D01*
X7205309Y-10776262D01*
X7110071Y-10795310D01*
X7281500Y-10852452D02*
X7300548Y-10861976D01*
X7338643Y-10861976D01*
X7357690Y-10852452D01*
X7367214Y-10833405D01*
X7367214Y-10823881D01*
X7357690Y-10804833D01*
X7338643Y-10795310D01*
X7310071Y-10795310D01*
X7291024Y-10785786D01*
X7281500Y-10766738D01*
X7281500Y-10757214D01*
X7291024Y-10738167D01*
X7310071Y-10728643D01*
X7338643Y-10728643D01*
X7357690Y-10738167D01*
X7433881Y-10938167D02*
X7443405Y-10928643D01*
X7462452Y-10900071D01*
X7471976Y-10881024D01*
X7481500Y-10852452D01*
X7491024Y-10804833D01*
X7491024Y-10766738D01*
X7481500Y-10719119D01*
X7471976Y-10690548D01*
X7462452Y-10671500D01*
X7443405Y-10642929D01*
X7433881Y-10633405D01*
D16*
X2426500Y-11080500D02*
X2471500Y-11035500D01*
X2426500Y-10990500D01*
X2381500Y-11035500D01*
X2426500Y-11080500D01*
D11*
X2767214Y-10925976D02*
X2786262Y-10925976D01*
X2805309Y-10935500D01*
X2814833Y-10945024D01*
X2824357Y-10964071D01*
X2833881Y-11002167D01*
X2833881Y-11049786D01*
X2824357Y-11087881D01*
X2814833Y-11106929D01*
X2805309Y-11116452D01*
X2786262Y-11125976D01*
X2767214Y-11125976D01*
X2748167Y-11116452D01*
X2738643Y-11106929D01*
X2729119Y-11087881D01*
X2719595Y-11049786D01*
X2719595Y-11002167D01*
X2729119Y-10964071D01*
X2738643Y-10945024D01*
X2748167Y-10935500D01*
X2767214Y-10925976D01*
X2919595Y-11106929D02*
X2929119Y-11116452D01*
X2919595Y-11125976D01*
X2910071Y-11116452D01*
X2919595Y-11106929D01*
X2919595Y-11125976D01*
X3024357Y-11125976D02*
X3062452Y-11125976D01*
X3081500Y-11116452D01*
X3091024Y-11106929D01*
X3110071Y-11078357D01*
X3119595Y-11040262D01*
X3119595Y-10964071D01*
X3110071Y-10945024D01*
X3100548Y-10935500D01*
X3081500Y-10925976D01*
X3043405Y-10925976D01*
X3024357Y-10935500D01*
X3014833Y-10945024D01*
X3005309Y-10964071D01*
X3005309Y-11011690D01*
X3014833Y-11030738D01*
X3024357Y-11040262D01*
X3043405Y-11049786D01*
X3081500Y-11049786D01*
X3100548Y-11040262D01*
X3110071Y-11030738D01*
X3119595Y-11011690D01*
X3243405Y-10925976D02*
X3262452Y-10925976D01*
X3281500Y-10935500D01*
X3291024Y-10945024D01*
X3300548Y-10964071D01*
X3310071Y-11002167D01*
X3310071Y-11049786D01*
X3300548Y-11087881D01*
X3291024Y-11106929D01*
X3281500Y-11116452D01*
X3262452Y-11125976D01*
X3243405Y-11125976D01*
X3224357Y-11116452D01*
X3214833Y-11106929D01*
X3205309Y-11087881D01*
X3195786Y-11049786D01*
X3195786Y-11002167D01*
X3205309Y-10964071D01*
X3214833Y-10945024D01*
X3224357Y-10935500D01*
X3243405Y-10925976D01*
X3433881Y-10925976D02*
X3452928Y-10925976D01*
X3471976Y-10935500D01*
X3481500Y-10945024D01*
X3491024Y-10964071D01*
X3500548Y-11002167D01*
X3500548Y-11049786D01*
X3491024Y-11087881D01*
X3481500Y-11106929D01*
X3471976Y-11116452D01*
X3452928Y-11125976D01*
X3433881Y-11125976D01*
X3414833Y-11116452D01*
X3405309Y-11106929D01*
X3395786Y-11087881D01*
X3386262Y-11049786D01*
X3386262Y-11002167D01*
X3395786Y-10964071D01*
X3405309Y-10945024D01*
X3414833Y-10935500D01*
X3433881Y-10925976D01*
X3586262Y-11125976D02*
X3586262Y-10992643D01*
X3586262Y-11011690D02*
X3595786Y-11002167D01*
X3614833Y-10992643D01*
X3643405Y-10992643D01*
X3662452Y-11002167D01*
X3671976Y-11021214D01*
X3671976Y-11125976D01*
X3671976Y-11021214D02*
X3681500Y-11002167D01*
X3700548Y-10992643D01*
X3729119Y-10992643D01*
X3748167Y-11002167D01*
X3757690Y-11021214D01*
X3757690Y-11125976D01*
X3852928Y-11125976D02*
X3852928Y-10992643D01*
X3852928Y-11011690D02*
X3862452Y-11002167D01*
X3881500Y-10992643D01*
X3910071Y-10992643D01*
X3929119Y-11002167D01*
X3938643Y-11021214D01*
X3938643Y-11125976D01*
X3938643Y-11021214D02*
X3948167Y-11002167D01*
X3967214Y-10992643D01*
X3995786Y-10992643D01*
X4014833Y-11002167D01*
X4024357Y-11021214D01*
X4024357Y-11125976D01*
X4414833Y-10916452D02*
X4243405Y-11173595D01*
X4671976Y-10925976D02*
X4691024Y-10925976D01*
X4710071Y-10935500D01*
X4719595Y-10945024D01*
X4729119Y-10964071D01*
X4738643Y-11002167D01*
X4738643Y-11049786D01*
X4729119Y-11087881D01*
X4719595Y-11106929D01*
X4710071Y-11116452D01*
X4691024Y-11125976D01*
X4671976Y-11125976D01*
X4652929Y-11116452D01*
X4643405Y-11106929D01*
X4633881Y-11087881D01*
X4624357Y-11049786D01*
X4624357Y-11002167D01*
X4633881Y-10964071D01*
X4643405Y-10945024D01*
X4652929Y-10935500D01*
X4671976Y-10925976D01*
X4824357Y-11106929D02*
X4833881Y-11116452D01*
X4824357Y-11125976D01*
X4814833Y-11116452D01*
X4824357Y-11106929D01*
X4824357Y-11125976D01*
X4957690Y-10925976D02*
X4976738Y-10925976D01*
X4995786Y-10935500D01*
X5005310Y-10945024D01*
X5014833Y-10964071D01*
X5024357Y-11002167D01*
X5024357Y-11049786D01*
X5014833Y-11087881D01*
X5005310Y-11106929D01*
X4995786Y-11116452D01*
X4976738Y-11125976D01*
X4957690Y-11125976D01*
X4938643Y-11116452D01*
X4929119Y-11106929D01*
X4919595Y-11087881D01*
X4910071Y-11049786D01*
X4910071Y-11002167D01*
X4919595Y-10964071D01*
X4929119Y-10945024D01*
X4938643Y-10935500D01*
X4957690Y-10925976D01*
X5091024Y-10925976D02*
X5214833Y-10925976D01*
X5148167Y-11002167D01*
X5176738Y-11002167D01*
X5195786Y-11011690D01*
X5205310Y-11021214D01*
X5214833Y-11040262D01*
X5214833Y-11087881D01*
X5205310Y-11106929D01*
X5195786Y-11116452D01*
X5176738Y-11125976D01*
X5119595Y-11125976D01*
X5100548Y-11116452D01*
X5091024Y-11106929D01*
X5395786Y-10925976D02*
X5300548Y-10925976D01*
X5291024Y-11021214D01*
X5300548Y-11011690D01*
X5319595Y-11002167D01*
X5367214Y-11002167D01*
X5386262Y-11011690D01*
X5395786Y-11021214D01*
X5405310Y-11040262D01*
X5405310Y-11087881D01*
X5395786Y-11106929D01*
X5386262Y-11116452D01*
X5367214Y-11125976D01*
X5319595Y-11125976D01*
X5300548Y-11116452D01*
X5291024Y-11106929D01*
X5576738Y-10992643D02*
X5576738Y-11125976D01*
X5529119Y-10916452D02*
X5481500Y-11059310D01*
X5605309Y-11059310D01*
X5671976Y-10925976D02*
X5671976Y-10964071D01*
X5748167Y-10925976D02*
X5748167Y-10964071D01*
X6043405Y-11202167D02*
X6033881Y-11192643D01*
X6014833Y-11164071D01*
X6005309Y-11145024D01*
X5995786Y-11116452D01*
X5986262Y-11068833D01*
X5986262Y-11030738D01*
X5995786Y-10983119D01*
X6005309Y-10954548D01*
X6014833Y-10935500D01*
X6033881Y-10906929D01*
X6043405Y-10897405D01*
X6205309Y-10925976D02*
X6167214Y-10925976D01*
X6148167Y-10935500D01*
X6138643Y-10945024D01*
X6119595Y-10973595D01*
X6110071Y-11011690D01*
X6110071Y-11087881D01*
X6119595Y-11106929D01*
X6129119Y-11116452D01*
X6148167Y-11125976D01*
X6186262Y-11125976D01*
X6205309Y-11116452D01*
X6214833Y-11106929D01*
X6224357Y-11087881D01*
X6224357Y-11040262D01*
X6214833Y-11021214D01*
X6205309Y-11011690D01*
X6186262Y-11002167D01*
X6148167Y-11002167D01*
X6129119Y-11011690D01*
X6119595Y-11021214D01*
X6110071Y-11040262D01*
X6462452Y-11125976D02*
X6462452Y-10925976D01*
X6548167Y-11125976D02*
X6548167Y-11021214D01*
X6538643Y-11002167D01*
X6519595Y-10992643D01*
X6491024Y-10992643D01*
X6471976Y-11002167D01*
X6462452Y-11011690D01*
X6671976Y-11125976D02*
X6652928Y-11116452D01*
X6643405Y-11106929D01*
X6633881Y-11087881D01*
X6633881Y-11030738D01*
X6643405Y-11011690D01*
X6652928Y-11002167D01*
X6671976Y-10992643D01*
X6700548Y-10992643D01*
X6719595Y-11002167D01*
X6729119Y-11011690D01*
X6738643Y-11030738D01*
X6738643Y-11087881D01*
X6729119Y-11106929D01*
X6719595Y-11116452D01*
X6700548Y-11125976D01*
X6671976Y-11125976D01*
X6852928Y-11125976D02*
X6833881Y-11116452D01*
X6824357Y-11097405D01*
X6824357Y-10925976D01*
X7005309Y-11116452D02*
X6986262Y-11125976D01*
X6948167Y-11125976D01*
X6929119Y-11116452D01*
X6919595Y-11097405D01*
X6919595Y-11021214D01*
X6929119Y-11002167D01*
X6948167Y-10992643D01*
X6986262Y-10992643D01*
X7005309Y-11002167D01*
X7014833Y-11021214D01*
X7014833Y-11040262D01*
X6919595Y-11059310D01*
X7091024Y-11116452D02*
X7110071Y-11125976D01*
X7148167Y-11125976D01*
X7167214Y-11116452D01*
X7176738Y-11097405D01*
X7176738Y-11087881D01*
X7167214Y-11068833D01*
X7148167Y-11059310D01*
X7119595Y-11059310D01*
X7100548Y-11049786D01*
X7091024Y-11030738D01*
X7091024Y-11021214D01*
X7100548Y-11002167D01*
X7119595Y-10992643D01*
X7148167Y-10992643D01*
X7167214Y-11002167D01*
X7243405Y-11202167D02*
X7252928Y-11192643D01*
X7271976Y-11164071D01*
X7281500Y-11145024D01*
X7291024Y-11116452D01*
X7300548Y-11068833D01*
X7300548Y-11030738D01*
X7291024Y-10983119D01*
X7281500Y-10954548D01*
X7271976Y-10935500D01*
X7252928Y-10906929D01*
X7243405Y-10897405D01*
D10*
X2371500Y-11249500D02*
X2471500Y-11349500D01*
X2471500Y-11249500D02*
X2371500Y-11349500D01*
X2471500Y-11299500D02*
G75*
G03*
X2471500Y-11299500I-50000J0D01*
G01*
D11*
X2833881Y-11389976D02*
X2719595Y-11389976D01*
X2776738Y-11389976D02*
X2776738Y-11189976D01*
X2757690Y-11218548D01*
X2738643Y-11237595D01*
X2719595Y-11247119D01*
X2919595Y-11370928D02*
X2929119Y-11380452D01*
X2919595Y-11389976D01*
X2910071Y-11380452D01*
X2919595Y-11370928D01*
X2919595Y-11389976D01*
X3052928Y-11189976D02*
X3071976Y-11189976D01*
X3091024Y-11199500D01*
X3100548Y-11209024D01*
X3110071Y-11228071D01*
X3119595Y-11266167D01*
X3119595Y-11313786D01*
X3110071Y-11351881D01*
X3100548Y-11370928D01*
X3091024Y-11380452D01*
X3071976Y-11389976D01*
X3052928Y-11389976D01*
X3033881Y-11380452D01*
X3024357Y-11370928D01*
X3014833Y-11351881D01*
X3005309Y-11313786D01*
X3005309Y-11266167D01*
X3014833Y-11228071D01*
X3024357Y-11209024D01*
X3033881Y-11199500D01*
X3052928Y-11189976D01*
X3243405Y-11189976D02*
X3262452Y-11189976D01*
X3281500Y-11199500D01*
X3291024Y-11209024D01*
X3300548Y-11228071D01*
X3310071Y-11266167D01*
X3310071Y-11313786D01*
X3300548Y-11351881D01*
X3291024Y-11370928D01*
X3281500Y-11380452D01*
X3262452Y-11389976D01*
X3243405Y-11389976D01*
X3224357Y-11380452D01*
X3214833Y-11370928D01*
X3205309Y-11351881D01*
X3195786Y-11313786D01*
X3195786Y-11266167D01*
X3205309Y-11228071D01*
X3214833Y-11209024D01*
X3224357Y-11199500D01*
X3243405Y-11189976D01*
X3433881Y-11189976D02*
X3452928Y-11189976D01*
X3471976Y-11199500D01*
X3481500Y-11209024D01*
X3491024Y-11228071D01*
X3500548Y-11266167D01*
X3500548Y-11313786D01*
X3491024Y-11351881D01*
X3481500Y-11370928D01*
X3471976Y-11380452D01*
X3452928Y-11389976D01*
X3433881Y-11389976D01*
X3414833Y-11380452D01*
X3405309Y-11370928D01*
X3395786Y-11351881D01*
X3386262Y-11313786D01*
X3386262Y-11266167D01*
X3395786Y-11228071D01*
X3405309Y-11209024D01*
X3414833Y-11199500D01*
X3433881Y-11189976D01*
X3586262Y-11389976D02*
X3586262Y-11256643D01*
X3586262Y-11275690D02*
X3595786Y-11266167D01*
X3614833Y-11256643D01*
X3643405Y-11256643D01*
X3662452Y-11266167D01*
X3671976Y-11285214D01*
X3671976Y-11389976D01*
X3671976Y-11285214D02*
X3681500Y-11266167D01*
X3700548Y-11256643D01*
X3729119Y-11256643D01*
X3748167Y-11266167D01*
X3757690Y-11285214D01*
X3757690Y-11389976D01*
X3852928Y-11389976D02*
X3852928Y-11256643D01*
X3852928Y-11275690D02*
X3862452Y-11266167D01*
X3881500Y-11256643D01*
X3910071Y-11256643D01*
X3929119Y-11266167D01*
X3938643Y-11285214D01*
X3938643Y-11389976D01*
X3938643Y-11285214D02*
X3948167Y-11266167D01*
X3967214Y-11256643D01*
X3995786Y-11256643D01*
X4014833Y-11266167D01*
X4024357Y-11285214D01*
X4024357Y-11389976D01*
X4414833Y-11180452D02*
X4243405Y-11437595D01*
X4671976Y-11189976D02*
X4691024Y-11189976D01*
X4710071Y-11199500D01*
X4719595Y-11209024D01*
X4729119Y-11228071D01*
X4738643Y-11266167D01*
X4738643Y-11313786D01*
X4729119Y-11351881D01*
X4719595Y-11370928D01*
X4710071Y-11380452D01*
X4691024Y-11389976D01*
X4671976Y-11389976D01*
X4652929Y-11380452D01*
X4643405Y-11370928D01*
X4633881Y-11351881D01*
X4624357Y-11313786D01*
X4624357Y-11266167D01*
X4633881Y-11228071D01*
X4643405Y-11209024D01*
X4652929Y-11199500D01*
X4671976Y-11189976D01*
X4824357Y-11370928D02*
X4833881Y-11380452D01*
X4824357Y-11389976D01*
X4814833Y-11380452D01*
X4824357Y-11370928D01*
X4824357Y-11389976D01*
X4957690Y-11189976D02*
X4976738Y-11189976D01*
X4995786Y-11199500D01*
X5005310Y-11209024D01*
X5014833Y-11228071D01*
X5024357Y-11266167D01*
X5024357Y-11313786D01*
X5014833Y-11351881D01*
X5005310Y-11370928D01*
X4995786Y-11380452D01*
X4976738Y-11389976D01*
X4957690Y-11389976D01*
X4938643Y-11380452D01*
X4929119Y-11370928D01*
X4919595Y-11351881D01*
X4910071Y-11313786D01*
X4910071Y-11266167D01*
X4919595Y-11228071D01*
X4929119Y-11209024D01*
X4938643Y-11199500D01*
X4957690Y-11189976D01*
X5091024Y-11189976D02*
X5214833Y-11189976D01*
X5148167Y-11266167D01*
X5176738Y-11266167D01*
X5195786Y-11275690D01*
X5205310Y-11285214D01*
X5214833Y-11304262D01*
X5214833Y-11351881D01*
X5205310Y-11370928D01*
X5195786Y-11380452D01*
X5176738Y-11389976D01*
X5119595Y-11389976D01*
X5100548Y-11380452D01*
X5091024Y-11370928D01*
X5310071Y-11389976D02*
X5348167Y-11389976D01*
X5367214Y-11380452D01*
X5376738Y-11370928D01*
X5395786Y-11342357D01*
X5405310Y-11304262D01*
X5405310Y-11228071D01*
X5395786Y-11209024D01*
X5386262Y-11199500D01*
X5367214Y-11189976D01*
X5329119Y-11189976D01*
X5310071Y-11199500D01*
X5300548Y-11209024D01*
X5291024Y-11228071D01*
X5291024Y-11275690D01*
X5300548Y-11294738D01*
X5310071Y-11304262D01*
X5329119Y-11313786D01*
X5367214Y-11313786D01*
X5386262Y-11304262D01*
X5395786Y-11294738D01*
X5405310Y-11275690D01*
X5576738Y-11256643D02*
X5576738Y-11389976D01*
X5529119Y-11180452D02*
X5481500Y-11323309D01*
X5605309Y-11323309D01*
X5671976Y-11189976D02*
X5671976Y-11228071D01*
X5748167Y-11189976D02*
X5748167Y-11228071D01*
X6043405Y-11466167D02*
X6033881Y-11456643D01*
X6014833Y-11428071D01*
X6005309Y-11409024D01*
X5995786Y-11380452D01*
X5986262Y-11332833D01*
X5986262Y-11294738D01*
X5995786Y-11247119D01*
X6005309Y-11218548D01*
X6014833Y-11199500D01*
X6033881Y-11170929D01*
X6043405Y-11161405D01*
X6205309Y-11256643D02*
X6205309Y-11389976D01*
X6157690Y-11180452D02*
X6110071Y-11323309D01*
X6233881Y-11323309D01*
X6462452Y-11389976D02*
X6462452Y-11189976D01*
X6548167Y-11389976D02*
X6548167Y-11285214D01*
X6538643Y-11266167D01*
X6519595Y-11256643D01*
X6491024Y-11256643D01*
X6471976Y-11266167D01*
X6462452Y-11275690D01*
X6671976Y-11389976D02*
X6652928Y-11380452D01*
X6643405Y-11370928D01*
X6633881Y-11351881D01*
X6633881Y-11294738D01*
X6643405Y-11275690D01*
X6652928Y-11266167D01*
X6671976Y-11256643D01*
X6700548Y-11256643D01*
X6719595Y-11266167D01*
X6729119Y-11275690D01*
X6738643Y-11294738D01*
X6738643Y-11351881D01*
X6729119Y-11370928D01*
X6719595Y-11380452D01*
X6700548Y-11389976D01*
X6671976Y-11389976D01*
X6852928Y-11389976D02*
X6833881Y-11380452D01*
X6824357Y-11361405D01*
X6824357Y-11189976D01*
X7005309Y-11380452D02*
X6986262Y-11389976D01*
X6948167Y-11389976D01*
X6929119Y-11380452D01*
X6919595Y-11361405D01*
X6919595Y-11285214D01*
X6929119Y-11266167D01*
X6948167Y-11256643D01*
X6986262Y-11256643D01*
X7005309Y-11266167D01*
X7014833Y-11285214D01*
X7014833Y-11304262D01*
X6919595Y-11323309D01*
X7091024Y-11380452D02*
X7110071Y-11389976D01*
X7148167Y-11389976D01*
X7167214Y-11380452D01*
X7176738Y-11361405D01*
X7176738Y-11351881D01*
X7167214Y-11332833D01*
X7148167Y-11323309D01*
X7119595Y-11323309D01*
X7100548Y-11313786D01*
X7091024Y-11294738D01*
X7091024Y-11285214D01*
X7100548Y-11266167D01*
X7119595Y-11256643D01*
X7148167Y-11256643D01*
X7167214Y-11266167D01*
X7243405Y-11466167D02*
X7252928Y-11456643D01*
X7271976Y-11428071D01*
X7281500Y-11409024D01*
X7291024Y-11380452D01*
X7300548Y-11332833D01*
X7300548Y-11294738D01*
X7291024Y-11247119D01*
X7281500Y-11218548D01*
X7271976Y-11199500D01*
X7252928Y-11170929D01*
X7243405Y-11161405D01*
D17*
X2361500Y-11508500D02*
X2471500Y-11618500D01*
X2471500Y-11508500D02*
X2361500Y-11618500D01*
X2416500Y-11508500D02*
X2416500Y-11618500D01*
X2361500Y-11563500D02*
X2471500Y-11563500D01*
D11*
X2833881Y-11653976D02*
X2719595Y-11653976D01*
X2776738Y-11653976D02*
X2776738Y-11453976D01*
X2757690Y-11482548D01*
X2738643Y-11501595D01*
X2719595Y-11511119D01*
X2919595Y-11634928D02*
X2929119Y-11644452D01*
X2919595Y-11653976D01*
X2910071Y-11644452D01*
X2919595Y-11634928D01*
X2919595Y-11653976D01*
X3119595Y-11653976D02*
X3005309Y-11653976D01*
X3062452Y-11653976D02*
X3062452Y-11453976D01*
X3043405Y-11482548D01*
X3024357Y-11501595D01*
X3005309Y-11511119D01*
X3243405Y-11453976D02*
X3262452Y-11453976D01*
X3281500Y-11463500D01*
X3291024Y-11473024D01*
X3300548Y-11492071D01*
X3310071Y-11530167D01*
X3310071Y-11577786D01*
X3300548Y-11615881D01*
X3291024Y-11634928D01*
X3281500Y-11644452D01*
X3262452Y-11653976D01*
X3243405Y-11653976D01*
X3224357Y-11644452D01*
X3214833Y-11634928D01*
X3205309Y-11615881D01*
X3195786Y-11577786D01*
X3195786Y-11530167D01*
X3205309Y-11492071D01*
X3214833Y-11473024D01*
X3224357Y-11463500D01*
X3243405Y-11453976D01*
X3433881Y-11453976D02*
X3452928Y-11453976D01*
X3471976Y-11463500D01*
X3481500Y-11473024D01*
X3491024Y-11492071D01*
X3500548Y-11530167D01*
X3500548Y-11577786D01*
X3491024Y-11615881D01*
X3481500Y-11634928D01*
X3471976Y-11644452D01*
X3452928Y-11653976D01*
X3433881Y-11653976D01*
X3414833Y-11644452D01*
X3405309Y-11634928D01*
X3395786Y-11615881D01*
X3386262Y-11577786D01*
X3386262Y-11530167D01*
X3395786Y-11492071D01*
X3405309Y-11473024D01*
X3414833Y-11463500D01*
X3433881Y-11453976D01*
X3586262Y-11653976D02*
X3586262Y-11520643D01*
X3586262Y-11539690D02*
X3595786Y-11530167D01*
X3614833Y-11520643D01*
X3643405Y-11520643D01*
X3662452Y-11530167D01*
X3671976Y-11549214D01*
X3671976Y-11653976D01*
X3671976Y-11549214D02*
X3681500Y-11530167D01*
X3700548Y-11520643D01*
X3729119Y-11520643D01*
X3748167Y-11530167D01*
X3757690Y-11549214D01*
X3757690Y-11653976D01*
X3852928Y-11653976D02*
X3852928Y-11520643D01*
X3852928Y-11539690D02*
X3862452Y-11530167D01*
X3881500Y-11520643D01*
X3910071Y-11520643D01*
X3929119Y-11530167D01*
X3938643Y-11549214D01*
X3938643Y-11653976D01*
X3938643Y-11549214D02*
X3948167Y-11530167D01*
X3967214Y-11520643D01*
X3995786Y-11520643D01*
X4014833Y-11530167D01*
X4024357Y-11549214D01*
X4024357Y-11653976D01*
X4414833Y-11444452D02*
X4243405Y-11701595D01*
X4671976Y-11453976D02*
X4691024Y-11453976D01*
X4710071Y-11463500D01*
X4719595Y-11473024D01*
X4729119Y-11492071D01*
X4738643Y-11530167D01*
X4738643Y-11577786D01*
X4729119Y-11615881D01*
X4719595Y-11634928D01*
X4710071Y-11644452D01*
X4691024Y-11653976D01*
X4671976Y-11653976D01*
X4652929Y-11644452D01*
X4643405Y-11634928D01*
X4633881Y-11615881D01*
X4624357Y-11577786D01*
X4624357Y-11530167D01*
X4633881Y-11492071D01*
X4643405Y-11473024D01*
X4652929Y-11463500D01*
X4671976Y-11453976D01*
X4824357Y-11634928D02*
X4833881Y-11644452D01*
X4824357Y-11653976D01*
X4814833Y-11644452D01*
X4824357Y-11634928D01*
X4824357Y-11653976D01*
X4957690Y-11453976D02*
X4976738Y-11453976D01*
X4995786Y-11463500D01*
X5005310Y-11473024D01*
X5014833Y-11492071D01*
X5024357Y-11530167D01*
X5024357Y-11577786D01*
X5014833Y-11615881D01*
X5005310Y-11634928D01*
X4995786Y-11644452D01*
X4976738Y-11653976D01*
X4957690Y-11653976D01*
X4938643Y-11644452D01*
X4929119Y-11634928D01*
X4919595Y-11615881D01*
X4910071Y-11577786D01*
X4910071Y-11530167D01*
X4919595Y-11492071D01*
X4929119Y-11473024D01*
X4938643Y-11463500D01*
X4957690Y-11453976D01*
X5195786Y-11520643D02*
X5195786Y-11653976D01*
X5148167Y-11444452D02*
X5100548Y-11587309D01*
X5224357Y-11587309D01*
X5281500Y-11453976D02*
X5405310Y-11453976D01*
X5338643Y-11530167D01*
X5367214Y-11530167D01*
X5386262Y-11539690D01*
X5395786Y-11549214D01*
X5405310Y-11568262D01*
X5405310Y-11615881D01*
X5395786Y-11634928D01*
X5386262Y-11644452D01*
X5367214Y-11653976D01*
X5310071Y-11653976D01*
X5291024Y-11644452D01*
X5281500Y-11634928D01*
X5471976Y-11453976D02*
X5595786Y-11453976D01*
X5529119Y-11530167D01*
X5557690Y-11530167D01*
X5576738Y-11539690D01*
X5586262Y-11549214D01*
X5595786Y-11568262D01*
X5595786Y-11615881D01*
X5586262Y-11634928D01*
X5576738Y-11644452D01*
X5557690Y-11653976D01*
X5500548Y-11653976D01*
X5481500Y-11644452D01*
X5471976Y-11634928D01*
X5671976Y-11453976D02*
X5671976Y-11492071D01*
X5748167Y-11453976D02*
X5748167Y-11492071D01*
X6043405Y-11730167D02*
X6033881Y-11720643D01*
X6014833Y-11692071D01*
X6005309Y-11673024D01*
X5995786Y-11644452D01*
X5986262Y-11596833D01*
X5986262Y-11558738D01*
X5995786Y-11511119D01*
X6005309Y-11482548D01*
X6014833Y-11463500D01*
X6033881Y-11434928D01*
X6043405Y-11425405D01*
X6129119Y-11653976D02*
X6167214Y-11653976D01*
X6186262Y-11644452D01*
X6195786Y-11634928D01*
X6214833Y-11606357D01*
X6224357Y-11568262D01*
X6224357Y-11492071D01*
X6214833Y-11473024D01*
X6205309Y-11463500D01*
X6186262Y-11453976D01*
X6148167Y-11453976D01*
X6129119Y-11463500D01*
X6119595Y-11473024D01*
X6110071Y-11492071D01*
X6110071Y-11539690D01*
X6119595Y-11558738D01*
X6129119Y-11568262D01*
X6148167Y-11577786D01*
X6186262Y-11577786D01*
X6205309Y-11568262D01*
X6214833Y-11558738D01*
X6224357Y-11539690D01*
X6462452Y-11653976D02*
X6462452Y-11453976D01*
X6548167Y-11653976D02*
X6548167Y-11549214D01*
X6538643Y-11530167D01*
X6519595Y-11520643D01*
X6491024Y-11520643D01*
X6471976Y-11530167D01*
X6462452Y-11539690D01*
X6671976Y-11653976D02*
X6652928Y-11644452D01*
X6643405Y-11634928D01*
X6633881Y-11615881D01*
X6633881Y-11558738D01*
X6643405Y-11539690D01*
X6652928Y-11530167D01*
X6671976Y-11520643D01*
X6700548Y-11520643D01*
X6719595Y-11530167D01*
X6729119Y-11539690D01*
X6738643Y-11558738D01*
X6738643Y-11615881D01*
X6729119Y-11634928D01*
X6719595Y-11644452D01*
X6700548Y-11653976D01*
X6671976Y-11653976D01*
X6852928Y-11653976D02*
X6833881Y-11644452D01*
X6824357Y-11625405D01*
X6824357Y-11453976D01*
X7005309Y-11644452D02*
X6986262Y-11653976D01*
X6948167Y-11653976D01*
X6929119Y-11644452D01*
X6919595Y-11625405D01*
X6919595Y-11549214D01*
X6929119Y-11530167D01*
X6948167Y-11520643D01*
X6986262Y-11520643D01*
X7005309Y-11530167D01*
X7014833Y-11549214D01*
X7014833Y-11568262D01*
X6919595Y-11587309D01*
X7091024Y-11644452D02*
X7110071Y-11653976D01*
X7148167Y-11653976D01*
X7167214Y-11644452D01*
X7176738Y-11625405D01*
X7176738Y-11615881D01*
X7167214Y-11596833D01*
X7148167Y-11587309D01*
X7119595Y-11587309D01*
X7100548Y-11577786D01*
X7091024Y-11558738D01*
X7091024Y-11549214D01*
X7100548Y-11530167D01*
X7119595Y-11520643D01*
X7148167Y-11520643D01*
X7167214Y-11530167D01*
X7243405Y-11730167D02*
X7252928Y-11720643D01*
X7271976Y-11692071D01*
X7281500Y-11673024D01*
X7291024Y-11644452D01*
X7300548Y-11596833D01*
X7300548Y-11558738D01*
X7291024Y-11511119D01*
X7281500Y-11482548D01*
X7271976Y-11463500D01*
X7252928Y-11434928D01*
X7243405Y-11425405D01*
D18*
X2341500Y-11762500D02*
X2471500Y-11892500D01*
X2471500Y-11762500D02*
X2341500Y-11892500D01*
X2452462Y-11873462D02*
X2452462Y-11781538D01*
X2360538Y-11781538D01*
X2360538Y-11873462D01*
X2452462Y-11873462D01*
D11*
X2833881Y-11917976D02*
X2719595Y-11917976D01*
X2776738Y-11917976D02*
X2776738Y-11717976D01*
X2757690Y-11746548D01*
X2738643Y-11765595D01*
X2719595Y-11775119D01*
X2919595Y-11898928D02*
X2929119Y-11908452D01*
X2919595Y-11917976D01*
X2910071Y-11908452D01*
X2919595Y-11898928D01*
X2919595Y-11917976D01*
X2995786Y-11717976D02*
X3119595Y-11717976D01*
X3052928Y-11794167D01*
X3081500Y-11794167D01*
X3100548Y-11803690D01*
X3110071Y-11813214D01*
X3119595Y-11832262D01*
X3119595Y-11879881D01*
X3110071Y-11898928D01*
X3100548Y-11908452D01*
X3081500Y-11917976D01*
X3024357Y-11917976D01*
X3005309Y-11908452D01*
X2995786Y-11898928D01*
X3243405Y-11717976D02*
X3262452Y-11717976D01*
X3281500Y-11727500D01*
X3291024Y-11737024D01*
X3300548Y-11756071D01*
X3310071Y-11794167D01*
X3310071Y-11841786D01*
X3300548Y-11879881D01*
X3291024Y-11898928D01*
X3281500Y-11908452D01*
X3262452Y-11917976D01*
X3243405Y-11917976D01*
X3224357Y-11908452D01*
X3214833Y-11898928D01*
X3205309Y-11879881D01*
X3195786Y-11841786D01*
X3195786Y-11794167D01*
X3205309Y-11756071D01*
X3214833Y-11737024D01*
X3224357Y-11727500D01*
X3243405Y-11717976D01*
X3433881Y-11717976D02*
X3452928Y-11717976D01*
X3471976Y-11727500D01*
X3481500Y-11737024D01*
X3491024Y-11756071D01*
X3500548Y-11794167D01*
X3500548Y-11841786D01*
X3491024Y-11879881D01*
X3481500Y-11898928D01*
X3471976Y-11908452D01*
X3452928Y-11917976D01*
X3433881Y-11917976D01*
X3414833Y-11908452D01*
X3405309Y-11898928D01*
X3395786Y-11879881D01*
X3386262Y-11841786D01*
X3386262Y-11794167D01*
X3395786Y-11756071D01*
X3405309Y-11737024D01*
X3414833Y-11727500D01*
X3433881Y-11717976D01*
X3586262Y-11917976D02*
X3586262Y-11784643D01*
X3586262Y-11803690D02*
X3595786Y-11794167D01*
X3614833Y-11784643D01*
X3643405Y-11784643D01*
X3662452Y-11794167D01*
X3671976Y-11813214D01*
X3671976Y-11917976D01*
X3671976Y-11813214D02*
X3681500Y-11794167D01*
X3700548Y-11784643D01*
X3729119Y-11784643D01*
X3748167Y-11794167D01*
X3757690Y-11813214D01*
X3757690Y-11917976D01*
X3852928Y-11917976D02*
X3852928Y-11784643D01*
X3852928Y-11803690D02*
X3862452Y-11794167D01*
X3881500Y-11784643D01*
X3910071Y-11784643D01*
X3929119Y-11794167D01*
X3938643Y-11813214D01*
X3938643Y-11917976D01*
X3938643Y-11813214D02*
X3948167Y-11794167D01*
X3967214Y-11784643D01*
X3995786Y-11784643D01*
X4014833Y-11794167D01*
X4024357Y-11813214D01*
X4024357Y-11917976D01*
X4414833Y-11708452D02*
X4243405Y-11965595D01*
X4671976Y-11717976D02*
X4691024Y-11717976D01*
X4710071Y-11727500D01*
X4719595Y-11737024D01*
X4729119Y-11756071D01*
X4738643Y-11794167D01*
X4738643Y-11841786D01*
X4729119Y-11879881D01*
X4719595Y-11898928D01*
X4710071Y-11908452D01*
X4691024Y-11917976D01*
X4671976Y-11917976D01*
X4652929Y-11908452D01*
X4643405Y-11898928D01*
X4633881Y-11879881D01*
X4624357Y-11841786D01*
X4624357Y-11794167D01*
X4633881Y-11756071D01*
X4643405Y-11737024D01*
X4652929Y-11727500D01*
X4671976Y-11717976D01*
X4824357Y-11898928D02*
X4833881Y-11908452D01*
X4824357Y-11917976D01*
X4814833Y-11908452D01*
X4824357Y-11898928D01*
X4824357Y-11917976D01*
X4957690Y-11717976D02*
X4976738Y-11717976D01*
X4995786Y-11727500D01*
X5005310Y-11737024D01*
X5014833Y-11756071D01*
X5024357Y-11794167D01*
X5024357Y-11841786D01*
X5014833Y-11879881D01*
X5005310Y-11898928D01*
X4995786Y-11908452D01*
X4976738Y-11917976D01*
X4957690Y-11917976D01*
X4938643Y-11908452D01*
X4929119Y-11898928D01*
X4919595Y-11879881D01*
X4910071Y-11841786D01*
X4910071Y-11794167D01*
X4919595Y-11756071D01*
X4929119Y-11737024D01*
X4938643Y-11727500D01*
X4957690Y-11717976D01*
X5205310Y-11717976D02*
X5110071Y-11717976D01*
X5100548Y-11813214D01*
X5110071Y-11803690D01*
X5129119Y-11794167D01*
X5176738Y-11794167D01*
X5195786Y-11803690D01*
X5205310Y-11813214D01*
X5214833Y-11832262D01*
X5214833Y-11879881D01*
X5205310Y-11898928D01*
X5195786Y-11908452D01*
X5176738Y-11917976D01*
X5129119Y-11917976D01*
X5110071Y-11908452D01*
X5100548Y-11898928D01*
X5405310Y-11917976D02*
X5291024Y-11917976D01*
X5348167Y-11917976D02*
X5348167Y-11717976D01*
X5329119Y-11746548D01*
X5310071Y-11765595D01*
X5291024Y-11775119D01*
X5481500Y-11737024D02*
X5491024Y-11727500D01*
X5510071Y-11717976D01*
X5557690Y-11717976D01*
X5576738Y-11727500D01*
X5586262Y-11737024D01*
X5595786Y-11756071D01*
X5595786Y-11775119D01*
X5586262Y-11803690D01*
X5471976Y-11917976D01*
X5595786Y-11917976D01*
X5671976Y-11717976D02*
X5671976Y-11756071D01*
X5748167Y-11717976D02*
X5748167Y-11756071D01*
X6043405Y-11994167D02*
X6033881Y-11984643D01*
X6014833Y-11956071D01*
X6005309Y-11937024D01*
X5995786Y-11908452D01*
X5986262Y-11860833D01*
X5986262Y-11822738D01*
X5995786Y-11775119D01*
X6005309Y-11746548D01*
X6014833Y-11727500D01*
X6033881Y-11698928D01*
X6043405Y-11689405D01*
X6224357Y-11917976D02*
X6110071Y-11917976D01*
X6167214Y-11917976D02*
X6167214Y-11717976D01*
X6148167Y-11746548D01*
X6129119Y-11765595D01*
X6110071Y-11775119D01*
X6300548Y-11737024D02*
X6310071Y-11727500D01*
X6329119Y-11717976D01*
X6376738Y-11717976D01*
X6395786Y-11727500D01*
X6405309Y-11737024D01*
X6414833Y-11756071D01*
X6414833Y-11775119D01*
X6405309Y-11803690D01*
X6291024Y-11917976D01*
X6414833Y-11917976D01*
X6652928Y-11917976D02*
X6652928Y-11717976D01*
X6738643Y-11917976D02*
X6738643Y-11813214D01*
X6729119Y-11794167D01*
X6710071Y-11784643D01*
X6681500Y-11784643D01*
X6662452Y-11794167D01*
X6652928Y-11803690D01*
X6862452Y-11917976D02*
X6843405Y-11908452D01*
X6833881Y-11898928D01*
X6824357Y-11879881D01*
X6824357Y-11822738D01*
X6833881Y-11803690D01*
X6843405Y-11794167D01*
X6862452Y-11784643D01*
X6891024Y-11784643D01*
X6910071Y-11794167D01*
X6919595Y-11803690D01*
X6929119Y-11822738D01*
X6929119Y-11879881D01*
X6919595Y-11898928D01*
X6910071Y-11908452D01*
X6891024Y-11917976D01*
X6862452Y-11917976D01*
X7043405Y-11917976D02*
X7024357Y-11908452D01*
X7014833Y-11889405D01*
X7014833Y-11717976D01*
X7195786Y-11908452D02*
X7176738Y-11917976D01*
X7138643Y-11917976D01*
X7119595Y-11908452D01*
X7110071Y-11889405D01*
X7110071Y-11813214D01*
X7119595Y-11794167D01*
X7138643Y-11784643D01*
X7176738Y-11784643D01*
X7195786Y-11794167D01*
X7205309Y-11813214D01*
X7205309Y-11832262D01*
X7110071Y-11851309D01*
X7281500Y-11908452D02*
X7300548Y-11917976D01*
X7338643Y-11917976D01*
X7357690Y-11908452D01*
X7367214Y-11889405D01*
X7367214Y-11879881D01*
X7357690Y-11860833D01*
X7338643Y-11851309D01*
X7310071Y-11851309D01*
X7291024Y-11841786D01*
X7281500Y-11822738D01*
X7281500Y-11813214D01*
X7291024Y-11794167D01*
X7310071Y-11784643D01*
X7338643Y-11784643D01*
X7357690Y-11794167D01*
X7433881Y-11994167D02*
X7443405Y-11984643D01*
X7462452Y-11956071D01*
X7471976Y-11937024D01*
X7481500Y-11908452D01*
X7491024Y-11860833D01*
X7491024Y-11822738D01*
X7481500Y-11775119D01*
X7471976Y-11746548D01*
X7462452Y-11727500D01*
X7443405Y-11698928D01*
X7433881Y-11689405D01*
X2271500Y-11991500D02*
X2471500Y-12191500D01*
X2471500Y-11991500D02*
X2271500Y-12191500D01*
X2371500Y-12191500D02*
X2471500Y-12091500D01*
X2371500Y-11991500D01*
X2271500Y-12091500D01*
X2371500Y-12191500D01*
X2719595Y-12001024D02*
X2729119Y-11991500D01*
X2748167Y-11981976D01*
X2795786Y-11981976D01*
X2814833Y-11991500D01*
X2824357Y-12001024D01*
X2833881Y-12020071D01*
X2833881Y-12039119D01*
X2824357Y-12067690D01*
X2710071Y-12181976D01*
X2833881Y-12181976D01*
X2919595Y-12162928D02*
X2929119Y-12172452D01*
X2919595Y-12181976D01*
X2910071Y-12172452D01*
X2919595Y-12162928D01*
X2919595Y-12181976D01*
X2995786Y-11981976D02*
X3119595Y-11981976D01*
X3052928Y-12058167D01*
X3081500Y-12058167D01*
X3100548Y-12067690D01*
X3110071Y-12077214D01*
X3119595Y-12096262D01*
X3119595Y-12143881D01*
X3110071Y-12162928D01*
X3100548Y-12172452D01*
X3081500Y-12181976D01*
X3024357Y-12181976D01*
X3005309Y-12172452D01*
X2995786Y-12162928D01*
X3243405Y-11981976D02*
X3262452Y-11981976D01*
X3281500Y-11991500D01*
X3291024Y-12001024D01*
X3300548Y-12020071D01*
X3310071Y-12058167D01*
X3310071Y-12105786D01*
X3300548Y-12143881D01*
X3291024Y-12162928D01*
X3281500Y-12172452D01*
X3262452Y-12181976D01*
X3243405Y-12181976D01*
X3224357Y-12172452D01*
X3214833Y-12162928D01*
X3205309Y-12143881D01*
X3195786Y-12105786D01*
X3195786Y-12058167D01*
X3205309Y-12020071D01*
X3214833Y-12001024D01*
X3224357Y-11991500D01*
X3243405Y-11981976D01*
X3433881Y-11981976D02*
X3452928Y-11981976D01*
X3471976Y-11991500D01*
X3481500Y-12001024D01*
X3491024Y-12020071D01*
X3500548Y-12058167D01*
X3500548Y-12105786D01*
X3491024Y-12143881D01*
X3481500Y-12162928D01*
X3471976Y-12172452D01*
X3452928Y-12181976D01*
X3433881Y-12181976D01*
X3414833Y-12172452D01*
X3405309Y-12162928D01*
X3395786Y-12143881D01*
X3386262Y-12105786D01*
X3386262Y-12058167D01*
X3395786Y-12020071D01*
X3405309Y-12001024D01*
X3414833Y-11991500D01*
X3433881Y-11981976D01*
X3586262Y-12181976D02*
X3586262Y-12048643D01*
X3586262Y-12067690D02*
X3595786Y-12058167D01*
X3614833Y-12048643D01*
X3643405Y-12048643D01*
X3662452Y-12058167D01*
X3671976Y-12077214D01*
X3671976Y-12181976D01*
X3671976Y-12077214D02*
X3681500Y-12058167D01*
X3700548Y-12048643D01*
X3729119Y-12048643D01*
X3748167Y-12058167D01*
X3757690Y-12077214D01*
X3757690Y-12181976D01*
X3852928Y-12181976D02*
X3852928Y-12048643D01*
X3852928Y-12067690D02*
X3862452Y-12058167D01*
X3881500Y-12048643D01*
X3910071Y-12048643D01*
X3929119Y-12058167D01*
X3938643Y-12077214D01*
X3938643Y-12181976D01*
X3938643Y-12077214D02*
X3948167Y-12058167D01*
X3967214Y-12048643D01*
X3995786Y-12048643D01*
X4014833Y-12058167D01*
X4024357Y-12077214D01*
X4024357Y-12181976D01*
X4414833Y-11972452D02*
X4243405Y-12229595D01*
X4671976Y-11981976D02*
X4691024Y-11981976D01*
X4710071Y-11991500D01*
X4719595Y-12001024D01*
X4729119Y-12020071D01*
X4738643Y-12058167D01*
X4738643Y-12105786D01*
X4729119Y-12143881D01*
X4719595Y-12162928D01*
X4710071Y-12172452D01*
X4691024Y-12181976D01*
X4671976Y-12181976D01*
X4652929Y-12172452D01*
X4643405Y-12162928D01*
X4633881Y-12143881D01*
X4624357Y-12105786D01*
X4624357Y-12058167D01*
X4633881Y-12020071D01*
X4643405Y-12001024D01*
X4652929Y-11991500D01*
X4671976Y-11981976D01*
X4824357Y-12162928D02*
X4833881Y-12172452D01*
X4824357Y-12181976D01*
X4814833Y-12172452D01*
X4824357Y-12162928D01*
X4824357Y-12181976D01*
X4957690Y-11981976D02*
X4976738Y-11981976D01*
X4995786Y-11991500D01*
X5005310Y-12001024D01*
X5014833Y-12020071D01*
X5024357Y-12058167D01*
X5024357Y-12105786D01*
X5014833Y-12143881D01*
X5005310Y-12162928D01*
X4995786Y-12172452D01*
X4976738Y-12181976D01*
X4957690Y-12181976D01*
X4938643Y-12172452D01*
X4929119Y-12162928D01*
X4919595Y-12143881D01*
X4910071Y-12105786D01*
X4910071Y-12058167D01*
X4919595Y-12020071D01*
X4929119Y-12001024D01*
X4938643Y-11991500D01*
X4957690Y-11981976D01*
X5119595Y-12181976D02*
X5157690Y-12181976D01*
X5176738Y-12172452D01*
X5186262Y-12162928D01*
X5205310Y-12134357D01*
X5214833Y-12096262D01*
X5214833Y-12020071D01*
X5205310Y-12001024D01*
X5195786Y-11991500D01*
X5176738Y-11981976D01*
X5138643Y-11981976D01*
X5119595Y-11991500D01*
X5110071Y-12001024D01*
X5100548Y-12020071D01*
X5100548Y-12067690D01*
X5110071Y-12086738D01*
X5119595Y-12096262D01*
X5138643Y-12105786D01*
X5176738Y-12105786D01*
X5195786Y-12096262D01*
X5205310Y-12086738D01*
X5214833Y-12067690D01*
X5338643Y-11981976D02*
X5357690Y-11981976D01*
X5376738Y-11991500D01*
X5386262Y-12001024D01*
X5395786Y-12020071D01*
X5405310Y-12058167D01*
X5405310Y-12105786D01*
X5395786Y-12143881D01*
X5386262Y-12162928D01*
X5376738Y-12172452D01*
X5357690Y-12181976D01*
X5338643Y-12181976D01*
X5319595Y-12172452D01*
X5310071Y-12162928D01*
X5300548Y-12143881D01*
X5291024Y-12105786D01*
X5291024Y-12058167D01*
X5300548Y-12020071D01*
X5310071Y-12001024D01*
X5319595Y-11991500D01*
X5338643Y-11981976D01*
X5576738Y-11981976D02*
X5538643Y-11981976D01*
X5519595Y-11991500D01*
X5510071Y-12001024D01*
X5491024Y-12029595D01*
X5481500Y-12067690D01*
X5481500Y-12143881D01*
X5491024Y-12162928D01*
X5500548Y-12172452D01*
X5519595Y-12181976D01*
X5557690Y-12181976D01*
X5576738Y-12172452D01*
X5586262Y-12162928D01*
X5595786Y-12143881D01*
X5595786Y-12096262D01*
X5586262Y-12077214D01*
X5576738Y-12067690D01*
X5557690Y-12058167D01*
X5519595Y-12058167D01*
X5500548Y-12067690D01*
X5491024Y-12077214D01*
X5481500Y-12096262D01*
X5671976Y-11981976D02*
X5671976Y-12020071D01*
X5748167Y-11981976D02*
X5748167Y-12020071D01*
X6043405Y-12258167D02*
X6033881Y-12248643D01*
X6014833Y-12220071D01*
X6005309Y-12201024D01*
X5995786Y-12172452D01*
X5986262Y-12124833D01*
X5986262Y-12086738D01*
X5995786Y-12039119D01*
X6005309Y-12010548D01*
X6014833Y-11991500D01*
X6033881Y-11962928D01*
X6043405Y-11953405D01*
X6110071Y-12001024D02*
X6119595Y-11991500D01*
X6138643Y-11981976D01*
X6186262Y-11981976D01*
X6205309Y-11991500D01*
X6214833Y-12001024D01*
X6224357Y-12020071D01*
X6224357Y-12039119D01*
X6214833Y-12067690D01*
X6100548Y-12181976D01*
X6224357Y-12181976D01*
X6462452Y-12181976D02*
X6462452Y-11981976D01*
X6548167Y-12181976D02*
X6548167Y-12077214D01*
X6538643Y-12058167D01*
X6519595Y-12048643D01*
X6491024Y-12048643D01*
X6471976Y-12058167D01*
X6462452Y-12067690D01*
X6671976Y-12181976D02*
X6652928Y-12172452D01*
X6643405Y-12162928D01*
X6633881Y-12143881D01*
X6633881Y-12086738D01*
X6643405Y-12067690D01*
X6652928Y-12058167D01*
X6671976Y-12048643D01*
X6700548Y-12048643D01*
X6719595Y-12058167D01*
X6729119Y-12067690D01*
X6738643Y-12086738D01*
X6738643Y-12143881D01*
X6729119Y-12162928D01*
X6719595Y-12172452D01*
X6700548Y-12181976D01*
X6671976Y-12181976D01*
X6852928Y-12181976D02*
X6833881Y-12172452D01*
X6824357Y-12153405D01*
X6824357Y-11981976D01*
X7005309Y-12172452D02*
X6986262Y-12181976D01*
X6948167Y-12181976D01*
X6929119Y-12172452D01*
X6919595Y-12153405D01*
X6919595Y-12077214D01*
X6929119Y-12058167D01*
X6948167Y-12048643D01*
X6986262Y-12048643D01*
X7005309Y-12058167D01*
X7014833Y-12077214D01*
X7014833Y-12096262D01*
X6919595Y-12115309D01*
X7091024Y-12172452D02*
X7110071Y-12181976D01*
X7148167Y-12181976D01*
X7167214Y-12172452D01*
X7176738Y-12153405D01*
X7176738Y-12143881D01*
X7167214Y-12124833D01*
X7148167Y-12115309D01*
X7119595Y-12115309D01*
X7100548Y-12105786D01*
X7091024Y-12086738D01*
X7091024Y-12077214D01*
X7100548Y-12058167D01*
X7119595Y-12048643D01*
X7148167Y-12048643D01*
X7167214Y-12058167D01*
X7243405Y-12258167D02*
X7252928Y-12248643D01*
X7271976Y-12220071D01*
X7281500Y-12201024D01*
X7291024Y-12172452D01*
X7300548Y-12124833D01*
X7300548Y-12086738D01*
X7291024Y-12039119D01*
X7281500Y-12010548D01*
X7271976Y-11991500D01*
X7252928Y-11962928D01*
X7243405Y-11953405D01*
M02*
