%TF.GenerationSoftware,KiCad,Pcbnew,(6.0.9)*%
%TF.CreationDate,2022-12-19T09:42:55-08:00*%
%TF.ProjectId,TinyG-SuperPid-Integrator,54696e79-472d-4537-9570-65725069642d,rev?*%
%TF.SameCoordinates,Original*%
%TF.FileFunction,Drillmap*%
%TF.FilePolarity,Positive*%
%FSLAX45Y45*%
G04 Gerber Fmt 4.5, Leading zero omitted, Abs format (unit mm)*
G04 Created by KiCad (PCBNEW (6.0.9)) date 2022-12-19 09:42:55*
%MOMM*%
%LPD*%
G01*
G04 APERTURE LIST*
%ADD10C,0.100000*%
%ADD11C,0.200000*%
%ADD12C,0.350000*%
G04 APERTURE END LIST*
D10*
X2476500Y-9334500D02*
X11049000Y-9334500D01*
X11049000Y-9334500D02*
X11049000Y-4508500D01*
X11049000Y-4508500D02*
X2476500Y-4508500D01*
X2476500Y-4508500D02*
X2476500Y-9334500D01*
D11*
D12*
X5480332Y-5097780D02*
X5830332Y-5447780D01*
X5830332Y-5097780D02*
X5480332Y-5447780D01*
X7205500Y-7445000D02*
X7555500Y-7795000D01*
X7555500Y-7445000D02*
X7205500Y-7795000D01*
D11*
X2729119Y-9649976D02*
X2729119Y-9449976D01*
X2776738Y-9449976D01*
X2805309Y-9459500D01*
X2824357Y-9478548D01*
X2833881Y-9497595D01*
X2843405Y-9535690D01*
X2843405Y-9564262D01*
X2833881Y-9602357D01*
X2824357Y-9621405D01*
X2805309Y-9640452D01*
X2776738Y-9649976D01*
X2729119Y-9649976D01*
X2929119Y-9649976D02*
X2929119Y-9516643D01*
X2929119Y-9554738D02*
X2938643Y-9535690D01*
X2948167Y-9526167D01*
X2967214Y-9516643D01*
X2986262Y-9516643D01*
X3052928Y-9649976D02*
X3052928Y-9516643D01*
X3052928Y-9449976D02*
X3043405Y-9459500D01*
X3052928Y-9469024D01*
X3062452Y-9459500D01*
X3052928Y-9449976D01*
X3052928Y-9469024D01*
X3176738Y-9649976D02*
X3157690Y-9640452D01*
X3148167Y-9621405D01*
X3148167Y-9449976D01*
X3281500Y-9649976D02*
X3262452Y-9640452D01*
X3252928Y-9621405D01*
X3252928Y-9449976D01*
X3510071Y-9649976D02*
X3510071Y-9449976D01*
X3576738Y-9592833D01*
X3643405Y-9449976D01*
X3643405Y-9649976D01*
X3824357Y-9649976D02*
X3824357Y-9545214D01*
X3814833Y-9526167D01*
X3795786Y-9516643D01*
X3757690Y-9516643D01*
X3738643Y-9526167D01*
X3824357Y-9640452D02*
X3805309Y-9649976D01*
X3757690Y-9649976D01*
X3738643Y-9640452D01*
X3729119Y-9621405D01*
X3729119Y-9602357D01*
X3738643Y-9583310D01*
X3757690Y-9573786D01*
X3805309Y-9573786D01*
X3824357Y-9564262D01*
X3919595Y-9516643D02*
X3919595Y-9716643D01*
X3919595Y-9526167D02*
X3938643Y-9516643D01*
X3976738Y-9516643D01*
X3995786Y-9526167D01*
X4005309Y-9535690D01*
X4014833Y-9554738D01*
X4014833Y-9611881D01*
X4005309Y-9630929D01*
X3995786Y-9640452D01*
X3976738Y-9649976D01*
X3938643Y-9649976D01*
X3919595Y-9640452D01*
X4100548Y-9630929D02*
X4110071Y-9640452D01*
X4100548Y-9649976D01*
X4091024Y-9640452D01*
X4100548Y-9630929D01*
X4100548Y-9649976D01*
X4100548Y-9526167D02*
X4110071Y-9535690D01*
X4100548Y-9545214D01*
X4091024Y-9535690D01*
X4100548Y-9526167D01*
X4100548Y-9545214D01*
X2271500Y-9879500D02*
X2471500Y-10079500D01*
X2471500Y-9879500D02*
X2271500Y-10079500D01*
X2710071Y-9869976D02*
X2833881Y-9869976D01*
X2767214Y-9946167D01*
X2795786Y-9946167D01*
X2814833Y-9955690D01*
X2824357Y-9965214D01*
X2833881Y-9984262D01*
X2833881Y-10031881D01*
X2824357Y-10050929D01*
X2814833Y-10060452D01*
X2795786Y-10069976D01*
X2738643Y-10069976D01*
X2719595Y-10060452D01*
X2710071Y-10050929D01*
X2919595Y-10050929D02*
X2929119Y-10060452D01*
X2919595Y-10069976D01*
X2910071Y-10060452D01*
X2919595Y-10050929D01*
X2919595Y-10069976D01*
X3110071Y-9869976D02*
X3014833Y-9869976D01*
X3005309Y-9965214D01*
X3014833Y-9955690D01*
X3033881Y-9946167D01*
X3081500Y-9946167D01*
X3100548Y-9955690D01*
X3110071Y-9965214D01*
X3119595Y-9984262D01*
X3119595Y-10031881D01*
X3110071Y-10050929D01*
X3100548Y-10060452D01*
X3081500Y-10069976D01*
X3033881Y-10069976D01*
X3014833Y-10060452D01*
X3005309Y-10050929D01*
X3243405Y-9869976D02*
X3262452Y-9869976D01*
X3281500Y-9879500D01*
X3291024Y-9889024D01*
X3300548Y-9908071D01*
X3310071Y-9946167D01*
X3310071Y-9993786D01*
X3300548Y-10031881D01*
X3291024Y-10050929D01*
X3281500Y-10060452D01*
X3262452Y-10069976D01*
X3243405Y-10069976D01*
X3224357Y-10060452D01*
X3214833Y-10050929D01*
X3205309Y-10031881D01*
X3195786Y-9993786D01*
X3195786Y-9946167D01*
X3205309Y-9908071D01*
X3214833Y-9889024D01*
X3224357Y-9879500D01*
X3243405Y-9869976D01*
X3433881Y-9869976D02*
X3452928Y-9869976D01*
X3471976Y-9879500D01*
X3481500Y-9889024D01*
X3491024Y-9908071D01*
X3500548Y-9946167D01*
X3500548Y-9993786D01*
X3491024Y-10031881D01*
X3481500Y-10050929D01*
X3471976Y-10060452D01*
X3452928Y-10069976D01*
X3433881Y-10069976D01*
X3414833Y-10060452D01*
X3405309Y-10050929D01*
X3395786Y-10031881D01*
X3386262Y-9993786D01*
X3386262Y-9946167D01*
X3395786Y-9908071D01*
X3405309Y-9889024D01*
X3414833Y-9879500D01*
X3433881Y-9869976D01*
X3586262Y-10069976D02*
X3586262Y-9936643D01*
X3586262Y-9955690D02*
X3595786Y-9946167D01*
X3614833Y-9936643D01*
X3643405Y-9936643D01*
X3662452Y-9946167D01*
X3671976Y-9965214D01*
X3671976Y-10069976D01*
X3671976Y-9965214D02*
X3681500Y-9946167D01*
X3700548Y-9936643D01*
X3729119Y-9936643D01*
X3748167Y-9946167D01*
X3757690Y-9965214D01*
X3757690Y-10069976D01*
X3852928Y-10069976D02*
X3852928Y-9936643D01*
X3852928Y-9955690D02*
X3862452Y-9946167D01*
X3881500Y-9936643D01*
X3910071Y-9936643D01*
X3929119Y-9946167D01*
X3938643Y-9965214D01*
X3938643Y-10069976D01*
X3938643Y-9965214D02*
X3948167Y-9946167D01*
X3967214Y-9936643D01*
X3995786Y-9936643D01*
X4014833Y-9946167D01*
X4024357Y-9965214D01*
X4024357Y-10069976D01*
X4414833Y-9860452D02*
X4243405Y-10117595D01*
X4671976Y-9869976D02*
X4691024Y-9869976D01*
X4710071Y-9879500D01*
X4719595Y-9889024D01*
X4729119Y-9908071D01*
X4738643Y-9946167D01*
X4738643Y-9993786D01*
X4729119Y-10031881D01*
X4719595Y-10050929D01*
X4710071Y-10060452D01*
X4691024Y-10069976D01*
X4671976Y-10069976D01*
X4652929Y-10060452D01*
X4643405Y-10050929D01*
X4633881Y-10031881D01*
X4624357Y-9993786D01*
X4624357Y-9946167D01*
X4633881Y-9908071D01*
X4643405Y-9889024D01*
X4652929Y-9879500D01*
X4671976Y-9869976D01*
X4824357Y-10050929D02*
X4833881Y-10060452D01*
X4824357Y-10069976D01*
X4814833Y-10060452D01*
X4824357Y-10050929D01*
X4824357Y-10069976D01*
X5024357Y-10069976D02*
X4910071Y-10069976D01*
X4967214Y-10069976D02*
X4967214Y-9869976D01*
X4948167Y-9898548D01*
X4929119Y-9917595D01*
X4910071Y-9927119D01*
X5091024Y-9869976D02*
X5214833Y-9869976D01*
X5148167Y-9946167D01*
X5176738Y-9946167D01*
X5195786Y-9955690D01*
X5205310Y-9965214D01*
X5214833Y-9984262D01*
X5214833Y-10031881D01*
X5205310Y-10050929D01*
X5195786Y-10060452D01*
X5176738Y-10069976D01*
X5119595Y-10069976D01*
X5100548Y-10060452D01*
X5091024Y-10050929D01*
X5281500Y-9869976D02*
X5414833Y-9869976D01*
X5329119Y-10069976D01*
X5519595Y-9955690D02*
X5500548Y-9946167D01*
X5491024Y-9936643D01*
X5481500Y-9917595D01*
X5481500Y-9908071D01*
X5491024Y-9889024D01*
X5500548Y-9879500D01*
X5519595Y-9869976D01*
X5557690Y-9869976D01*
X5576738Y-9879500D01*
X5586262Y-9889024D01*
X5595786Y-9908071D01*
X5595786Y-9917595D01*
X5586262Y-9936643D01*
X5576738Y-9946167D01*
X5557690Y-9955690D01*
X5519595Y-9955690D01*
X5500548Y-9965214D01*
X5491024Y-9974738D01*
X5481500Y-9993786D01*
X5481500Y-10031881D01*
X5491024Y-10050929D01*
X5500548Y-10060452D01*
X5519595Y-10069976D01*
X5557690Y-10069976D01*
X5576738Y-10060452D01*
X5586262Y-10050929D01*
X5595786Y-10031881D01*
X5595786Y-9993786D01*
X5586262Y-9974738D01*
X5576738Y-9965214D01*
X5557690Y-9955690D01*
X5671976Y-9869976D02*
X5671976Y-9908071D01*
X5748167Y-9869976D02*
X5748167Y-9908071D01*
X6043405Y-10146167D02*
X6033881Y-10136643D01*
X6014833Y-10108071D01*
X6005309Y-10089024D01*
X5995786Y-10060452D01*
X5986262Y-10012833D01*
X5986262Y-9974738D01*
X5995786Y-9927119D01*
X6005309Y-9898548D01*
X6014833Y-9879500D01*
X6033881Y-9850929D01*
X6043405Y-9841405D01*
X6110071Y-9889024D02*
X6119595Y-9879500D01*
X6138643Y-9869976D01*
X6186262Y-9869976D01*
X6205309Y-9879500D01*
X6214833Y-9889024D01*
X6224357Y-9908071D01*
X6224357Y-9927119D01*
X6214833Y-9955690D01*
X6100548Y-10069976D01*
X6224357Y-10069976D01*
X6462452Y-10069976D02*
X6462452Y-9869976D01*
X6548167Y-10069976D02*
X6548167Y-9965214D01*
X6538643Y-9946167D01*
X6519595Y-9936643D01*
X6491024Y-9936643D01*
X6471976Y-9946167D01*
X6462452Y-9955690D01*
X6671976Y-10069976D02*
X6652928Y-10060452D01*
X6643405Y-10050929D01*
X6633881Y-10031881D01*
X6633881Y-9974738D01*
X6643405Y-9955690D01*
X6652928Y-9946167D01*
X6671976Y-9936643D01*
X6700548Y-9936643D01*
X6719595Y-9946167D01*
X6729119Y-9955690D01*
X6738643Y-9974738D01*
X6738643Y-10031881D01*
X6729119Y-10050929D01*
X6719595Y-10060452D01*
X6700548Y-10069976D01*
X6671976Y-10069976D01*
X6852928Y-10069976D02*
X6833881Y-10060452D01*
X6824357Y-10041405D01*
X6824357Y-9869976D01*
X7005309Y-10060452D02*
X6986262Y-10069976D01*
X6948167Y-10069976D01*
X6929119Y-10060452D01*
X6919595Y-10041405D01*
X6919595Y-9965214D01*
X6929119Y-9946167D01*
X6948167Y-9936643D01*
X6986262Y-9936643D01*
X7005309Y-9946167D01*
X7014833Y-9965214D01*
X7014833Y-9984262D01*
X6919595Y-10003310D01*
X7091024Y-10060452D02*
X7110071Y-10069976D01*
X7148167Y-10069976D01*
X7167214Y-10060452D01*
X7176738Y-10041405D01*
X7176738Y-10031881D01*
X7167214Y-10012833D01*
X7148167Y-10003310D01*
X7119595Y-10003310D01*
X7100548Y-9993786D01*
X7091024Y-9974738D01*
X7091024Y-9965214D01*
X7100548Y-9946167D01*
X7119595Y-9936643D01*
X7148167Y-9936643D01*
X7167214Y-9946167D01*
X7243405Y-10146167D02*
X7252928Y-10136643D01*
X7271976Y-10108071D01*
X7281500Y-10089024D01*
X7291024Y-10060452D01*
X7300548Y-10012833D01*
X7300548Y-9974738D01*
X7291024Y-9927119D01*
X7281500Y-9898548D01*
X7271976Y-9879500D01*
X7252928Y-9850929D01*
X7243405Y-9841405D01*
X7605309Y-10146167D02*
X7595786Y-10136643D01*
X7576738Y-10108071D01*
X7567214Y-10089024D01*
X7557690Y-10060452D01*
X7548167Y-10012833D01*
X7548167Y-9974738D01*
X7557690Y-9927119D01*
X7567214Y-9898548D01*
X7576738Y-9879500D01*
X7595786Y-9850929D01*
X7605309Y-9841405D01*
X7681500Y-9936643D02*
X7681500Y-10069976D01*
X7681500Y-9955690D02*
X7691024Y-9946167D01*
X7710071Y-9936643D01*
X7738643Y-9936643D01*
X7757690Y-9946167D01*
X7767214Y-9965214D01*
X7767214Y-10069976D01*
X7891024Y-10069976D02*
X7871976Y-10060452D01*
X7862452Y-10050929D01*
X7852928Y-10031881D01*
X7852928Y-9974738D01*
X7862452Y-9955690D01*
X7871976Y-9946167D01*
X7891024Y-9936643D01*
X7919595Y-9936643D01*
X7938643Y-9946167D01*
X7948167Y-9955690D01*
X7957690Y-9974738D01*
X7957690Y-10031881D01*
X7948167Y-10050929D01*
X7938643Y-10060452D01*
X7919595Y-10069976D01*
X7891024Y-10069976D01*
X8014833Y-9936643D02*
X8091024Y-9936643D01*
X8043405Y-9869976D02*
X8043405Y-10041405D01*
X8052928Y-10060452D01*
X8071976Y-10069976D01*
X8091024Y-10069976D01*
X8310071Y-9936643D02*
X8310071Y-10136643D01*
X8310071Y-9946167D02*
X8329119Y-9936643D01*
X8367214Y-9936643D01*
X8386262Y-9946167D01*
X8395786Y-9955690D01*
X8405310Y-9974738D01*
X8405310Y-10031881D01*
X8395786Y-10050929D01*
X8386262Y-10060452D01*
X8367214Y-10069976D01*
X8329119Y-10069976D01*
X8310071Y-10060452D01*
X8519595Y-10069976D02*
X8500548Y-10060452D01*
X8491024Y-10041405D01*
X8491024Y-9869976D01*
X8681500Y-10069976D02*
X8681500Y-9965214D01*
X8671976Y-9946167D01*
X8652929Y-9936643D01*
X8614833Y-9936643D01*
X8595786Y-9946167D01*
X8681500Y-10060452D02*
X8662452Y-10069976D01*
X8614833Y-10069976D01*
X8595786Y-10060452D01*
X8586262Y-10041405D01*
X8586262Y-10022357D01*
X8595786Y-10003310D01*
X8614833Y-9993786D01*
X8662452Y-9993786D01*
X8681500Y-9984262D01*
X8748167Y-9936643D02*
X8824357Y-9936643D01*
X8776738Y-9869976D02*
X8776738Y-10041405D01*
X8786262Y-10060452D01*
X8805310Y-10069976D01*
X8824357Y-10069976D01*
X8967214Y-10060452D02*
X8948167Y-10069976D01*
X8910071Y-10069976D01*
X8891024Y-10060452D01*
X8881500Y-10041405D01*
X8881500Y-9965214D01*
X8891024Y-9946167D01*
X8910071Y-9936643D01*
X8948167Y-9936643D01*
X8967214Y-9946167D01*
X8976738Y-9965214D01*
X8976738Y-9984262D01*
X8881500Y-10003310D01*
X9148167Y-10069976D02*
X9148167Y-9869976D01*
X9148167Y-10060452D02*
X9129119Y-10069976D01*
X9091024Y-10069976D01*
X9071976Y-10060452D01*
X9062452Y-10050929D01*
X9052929Y-10031881D01*
X9052929Y-9974738D01*
X9062452Y-9955690D01*
X9071976Y-9946167D01*
X9091024Y-9936643D01*
X9129119Y-9936643D01*
X9148167Y-9946167D01*
X9224357Y-10146167D02*
X9233881Y-10136643D01*
X9252929Y-10108071D01*
X9262452Y-10089024D01*
X9271976Y-10060452D01*
X9281500Y-10012833D01*
X9281500Y-9974738D01*
X9271976Y-9927119D01*
X9262452Y-9898548D01*
X9252929Y-9879500D01*
X9233881Y-9850929D01*
X9224357Y-9841405D01*
M02*
