%TF.GenerationSoftware,KiCad,Pcbnew,(6.0.9)*%
%TF.CreationDate,2022-12-19T09:49:19-08:00*%
%TF.ProjectId,TinyG-SuperPid-Integrator,54696e79-472d-4537-9570-65725069642d,rev?*%
%TF.SameCoordinates,Original*%
%TF.FileFunction,Copper,L3,Inr*%
%TF.FilePolarity,Positive*%
%FSLAX46Y46*%
G04 Gerber Fmt 4.6, Leading zero omitted, Abs format (unit mm)*
G04 Created by KiCad (PCBNEW (6.0.9)) date 2022-12-19 09:49:19*
%MOMM*%
%LPD*%
G01*
G04 APERTURE LIST*
%TA.AperFunction,ComponentPad*%
%ADD10C,1.270000*%
%TD*%
%TA.AperFunction,ComponentPad*%
%ADD11R,1.950000X1.950000*%
%TD*%
%TA.AperFunction,ComponentPad*%
%ADD12C,1.950000*%
%TD*%
%TA.AperFunction,ComponentPad*%
%ADD13C,2.000000*%
%TD*%
%TA.AperFunction,ComponentPad*%
%ADD14C,1.600000*%
%TD*%
%TA.AperFunction,ComponentPad*%
%ADD15O,1.600000X1.600000*%
%TD*%
%TA.AperFunction,ComponentPad*%
%ADD16R,1.371600X1.371600*%
%TD*%
%TA.AperFunction,ComponentPad*%
%ADD17C,1.371600*%
%TD*%
%TA.AperFunction,ComponentPad*%
%ADD18R,2.000000X2.000000*%
%TD*%
%TA.AperFunction,ComponentPad*%
%ADD19O,2.000000X2.000000*%
%TD*%
%TA.AperFunction,ComponentPad*%
%ADD20R,1.800000X1.800000*%
%TD*%
%TA.AperFunction,ComponentPad*%
%ADD21O,1.800000X1.800000*%
%TD*%
%TA.AperFunction,ComponentPad*%
%ADD22R,1.408000X1.408000*%
%TD*%
%TA.AperFunction,ComponentPad*%
%ADD23C,1.408000*%
%TD*%
%TA.AperFunction,ComponentPad*%
%ADD24C,3.316000*%
%TD*%
%TA.AperFunction,ComponentPad*%
%ADD25R,1.600000X1.600000*%
%TD*%
%TA.AperFunction,ComponentPad*%
%ADD26C,1.800000*%
%TD*%
%TA.AperFunction,ViaPad*%
%ADD27C,0.800000*%
%TD*%
G04 APERTURE END LIST*
D10*
%TO.N,Net-(J1-Pad1)*%
%TO.C,U2*%
X86995000Y-47585000D03*
%TO.N,Net-(R1-Pad1)*%
X84455000Y-47585000D03*
%TO.N,Net-(R2-Pad1)*%
X81915000Y-47585000D03*
%TO.N,Net-(J1-Pad2)*%
X79375000Y-47585000D03*
%TO.N,GND*%
X79375000Y-57745000D03*
%TO.N,Net-(J2-Pad3)*%
X81915000Y-57745000D03*
%TO.N,Net-(J2-Pad2)*%
X84455000Y-57745000D03*
%TO.N,+5V*%
X86995000Y-57745000D03*
%TD*%
D11*
%TO.N,+5V*%
%TO.C,J2*%
X104775000Y-90170000D03*
D12*
%TO.N,Net-(J2-Pad2)*%
X104775000Y-85170000D03*
%TO.N,Net-(J2-Pad3)*%
X104775000Y-80170000D03*
%TO.N,GND*%
X104775000Y-75170000D03*
%TD*%
D13*
%TO.N,Net-(Cb1-Pad1)*%
%TO.C,L1*%
X45085000Y-73570000D03*
%TO.N,+5V*%
X45085000Y-85640000D03*
%TD*%
D14*
%TO.N,GND*%
%TO.C,RL1*%
X79375000Y-75565000D03*
D15*
%TO.N,+5V*%
X92075000Y-75565000D03*
%TD*%
D16*
%TO.N,Net-(R1-Pad1)*%
%TO.C,R1*%
X76415700Y-48260000D03*
D17*
%TO.N,GND*%
X65290500Y-48260000D03*
%TD*%
D18*
%TO.N,Net-(Cb1-Pad1)*%
%TO.C,D1*%
X54013318Y-69387801D03*
D19*
%TO.N,GND*%
X59093318Y-69387801D03*
%TD*%
D16*
%TO.N,GND*%
%TO.C,R9*%
X79159300Y-86995000D03*
D17*
%TO.N,Net-(R9-Pad2)*%
X90284500Y-86995000D03*
%TD*%
D11*
%TO.N,Net-(J1-Pad1)*%
%TO.C,J1*%
X29807500Y-49015000D03*
D12*
%TO.N,Net-(J1-Pad2)*%
X29807500Y-54015000D03*
%TO.N,Net-(J1-Pad3)*%
X29807500Y-59015000D03*
%TO.N,GND*%
X29807500Y-64015000D03*
%TD*%
D20*
%TO.N,Net-(Cb1-Pad1)*%
%TO.C,U1*%
X58905000Y-72390000D03*
D21*
%TO.N,Net-(Cin1-Pad1)*%
X55105000Y-73660000D03*
%TO.N,Net-(Cb1-Pad2)*%
X58905000Y-74930000D03*
%TO.N,GND*%
X55105000Y-76200000D03*
%TO.N,unconnected-(U1-Pad5)*%
X58905000Y-77470000D03*
%TO.N,+5V*%
X55105000Y-78740000D03*
%TO.N,unconnected-(U1-Pad7)*%
X58905000Y-80010000D03*
%TD*%
D11*
%TO.N,Net-(J5-Pad1)*%
%TO.C,J5*%
X104812500Y-53420000D03*
D12*
%TO.N,GND*%
X104812500Y-48420000D03*
%TD*%
D14*
%TO.N,+5V*%
%TO.C,C2*%
X90805000Y-63520000D03*
%TO.N,GND*%
X90805000Y-66020000D03*
%TD*%
D22*
%TO.N,+5V*%
%TO.C,J4*%
X96365000Y-67782500D03*
D23*
%TO.N,Net-(J4-Pad2)*%
X96365000Y-65282500D03*
%TO.N,Net-(J4-Pad3)*%
X96365000Y-63282500D03*
%TO.N,GND*%
X96365000Y-60782500D03*
D24*
X99035000Y-69282500D03*
X99035000Y-59282500D03*
%TD*%
D16*
%TO.N,Net-(J4-Pad3)*%
%TO.C,R8*%
X79159300Y-83345678D03*
D17*
%TO.N,+5V*%
X90284500Y-83345678D03*
%TD*%
D25*
%TO.N,Net-(Cin1-Pad1)*%
%TO.C,Cin1*%
X31115000Y-71372349D03*
D14*
%TO.N,GND*%
X31115000Y-74872349D03*
%TD*%
D16*
%TO.N,Net-(D2-Pad1)*%
%TO.C,R10*%
X79159300Y-90805000D03*
D17*
%TO.N,GND*%
X90284500Y-90805000D03*
%TD*%
D10*
%TO.N,unconnected-(U3-Pad1)*%
%TO.C,U3*%
X86995000Y-60285000D03*
%TO.N,unconnected-(U3-Pad2)*%
X84455000Y-60285000D03*
%TO.N,Net-(R9-Pad2)*%
X81915000Y-60285000D03*
%TO.N,Net-(J1-Pad3)*%
X79375000Y-60285000D03*
%TO.N,GND*%
X79375000Y-70445000D03*
%TO.N,Net-(J5-Pad1)*%
X81915000Y-70445000D03*
%TO.N,unconnected-(U3-Pad7)*%
X84455000Y-70445000D03*
%TO.N,+5V*%
X86995000Y-70445000D03*
%TD*%
D14*
%TO.N,Net-(Cb1-Pad1)*%
%TO.C,Cb1*%
X63000203Y-69084865D03*
%TO.N,Net-(Cb1-Pad2)*%
X65500203Y-69084865D03*
%TD*%
%TO.N,Net-(Cin1-Pad1)*%
%TO.C,Cinx1*%
X49562685Y-69592058D03*
%TO.N,GND*%
X49562685Y-67092058D03*
%TD*%
%TO.N,+5V*%
%TO.C,C1*%
X90805000Y-51435000D03*
%TO.N,GND*%
X90805000Y-53935000D03*
%TD*%
D18*
%TO.N,+5V*%
%TO.C,Cout1*%
X59752077Y-84696742D03*
D13*
%TO.N,GND*%
X59752077Y-89696742D03*
%TD*%
D11*
%TO.N,Net-(Cin1-Pad1)*%
%TO.C,J3*%
X29828410Y-84380787D03*
D12*
%TO.N,GND*%
X29828410Y-89380787D03*
%TD*%
D16*
%TO.N,GND*%
%TO.C,R7*%
X79227567Y-79696356D03*
D17*
%TO.N,Net-(J4-Pad3)*%
X90352767Y-79696356D03*
%TD*%
D16*
%TO.N,Net-(R2-Pad1)*%
%TO.C,R2*%
X76415700Y-51585365D03*
D17*
%TO.N,GND*%
X65290500Y-51585365D03*
%TD*%
D20*
%TO.N,Net-(D2-Pad1)*%
%TO.C,D2*%
X71120000Y-86355000D03*
D26*
%TO.N,+5V*%
X71120000Y-88895000D03*
%TD*%
D16*
%TO.N,GND*%
%TO.C,R5*%
X65312152Y-62214758D03*
D17*
%TO.N,Net-(J4-Pad2)*%
X76437352Y-62214758D03*
%TD*%
D16*
%TO.N,Net-(J2-Pad2)*%
%TO.C,R3*%
X76415700Y-54910730D03*
D17*
%TO.N,+5V*%
X65290500Y-54910730D03*
%TD*%
D16*
%TO.N,Net-(J2-Pad3)*%
%TO.C,R4*%
X76390749Y-58532218D03*
D17*
%TO.N,+5V*%
X65265549Y-58532218D03*
%TD*%
D16*
%TO.N,Net-(J4-Pad2)*%
%TO.C,R6*%
X76446305Y-65864080D03*
D17*
%TO.N,+5V*%
X65321105Y-65864080D03*
%TD*%
D27*
%TO.N,Net-(J1-Pad3)*%
X62865000Y-47714500D03*
X62865000Y-60325000D03*
%TO.N,Net-(J2-Pad2)*%
X83185000Y-85090000D03*
X84455000Y-55245000D03*
%TO.N,Net-(J2-Pad3)*%
X80645000Y-78105000D03*
X81915000Y-55880000D03*
%TO.N,Net-(J4-Pad3)*%
X94615000Y-63500000D03*
X94615000Y-68580000D03*
X88900000Y-68580000D03*
%TO.N,Net-(R1-Pad1)*%
X84455000Y-50165000D03*
%TO.N,Net-(R2-Pad1)*%
X81915000Y-51435000D03*
%TO.N,Net-(R9-Pad2)*%
X78105000Y-85090000D03*
X78105000Y-62230000D03*
%TO.N,Net-(J5-Pad1)*%
X88900000Y-66675000D03*
X93980000Y-61595000D03*
X88900000Y-61595000D03*
%TO.N,Net-(D2-Pad1)*%
X75565000Y-86360000D03*
X75565000Y-90805000D03*
%TD*%
%TA.AperFunction,Conductor*%
%TO.N,GND*%
G36*
X50742121Y-45740002D02*
G01*
X50788614Y-45793658D01*
X50800000Y-45846000D01*
X50800000Y-65405000D01*
X62865000Y-65405000D01*
X62865000Y-63520000D01*
X89491502Y-63520000D01*
X89511457Y-63748087D01*
X89512881Y-63753400D01*
X89512881Y-63753402D01*
X89544541Y-63871556D01*
X89570716Y-63969243D01*
X89573039Y-63974224D01*
X89573039Y-63974225D01*
X89665151Y-64171762D01*
X89665154Y-64171767D01*
X89667477Y-64176749D01*
X89679140Y-64193405D01*
X89760279Y-64309283D01*
X89798802Y-64364300D01*
X89960700Y-64526198D01*
X89965208Y-64529355D01*
X89965211Y-64529357D01*
X90005902Y-64557849D01*
X90148251Y-64657523D01*
X90153235Y-64659847D01*
X90155528Y-64661171D01*
X90204521Y-64712553D01*
X90217957Y-64782267D01*
X90191571Y-64848178D01*
X90155528Y-64879409D01*
X90143998Y-64886066D01*
X90091952Y-64922509D01*
X90083576Y-64932988D01*
X90090644Y-64946434D01*
X90792188Y-65647978D01*
X90806132Y-65655592D01*
X90807965Y-65655461D01*
X90814580Y-65651210D01*
X91520077Y-64945713D01*
X91526507Y-64933938D01*
X91517211Y-64921923D01*
X91466002Y-64886066D01*
X91454472Y-64879409D01*
X91405479Y-64828027D01*
X91392042Y-64758313D01*
X91418429Y-64692402D01*
X91454472Y-64661171D01*
X91456765Y-64659847D01*
X91461749Y-64657523D01*
X91604098Y-64557849D01*
X91644789Y-64529357D01*
X91644792Y-64529355D01*
X91649300Y-64526198D01*
X91811198Y-64364300D01*
X91849722Y-64309283D01*
X91930860Y-64193405D01*
X91942523Y-64176749D01*
X91944846Y-64171767D01*
X91944849Y-64171762D01*
X92036961Y-63974225D01*
X92036961Y-63974224D01*
X92039284Y-63969243D01*
X92065460Y-63871556D01*
X92097119Y-63753402D01*
X92097119Y-63753400D01*
X92098543Y-63748087D01*
X92118498Y-63520000D01*
X92098543Y-63291913D01*
X92094198Y-63275698D01*
X92040707Y-63076067D01*
X92040706Y-63076065D01*
X92039284Y-63070757D01*
X92014329Y-63017240D01*
X91944849Y-62868238D01*
X91944846Y-62868233D01*
X91942523Y-62863251D01*
X91836624Y-62712012D01*
X91814357Y-62680211D01*
X91814355Y-62680208D01*
X91811198Y-62675700D01*
X91649300Y-62513802D01*
X91644792Y-62510645D01*
X91644789Y-62510643D01*
X91515234Y-62419928D01*
X91461749Y-62382477D01*
X91456767Y-62380154D01*
X91456762Y-62380151D01*
X91259225Y-62288039D01*
X91259224Y-62288039D01*
X91254243Y-62285716D01*
X91248935Y-62284294D01*
X91248933Y-62284293D01*
X91038402Y-62227881D01*
X91038400Y-62227881D01*
X91033087Y-62226457D01*
X90805000Y-62206502D01*
X90576913Y-62226457D01*
X90571600Y-62227881D01*
X90571598Y-62227881D01*
X90361067Y-62284293D01*
X90361065Y-62284294D01*
X90355757Y-62285716D01*
X90350776Y-62288039D01*
X90350775Y-62288039D01*
X90153238Y-62380151D01*
X90153233Y-62380154D01*
X90148251Y-62382477D01*
X90094766Y-62419928D01*
X89965211Y-62510643D01*
X89965208Y-62510645D01*
X89960700Y-62513802D01*
X89798802Y-62675700D01*
X89795645Y-62680208D01*
X89795643Y-62680211D01*
X89773376Y-62712012D01*
X89667477Y-62863251D01*
X89665154Y-62868233D01*
X89665151Y-62868238D01*
X89595671Y-63017240D01*
X89570716Y-63070757D01*
X89569294Y-63076065D01*
X89569293Y-63076067D01*
X89515802Y-63275698D01*
X89511457Y-63291913D01*
X89491502Y-63520000D01*
X62865000Y-63520000D01*
X62865000Y-62945227D01*
X64118353Y-62945227D01*
X64118723Y-62952048D01*
X64124247Y-63002910D01*
X64127873Y-63018162D01*
X64173028Y-63138612D01*
X64181566Y-63154207D01*
X64258067Y-63256282D01*
X64270628Y-63268843D01*
X64372703Y-63345344D01*
X64388298Y-63353882D01*
X64508746Y-63399036D01*
X64524001Y-63402663D01*
X64574866Y-63408189D01*
X64581680Y-63408558D01*
X65040037Y-63408558D01*
X65055276Y-63404083D01*
X65056481Y-63402693D01*
X65058152Y-63395010D01*
X65058152Y-63390442D01*
X65566152Y-63390442D01*
X65570627Y-63405681D01*
X65572017Y-63406886D01*
X65579700Y-63408557D01*
X66042621Y-63408557D01*
X66049442Y-63408187D01*
X66100304Y-63402663D01*
X66115556Y-63399037D01*
X66236006Y-63353882D01*
X66251601Y-63345344D01*
X66353676Y-63268843D01*
X66366237Y-63256282D01*
X66442738Y-63154207D01*
X66451276Y-63138612D01*
X66496430Y-63018164D01*
X66500057Y-63002909D01*
X66505583Y-62952044D01*
X66505952Y-62945230D01*
X66505952Y-62486873D01*
X66501477Y-62471634D01*
X66500087Y-62470429D01*
X66492404Y-62468758D01*
X65584267Y-62468758D01*
X65569028Y-62473233D01*
X65567823Y-62474623D01*
X65566152Y-62482306D01*
X65566152Y-63390442D01*
X65058152Y-63390442D01*
X65058152Y-62486873D01*
X65053677Y-62471634D01*
X65052287Y-62470429D01*
X65044604Y-62468758D01*
X64136468Y-62468758D01*
X64121229Y-62473233D01*
X64120024Y-62474623D01*
X64118353Y-62482306D01*
X64118353Y-62945227D01*
X62865000Y-62945227D01*
X62865000Y-62183361D01*
X75238347Y-62183361D01*
X75252703Y-62402388D01*
X75306733Y-62615131D01*
X75398627Y-62814466D01*
X75401958Y-62819179D01*
X75401959Y-62819181D01*
X75507682Y-62968774D01*
X75525309Y-62993716D01*
X75682535Y-63146879D01*
X75687331Y-63150084D01*
X75687334Y-63150086D01*
X75761343Y-63199537D01*
X75865040Y-63268825D01*
X75870343Y-63271103D01*
X75870346Y-63271105D01*
X76043143Y-63345344D01*
X76066712Y-63355470D01*
X76280797Y-63403913D01*
X76286568Y-63404140D01*
X76286570Y-63404140D01*
X76359986Y-63407024D01*
X76500125Y-63412530D01*
X76593192Y-63399036D01*
X76711636Y-63381863D01*
X76711641Y-63381862D01*
X76717350Y-63381034D01*
X76722814Y-63379179D01*
X76722819Y-63379178D01*
X76919730Y-63312335D01*
X76925198Y-63310479D01*
X77116709Y-63203228D01*
X77285467Y-63062873D01*
X77368300Y-62963278D01*
X77427236Y-62923696D01*
X77498218Y-62922260D01*
X77539228Y-62941910D01*
X77648248Y-63021118D01*
X77654276Y-63023802D01*
X77654278Y-63023803D01*
X77816681Y-63096109D01*
X77822712Y-63098794D01*
X77916113Y-63118647D01*
X78003056Y-63137128D01*
X78003061Y-63137128D01*
X78009513Y-63138500D01*
X78200487Y-63138500D01*
X78206939Y-63137128D01*
X78206944Y-63137128D01*
X78293887Y-63118647D01*
X78387288Y-63098794D01*
X78393319Y-63096109D01*
X78555722Y-63023803D01*
X78555724Y-63023802D01*
X78561752Y-63021118D01*
X78586815Y-63002909D01*
X78666202Y-62945230D01*
X78716253Y-62908866D01*
X78797006Y-62819181D01*
X78839621Y-62771852D01*
X78839622Y-62771851D01*
X78844040Y-62766944D01*
X78928660Y-62620378D01*
X78936223Y-62607279D01*
X78936224Y-62607278D01*
X78939527Y-62601556D01*
X78998542Y-62419928D01*
X79001814Y-62388803D01*
X79017814Y-62236565D01*
X79018504Y-62230000D01*
X79009719Y-62146419D01*
X78999232Y-62046635D01*
X78999232Y-62046633D01*
X78998542Y-62040072D01*
X78939527Y-61858444D01*
X78924823Y-61832975D01*
X78880243Y-61755761D01*
X78844040Y-61693056D01*
X78755750Y-61595000D01*
X87986496Y-61595000D01*
X87987186Y-61601565D01*
X88002855Y-61750644D01*
X88006458Y-61784928D01*
X88065473Y-61966556D01*
X88160960Y-62131944D01*
X88165378Y-62136851D01*
X88165379Y-62136852D01*
X88255161Y-62236565D01*
X88288747Y-62273866D01*
X88443248Y-62386118D01*
X88449276Y-62388802D01*
X88449278Y-62388803D01*
X88611681Y-62461109D01*
X88617712Y-62463794D01*
X88704804Y-62482306D01*
X88798056Y-62502128D01*
X88798061Y-62502128D01*
X88804513Y-62503500D01*
X88995487Y-62503500D01*
X89001939Y-62502128D01*
X89001944Y-62502128D01*
X89095196Y-62482306D01*
X89182288Y-62463794D01*
X89188319Y-62461109D01*
X89350722Y-62388803D01*
X89350724Y-62388802D01*
X89356752Y-62386118D01*
X89511253Y-62273866D01*
X89544839Y-62236565D01*
X89634621Y-62136852D01*
X89634622Y-62136851D01*
X89639040Y-62131944D01*
X89734527Y-61966556D01*
X89793542Y-61784928D01*
X89797146Y-61750644D01*
X89812814Y-61601565D01*
X89813504Y-61595000D01*
X93066496Y-61595000D01*
X93067186Y-61601565D01*
X93082855Y-61750644D01*
X93086458Y-61784928D01*
X93145473Y-61966556D01*
X93240960Y-62131944D01*
X93245378Y-62136851D01*
X93245379Y-62136852D01*
X93335161Y-62236565D01*
X93368747Y-62273866D01*
X93523248Y-62386118D01*
X93529276Y-62388802D01*
X93529278Y-62388803D01*
X93691681Y-62461109D01*
X93697712Y-62463794D01*
X93784804Y-62482306D01*
X93878056Y-62502128D01*
X93878061Y-62502128D01*
X93884513Y-62503500D01*
X94053144Y-62503500D01*
X94121265Y-62523502D01*
X94167758Y-62577158D01*
X94177862Y-62647432D01*
X94148368Y-62712012D01*
X94127205Y-62731436D01*
X94003747Y-62821134D01*
X93999326Y-62826044D01*
X93999325Y-62826045D01*
X93885872Y-62952048D01*
X93875960Y-62963056D01*
X93844143Y-63018164D01*
X93813554Y-63071147D01*
X93780473Y-63128444D01*
X93721458Y-63310072D01*
X93720768Y-63316633D01*
X93720768Y-63316635D01*
X93711146Y-63408187D01*
X93701496Y-63500000D01*
X93702186Y-63506565D01*
X93717324Y-63650592D01*
X93721458Y-63689928D01*
X93780473Y-63871556D01*
X93875960Y-64036944D01*
X93880378Y-64041851D01*
X93880379Y-64041852D01*
X93999325Y-64173955D01*
X94003747Y-64178866D01*
X94158248Y-64291118D01*
X94164276Y-64293802D01*
X94164278Y-64293803D01*
X94290776Y-64350123D01*
X94332712Y-64368794D01*
X94418468Y-64387022D01*
X94513056Y-64407128D01*
X94513061Y-64407128D01*
X94519513Y-64408500D01*
X94710487Y-64408500D01*
X94716939Y-64407128D01*
X94716944Y-64407128D01*
X94811532Y-64387022D01*
X94897288Y-64368794D01*
X94939224Y-64350123D01*
X95065722Y-64293803D01*
X95065724Y-64293802D01*
X95071752Y-64291118D01*
X95226253Y-64178866D01*
X95230675Y-64173955D01*
X95289203Y-64108953D01*
X95349649Y-64071713D01*
X95420633Y-64073065D01*
X95471934Y-64104168D01*
X95561171Y-64193405D01*
X95595197Y-64255717D01*
X95590132Y-64326532D01*
X95561171Y-64371595D01*
X95432623Y-64500143D01*
X95310933Y-64673934D01*
X95308610Y-64678916D01*
X95308607Y-64678921D01*
X95226111Y-64855835D01*
X95221270Y-64866216D01*
X95219848Y-64871524D01*
X95219847Y-64871526D01*
X95203124Y-64933938D01*
X95166359Y-65071147D01*
X95147868Y-65282500D01*
X95166359Y-65493853D01*
X95167783Y-65499166D01*
X95167783Y-65499168D01*
X95209662Y-65655461D01*
X95221270Y-65698784D01*
X95223592Y-65703764D01*
X95223593Y-65703766D01*
X95308607Y-65886079D01*
X95308610Y-65886084D01*
X95310933Y-65891066D01*
X95357890Y-65958127D01*
X95419379Y-66045942D01*
X95432623Y-66064857D01*
X95582643Y-66214877D01*
X95587151Y-66218034D01*
X95587154Y-66218036D01*
X95751929Y-66333413D01*
X95751933Y-66333415D01*
X95756434Y-66336567D01*
X95756284Y-66336781D01*
X95803466Y-66386265D01*
X95816901Y-66455979D01*
X95790514Y-66521890D01*
X95732681Y-66563071D01*
X95691472Y-66570000D01*
X95612866Y-66570000D01*
X95550684Y-66576755D01*
X95414295Y-66627885D01*
X95297739Y-66715239D01*
X95210385Y-66831795D01*
X95159255Y-66968184D01*
X95152500Y-67030366D01*
X95152500Y-67630810D01*
X95132498Y-67698931D01*
X95078842Y-67745424D01*
X95008568Y-67755528D01*
X94975252Y-67745917D01*
X94903323Y-67713892D01*
X94903315Y-67713889D01*
X94897288Y-67711206D01*
X94803888Y-67691353D01*
X94716944Y-67672872D01*
X94716939Y-67672872D01*
X94710487Y-67671500D01*
X94519513Y-67671500D01*
X94513061Y-67672872D01*
X94513056Y-67672872D01*
X94426112Y-67691353D01*
X94332712Y-67711206D01*
X94326682Y-67713891D01*
X94326681Y-67713891D01*
X94164278Y-67786197D01*
X94164276Y-67786198D01*
X94158248Y-67788882D01*
X94152907Y-67792762D01*
X94152906Y-67792763D01*
X94134117Y-67806414D01*
X94003747Y-67901134D01*
X93999326Y-67906044D01*
X93999325Y-67906045D01*
X93957789Y-67952176D01*
X93875960Y-68043056D01*
X93872659Y-68048774D01*
X93797981Y-68178120D01*
X93780473Y-68208444D01*
X93721458Y-68390072D01*
X93720768Y-68396633D01*
X93720768Y-68396635D01*
X93717459Y-68428116D01*
X93701496Y-68580000D01*
X93702186Y-68586565D01*
X93714409Y-68702856D01*
X93721458Y-68769928D01*
X93780473Y-68951556D01*
X93875960Y-69116944D01*
X93880378Y-69121851D01*
X93880379Y-69121852D01*
X93899254Y-69142815D01*
X94003747Y-69258866D01*
X94070647Y-69307472D01*
X94141096Y-69358656D01*
X94158248Y-69371118D01*
X94164276Y-69373802D01*
X94164278Y-69373803D01*
X94279941Y-69425299D01*
X94332712Y-69448794D01*
X94422156Y-69467806D01*
X94513056Y-69487128D01*
X94513061Y-69487128D01*
X94519513Y-69488500D01*
X94710487Y-69488500D01*
X94716939Y-69487128D01*
X94716944Y-69487128D01*
X94807844Y-69467806D01*
X94897288Y-69448794D01*
X94950059Y-69425299D01*
X95065722Y-69373803D01*
X95065724Y-69373802D01*
X95071752Y-69371118D01*
X95088905Y-69358656D01*
X95159353Y-69307472D01*
X95226253Y-69258866D01*
X95330746Y-69142815D01*
X95349621Y-69121852D01*
X95349622Y-69121851D01*
X95354040Y-69116944D01*
X95396732Y-69042999D01*
X95448113Y-68994007D01*
X95517826Y-68980570D01*
X95535369Y-68984624D01*
X95535602Y-68983645D01*
X95543290Y-68985473D01*
X95550684Y-68988245D01*
X95558532Y-68989098D01*
X95558534Y-68989098D01*
X95603725Y-68994007D01*
X95612866Y-68995000D01*
X96748589Y-68995000D01*
X96816710Y-69015002D01*
X96863203Y-69068658D01*
X96874201Y-69130886D01*
X96864394Y-69255494D01*
X96864305Y-69264045D01*
X96880811Y-69550319D01*
X96881884Y-69558818D01*
X96937091Y-69840205D01*
X96939304Y-69848467D01*
X97032190Y-70119764D01*
X97035506Y-70127651D01*
X97164350Y-70383829D01*
X97168706Y-70391195D01*
X97320721Y-70612376D01*
X97330974Y-70620720D01*
X97344715Y-70613574D01*
X98674659Y-69283631D01*
X99399408Y-69283631D01*
X99399539Y-69285466D01*
X99403790Y-69292080D01*
X100723755Y-70612044D01*
X100735965Y-70618712D01*
X100747463Y-70610023D01*
X100865549Y-70449268D01*
X100870133Y-70442045D01*
X101006957Y-70190047D01*
X101010525Y-70182253D01*
X101111883Y-69914018D01*
X101114356Y-69905826D01*
X101178375Y-69626309D01*
X101179713Y-69617855D01*
X101205365Y-69330432D01*
X101205611Y-69325494D01*
X101206035Y-69284985D01*
X101205892Y-69280019D01*
X101186266Y-68992130D01*
X101185103Y-68983645D01*
X101126954Y-68702856D01*
X101124655Y-68694621D01*
X101028932Y-68424309D01*
X101025535Y-68416459D01*
X100894013Y-68161639D01*
X100889585Y-68154327D01*
X100748444Y-67953503D01*
X100737923Y-67945124D01*
X100724535Y-67952176D01*
X99407020Y-69269690D01*
X99399408Y-69283631D01*
X98674659Y-69283631D01*
X99035000Y-68923290D01*
X100363885Y-67594404D01*
X100371075Y-67581237D01*
X100363752Y-67571000D01*
X100295973Y-67515524D01*
X100289001Y-67510569D01*
X100044506Y-67360742D01*
X100036908Y-67356770D01*
X99774349Y-67241514D01*
X99766295Y-67238615D01*
X99490519Y-67160059D01*
X99482141Y-67158277D01*
X99198256Y-67117874D01*
X99189709Y-67117247D01*
X98902965Y-67115745D01*
X98894430Y-67116282D01*
X98610130Y-67153711D01*
X98601732Y-67155404D01*
X98325155Y-67231067D01*
X98317060Y-67233886D01*
X98053301Y-67346388D01*
X98045679Y-67350273D01*
X97799628Y-67497531D01*
X97792598Y-67502417D01*
X97782282Y-67510682D01*
X97716612Y-67537665D01*
X97646780Y-67524861D01*
X97594956Y-67476335D01*
X97577500Y-67412349D01*
X97577500Y-67030366D01*
X97570745Y-66968184D01*
X97519615Y-66831795D01*
X97432261Y-66715239D01*
X97315705Y-66627885D01*
X97179316Y-66576755D01*
X97117134Y-66570000D01*
X97038528Y-66570000D01*
X96970407Y-66549998D01*
X96923914Y-66496342D01*
X96913810Y-66426068D01*
X96943304Y-66361488D01*
X96973381Y-66336653D01*
X96973566Y-66336567D01*
X96978067Y-66333415D01*
X96978071Y-66333413D01*
X97142846Y-66218036D01*
X97142849Y-66218034D01*
X97147357Y-66214877D01*
X97297377Y-66064857D01*
X97310622Y-66045942D01*
X97372110Y-65958127D01*
X97419067Y-65891066D01*
X97421390Y-65886084D01*
X97421393Y-65886079D01*
X97506407Y-65703766D01*
X97506408Y-65703764D01*
X97508730Y-65698784D01*
X97520339Y-65655461D01*
X97562217Y-65499168D01*
X97562217Y-65499166D01*
X97563641Y-65493853D01*
X97582132Y-65282500D01*
X97563641Y-65071147D01*
X97526876Y-64933938D01*
X97510153Y-64871526D01*
X97510152Y-64871524D01*
X97508730Y-64866216D01*
X97503889Y-64855835D01*
X97421393Y-64678921D01*
X97421390Y-64678916D01*
X97419067Y-64673934D01*
X97297377Y-64500143D01*
X97168829Y-64371595D01*
X97134803Y-64309283D01*
X97139868Y-64238468D01*
X97168829Y-64193405D01*
X97297377Y-64064857D01*
X97313486Y-64041852D01*
X97415910Y-63895574D01*
X97419067Y-63891066D01*
X97421390Y-63886084D01*
X97421393Y-63886079D01*
X97506407Y-63703766D01*
X97506408Y-63703764D01*
X97508730Y-63698784D01*
X97563641Y-63493853D01*
X97582132Y-63282500D01*
X97563641Y-63071147D01*
X97543973Y-62997745D01*
X97510153Y-62871526D01*
X97510152Y-62871524D01*
X97508730Y-62866216D01*
X97504292Y-62856699D01*
X97421393Y-62678921D01*
X97421390Y-62678916D01*
X97419067Y-62673934D01*
X97347340Y-62571498D01*
X97300536Y-62504654D01*
X97300534Y-62504651D01*
X97297377Y-62500143D01*
X97147357Y-62350123D01*
X97142849Y-62346966D01*
X97142846Y-62346964D01*
X97031437Y-62268955D01*
X96973566Y-62228433D01*
X96968584Y-62226110D01*
X96968579Y-62226107D01*
X96797687Y-62146419D01*
X96744402Y-62099502D01*
X96724941Y-62031224D01*
X96745483Y-61963264D01*
X96797687Y-61918029D01*
X96968328Y-61838458D01*
X96977824Y-61832975D01*
X97009120Y-61811061D01*
X97017495Y-61800584D01*
X97010426Y-61787136D01*
X96377812Y-61154522D01*
X96363868Y-61146908D01*
X96362035Y-61147039D01*
X96355420Y-61151290D01*
X95718852Y-61787858D01*
X95712422Y-61799633D01*
X95721718Y-61811648D01*
X95752176Y-61832975D01*
X95761672Y-61838458D01*
X95932313Y-61918029D01*
X95985598Y-61964946D01*
X96005059Y-62033224D01*
X95984517Y-62101184D01*
X95932313Y-62146419D01*
X95761421Y-62226107D01*
X95761416Y-62226110D01*
X95756434Y-62228433D01*
X95698563Y-62268955D01*
X95587154Y-62346964D01*
X95587151Y-62346966D01*
X95582643Y-62350123D01*
X95432623Y-62500143D01*
X95429466Y-62504651D01*
X95429464Y-62504654D01*
X95382660Y-62571498D01*
X95310933Y-62673934D01*
X95308608Y-62678919D01*
X95308605Y-62678925D01*
X95302831Y-62691308D01*
X95255914Y-62744594D01*
X95187637Y-62764055D01*
X95114575Y-62739995D01*
X95077094Y-62712763D01*
X95077093Y-62712762D01*
X95071752Y-62708882D01*
X95065724Y-62706198D01*
X95065722Y-62706197D01*
X94903319Y-62633891D01*
X94903318Y-62633891D01*
X94897288Y-62631206D01*
X94784721Y-62607279D01*
X94716944Y-62592872D01*
X94716939Y-62592872D01*
X94710487Y-62591500D01*
X94541856Y-62591500D01*
X94473735Y-62571498D01*
X94427242Y-62517842D01*
X94417138Y-62447568D01*
X94446632Y-62382988D01*
X94467795Y-62363564D01*
X94500991Y-62339446D01*
X94591253Y-62273866D01*
X94624839Y-62236565D01*
X94714621Y-62136852D01*
X94714622Y-62136851D01*
X94719040Y-62131944D01*
X94814527Y-61966556D01*
X94873542Y-61784928D01*
X94877146Y-61750644D01*
X94892814Y-61601565D01*
X94893504Y-61595000D01*
X94885063Y-61514688D01*
X94874232Y-61411635D01*
X94874232Y-61411633D01*
X94873542Y-61405072D01*
X94814527Y-61223444D01*
X94719040Y-61058056D01*
X94699337Y-61036173D01*
X94595675Y-60921045D01*
X94595674Y-60921044D01*
X94591253Y-60916134D01*
X94436752Y-60803882D01*
X94430724Y-60801198D01*
X94430722Y-60801197D01*
X94401025Y-60787975D01*
X95148849Y-60787975D01*
X95166374Y-60988289D01*
X95168276Y-60999076D01*
X95220319Y-61193301D01*
X95224067Y-61203597D01*
X95309042Y-61385828D01*
X95314525Y-61395324D01*
X95336439Y-61426620D01*
X95346916Y-61434995D01*
X95360364Y-61427926D01*
X95992978Y-60795312D01*
X96000592Y-60781368D01*
X96000461Y-60779535D01*
X95996210Y-60772920D01*
X95359642Y-60136352D01*
X95347867Y-60129922D01*
X95335852Y-60139218D01*
X95314525Y-60169676D01*
X95309042Y-60179172D01*
X95224067Y-60361403D01*
X95220319Y-60371699D01*
X95168276Y-60565924D01*
X95166374Y-60576711D01*
X95148849Y-60777025D01*
X95148849Y-60787975D01*
X94401025Y-60787975D01*
X94268319Y-60728891D01*
X94268318Y-60728891D01*
X94262288Y-60726206D01*
X94149721Y-60702279D01*
X94081944Y-60687872D01*
X94081939Y-60687872D01*
X94075487Y-60686500D01*
X93884513Y-60686500D01*
X93878061Y-60687872D01*
X93878056Y-60687872D01*
X93810279Y-60702279D01*
X93697712Y-60726206D01*
X93691682Y-60728891D01*
X93691681Y-60728891D01*
X93529278Y-60801197D01*
X93529276Y-60801198D01*
X93523248Y-60803882D01*
X93368747Y-60916134D01*
X93364326Y-60921044D01*
X93364325Y-60921045D01*
X93260664Y-61036173D01*
X93240960Y-61058056D01*
X93145473Y-61223444D01*
X93086458Y-61405072D01*
X93085768Y-61411633D01*
X93085768Y-61411635D01*
X93074937Y-61514688D01*
X93066496Y-61595000D01*
X89813504Y-61595000D01*
X89805063Y-61514688D01*
X89794232Y-61411635D01*
X89794232Y-61411633D01*
X89793542Y-61405072D01*
X89734527Y-61223444D01*
X89639040Y-61058056D01*
X89619337Y-61036173D01*
X89515675Y-60921045D01*
X89515674Y-60921044D01*
X89511253Y-60916134D01*
X89356752Y-60803882D01*
X89350724Y-60801198D01*
X89350722Y-60801197D01*
X89188319Y-60728891D01*
X89188318Y-60728891D01*
X89182288Y-60726206D01*
X89069721Y-60702279D01*
X89001944Y-60687872D01*
X89001939Y-60687872D01*
X88995487Y-60686500D01*
X88804513Y-60686500D01*
X88798061Y-60687872D01*
X88798056Y-60687872D01*
X88730279Y-60702279D01*
X88617712Y-60726206D01*
X88611682Y-60728891D01*
X88611681Y-60728891D01*
X88449278Y-60801197D01*
X88449276Y-60801198D01*
X88443248Y-60803882D01*
X88288747Y-60916134D01*
X88160960Y-61058056D01*
X88157659Y-61063774D01*
X88156904Y-61064813D01*
X88156376Y-61065996D01*
X88065473Y-61223444D01*
X88006458Y-61405072D01*
X88005768Y-61411633D01*
X88005768Y-61411635D01*
X87994937Y-61514688D01*
X87986496Y-61595000D01*
X78755750Y-61595000D01*
X78716253Y-61551134D01*
X78577151Y-61450070D01*
X78567094Y-61442763D01*
X78567093Y-61442762D01*
X78561752Y-61438882D01*
X78555724Y-61436198D01*
X78555722Y-61436197D01*
X78393319Y-61363891D01*
X78393318Y-61363891D01*
X78387288Y-61361206D01*
X78293403Y-61341250D01*
X78206944Y-61322872D01*
X78206939Y-61322872D01*
X78200487Y-61321500D01*
X78009513Y-61321500D01*
X78003061Y-61322872D01*
X78003056Y-61322872D01*
X77916597Y-61341250D01*
X77822712Y-61361206D01*
X77816682Y-61363891D01*
X77816681Y-61363891D01*
X77654278Y-61436197D01*
X77654276Y-61436198D01*
X77648248Y-61438882D01*
X77642907Y-61442762D01*
X77642906Y-61442763D01*
X77554616Y-61506910D01*
X77487749Y-61530768D01*
X77418597Y-61514688D01*
X77379597Y-61480362D01*
X77332149Y-61416820D01*
X77332142Y-61416813D01*
X77328692Y-61412192D01*
X77197612Y-61291023D01*
X77171750Y-61267116D01*
X77171747Y-61267114D01*
X77167510Y-61263197D01*
X76981875Y-61146071D01*
X76778005Y-61064734D01*
X76772337Y-61063607D01*
X76772335Y-61063606D01*
X76568393Y-61023040D01*
X76568389Y-61023040D01*
X76562725Y-61021913D01*
X76556950Y-61021837D01*
X76556946Y-61021837D01*
X76446315Y-61020389D01*
X76343247Y-61019039D01*
X76337550Y-61020018D01*
X76337549Y-61020018D01*
X76132617Y-61055232D01*
X76126920Y-61056211D01*
X75920990Y-61132183D01*
X75916029Y-61135135D01*
X75916028Y-61135135D01*
X75737321Y-61241454D01*
X75737318Y-61241456D01*
X75732353Y-61244410D01*
X75567326Y-61389135D01*
X75431437Y-61561509D01*
X75428746Y-61566625D01*
X75428744Y-61566627D01*
X75364809Y-61688148D01*
X75329236Y-61755761D01*
X75264146Y-61965385D01*
X75238347Y-62183361D01*
X62865000Y-62183361D01*
X62865000Y-61942643D01*
X64118352Y-61942643D01*
X64122827Y-61957882D01*
X64124217Y-61959087D01*
X64131900Y-61960758D01*
X65040037Y-61960758D01*
X65055276Y-61956283D01*
X65056481Y-61954893D01*
X65058152Y-61947210D01*
X65058152Y-61942643D01*
X65566152Y-61942643D01*
X65570627Y-61957882D01*
X65572017Y-61959087D01*
X65579700Y-61960758D01*
X66487836Y-61960758D01*
X66503075Y-61956283D01*
X66504280Y-61954893D01*
X66505951Y-61947210D01*
X66505951Y-61484289D01*
X66505581Y-61477468D01*
X66500057Y-61426606D01*
X66496431Y-61411354D01*
X66451276Y-61290904D01*
X66442738Y-61275309D01*
X66366237Y-61173234D01*
X66353676Y-61160673D01*
X66251601Y-61084172D01*
X66236006Y-61075634D01*
X66115558Y-61030480D01*
X66100303Y-61026853D01*
X66049438Y-61021327D01*
X66042624Y-61020958D01*
X65584267Y-61020958D01*
X65569028Y-61025433D01*
X65567823Y-61026823D01*
X65566152Y-61034506D01*
X65566152Y-61942643D01*
X65058152Y-61942643D01*
X65058152Y-61039074D01*
X65053677Y-61023835D01*
X65052287Y-61022630D01*
X65044604Y-61020959D01*
X64581683Y-61020959D01*
X64574862Y-61021329D01*
X64524000Y-61026853D01*
X64508748Y-61030479D01*
X64388298Y-61075634D01*
X64372703Y-61084172D01*
X64270628Y-61160673D01*
X64258067Y-61173234D01*
X64181566Y-61275309D01*
X64173028Y-61290904D01*
X64127874Y-61411352D01*
X64124247Y-61426607D01*
X64118721Y-61477472D01*
X64118352Y-61484286D01*
X64118352Y-61942643D01*
X62865000Y-61942643D01*
X62865000Y-61355830D01*
X62885002Y-61287709D01*
X62938658Y-61241216D01*
X62964803Y-61232583D01*
X63044247Y-61215696D01*
X63147288Y-61193794D01*
X63153319Y-61191109D01*
X63315722Y-61118803D01*
X63315724Y-61118802D01*
X63321752Y-61116118D01*
X63354118Y-61092603D01*
X63377667Y-61075493D01*
X63476253Y-61003866D01*
X63533843Y-60939906D01*
X63599621Y-60866852D01*
X63599622Y-60866851D01*
X63604040Y-60861944D01*
X63699527Y-60696556D01*
X63758542Y-60514928D01*
X63759896Y-60502052D01*
X63777814Y-60331565D01*
X63778504Y-60325000D01*
X63774689Y-60288704D01*
X63771140Y-60254938D01*
X78226995Y-60254938D01*
X78240740Y-60464649D01*
X78292471Y-60668343D01*
X78294890Y-60673590D01*
X78378038Y-60853953D01*
X78378041Y-60853958D01*
X78380457Y-60859199D01*
X78383788Y-60863912D01*
X78383789Y-60863914D01*
X78496811Y-61023835D01*
X78501751Y-61030825D01*
X78652289Y-61177474D01*
X78657085Y-61180679D01*
X78657088Y-61180681D01*
X78758168Y-61248220D01*
X78827031Y-61294233D01*
X78832339Y-61296514D01*
X78832340Y-61296514D01*
X79014822Y-61374914D01*
X79014825Y-61374915D01*
X79020125Y-61377192D01*
X79025754Y-61378466D01*
X79025755Y-61378466D01*
X79219467Y-61422299D01*
X79219473Y-61422300D01*
X79225104Y-61423574D01*
X79230875Y-61423801D01*
X79230877Y-61423801D01*
X79294433Y-61426298D01*
X79435103Y-61431825D01*
X79643088Y-61401669D01*
X79648552Y-61399814D01*
X79648557Y-61399813D01*
X79836624Y-61335973D01*
X79836629Y-61335971D01*
X79842096Y-61334115D01*
X79869772Y-61318616D01*
X79961731Y-61267116D01*
X80025460Y-61231426D01*
X80187041Y-61097041D01*
X80321426Y-60935460D01*
X80407722Y-60781368D01*
X80421291Y-60757139D01*
X80421292Y-60757137D01*
X80424115Y-60752096D01*
X80425971Y-60746629D01*
X80425973Y-60746624D01*
X80489813Y-60558557D01*
X80489814Y-60558552D01*
X80491669Y-60553088D01*
X80521825Y-60345103D01*
X80521868Y-60343466D01*
X80542816Y-60289564D01*
X80541184Y-60286214D01*
X80747868Y-60286214D01*
X80770730Y-60329477D01*
X80772985Y-60346334D01*
X80780740Y-60464649D01*
X80832471Y-60668343D01*
X80834890Y-60673590D01*
X80918038Y-60853953D01*
X80918041Y-60853958D01*
X80920457Y-60859199D01*
X80923788Y-60863912D01*
X80923789Y-60863914D01*
X81036811Y-61023835D01*
X81041751Y-61030825D01*
X81192289Y-61177474D01*
X81197085Y-61180679D01*
X81197088Y-61180681D01*
X81298168Y-61248220D01*
X81367031Y-61294233D01*
X81372339Y-61296514D01*
X81372340Y-61296514D01*
X81554822Y-61374914D01*
X81554825Y-61374915D01*
X81560125Y-61377192D01*
X81565754Y-61378466D01*
X81565755Y-61378466D01*
X81759467Y-61422299D01*
X81759473Y-61422300D01*
X81765104Y-61423574D01*
X81770875Y-61423801D01*
X81770877Y-61423801D01*
X81834433Y-61426298D01*
X81975103Y-61431825D01*
X82183088Y-61401669D01*
X82188552Y-61399814D01*
X82188557Y-61399813D01*
X82376624Y-61335973D01*
X82376629Y-61335971D01*
X82382096Y-61334115D01*
X82409772Y-61318616D01*
X82501731Y-61267116D01*
X82565460Y-61231426D01*
X82727041Y-61097041D01*
X82861426Y-60935460D01*
X82947722Y-60781368D01*
X82961291Y-60757139D01*
X82961292Y-60757137D01*
X82964115Y-60752096D01*
X82965971Y-60746629D01*
X82965973Y-60746624D01*
X83029813Y-60558557D01*
X83029814Y-60558552D01*
X83031669Y-60553088D01*
X83061825Y-60345103D01*
X83061868Y-60343466D01*
X83082816Y-60289564D01*
X83081184Y-60286214D01*
X83287868Y-60286214D01*
X83310730Y-60329477D01*
X83312985Y-60346334D01*
X83320740Y-60464649D01*
X83372471Y-60668343D01*
X83374890Y-60673590D01*
X83458038Y-60853953D01*
X83458041Y-60853958D01*
X83460457Y-60859199D01*
X83463788Y-60863912D01*
X83463789Y-60863914D01*
X83576811Y-61023835D01*
X83581751Y-61030825D01*
X83732289Y-61177474D01*
X83737085Y-61180679D01*
X83737088Y-61180681D01*
X83838168Y-61248220D01*
X83907031Y-61294233D01*
X83912339Y-61296514D01*
X83912340Y-61296514D01*
X84094822Y-61374914D01*
X84094825Y-61374915D01*
X84100125Y-61377192D01*
X84105754Y-61378466D01*
X84105755Y-61378466D01*
X84299467Y-61422299D01*
X84299473Y-61422300D01*
X84305104Y-61423574D01*
X84310875Y-61423801D01*
X84310877Y-61423801D01*
X84374433Y-61426298D01*
X84515103Y-61431825D01*
X84723088Y-61401669D01*
X84728552Y-61399814D01*
X84728557Y-61399813D01*
X84916624Y-61335973D01*
X84916629Y-61335971D01*
X84922096Y-61334115D01*
X84949772Y-61318616D01*
X85041731Y-61267116D01*
X85105460Y-61231426D01*
X85267041Y-61097041D01*
X85401426Y-60935460D01*
X85487722Y-60781368D01*
X85501291Y-60757139D01*
X85501292Y-60757137D01*
X85504115Y-60752096D01*
X85505971Y-60746629D01*
X85505973Y-60746624D01*
X85569813Y-60558557D01*
X85569814Y-60558552D01*
X85571669Y-60553088D01*
X85601825Y-60345103D01*
X85601868Y-60343466D01*
X85622816Y-60289564D01*
X85621184Y-60286214D01*
X85827868Y-60286214D01*
X85850730Y-60329477D01*
X85852985Y-60346334D01*
X85860740Y-60464649D01*
X85912471Y-60668343D01*
X85914890Y-60673590D01*
X85998038Y-60853953D01*
X85998041Y-60853958D01*
X86000457Y-60859199D01*
X86003788Y-60863912D01*
X86003789Y-60863914D01*
X86116811Y-61023835D01*
X86121751Y-61030825D01*
X86272289Y-61177474D01*
X86277085Y-61180679D01*
X86277088Y-61180681D01*
X86378168Y-61248220D01*
X86447031Y-61294233D01*
X86452339Y-61296514D01*
X86452340Y-61296514D01*
X86634822Y-61374914D01*
X86634825Y-61374915D01*
X86640125Y-61377192D01*
X86645754Y-61378466D01*
X86645755Y-61378466D01*
X86839467Y-61422299D01*
X86839473Y-61422300D01*
X86845104Y-61423574D01*
X86850875Y-61423801D01*
X86850877Y-61423801D01*
X86914433Y-61426298D01*
X87055103Y-61431825D01*
X87263088Y-61401669D01*
X87268552Y-61399814D01*
X87268557Y-61399813D01*
X87456624Y-61335973D01*
X87456629Y-61335971D01*
X87462096Y-61334115D01*
X87489772Y-61318616D01*
X87581731Y-61267116D01*
X87645460Y-61231426D01*
X87807041Y-61097041D01*
X87834709Y-61063774D01*
X87937731Y-60939903D01*
X87937732Y-60939902D01*
X87941426Y-60935460D01*
X87943700Y-60931400D01*
X87943975Y-60931176D01*
X87944622Y-60929753D01*
X88041291Y-60757139D01*
X88041292Y-60757137D01*
X88044115Y-60752096D01*
X88045971Y-60746629D01*
X88045973Y-60746624D01*
X88109813Y-60558557D01*
X88109814Y-60558552D01*
X88111669Y-60553088D01*
X88141825Y-60345103D01*
X88143399Y-60285000D01*
X88124169Y-60075721D01*
X88067123Y-59873451D01*
X88013353Y-59764416D01*
X95712505Y-59764416D01*
X95719574Y-59777864D01*
X97370358Y-61428648D01*
X97382133Y-61435078D01*
X97394148Y-61425782D01*
X97415475Y-61395324D01*
X97420958Y-61385828D01*
X97505933Y-61203597D01*
X97509682Y-61193298D01*
X97537996Y-61087629D01*
X97574948Y-61027006D01*
X97638808Y-60995985D01*
X97709303Y-61004413D01*
X97740526Y-61023577D01*
X97755590Y-61036173D01*
X97762522Y-61041208D01*
X98005418Y-61193577D01*
X98012984Y-61197634D01*
X98274316Y-61315629D01*
X98282346Y-61318616D01*
X98557285Y-61400057D01*
X98565637Y-61401924D01*
X98849089Y-61445298D01*
X98857622Y-61446014D01*
X99144334Y-61450519D01*
X99152885Y-61450070D01*
X99437558Y-61415621D01*
X99445958Y-61414019D01*
X99723337Y-61341250D01*
X99731439Y-61338523D01*
X99996365Y-61228787D01*
X100004033Y-61224981D01*
X100251614Y-61080306D01*
X100258695Y-61075493D01*
X100362194Y-60994340D01*
X100370665Y-60982480D01*
X100364149Y-60970859D01*
X98676921Y-59283631D01*
X99399408Y-59283631D01*
X99399539Y-59285466D01*
X99403790Y-59292080D01*
X100723755Y-60612044D01*
X100735965Y-60618712D01*
X100747463Y-60610023D01*
X100865549Y-60449268D01*
X100870133Y-60442045D01*
X101006957Y-60190047D01*
X101010525Y-60182253D01*
X101111883Y-59914018D01*
X101114356Y-59905826D01*
X101178375Y-59626309D01*
X101179713Y-59617855D01*
X101205365Y-59330432D01*
X101205611Y-59325494D01*
X101206035Y-59284985D01*
X101205892Y-59280019D01*
X101186266Y-58992130D01*
X101185105Y-58983656D01*
X101126954Y-58702856D01*
X101124655Y-58694621D01*
X101028932Y-58424309D01*
X101025535Y-58416459D01*
X100894013Y-58161639D01*
X100889585Y-58154327D01*
X100748444Y-57953503D01*
X100737923Y-57945124D01*
X100724535Y-57952176D01*
X99407020Y-59269690D01*
X99399408Y-59283631D01*
X98676921Y-59283631D01*
X98675790Y-59282500D01*
X97345601Y-57952312D01*
X97333591Y-57945753D01*
X97321851Y-57954721D01*
X97192339Y-58134957D01*
X97187817Y-58142251D01*
X97053648Y-58395653D01*
X97050162Y-58403481D01*
X96951619Y-58672762D01*
X96949230Y-58680986D01*
X96888142Y-58961159D01*
X96886893Y-58969615D01*
X96864394Y-59255494D01*
X96864305Y-59264045D01*
X96877545Y-59493677D01*
X96861497Y-59562836D01*
X96810607Y-59612341D01*
X96741031Y-59626473D01*
X96719142Y-59622637D01*
X96581576Y-59585776D01*
X96570789Y-59583874D01*
X96370475Y-59566349D01*
X96359525Y-59566349D01*
X96159211Y-59583874D01*
X96148424Y-59585776D01*
X95954199Y-59637819D01*
X95943903Y-59641567D01*
X95761672Y-59726542D01*
X95752176Y-59732025D01*
X95720880Y-59753939D01*
X95712505Y-59764416D01*
X88013353Y-59764416D01*
X87974171Y-59684963D01*
X87929484Y-59625119D01*
X87851880Y-59521195D01*
X87851879Y-59521194D01*
X87848427Y-59516571D01*
X87824544Y-59494494D01*
X87698341Y-59377833D01*
X87698338Y-59377831D01*
X87694101Y-59373914D01*
X87516362Y-59261769D01*
X87321163Y-59183892D01*
X87315506Y-59182767D01*
X87315500Y-59182765D01*
X87120707Y-59144019D01*
X87120705Y-59144019D01*
X87115040Y-59142892D01*
X87109265Y-59142816D01*
X87109261Y-59142816D01*
X87074466Y-59142361D01*
X87072720Y-59142338D01*
X87030049Y-59129200D01*
X87016146Y-59137382D01*
X86983775Y-59141174D01*
X86904898Y-59140141D01*
X86899201Y-59141120D01*
X86899200Y-59141120D01*
X86703469Y-59174753D01*
X86697772Y-59175732D01*
X86500601Y-59248472D01*
X86495640Y-59251424D01*
X86495639Y-59251424D01*
X86395206Y-59311176D01*
X86319988Y-59355926D01*
X86161981Y-59494494D01*
X86158410Y-59499024D01*
X86038567Y-59651045D01*
X86031872Y-59659537D01*
X86029181Y-59664653D01*
X86029179Y-59664655D01*
X85936710Y-59840410D01*
X85934018Y-59845527D01*
X85871696Y-60046234D01*
X85871017Y-60051969D01*
X85871017Y-60051970D01*
X85849212Y-60236206D01*
X85827868Y-60286214D01*
X85621184Y-60286214D01*
X85599855Y-60242440D01*
X85598614Y-60232926D01*
X85584698Y-60081478D01*
X85584169Y-60075721D01*
X85527123Y-59873451D01*
X85434171Y-59684963D01*
X85389484Y-59625119D01*
X85311880Y-59521195D01*
X85311879Y-59521194D01*
X85308427Y-59516571D01*
X85284544Y-59494494D01*
X85158341Y-59377833D01*
X85158338Y-59377831D01*
X85154101Y-59373914D01*
X84976362Y-59261769D01*
X84781163Y-59183892D01*
X84775506Y-59182767D01*
X84775500Y-59182765D01*
X84580707Y-59144019D01*
X84580705Y-59144019D01*
X84575040Y-59142892D01*
X84569265Y-59142816D01*
X84569261Y-59142816D01*
X84534466Y-59142361D01*
X84532720Y-59142338D01*
X84490049Y-59129200D01*
X84476146Y-59137382D01*
X84443775Y-59141174D01*
X84364898Y-59140141D01*
X84359201Y-59141120D01*
X84359200Y-59141120D01*
X84163469Y-59174753D01*
X84157772Y-59175732D01*
X83960601Y-59248472D01*
X83955640Y-59251424D01*
X83955639Y-59251424D01*
X83855206Y-59311176D01*
X83779988Y-59355926D01*
X83621981Y-59494494D01*
X83618410Y-59499024D01*
X83498567Y-59651045D01*
X83491872Y-59659537D01*
X83489181Y-59664653D01*
X83489179Y-59664655D01*
X83396710Y-59840410D01*
X83394018Y-59845527D01*
X83331696Y-60046234D01*
X83331017Y-60051969D01*
X83331017Y-60051970D01*
X83309212Y-60236206D01*
X83287868Y-60286214D01*
X83081184Y-60286214D01*
X83059855Y-60242440D01*
X83058614Y-60232926D01*
X83044698Y-60081478D01*
X83044169Y-60075721D01*
X82987123Y-59873451D01*
X82894171Y-59684963D01*
X82849484Y-59625119D01*
X82771880Y-59521195D01*
X82771879Y-59521194D01*
X82768427Y-59516571D01*
X82744544Y-59494494D01*
X82618341Y-59377833D01*
X82618338Y-59377831D01*
X82614101Y-59373914D01*
X82436362Y-59261769D01*
X82241163Y-59183892D01*
X82235506Y-59182767D01*
X82235500Y-59182765D01*
X82040707Y-59144019D01*
X82040705Y-59144019D01*
X82035040Y-59142892D01*
X82029265Y-59142816D01*
X82029261Y-59142816D01*
X81994466Y-59142361D01*
X81992720Y-59142338D01*
X81950049Y-59129200D01*
X81936146Y-59137382D01*
X81903775Y-59141174D01*
X81824898Y-59140141D01*
X81819201Y-59141120D01*
X81819200Y-59141120D01*
X81623469Y-59174753D01*
X81617772Y-59175732D01*
X81420601Y-59248472D01*
X81415640Y-59251424D01*
X81415639Y-59251424D01*
X81315206Y-59311176D01*
X81239988Y-59355926D01*
X81081981Y-59494494D01*
X81078410Y-59499024D01*
X80958567Y-59651045D01*
X80951872Y-59659537D01*
X80949181Y-59664653D01*
X80949179Y-59664655D01*
X80856710Y-59840410D01*
X80854018Y-59845527D01*
X80791696Y-60046234D01*
X80791017Y-60051969D01*
X80791017Y-60051970D01*
X80769212Y-60236206D01*
X80747868Y-60286214D01*
X80541184Y-60286214D01*
X80519855Y-60242440D01*
X80518614Y-60232926D01*
X80504698Y-60081478D01*
X80504169Y-60075721D01*
X80447123Y-59873451D01*
X80354171Y-59684963D01*
X80309484Y-59625119D01*
X80231880Y-59521195D01*
X80231879Y-59521194D01*
X80228427Y-59516571D01*
X80204544Y-59494494D01*
X80078341Y-59377833D01*
X80078338Y-59377831D01*
X80074101Y-59373914D01*
X79896362Y-59261769D01*
X79701163Y-59183892D01*
X79695506Y-59182767D01*
X79695500Y-59182765D01*
X79500707Y-59144019D01*
X79500705Y-59144019D01*
X79495040Y-59142892D01*
X79489266Y-59142816D01*
X79489262Y-59142816D01*
X79470597Y-59142572D01*
X79446726Y-59142260D01*
X79420881Y-59134302D01*
X79415226Y-59137630D01*
X79382852Y-59141423D01*
X79335080Y-59140798D01*
X79284898Y-59140141D01*
X79279201Y-59141120D01*
X79279200Y-59141120D01*
X79083469Y-59174753D01*
X79077772Y-59175732D01*
X78880601Y-59248472D01*
X78875640Y-59251424D01*
X78875639Y-59251424D01*
X78775206Y-59311176D01*
X78699988Y-59355926D01*
X78541981Y-59494494D01*
X78538410Y-59499024D01*
X78418567Y-59651045D01*
X78411872Y-59659537D01*
X78409181Y-59664653D01*
X78409179Y-59664655D01*
X78316710Y-59840410D01*
X78314018Y-59845527D01*
X78251696Y-60046234D01*
X78226995Y-60254938D01*
X63771140Y-60254938D01*
X63759232Y-60141635D01*
X63759232Y-60141633D01*
X63758542Y-60135072D01*
X63699527Y-59953444D01*
X63604040Y-59788056D01*
X63598297Y-59781677D01*
X63480675Y-59651045D01*
X63480674Y-59651044D01*
X63476253Y-59646134D01*
X63321752Y-59533882D01*
X63315724Y-59531198D01*
X63315722Y-59531197D01*
X63153319Y-59458891D01*
X63153318Y-59458891D01*
X63147288Y-59456206D01*
X63044247Y-59434304D01*
X62964803Y-59417417D01*
X62902329Y-59383688D01*
X62868008Y-59321539D01*
X62865000Y-59294170D01*
X62865000Y-58500821D01*
X64066544Y-58500821D01*
X64080900Y-58719848D01*
X64134930Y-58932591D01*
X64226824Y-59131926D01*
X64230155Y-59136639D01*
X64230156Y-59136641D01*
X64335336Y-59285466D01*
X64353506Y-59311176D01*
X64510732Y-59464339D01*
X64515528Y-59467544D01*
X64515531Y-59467546D01*
X64589540Y-59516997D01*
X64693237Y-59586285D01*
X64698540Y-59588563D01*
X64698543Y-59588565D01*
X64843970Y-59651045D01*
X64894909Y-59672930D01*
X65011548Y-59699323D01*
X65089620Y-59716989D01*
X65108994Y-59721373D01*
X65114765Y-59721600D01*
X65114767Y-59721600D01*
X65188183Y-59724484D01*
X65328322Y-59729990D01*
X65419991Y-59716699D01*
X65539833Y-59699323D01*
X65539838Y-59699322D01*
X65545547Y-59698494D01*
X65551011Y-59696639D01*
X65551016Y-59696638D01*
X65713248Y-59641567D01*
X65753395Y-59627939D01*
X65944906Y-59520688D01*
X66113664Y-59380333D01*
X66208628Y-59266152D01*
X75196449Y-59266152D01*
X75203204Y-59328334D01*
X75254334Y-59464723D01*
X75341688Y-59581279D01*
X75458244Y-59668633D01*
X75594633Y-59719763D01*
X75656815Y-59726518D01*
X77124683Y-59726518D01*
X77186865Y-59719763D01*
X77323254Y-59668633D01*
X77439810Y-59581279D01*
X77527164Y-59464723D01*
X77578294Y-59328334D01*
X77585049Y-59266152D01*
X77585049Y-58711530D01*
X78772830Y-58711530D01*
X78782710Y-58724017D01*
X78822472Y-58750585D01*
X78832575Y-58756071D01*
X79014973Y-58834435D01*
X79025916Y-58837990D01*
X79219533Y-58881802D01*
X79230942Y-58883304D01*
X79389447Y-58889531D01*
X79411304Y-58896893D01*
X79414462Y-58894921D01*
X79435107Y-58891536D01*
X79435076Y-58891324D01*
X79637250Y-58862011D01*
X79648445Y-58859323D01*
X79836424Y-58795512D01*
X79846931Y-58790834D01*
X79968745Y-58722614D01*
X79978610Y-58712536D01*
X79975654Y-58704864D01*
X79387812Y-58117022D01*
X79373868Y-58109408D01*
X79372035Y-58109539D01*
X79365420Y-58113790D01*
X78779027Y-58700183D01*
X78772830Y-58711530D01*
X77585049Y-58711530D01*
X77585049Y-57798284D01*
X77578294Y-57736102D01*
X77572527Y-57720718D01*
X78227874Y-57720718D01*
X78240858Y-57918803D01*
X78242659Y-57930173D01*
X78291523Y-58122576D01*
X78295364Y-58133423D01*
X78378475Y-58313705D01*
X78384223Y-58323661D01*
X78395675Y-58339867D01*
X78406263Y-58348254D01*
X78419564Y-58341226D01*
X79002978Y-57757812D01*
X79009356Y-57746132D01*
X79739408Y-57746132D01*
X79739539Y-57747965D01*
X79743790Y-57754580D01*
X80330950Y-58341740D01*
X80343330Y-58348500D01*
X80349910Y-58343574D01*
X80420834Y-58216931D01*
X80425512Y-58206424D01*
X80489323Y-58018445D01*
X80492011Y-58007250D01*
X80520791Y-57808753D01*
X80521493Y-57800525D01*
X80541332Y-57749487D01*
X80539324Y-57745365D01*
X80748966Y-57745365D01*
X80770514Y-57786147D01*
X80772766Y-57802993D01*
X80780740Y-57924649D01*
X80832471Y-58128343D01*
X80834890Y-58133590D01*
X80918038Y-58313953D01*
X80918041Y-58313958D01*
X80920457Y-58319199D01*
X80923788Y-58323912D01*
X80923789Y-58323914D01*
X80994742Y-58424309D01*
X81041751Y-58490825D01*
X81192289Y-58637474D01*
X81197085Y-58640679D01*
X81197088Y-58640681D01*
X81304627Y-58712536D01*
X81367031Y-58754233D01*
X81372339Y-58756514D01*
X81372340Y-58756514D01*
X81554822Y-58834914D01*
X81554825Y-58834915D01*
X81560125Y-58837192D01*
X81565754Y-58838466D01*
X81565755Y-58838466D01*
X81759467Y-58882299D01*
X81759473Y-58882300D01*
X81765104Y-58883574D01*
X81770875Y-58883801D01*
X81770877Y-58883801D01*
X81910369Y-58889282D01*
X81948852Y-58902243D01*
X81960456Y-58894999D01*
X81976289Y-58891653D01*
X81978558Y-58891324D01*
X82183088Y-58861669D01*
X82188552Y-58859814D01*
X82188557Y-58859813D01*
X82376624Y-58795973D01*
X82376629Y-58795971D01*
X82382096Y-58794115D01*
X82565460Y-58691426D01*
X82727041Y-58557041D01*
X82861426Y-58395460D01*
X82964115Y-58212096D01*
X82965971Y-58206629D01*
X82965973Y-58206624D01*
X83029813Y-58018557D01*
X83029814Y-58018552D01*
X83031669Y-58013088D01*
X83061825Y-57805103D01*
X83061868Y-57803466D01*
X83082816Y-57749564D01*
X83081184Y-57746214D01*
X83287868Y-57746214D01*
X83310730Y-57789477D01*
X83312985Y-57806334D01*
X83317746Y-57878969D01*
X83320740Y-57924649D01*
X83372471Y-58128343D01*
X83374890Y-58133590D01*
X83458038Y-58313953D01*
X83458041Y-58313958D01*
X83460457Y-58319199D01*
X83463788Y-58323912D01*
X83463789Y-58323914D01*
X83534742Y-58424309D01*
X83581751Y-58490825D01*
X83732289Y-58637474D01*
X83737085Y-58640679D01*
X83737088Y-58640681D01*
X83844627Y-58712536D01*
X83907031Y-58754233D01*
X83912339Y-58756514D01*
X83912340Y-58756514D01*
X84094822Y-58834914D01*
X84094825Y-58834915D01*
X84100125Y-58837192D01*
X84105754Y-58838466D01*
X84105755Y-58838466D01*
X84299467Y-58882299D01*
X84299473Y-58882300D01*
X84305104Y-58883574D01*
X84310875Y-58883801D01*
X84310877Y-58883801D01*
X84450369Y-58889282D01*
X84488852Y-58902243D01*
X84500456Y-58894999D01*
X84516289Y-58891653D01*
X84518558Y-58891324D01*
X84723088Y-58861669D01*
X84728552Y-58859814D01*
X84728557Y-58859813D01*
X84916624Y-58795973D01*
X84916629Y-58795971D01*
X84922096Y-58794115D01*
X85105460Y-58691426D01*
X85267041Y-58557041D01*
X85401426Y-58395460D01*
X85504115Y-58212096D01*
X85505971Y-58206629D01*
X85505973Y-58206624D01*
X85569813Y-58018557D01*
X85569814Y-58018552D01*
X85571669Y-58013088D01*
X85601825Y-57805103D01*
X85601868Y-57803466D01*
X85622816Y-57749564D01*
X85621184Y-57746214D01*
X85827868Y-57746214D01*
X85850730Y-57789477D01*
X85852985Y-57806334D01*
X85857746Y-57878969D01*
X85860740Y-57924649D01*
X85912471Y-58128343D01*
X85914890Y-58133590D01*
X85998038Y-58313953D01*
X85998041Y-58313958D01*
X86000457Y-58319199D01*
X86003788Y-58323912D01*
X86003789Y-58323914D01*
X86074742Y-58424309D01*
X86121751Y-58490825D01*
X86272289Y-58637474D01*
X86277085Y-58640679D01*
X86277088Y-58640681D01*
X86384627Y-58712536D01*
X86447031Y-58754233D01*
X86452339Y-58756514D01*
X86452340Y-58756514D01*
X86634822Y-58834914D01*
X86634825Y-58834915D01*
X86640125Y-58837192D01*
X86645754Y-58838466D01*
X86645755Y-58838466D01*
X86839467Y-58882299D01*
X86839473Y-58882300D01*
X86845104Y-58883574D01*
X86850875Y-58883801D01*
X86850877Y-58883801D01*
X86990369Y-58889282D01*
X87028852Y-58902243D01*
X87040456Y-58894999D01*
X87056289Y-58891653D01*
X87058558Y-58891324D01*
X87263088Y-58861669D01*
X87268552Y-58859814D01*
X87268557Y-58859813D01*
X87456624Y-58795973D01*
X87456629Y-58795971D01*
X87462096Y-58794115D01*
X87645460Y-58691426D01*
X87807041Y-58557041D01*
X87941426Y-58395460D01*
X88044115Y-58212096D01*
X88045971Y-58206629D01*
X88045973Y-58206624D01*
X88109813Y-58018557D01*
X88109814Y-58018552D01*
X88111669Y-58013088D01*
X88141825Y-57805103D01*
X88143399Y-57745000D01*
X88128476Y-57582596D01*
X97699181Y-57582596D01*
X97705577Y-57593866D01*
X99022190Y-58910480D01*
X99036131Y-58918092D01*
X99037966Y-58917961D01*
X99044580Y-58913710D01*
X100363883Y-57594406D01*
X100371075Y-57581236D01*
X100363753Y-57571001D01*
X100295973Y-57515524D01*
X100289001Y-57510569D01*
X100044506Y-57360742D01*
X100036908Y-57356770D01*
X99774349Y-57241514D01*
X99766295Y-57238615D01*
X99490519Y-57160059D01*
X99482141Y-57158277D01*
X99198256Y-57117874D01*
X99189709Y-57117247D01*
X98902965Y-57115745D01*
X98894430Y-57116282D01*
X98610130Y-57153711D01*
X98601732Y-57155404D01*
X98325155Y-57231067D01*
X98317060Y-57233886D01*
X98053301Y-57346388D01*
X98045679Y-57350273D01*
X97799630Y-57497530D01*
X97792598Y-57502417D01*
X97707650Y-57570473D01*
X97699181Y-57582596D01*
X88128476Y-57582596D01*
X88124169Y-57535721D01*
X88122568Y-57530042D01*
X88079182Y-57376210D01*
X88067123Y-57333451D01*
X87974171Y-57144963D01*
X87848427Y-56976571D01*
X87694101Y-56833914D01*
X87516362Y-56721769D01*
X87321163Y-56643892D01*
X87315506Y-56642767D01*
X87315500Y-56642765D01*
X87120707Y-56604019D01*
X87120705Y-56604019D01*
X87115040Y-56602892D01*
X87109265Y-56602816D01*
X87109261Y-56602816D01*
X87004001Y-56601438D01*
X86904898Y-56600141D01*
X86899201Y-56601120D01*
X86899200Y-56601120D01*
X86703469Y-56634753D01*
X86697772Y-56635732D01*
X86500601Y-56708472D01*
X86495640Y-56711424D01*
X86495639Y-56711424D01*
X86387733Y-56775622D01*
X86319988Y-56815926D01*
X86161981Y-56954494D01*
X86031872Y-57119537D01*
X86029181Y-57124653D01*
X86029179Y-57124655D01*
X86017554Y-57146751D01*
X85934018Y-57305527D01*
X85871696Y-57506234D01*
X85871017Y-57511969D01*
X85871017Y-57511970D01*
X85849212Y-57696206D01*
X85827868Y-57746214D01*
X85621184Y-57746214D01*
X85599855Y-57702440D01*
X85598614Y-57692926D01*
X85584698Y-57541478D01*
X85584169Y-57535721D01*
X85582568Y-57530042D01*
X85539182Y-57376210D01*
X85527123Y-57333451D01*
X85434171Y-57144963D01*
X85308427Y-56976571D01*
X85154101Y-56833914D01*
X84976362Y-56721769D01*
X84781163Y-56643892D01*
X84775506Y-56642767D01*
X84775500Y-56642765D01*
X84580707Y-56604019D01*
X84580705Y-56604019D01*
X84575040Y-56602892D01*
X84569265Y-56602816D01*
X84569261Y-56602816D01*
X84464001Y-56601438D01*
X84364898Y-56600141D01*
X84359201Y-56601120D01*
X84359200Y-56601120D01*
X84163469Y-56634753D01*
X84157772Y-56635732D01*
X83960601Y-56708472D01*
X83955640Y-56711424D01*
X83955639Y-56711424D01*
X83847733Y-56775622D01*
X83779988Y-56815926D01*
X83621981Y-56954494D01*
X83491872Y-57119537D01*
X83489181Y-57124653D01*
X83489179Y-57124655D01*
X83477554Y-57146751D01*
X83394018Y-57305527D01*
X83331696Y-57506234D01*
X83331017Y-57511969D01*
X83331017Y-57511970D01*
X83309212Y-57696206D01*
X83287868Y-57746214D01*
X83081184Y-57746214D01*
X83059855Y-57702440D01*
X83058614Y-57692926D01*
X83044698Y-57541478D01*
X83044169Y-57535721D01*
X83042568Y-57530042D01*
X82999182Y-57376210D01*
X82987123Y-57333451D01*
X82894171Y-57144963D01*
X82768427Y-56976571D01*
X82614101Y-56833914D01*
X82521712Y-56775621D01*
X82474775Y-56722356D01*
X82464085Y-56652168D01*
X82493039Y-56587344D01*
X82514883Y-56567127D01*
X82526253Y-56558866D01*
X82654040Y-56416944D01*
X82749527Y-56251556D01*
X82808542Y-56069928D01*
X82811814Y-56038803D01*
X82827814Y-55886565D01*
X82828504Y-55880000D01*
X82810305Y-55706846D01*
X82809232Y-55696635D01*
X82809232Y-55696633D01*
X82808542Y-55690072D01*
X82749527Y-55508444D01*
X82745728Y-55501863D01*
X82703293Y-55428365D01*
X82654040Y-55343056D01*
X82625270Y-55311103D01*
X82565750Y-55245000D01*
X83541496Y-55245000D01*
X83542186Y-55251565D01*
X83557063Y-55393108D01*
X83561458Y-55434928D01*
X83620473Y-55616556D01*
X83715960Y-55781944D01*
X83720378Y-55786851D01*
X83720379Y-55786852D01*
X83773688Y-55846058D01*
X83843747Y-55923866D01*
X83900600Y-55965172D01*
X83959970Y-56008307D01*
X83998248Y-56036118D01*
X84004276Y-56038802D01*
X84004278Y-56038803D01*
X84158964Y-56107673D01*
X84172712Y-56113794D01*
X84266112Y-56133647D01*
X84353056Y-56152128D01*
X84353061Y-56152128D01*
X84359513Y-56153500D01*
X84550487Y-56153500D01*
X84556939Y-56152128D01*
X84556944Y-56152128D01*
X84643888Y-56133647D01*
X84737288Y-56113794D01*
X84751036Y-56107673D01*
X84905722Y-56038803D01*
X84905724Y-56038802D01*
X84911752Y-56036118D01*
X84950031Y-56008307D01*
X85009400Y-55965172D01*
X85066253Y-55923866D01*
X85136312Y-55846058D01*
X85189621Y-55786852D01*
X85189622Y-55786851D01*
X85194040Y-55781944D01*
X85289527Y-55616556D01*
X85348542Y-55434928D01*
X85352938Y-55393108D01*
X85367814Y-55251565D01*
X85368504Y-55245000D01*
X85358344Y-55148331D01*
X85349232Y-55061635D01*
X85349232Y-55061633D01*
X85348542Y-55055072D01*
X85337491Y-55021062D01*
X90083493Y-55021062D01*
X90092789Y-55033077D01*
X90143994Y-55068931D01*
X90153489Y-55074414D01*
X90350947Y-55166490D01*
X90361239Y-55170236D01*
X90571688Y-55226625D01*
X90582481Y-55228528D01*
X90799525Y-55247517D01*
X90810475Y-55247517D01*
X91027519Y-55228528D01*
X91038312Y-55226625D01*
X91248761Y-55170236D01*
X91259053Y-55166490D01*
X91456511Y-55074414D01*
X91466006Y-55068931D01*
X91518048Y-55032491D01*
X91526424Y-55022012D01*
X91519356Y-55008566D01*
X90817812Y-54307022D01*
X90803868Y-54299408D01*
X90802035Y-54299539D01*
X90795420Y-54303790D01*
X90089923Y-55009287D01*
X90083493Y-55021062D01*
X85337491Y-55021062D01*
X85289527Y-54873444D01*
X85194040Y-54708056D01*
X85147551Y-54656424D01*
X85070675Y-54571045D01*
X85070674Y-54571044D01*
X85066253Y-54566134D01*
X84967157Y-54494136D01*
X84917094Y-54457763D01*
X84917093Y-54457762D01*
X84911752Y-54453882D01*
X84905724Y-54451198D01*
X84905722Y-54451197D01*
X84743319Y-54378891D01*
X84743318Y-54378891D01*
X84737288Y-54376206D01*
X84643887Y-54356353D01*
X84556944Y-54337872D01*
X84556939Y-54337872D01*
X84550487Y-54336500D01*
X84359513Y-54336500D01*
X84353061Y-54337872D01*
X84353056Y-54337872D01*
X84266112Y-54356353D01*
X84172712Y-54376206D01*
X84166682Y-54378891D01*
X84166681Y-54378891D01*
X84004278Y-54451197D01*
X84004276Y-54451198D01*
X83998248Y-54453882D01*
X83992907Y-54457762D01*
X83992906Y-54457763D01*
X83942843Y-54494136D01*
X83843747Y-54566134D01*
X83839326Y-54571044D01*
X83839325Y-54571045D01*
X83762450Y-54656424D01*
X83715960Y-54708056D01*
X83620473Y-54873444D01*
X83561458Y-55055072D01*
X83560768Y-55061633D01*
X83560768Y-55061635D01*
X83551656Y-55148331D01*
X83541496Y-55245000D01*
X82565750Y-55245000D01*
X82530675Y-55206045D01*
X82530674Y-55206044D01*
X82526253Y-55201134D01*
X82392508Y-55103962D01*
X82377094Y-55092763D01*
X82377093Y-55092762D01*
X82371752Y-55088882D01*
X82365724Y-55086198D01*
X82365722Y-55086197D01*
X82203319Y-55013891D01*
X82203318Y-55013891D01*
X82197288Y-55011206D01*
X82102918Y-54991147D01*
X82016944Y-54972872D01*
X82016939Y-54972872D01*
X82010487Y-54971500D01*
X81819513Y-54971500D01*
X81813061Y-54972872D01*
X81813056Y-54972872D01*
X81727082Y-54991147D01*
X81632712Y-55011206D01*
X81626682Y-55013891D01*
X81626681Y-55013891D01*
X81464278Y-55086197D01*
X81464276Y-55086198D01*
X81458248Y-55088882D01*
X81452907Y-55092762D01*
X81452906Y-55092763D01*
X81437492Y-55103962D01*
X81303747Y-55201134D01*
X81299326Y-55206044D01*
X81299325Y-55206045D01*
X81204731Y-55311103D01*
X81175960Y-55343056D01*
X81126707Y-55428365D01*
X81084273Y-55501863D01*
X81080473Y-55508444D01*
X81021458Y-55690072D01*
X81020768Y-55696633D01*
X81020768Y-55696635D01*
X81019695Y-55706846D01*
X81001496Y-55880000D01*
X81002186Y-55886565D01*
X81018187Y-56038803D01*
X81021458Y-56069928D01*
X81080473Y-56251556D01*
X81175960Y-56416944D01*
X81303747Y-56558866D01*
X81314826Y-56566915D01*
X81358179Y-56623135D01*
X81364256Y-56693871D01*
X81331125Y-56756663D01*
X81305189Y-56777135D01*
X81239988Y-56815926D01*
X81081981Y-56954494D01*
X80951872Y-57119537D01*
X80949181Y-57124653D01*
X80949179Y-57124655D01*
X80937554Y-57146751D01*
X80854018Y-57305527D01*
X80791696Y-57506234D01*
X80791018Y-57511966D01*
X80791017Y-57511969D01*
X80768929Y-57698595D01*
X80748966Y-57745365D01*
X80539324Y-57745365D01*
X80519572Y-57704828D01*
X80518331Y-57695314D01*
X80504204Y-57541566D01*
X80502107Y-57530251D01*
X80448222Y-57339190D01*
X80444100Y-57328451D01*
X80356299Y-57150409D01*
X80354192Y-57146970D01*
X80344876Y-57139980D01*
X80332459Y-57146751D01*
X79747022Y-57732188D01*
X79739408Y-57746132D01*
X79009356Y-57746132D01*
X79010592Y-57743868D01*
X79010461Y-57742035D01*
X79006210Y-57735420D01*
X78417626Y-57146836D01*
X78405246Y-57140076D01*
X78399280Y-57144542D01*
X78317173Y-57300602D01*
X78312768Y-57311236D01*
X78253900Y-57500822D01*
X78251508Y-57512076D01*
X78228175Y-57709217D01*
X78227874Y-57720718D01*
X77572527Y-57720718D01*
X77527164Y-57599713D01*
X77439810Y-57483157D01*
X77323254Y-57395803D01*
X77186865Y-57344673D01*
X77124683Y-57337918D01*
X75656815Y-57337918D01*
X75594633Y-57344673D01*
X75458244Y-57395803D01*
X75341688Y-57483157D01*
X75254334Y-57599713D01*
X75203204Y-57736102D01*
X75196449Y-57798284D01*
X75196449Y-59266152D01*
X66208628Y-59266152D01*
X66254019Y-59211575D01*
X66361270Y-59020064D01*
X66395885Y-58918092D01*
X66429969Y-58817685D01*
X66429970Y-58817680D01*
X66431825Y-58812216D01*
X66432653Y-58806507D01*
X66432654Y-58806502D01*
X66462788Y-58598665D01*
X66463321Y-58594991D01*
X66464965Y-58532218D01*
X66448084Y-58348500D01*
X66445410Y-58319396D01*
X66445409Y-58319393D01*
X66444881Y-58313642D01*
X66417664Y-58217139D01*
X66386868Y-58107945D01*
X66386867Y-58107943D01*
X66385300Y-58102386D01*
X66370918Y-58073221D01*
X66290774Y-57910706D01*
X66288219Y-57905525D01*
X66215971Y-57808772D01*
X66160342Y-57734276D01*
X66160341Y-57734275D01*
X66156889Y-57729652D01*
X66059844Y-57639945D01*
X65999947Y-57584576D01*
X65999944Y-57584574D01*
X65995707Y-57580657D01*
X65810072Y-57463531D01*
X65606202Y-57382194D01*
X65600534Y-57381067D01*
X65600532Y-57381066D01*
X65396590Y-57340500D01*
X65396586Y-57340500D01*
X65390922Y-57339373D01*
X65385147Y-57339297D01*
X65385143Y-57339297D01*
X65274512Y-57337849D01*
X65171444Y-57336499D01*
X65165747Y-57337478D01*
X65165746Y-57337478D01*
X64960814Y-57372692D01*
X64955117Y-57373671D01*
X64749187Y-57449643D01*
X64744226Y-57452595D01*
X64744225Y-57452595D01*
X64565518Y-57558914D01*
X64565515Y-57558916D01*
X64560550Y-57561870D01*
X64395523Y-57706595D01*
X64259634Y-57878969D01*
X64256943Y-57884085D01*
X64256941Y-57884087D01*
X64186252Y-58018445D01*
X64157433Y-58073221D01*
X64092343Y-58282845D01*
X64066544Y-58500821D01*
X62865000Y-58500821D01*
X62865000Y-56778139D01*
X78772251Y-56778139D01*
X78775738Y-56786528D01*
X79362188Y-57372978D01*
X79376132Y-57380592D01*
X79377965Y-57380461D01*
X79384580Y-57376210D01*
X79970657Y-56790133D01*
X79977417Y-56777753D01*
X79971387Y-56769698D01*
X79901020Y-56725299D01*
X79890769Y-56720076D01*
X79706389Y-56646516D01*
X79695352Y-56643247D01*
X79500654Y-56604518D01*
X79489210Y-56603315D01*
X79290719Y-56600718D01*
X79279239Y-56601621D01*
X79083599Y-56635238D01*
X79072479Y-56638218D01*
X78886234Y-56706927D01*
X78875856Y-56711877D01*
X78781849Y-56767806D01*
X78772251Y-56778139D01*
X62865000Y-56778139D01*
X62865000Y-54879333D01*
X64091495Y-54879333D01*
X64105851Y-55098360D01*
X64159881Y-55311103D01*
X64251775Y-55510438D01*
X64255106Y-55515151D01*
X64255107Y-55515153D01*
X64374292Y-55683794D01*
X64378457Y-55689688D01*
X64535683Y-55842851D01*
X64540479Y-55846056D01*
X64540482Y-55846058D01*
X64656930Y-55923866D01*
X64718188Y-55964797D01*
X64723491Y-55967075D01*
X64723494Y-55967077D01*
X64815140Y-56006451D01*
X64919860Y-56051442D01*
X65036499Y-56077835D01*
X65114571Y-56095501D01*
X65133945Y-56099885D01*
X65139716Y-56100112D01*
X65139718Y-56100112D01*
X65213134Y-56102996D01*
X65353273Y-56108502D01*
X65444942Y-56095211D01*
X65564784Y-56077835D01*
X65564789Y-56077834D01*
X65570498Y-56077006D01*
X65575962Y-56075151D01*
X65575967Y-56075150D01*
X65772878Y-56008307D01*
X65778346Y-56006451D01*
X65969857Y-55899200D01*
X66138615Y-55758845D01*
X66233579Y-55644664D01*
X75221400Y-55644664D01*
X75228155Y-55706846D01*
X75279285Y-55843235D01*
X75366639Y-55959791D01*
X75483195Y-56047145D01*
X75619584Y-56098275D01*
X75681766Y-56105030D01*
X77149634Y-56105030D01*
X77211816Y-56098275D01*
X77348205Y-56047145D01*
X77464761Y-55959791D01*
X77552115Y-55843235D01*
X77603245Y-55706846D01*
X77610000Y-55644664D01*
X77610000Y-54176796D01*
X77603245Y-54114614D01*
X77552115Y-53978225D01*
X77523823Y-53940475D01*
X89492483Y-53940475D01*
X89511472Y-54157519D01*
X89513375Y-54168312D01*
X89569764Y-54378761D01*
X89573510Y-54389053D01*
X89665586Y-54586511D01*
X89671069Y-54596006D01*
X89707509Y-54648048D01*
X89717988Y-54656424D01*
X89731434Y-54649356D01*
X90432978Y-53947812D01*
X90439356Y-53936132D01*
X91169408Y-53936132D01*
X91169539Y-53937965D01*
X91173790Y-53944580D01*
X91879287Y-54650077D01*
X91891062Y-54656507D01*
X91903077Y-54647211D01*
X91938931Y-54596006D01*
X91944414Y-54586511D01*
X92011272Y-54443134D01*
X103329000Y-54443134D01*
X103335755Y-54505316D01*
X103386885Y-54641705D01*
X103474239Y-54758261D01*
X103590795Y-54845615D01*
X103727184Y-54896745D01*
X103789366Y-54903500D01*
X105835634Y-54903500D01*
X105897816Y-54896745D01*
X106034205Y-54845615D01*
X106150761Y-54758261D01*
X106238115Y-54641705D01*
X106289245Y-54505316D01*
X106296000Y-54443134D01*
X106296000Y-52396866D01*
X106289245Y-52334684D01*
X106238115Y-52198295D01*
X106150761Y-52081739D01*
X106034205Y-51994385D01*
X105897816Y-51943255D01*
X105835634Y-51936500D01*
X103789366Y-51936500D01*
X103727184Y-51943255D01*
X103590795Y-51994385D01*
X103474239Y-52081739D01*
X103386885Y-52198295D01*
X103335755Y-52334684D01*
X103329000Y-52396866D01*
X103329000Y-54443134D01*
X92011272Y-54443134D01*
X92036490Y-54389053D01*
X92040236Y-54378761D01*
X92096625Y-54168312D01*
X92098528Y-54157519D01*
X92117517Y-53940475D01*
X92117517Y-53929525D01*
X92098528Y-53712481D01*
X92096625Y-53701688D01*
X92040236Y-53491239D01*
X92036490Y-53480947D01*
X91944414Y-53283489D01*
X91938931Y-53273994D01*
X91902491Y-53221952D01*
X91892012Y-53213576D01*
X91878566Y-53220644D01*
X91177022Y-53922188D01*
X91169408Y-53936132D01*
X90439356Y-53936132D01*
X90440592Y-53933868D01*
X90440461Y-53932035D01*
X90436210Y-53925420D01*
X89730713Y-53219923D01*
X89718938Y-53213493D01*
X89706923Y-53222789D01*
X89671069Y-53273994D01*
X89665586Y-53283489D01*
X89573510Y-53480947D01*
X89569764Y-53491239D01*
X89513375Y-53701688D01*
X89511472Y-53712481D01*
X89492483Y-53929525D01*
X89492483Y-53940475D01*
X77523823Y-53940475D01*
X77464761Y-53861669D01*
X77348205Y-53774315D01*
X77211816Y-53723185D01*
X77149634Y-53716430D01*
X75681766Y-53716430D01*
X75619584Y-53723185D01*
X75483195Y-53774315D01*
X75366639Y-53861669D01*
X75279285Y-53978225D01*
X75228155Y-54114614D01*
X75221400Y-54176796D01*
X75221400Y-55644664D01*
X66233579Y-55644664D01*
X66278970Y-55590087D01*
X66386221Y-55398576D01*
X66421844Y-55293634D01*
X66454920Y-55196197D01*
X66454921Y-55196192D01*
X66456776Y-55190728D01*
X66457604Y-55185019D01*
X66457605Y-55185014D01*
X66479719Y-55032491D01*
X66488272Y-54973503D01*
X66489916Y-54910730D01*
X66469832Y-54692154D01*
X66461146Y-54661357D01*
X66411819Y-54486457D01*
X66411818Y-54486455D01*
X66410251Y-54480898D01*
X66398843Y-54457763D01*
X66315725Y-54289218D01*
X66313170Y-54284037D01*
X66226755Y-54168312D01*
X66185293Y-54112788D01*
X66185292Y-54112787D01*
X66181840Y-54108164D01*
X66077427Y-54011646D01*
X66024898Y-53963088D01*
X66024895Y-53963086D01*
X66020658Y-53959169D01*
X65835023Y-53842043D01*
X65631153Y-53760706D01*
X65625485Y-53759579D01*
X65625483Y-53759578D01*
X65421541Y-53719012D01*
X65421537Y-53719012D01*
X65415873Y-53717885D01*
X65410098Y-53717809D01*
X65410094Y-53717809D01*
X65299463Y-53716361D01*
X65196395Y-53715011D01*
X65190698Y-53715990D01*
X65190697Y-53715990D01*
X64985765Y-53751204D01*
X64980068Y-53752183D01*
X64774138Y-53828155D01*
X64769177Y-53831107D01*
X64769176Y-53831107D01*
X64590469Y-53937426D01*
X64590466Y-53937428D01*
X64585501Y-53940382D01*
X64420474Y-54085107D01*
X64284585Y-54257481D01*
X64281894Y-54262597D01*
X64281892Y-54262599D01*
X64188706Y-54439717D01*
X64182384Y-54451733D01*
X64165746Y-54505316D01*
X64120797Y-54650077D01*
X64117294Y-54661357D01*
X64091495Y-54879333D01*
X62865000Y-54879333D01*
X62865000Y-52588521D01*
X64651704Y-52588521D01*
X64661586Y-52601010D01*
X64713624Y-52635781D01*
X64723734Y-52641271D01*
X64914708Y-52723320D01*
X64925651Y-52726875D01*
X65128373Y-52772747D01*
X65139783Y-52774249D01*
X65347478Y-52782409D01*
X65358960Y-52781807D01*
X65564659Y-52751983D01*
X65575855Y-52749295D01*
X65772674Y-52682483D01*
X65783181Y-52677805D01*
X65921569Y-52600303D01*
X65931434Y-52590225D01*
X65928478Y-52582553D01*
X65665224Y-52319299D01*
X75221400Y-52319299D01*
X75228155Y-52381481D01*
X75279285Y-52517870D01*
X75366639Y-52634426D01*
X75483195Y-52721780D01*
X75619584Y-52772910D01*
X75681766Y-52779665D01*
X77149634Y-52779665D01*
X77211816Y-52772910D01*
X77348205Y-52721780D01*
X77464761Y-52634426D01*
X77552115Y-52517870D01*
X77603245Y-52381481D01*
X77610000Y-52319299D01*
X77610000Y-51435000D01*
X81001496Y-51435000D01*
X81021458Y-51624928D01*
X81080473Y-51806556D01*
X81175960Y-51971944D01*
X81180378Y-51976851D01*
X81180379Y-51976852D01*
X81274820Y-52081739D01*
X81303747Y-52113866D01*
X81394194Y-52179580D01*
X81451566Y-52221263D01*
X81458248Y-52226118D01*
X81464276Y-52228802D01*
X81464278Y-52228803D01*
X81567565Y-52274789D01*
X81632712Y-52303794D01*
X81726112Y-52323647D01*
X81813056Y-52342128D01*
X81813061Y-52342128D01*
X81819513Y-52343500D01*
X82010487Y-52343500D01*
X82016939Y-52342128D01*
X82016944Y-52342128D01*
X82103888Y-52323647D01*
X82197288Y-52303794D01*
X82262435Y-52274789D01*
X82365722Y-52228803D01*
X82365724Y-52228802D01*
X82371752Y-52226118D01*
X82378435Y-52221263D01*
X82435806Y-52179580D01*
X82526253Y-52113866D01*
X82555180Y-52081739D01*
X82649621Y-51976852D01*
X82649622Y-51976851D01*
X82654040Y-51971944D01*
X82749527Y-51806556D01*
X82808542Y-51624928D01*
X82828504Y-51435000D01*
X89491502Y-51435000D01*
X89511457Y-51663087D01*
X89512881Y-51668400D01*
X89512881Y-51668402D01*
X89564093Y-51859524D01*
X89570716Y-51884243D01*
X89573039Y-51889224D01*
X89573039Y-51889225D01*
X89665151Y-52086762D01*
X89665154Y-52086767D01*
X89667477Y-52091749D01*
X89702666Y-52142004D01*
X89763444Y-52228803D01*
X89798802Y-52279300D01*
X89960700Y-52441198D01*
X89965208Y-52444355D01*
X89965211Y-52444357D01*
X90058191Y-52509462D01*
X90148251Y-52572523D01*
X90153235Y-52574847D01*
X90155528Y-52576171D01*
X90204521Y-52627553D01*
X90217957Y-52697267D01*
X90191571Y-52763178D01*
X90155528Y-52794409D01*
X90143998Y-52801066D01*
X90091952Y-52837509D01*
X90083576Y-52847988D01*
X90090644Y-52861434D01*
X90792188Y-53562978D01*
X90806132Y-53570592D01*
X90807965Y-53570461D01*
X90814580Y-53566210D01*
X91520077Y-52860713D01*
X91526507Y-52848938D01*
X91517211Y-52836923D01*
X91466002Y-52801066D01*
X91454472Y-52794409D01*
X91405479Y-52743027D01*
X91392042Y-52673313D01*
X91418429Y-52607402D01*
X91454472Y-52576171D01*
X91456765Y-52574847D01*
X91461749Y-52572523D01*
X91551809Y-52509462D01*
X91644789Y-52444357D01*
X91644792Y-52444355D01*
X91649300Y-52441198D01*
X91811198Y-52279300D01*
X91846557Y-52228803D01*
X91907334Y-52142004D01*
X91942523Y-52091749D01*
X91944846Y-52086767D01*
X91944849Y-52086762D01*
X92036961Y-51889225D01*
X92036961Y-51889224D01*
X92039284Y-51884243D01*
X92045908Y-51859524D01*
X92097119Y-51668402D01*
X92097119Y-51668400D01*
X92098543Y-51663087D01*
X92118498Y-51435000D01*
X92098543Y-51206913D01*
X92086315Y-51161278D01*
X92040707Y-50991067D01*
X92040706Y-50991065D01*
X92039284Y-50985757D01*
X92023774Y-50952495D01*
X91944849Y-50783238D01*
X91944846Y-50783233D01*
X91942523Y-50778251D01*
X91848437Y-50643882D01*
X91814357Y-50595211D01*
X91814355Y-50595208D01*
X91811198Y-50590700D01*
X91649300Y-50428802D01*
X91644792Y-50425645D01*
X91644789Y-50425643D01*
X91543797Y-50354928D01*
X91461749Y-50297477D01*
X91456767Y-50295154D01*
X91456762Y-50295151D01*
X91259225Y-50203039D01*
X91259224Y-50203039D01*
X91254243Y-50200716D01*
X91248935Y-50199294D01*
X91248933Y-50199293D01*
X91038402Y-50142881D01*
X91038400Y-50142881D01*
X91033087Y-50141457D01*
X90805000Y-50121502D01*
X90576913Y-50141457D01*
X90571600Y-50142881D01*
X90571598Y-50142881D01*
X90361067Y-50199293D01*
X90361065Y-50199294D01*
X90355757Y-50200716D01*
X90350776Y-50203039D01*
X90350775Y-50203039D01*
X90153238Y-50295151D01*
X90153233Y-50295154D01*
X90148251Y-50297477D01*
X90066203Y-50354928D01*
X89965211Y-50425643D01*
X89965208Y-50425645D01*
X89960700Y-50428802D01*
X89798802Y-50590700D01*
X89795645Y-50595208D01*
X89795643Y-50595211D01*
X89761563Y-50643882D01*
X89667477Y-50778251D01*
X89665154Y-50783233D01*
X89665151Y-50783238D01*
X89586226Y-50952495D01*
X89570716Y-50985757D01*
X89569294Y-50991065D01*
X89569293Y-50991067D01*
X89523685Y-51161278D01*
X89511457Y-51206913D01*
X89491502Y-51435000D01*
X82828504Y-51435000D01*
X82827814Y-51428435D01*
X82809232Y-51251635D01*
X82809232Y-51251633D01*
X82808542Y-51245072D01*
X82749527Y-51063444D01*
X82654040Y-50898056D01*
X82615136Y-50854848D01*
X82530675Y-50761045D01*
X82530674Y-50761044D01*
X82526253Y-50756134D01*
X82371752Y-50643882D01*
X82365724Y-50641198D01*
X82365722Y-50641197D01*
X82203319Y-50568891D01*
X82203318Y-50568891D01*
X82197288Y-50566206D01*
X82084721Y-50542279D01*
X82016944Y-50527872D01*
X82016939Y-50527872D01*
X82010487Y-50526500D01*
X81819513Y-50526500D01*
X81813061Y-50527872D01*
X81813056Y-50527872D01*
X81745279Y-50542279D01*
X81632712Y-50566206D01*
X81626682Y-50568891D01*
X81626681Y-50568891D01*
X81464278Y-50641197D01*
X81464276Y-50641198D01*
X81458248Y-50643882D01*
X81303747Y-50756134D01*
X81299326Y-50761044D01*
X81299325Y-50761045D01*
X81214865Y-50854848D01*
X81175960Y-50898056D01*
X81080473Y-51063444D01*
X81021458Y-51245072D01*
X81020768Y-51251633D01*
X81020768Y-51251635D01*
X81002186Y-51428435D01*
X81001496Y-51435000D01*
X77610000Y-51435000D01*
X77610000Y-50851431D01*
X77603245Y-50789249D01*
X77552115Y-50652860D01*
X77464761Y-50536304D01*
X77348205Y-50448950D01*
X77211816Y-50397820D01*
X77149634Y-50391065D01*
X75681766Y-50391065D01*
X75619584Y-50397820D01*
X75483195Y-50448950D01*
X75366639Y-50536304D01*
X75279285Y-50652860D01*
X75228155Y-50789249D01*
X75221400Y-50851431D01*
X75221400Y-52319299D01*
X65665224Y-52319299D01*
X65303312Y-51957387D01*
X65289368Y-51949773D01*
X65287535Y-51949904D01*
X65280920Y-51954155D01*
X64657900Y-52577175D01*
X64651704Y-52588521D01*
X62865000Y-52588521D01*
X62865000Y-51559747D01*
X64092375Y-51559747D01*
X64105969Y-51767148D01*
X64107770Y-51778518D01*
X64158932Y-51979971D01*
X64162773Y-51990818D01*
X64249793Y-52179580D01*
X64255542Y-52189537D01*
X64274725Y-52216680D01*
X64285314Y-52225068D01*
X64298615Y-52218040D01*
X64918478Y-51598177D01*
X64924856Y-51586497D01*
X65654908Y-51586497D01*
X65655039Y-51588330D01*
X65659290Y-51594945D01*
X66283774Y-52219429D01*
X66296154Y-52226189D01*
X66302734Y-52221263D01*
X66382940Y-52078046D01*
X66387618Y-52067539D01*
X66454430Y-51870720D01*
X66457118Y-51859524D01*
X66487238Y-51651785D01*
X66487868Y-51644402D01*
X66489317Y-51589069D01*
X66489074Y-51581670D01*
X66469867Y-51372637D01*
X66467769Y-51361316D01*
X66411352Y-51161278D01*
X66407227Y-51150531D01*
X66315296Y-50964113D01*
X66309286Y-50954306D01*
X66307934Y-50952495D01*
X66296676Y-50944046D01*
X66284257Y-50950818D01*
X65662522Y-51572553D01*
X65654908Y-51586497D01*
X64924856Y-51586497D01*
X64926092Y-51584233D01*
X64925961Y-51582400D01*
X64921710Y-51575785D01*
X64295511Y-50949586D01*
X64283131Y-50942826D01*
X64277165Y-50947292D01*
X64185537Y-51121450D01*
X64181136Y-51132074D01*
X64119498Y-51330580D01*
X64117106Y-51341834D01*
X64092676Y-51548246D01*
X64092375Y-51559747D01*
X62865000Y-51559747D01*
X62865000Y-50581440D01*
X64650687Y-50581440D01*
X64654173Y-50589828D01*
X65277688Y-51213343D01*
X65291632Y-51220957D01*
X65293465Y-51220826D01*
X65300080Y-51216575D01*
X65922989Y-50593666D01*
X65929749Y-50581286D01*
X65923719Y-50573231D01*
X65839680Y-50520206D01*
X65829432Y-50514985D01*
X65636379Y-50437965D01*
X65625343Y-50434696D01*
X65421487Y-50394146D01*
X65410042Y-50392943D01*
X65202216Y-50390223D01*
X65190736Y-50391126D01*
X64985895Y-50426324D01*
X64974775Y-50429304D01*
X64779770Y-50501245D01*
X64769392Y-50506195D01*
X64660285Y-50571107D01*
X64650687Y-50581440D01*
X62865000Y-50581440D01*
X62865000Y-50165000D01*
X83541496Y-50165000D01*
X83542186Y-50171565D01*
X83555752Y-50300634D01*
X83561458Y-50354928D01*
X83620473Y-50536556D01*
X83715960Y-50701944D01*
X83720378Y-50706851D01*
X83720379Y-50706852D01*
X83789157Y-50783238D01*
X83843747Y-50843866D01*
X83911578Y-50893148D01*
X83989258Y-50949586D01*
X83998248Y-50956118D01*
X84004276Y-50958802D01*
X84004278Y-50958803D01*
X84076745Y-50991067D01*
X84172712Y-51033794D01*
X84266112Y-51053647D01*
X84353056Y-51072128D01*
X84353061Y-51072128D01*
X84359513Y-51073500D01*
X84550487Y-51073500D01*
X84556939Y-51072128D01*
X84556944Y-51072128D01*
X84643887Y-51053647D01*
X84737288Y-51033794D01*
X84833255Y-50991067D01*
X84905722Y-50958803D01*
X84905724Y-50958802D01*
X84911752Y-50956118D01*
X84920743Y-50949586D01*
X84998422Y-50893148D01*
X85066253Y-50843866D01*
X85120843Y-50783238D01*
X85189621Y-50706852D01*
X85189622Y-50706851D01*
X85194040Y-50701944D01*
X85289527Y-50536556D01*
X85348542Y-50354928D01*
X85354249Y-50300634D01*
X85367814Y-50171565D01*
X85368504Y-50165000D01*
X85348542Y-49975072D01*
X85289527Y-49793444D01*
X85272438Y-49763844D01*
X85202537Y-49642774D01*
X85198986Y-49636624D01*
X103961121Y-49636624D01*
X103965488Y-49642774D01*
X104165063Y-49759397D01*
X104174346Y-49763844D01*
X104392507Y-49847152D01*
X104402405Y-49850028D01*
X104631244Y-49896585D01*
X104641472Y-49897804D01*
X104874840Y-49906362D01*
X104885126Y-49905895D01*
X105116762Y-49876222D01*
X105126840Y-49874080D01*
X105350514Y-49806974D01*
X105360112Y-49803212D01*
X105569824Y-49700476D01*
X105578669Y-49695203D01*
X105651369Y-49643347D01*
X105659770Y-49632646D01*
X105652783Y-49619493D01*
X104825312Y-48792022D01*
X104811368Y-48784408D01*
X104809535Y-48784539D01*
X104802920Y-48788790D01*
X103968381Y-49623329D01*
X103961121Y-49636624D01*
X85198986Y-49636624D01*
X85194040Y-49628056D01*
X85066253Y-49486134D01*
X84911752Y-49373882D01*
X84905724Y-49371198D01*
X84905722Y-49371197D01*
X84743319Y-49298891D01*
X84743318Y-49298891D01*
X84737288Y-49296206D01*
X84640557Y-49275645D01*
X84556944Y-49257872D01*
X84556939Y-49257872D01*
X84550487Y-49256500D01*
X84359513Y-49256500D01*
X84353061Y-49257872D01*
X84353056Y-49257872D01*
X84269443Y-49275645D01*
X84172712Y-49296206D01*
X84166682Y-49298891D01*
X84166681Y-49298891D01*
X84004278Y-49371197D01*
X84004276Y-49371198D01*
X83998248Y-49373882D01*
X83843747Y-49486134D01*
X83715960Y-49628056D01*
X83707463Y-49642774D01*
X83637563Y-49763844D01*
X83620473Y-49793444D01*
X83561458Y-49975072D01*
X83541496Y-50165000D01*
X62865000Y-50165000D01*
X62865000Y-49263156D01*
X64651704Y-49263156D01*
X64661586Y-49275645D01*
X64713624Y-49310416D01*
X64723734Y-49315906D01*
X64914708Y-49397955D01*
X64925651Y-49401510D01*
X65128373Y-49447382D01*
X65139783Y-49448884D01*
X65347478Y-49457044D01*
X65358960Y-49456442D01*
X65564659Y-49426618D01*
X65575855Y-49423930D01*
X65772674Y-49357118D01*
X65783181Y-49352440D01*
X65921569Y-49274938D01*
X65931434Y-49264860D01*
X65928478Y-49257188D01*
X65665224Y-48993934D01*
X75221400Y-48993934D01*
X75228155Y-49056116D01*
X75279285Y-49192505D01*
X75366639Y-49309061D01*
X75483195Y-49396415D01*
X75619584Y-49447545D01*
X75681766Y-49454300D01*
X77149634Y-49454300D01*
X77211816Y-49447545D01*
X77348205Y-49396415D01*
X77464761Y-49309061D01*
X77552115Y-49192505D01*
X77603245Y-49056116D01*
X77610000Y-48993934D01*
X77610000Y-47554938D01*
X78226995Y-47554938D01*
X78240740Y-47764649D01*
X78292471Y-47968343D01*
X78294890Y-47973590D01*
X78378038Y-48153953D01*
X78378041Y-48153958D01*
X78380457Y-48159199D01*
X78383788Y-48163912D01*
X78383789Y-48163914D01*
X78452497Y-48261132D01*
X78501751Y-48330825D01*
X78652289Y-48477474D01*
X78657085Y-48480679D01*
X78657088Y-48480681D01*
X78727499Y-48527728D01*
X78827031Y-48594233D01*
X78832339Y-48596514D01*
X78832340Y-48596514D01*
X79014822Y-48674914D01*
X79014825Y-48674915D01*
X79020125Y-48677192D01*
X79025754Y-48678466D01*
X79025755Y-48678466D01*
X79219467Y-48722299D01*
X79219473Y-48722300D01*
X79225104Y-48723574D01*
X79230875Y-48723801D01*
X79230877Y-48723801D01*
X79294433Y-48726298D01*
X79435103Y-48731825D01*
X79643088Y-48701669D01*
X79648552Y-48699814D01*
X79648557Y-48699813D01*
X79836624Y-48635973D01*
X79836629Y-48635971D01*
X79842096Y-48634115D01*
X79848166Y-48630716D01*
X79932843Y-48583294D01*
X80025460Y-48531426D01*
X80187041Y-48397041D01*
X80321426Y-48235460D01*
X80401891Y-48091779D01*
X80421291Y-48057139D01*
X80421292Y-48057137D01*
X80424115Y-48052096D01*
X80425971Y-48046629D01*
X80425973Y-48046624D01*
X80489813Y-47858557D01*
X80489814Y-47858552D01*
X80491669Y-47853088D01*
X80521825Y-47645103D01*
X80521868Y-47643466D01*
X80542816Y-47589564D01*
X80541184Y-47586214D01*
X80747868Y-47586214D01*
X80770730Y-47629477D01*
X80772985Y-47646334D01*
X80775449Y-47683919D01*
X80780740Y-47764649D01*
X80832471Y-47968343D01*
X80834890Y-47973590D01*
X80918038Y-48153953D01*
X80918041Y-48153958D01*
X80920457Y-48159199D01*
X80923788Y-48163912D01*
X80923789Y-48163914D01*
X80992497Y-48261132D01*
X81041751Y-48330825D01*
X81192289Y-48477474D01*
X81197085Y-48480679D01*
X81197088Y-48480681D01*
X81267499Y-48527728D01*
X81367031Y-48594233D01*
X81372339Y-48596514D01*
X81372340Y-48596514D01*
X81554822Y-48674914D01*
X81554825Y-48674915D01*
X81560125Y-48677192D01*
X81565754Y-48678466D01*
X81565755Y-48678466D01*
X81759467Y-48722299D01*
X81759473Y-48722300D01*
X81765104Y-48723574D01*
X81770875Y-48723801D01*
X81770877Y-48723801D01*
X81834433Y-48726298D01*
X81975103Y-48731825D01*
X82183088Y-48701669D01*
X82188552Y-48699814D01*
X82188557Y-48699813D01*
X82376624Y-48635973D01*
X82376629Y-48635971D01*
X82382096Y-48634115D01*
X82388166Y-48630716D01*
X82472843Y-48583294D01*
X82565460Y-48531426D01*
X82727041Y-48397041D01*
X82861426Y-48235460D01*
X82941891Y-48091779D01*
X82961291Y-48057139D01*
X82961292Y-48057137D01*
X82964115Y-48052096D01*
X82965971Y-48046629D01*
X82965973Y-48046624D01*
X83029813Y-47858557D01*
X83029814Y-47858552D01*
X83031669Y-47853088D01*
X83061825Y-47645103D01*
X83061868Y-47643466D01*
X83082816Y-47589564D01*
X83081184Y-47586214D01*
X83287868Y-47586214D01*
X83310730Y-47629477D01*
X83312985Y-47646334D01*
X83315449Y-47683919D01*
X83320740Y-47764649D01*
X83372471Y-47968343D01*
X83374890Y-47973590D01*
X83458038Y-48153953D01*
X83458041Y-48153958D01*
X83460457Y-48159199D01*
X83463788Y-48163912D01*
X83463789Y-48163914D01*
X83532497Y-48261132D01*
X83581751Y-48330825D01*
X83732289Y-48477474D01*
X83737085Y-48480679D01*
X83737088Y-48480681D01*
X83807499Y-48527728D01*
X83907031Y-48594233D01*
X83912339Y-48596514D01*
X83912340Y-48596514D01*
X84094822Y-48674914D01*
X84094825Y-48674915D01*
X84100125Y-48677192D01*
X84105754Y-48678466D01*
X84105755Y-48678466D01*
X84299467Y-48722299D01*
X84299473Y-48722300D01*
X84305104Y-48723574D01*
X84310875Y-48723801D01*
X84310877Y-48723801D01*
X84374433Y-48726298D01*
X84515103Y-48731825D01*
X84723088Y-48701669D01*
X84728552Y-48699814D01*
X84728557Y-48699813D01*
X84916624Y-48635973D01*
X84916629Y-48635971D01*
X84922096Y-48634115D01*
X84928166Y-48630716D01*
X85012843Y-48583294D01*
X85105460Y-48531426D01*
X85267041Y-48397041D01*
X85401426Y-48235460D01*
X85481891Y-48091779D01*
X85501291Y-48057139D01*
X85501292Y-48057137D01*
X85504115Y-48052096D01*
X85505971Y-48046629D01*
X85505973Y-48046624D01*
X85569813Y-47858557D01*
X85569814Y-47858552D01*
X85571669Y-47853088D01*
X85601825Y-47645103D01*
X85601868Y-47643466D01*
X85622816Y-47589564D01*
X85621184Y-47586214D01*
X85827868Y-47586214D01*
X85850730Y-47629477D01*
X85852985Y-47646334D01*
X85855449Y-47683919D01*
X85860740Y-47764649D01*
X85912471Y-47968343D01*
X85914890Y-47973590D01*
X85998038Y-48153953D01*
X85998041Y-48153958D01*
X86000457Y-48159199D01*
X86003788Y-48163912D01*
X86003789Y-48163914D01*
X86072497Y-48261132D01*
X86121751Y-48330825D01*
X86272289Y-48477474D01*
X86277085Y-48480679D01*
X86277088Y-48480681D01*
X86347499Y-48527728D01*
X86447031Y-48594233D01*
X86452339Y-48596514D01*
X86452340Y-48596514D01*
X86634822Y-48674914D01*
X86634825Y-48674915D01*
X86640125Y-48677192D01*
X86645754Y-48678466D01*
X86645755Y-48678466D01*
X86839467Y-48722299D01*
X86839473Y-48722300D01*
X86845104Y-48723574D01*
X86850875Y-48723801D01*
X86850877Y-48723801D01*
X86914433Y-48726298D01*
X87055103Y-48731825D01*
X87263088Y-48701669D01*
X87268552Y-48699814D01*
X87268557Y-48699813D01*
X87456624Y-48635973D01*
X87456629Y-48635971D01*
X87462096Y-48634115D01*
X87468166Y-48630716D01*
X87552843Y-48583294D01*
X87645460Y-48531426D01*
X87807041Y-48397041D01*
X87813896Y-48388799D01*
X103325158Y-48388799D01*
X103338602Y-48621942D01*
X103340035Y-48632144D01*
X103391373Y-48859949D01*
X103394456Y-48869789D01*
X103482314Y-49086156D01*
X103486957Y-49095347D01*
X103588055Y-49260325D01*
X103598511Y-49269785D01*
X103607289Y-49266001D01*
X104440478Y-48432812D01*
X104446856Y-48421132D01*
X105176908Y-48421132D01*
X105177039Y-48422965D01*
X105181290Y-48429580D01*
X106012545Y-49260835D01*
X106024555Y-49267394D01*
X106036294Y-49258426D01*
X106085018Y-49190619D01*
X106090329Y-49181780D01*
X106193791Y-48972442D01*
X106197589Y-48962849D01*
X106265474Y-48739413D01*
X106267651Y-48729343D01*
X106298369Y-48496015D01*
X106298888Y-48489340D01*
X106300501Y-48423364D01*
X106300307Y-48416647D01*
X106281025Y-48182108D01*
X106279342Y-48171946D01*
X106222452Y-47945453D01*
X106219134Y-47935706D01*
X106126013Y-47721542D01*
X106121146Y-47712467D01*
X106035965Y-47580796D01*
X106025279Y-47571593D01*
X106015714Y-47575996D01*
X105184522Y-48407188D01*
X105176908Y-48421132D01*
X104446856Y-48421132D01*
X104448092Y-48418868D01*
X104447961Y-48417035D01*
X104443710Y-48410420D01*
X103612392Y-47579102D01*
X103600856Y-47572802D01*
X103588573Y-47582426D01*
X103521536Y-47680698D01*
X103516443Y-47689662D01*
X103418119Y-47901483D01*
X103414562Y-47911151D01*
X103352157Y-48136178D01*
X103350226Y-48146298D01*
X103325410Y-48378510D01*
X103325158Y-48388799D01*
X87813896Y-48388799D01*
X87941426Y-48235460D01*
X88021891Y-48091779D01*
X88041291Y-48057139D01*
X88041292Y-48057137D01*
X88044115Y-48052096D01*
X88045971Y-48046629D01*
X88045973Y-48046624D01*
X88109813Y-47858557D01*
X88109814Y-47858552D01*
X88111669Y-47853088D01*
X88141825Y-47645103D01*
X88143399Y-47585000D01*
X88124169Y-47375721D01*
X88116698Y-47349229D01*
X88076625Y-47207142D01*
X103964438Y-47207142D01*
X103971184Y-47219474D01*
X104799688Y-48047978D01*
X104813632Y-48055592D01*
X104815465Y-48055461D01*
X104822080Y-48051210D01*
X105654891Y-47218399D01*
X105661912Y-47205543D01*
X105654139Y-47194875D01*
X105640048Y-47183746D01*
X105631470Y-47178047D01*
X105427026Y-47065189D01*
X105417626Y-47060964D01*
X105197493Y-46983011D01*
X105187536Y-46980381D01*
X104957629Y-46939427D01*
X104947378Y-46938458D01*
X104713867Y-46935605D01*
X104703583Y-46936325D01*
X104472753Y-46971647D01*
X104462725Y-46974036D01*
X104240763Y-47046584D01*
X104231253Y-47050581D01*
X104024124Y-47158405D01*
X104015404Y-47163897D01*
X103972891Y-47195817D01*
X103964438Y-47207142D01*
X88076625Y-47207142D01*
X88073165Y-47194875D01*
X88067123Y-47173451D01*
X87974171Y-46984963D01*
X87966012Y-46974036D01*
X87851880Y-46821195D01*
X87851879Y-46821194D01*
X87848427Y-46816571D01*
X87844191Y-46812655D01*
X87698341Y-46677833D01*
X87698338Y-46677831D01*
X87694101Y-46673914D01*
X87516362Y-46561769D01*
X87321163Y-46483892D01*
X87315506Y-46482767D01*
X87315500Y-46482765D01*
X87120707Y-46444019D01*
X87120705Y-46444019D01*
X87115040Y-46442892D01*
X87109265Y-46442816D01*
X87109261Y-46442816D01*
X87004001Y-46441438D01*
X86904898Y-46440141D01*
X86899201Y-46441120D01*
X86899200Y-46441120D01*
X86703469Y-46474753D01*
X86697772Y-46475732D01*
X86500601Y-46548472D01*
X86319988Y-46655926D01*
X86161981Y-46794494D01*
X86031872Y-46959537D01*
X86029181Y-46964653D01*
X86029179Y-46964655D01*
X85936710Y-47140410D01*
X85934018Y-47145527D01*
X85871696Y-47346234D01*
X85871017Y-47351969D01*
X85871017Y-47351970D01*
X85849212Y-47536206D01*
X85827868Y-47586214D01*
X85621184Y-47586214D01*
X85599855Y-47542440D01*
X85598614Y-47532926D01*
X85598450Y-47531135D01*
X85584169Y-47375721D01*
X85576698Y-47349229D01*
X85533165Y-47194875D01*
X85527123Y-47173451D01*
X85434171Y-46984963D01*
X85426012Y-46974036D01*
X85311880Y-46821195D01*
X85311879Y-46821194D01*
X85308427Y-46816571D01*
X85304191Y-46812655D01*
X85158341Y-46677833D01*
X85158338Y-46677831D01*
X85154101Y-46673914D01*
X84976362Y-46561769D01*
X84781163Y-46483892D01*
X84775506Y-46482767D01*
X84775500Y-46482765D01*
X84580707Y-46444019D01*
X84580705Y-46444019D01*
X84575040Y-46442892D01*
X84569265Y-46442816D01*
X84569261Y-46442816D01*
X84464001Y-46441438D01*
X84364898Y-46440141D01*
X84359201Y-46441120D01*
X84359200Y-46441120D01*
X84163469Y-46474753D01*
X84157772Y-46475732D01*
X83960601Y-46548472D01*
X83779988Y-46655926D01*
X83621981Y-46794494D01*
X83491872Y-46959537D01*
X83489181Y-46964653D01*
X83489179Y-46964655D01*
X83396710Y-47140410D01*
X83394018Y-47145527D01*
X83331696Y-47346234D01*
X83331017Y-47351969D01*
X83331017Y-47351970D01*
X83309212Y-47536206D01*
X83287868Y-47586214D01*
X83081184Y-47586214D01*
X83059855Y-47542440D01*
X83058614Y-47532926D01*
X83058450Y-47531135D01*
X83044169Y-47375721D01*
X83036698Y-47349229D01*
X82993165Y-47194875D01*
X82987123Y-47173451D01*
X82894171Y-46984963D01*
X82886012Y-46974036D01*
X82771880Y-46821195D01*
X82771879Y-46821194D01*
X82768427Y-46816571D01*
X82764191Y-46812655D01*
X82618341Y-46677833D01*
X82618338Y-46677831D01*
X82614101Y-46673914D01*
X82436362Y-46561769D01*
X82241163Y-46483892D01*
X82235506Y-46482767D01*
X82235500Y-46482765D01*
X82040707Y-46444019D01*
X82040705Y-46444019D01*
X82035040Y-46442892D01*
X82029265Y-46442816D01*
X82029261Y-46442816D01*
X81924001Y-46441438D01*
X81824898Y-46440141D01*
X81819201Y-46441120D01*
X81819200Y-46441120D01*
X81623469Y-46474753D01*
X81617772Y-46475732D01*
X81420601Y-46548472D01*
X81239988Y-46655926D01*
X81081981Y-46794494D01*
X80951872Y-46959537D01*
X80949181Y-46964653D01*
X80949179Y-46964655D01*
X80856710Y-47140410D01*
X80854018Y-47145527D01*
X80791696Y-47346234D01*
X80791017Y-47351969D01*
X80791017Y-47351970D01*
X80769212Y-47536206D01*
X80747868Y-47586214D01*
X80541184Y-47586214D01*
X80519855Y-47542440D01*
X80518614Y-47532926D01*
X80518450Y-47531135D01*
X80504169Y-47375721D01*
X80496698Y-47349229D01*
X80453165Y-47194875D01*
X80447123Y-47173451D01*
X80354171Y-46984963D01*
X80346012Y-46974036D01*
X80231880Y-46821195D01*
X80231879Y-46821194D01*
X80228427Y-46816571D01*
X80224191Y-46812655D01*
X80078341Y-46677833D01*
X80078338Y-46677831D01*
X80074101Y-46673914D01*
X79896362Y-46561769D01*
X79701163Y-46483892D01*
X79695506Y-46482767D01*
X79695500Y-46482765D01*
X79500707Y-46444019D01*
X79500705Y-46444019D01*
X79495040Y-46442892D01*
X79489265Y-46442816D01*
X79489261Y-46442816D01*
X79384001Y-46441438D01*
X79284898Y-46440141D01*
X79279201Y-46441120D01*
X79279200Y-46441120D01*
X79083469Y-46474753D01*
X79077772Y-46475732D01*
X78880601Y-46548472D01*
X78699988Y-46655926D01*
X78541981Y-46794494D01*
X78411872Y-46959537D01*
X78409181Y-46964653D01*
X78409179Y-46964655D01*
X78316710Y-47140410D01*
X78314018Y-47145527D01*
X78251696Y-47346234D01*
X78226995Y-47554938D01*
X77610000Y-47554938D01*
X77610000Y-47526066D01*
X77603245Y-47463884D01*
X77552115Y-47327495D01*
X77464761Y-47210939D01*
X77348205Y-47123585D01*
X77211816Y-47072455D01*
X77149634Y-47065700D01*
X75681766Y-47065700D01*
X75619584Y-47072455D01*
X75483195Y-47123585D01*
X75366639Y-47210939D01*
X75279285Y-47327495D01*
X75228155Y-47463884D01*
X75221400Y-47526066D01*
X75221400Y-48993934D01*
X65665224Y-48993934D01*
X65303312Y-48632022D01*
X65289368Y-48624408D01*
X65287535Y-48624539D01*
X65280920Y-48628790D01*
X64657900Y-49251810D01*
X64651704Y-49263156D01*
X62865000Y-49263156D01*
X62865000Y-48745330D01*
X62885002Y-48677209D01*
X62938658Y-48630716D01*
X62964803Y-48622083D01*
X63044247Y-48605196D01*
X63147288Y-48583294D01*
X63257648Y-48534159D01*
X63315722Y-48508303D01*
X63315724Y-48508302D01*
X63321752Y-48505618D01*
X63334970Y-48496015D01*
X63377157Y-48465364D01*
X63476253Y-48393366D01*
X63480675Y-48388455D01*
X63599621Y-48256352D01*
X63599622Y-48256351D01*
X63604040Y-48251444D01*
X63613891Y-48234382D01*
X64092375Y-48234382D01*
X64105969Y-48441783D01*
X64107770Y-48453153D01*
X64158932Y-48654606D01*
X64162773Y-48665453D01*
X64249793Y-48854215D01*
X64255542Y-48864172D01*
X64274725Y-48891315D01*
X64285314Y-48899703D01*
X64298615Y-48892675D01*
X64918478Y-48272812D01*
X64924856Y-48261132D01*
X65654908Y-48261132D01*
X65655039Y-48262965D01*
X65659290Y-48269580D01*
X66283774Y-48894064D01*
X66296154Y-48900824D01*
X66302734Y-48895898D01*
X66382940Y-48752681D01*
X66387618Y-48742174D01*
X66454430Y-48545355D01*
X66457118Y-48534159D01*
X66487238Y-48326420D01*
X66487868Y-48319037D01*
X66489317Y-48263704D01*
X66489074Y-48256305D01*
X66469867Y-48047272D01*
X66467769Y-48035951D01*
X66411352Y-47835913D01*
X66407227Y-47825166D01*
X66315296Y-47638748D01*
X66309286Y-47628941D01*
X66307934Y-47627130D01*
X66296676Y-47618681D01*
X66284257Y-47625453D01*
X65662522Y-48247188D01*
X65654908Y-48261132D01*
X64924856Y-48261132D01*
X64926092Y-48258868D01*
X64925961Y-48257035D01*
X64921710Y-48250420D01*
X64295511Y-47624221D01*
X64283131Y-47617461D01*
X64277165Y-47621927D01*
X64185537Y-47796085D01*
X64181136Y-47806709D01*
X64119498Y-48005215D01*
X64117106Y-48016469D01*
X64092676Y-48222881D01*
X64092375Y-48234382D01*
X63613891Y-48234382D01*
X63699527Y-48086056D01*
X63758542Y-47904428D01*
X63759485Y-47895461D01*
X63777814Y-47721065D01*
X63778504Y-47714500D01*
X63771081Y-47643870D01*
X63759232Y-47531135D01*
X63759232Y-47531133D01*
X63758542Y-47524572D01*
X63699527Y-47342944D01*
X63690608Y-47327495D01*
X63649373Y-47256075D01*
X64650687Y-47256075D01*
X64654173Y-47264463D01*
X65277688Y-47887978D01*
X65291632Y-47895592D01*
X65293465Y-47895461D01*
X65300080Y-47891210D01*
X65922989Y-47268301D01*
X65929749Y-47255921D01*
X65923719Y-47247866D01*
X65839680Y-47194841D01*
X65829432Y-47189620D01*
X65636379Y-47112600D01*
X65625343Y-47109331D01*
X65421487Y-47068781D01*
X65410042Y-47067578D01*
X65202216Y-47064858D01*
X65190736Y-47065761D01*
X64985895Y-47100959D01*
X64974775Y-47103939D01*
X64779770Y-47175880D01*
X64769392Y-47180830D01*
X64660285Y-47245742D01*
X64650687Y-47256075D01*
X63649373Y-47256075D01*
X63649284Y-47255921D01*
X63604040Y-47177556D01*
X63591742Y-47163897D01*
X63480675Y-47040545D01*
X63480674Y-47040544D01*
X63476253Y-47035634D01*
X63342502Y-46938458D01*
X63327094Y-46927263D01*
X63327093Y-46927262D01*
X63321752Y-46923382D01*
X63315724Y-46920698D01*
X63315722Y-46920697D01*
X63153319Y-46848391D01*
X63153318Y-46848391D01*
X63147288Y-46845706D01*
X63044247Y-46823804D01*
X62964803Y-46806917D01*
X62902329Y-46773188D01*
X62868008Y-46711039D01*
X62865000Y-46683670D01*
X62865000Y-45846000D01*
X62885002Y-45777879D01*
X62938658Y-45731386D01*
X62991000Y-45720000D01*
X109729000Y-45720000D01*
X109797121Y-45740002D01*
X109843614Y-45793658D01*
X109855000Y-45846000D01*
X109855000Y-92584000D01*
X109834998Y-92652121D01*
X109781342Y-92698614D01*
X109729000Y-92710000D01*
X25526000Y-92710000D01*
X25457879Y-92689998D01*
X25411386Y-92636342D01*
X25400000Y-92584000D01*
X25400000Y-90929412D01*
X58884237Y-90929412D01*
X58889964Y-90937062D01*
X59061119Y-91041947D01*
X59069914Y-91046429D01*
X59280065Y-91133476D01*
X59289450Y-91136525D01*
X59510631Y-91189627D01*
X59520378Y-91191170D01*
X59747147Y-91209017D01*
X59757007Y-91209017D01*
X59983776Y-91191170D01*
X59993523Y-91189627D01*
X60214704Y-91136525D01*
X60224089Y-91133476D01*
X60434240Y-91046429D01*
X60443035Y-91041947D01*
X60610522Y-90939310D01*
X60619984Y-90928852D01*
X60616201Y-90920076D01*
X60501125Y-90805000D01*
X74651496Y-90805000D01*
X74671458Y-90994928D01*
X74730473Y-91176556D01*
X74733776Y-91182278D01*
X74733777Y-91182279D01*
X74743781Y-91199606D01*
X74825960Y-91341944D01*
X74830378Y-91346851D01*
X74830379Y-91346852D01*
X74919494Y-91445824D01*
X74953747Y-91483866D01*
X74987324Y-91508261D01*
X75100143Y-91590229D01*
X75108248Y-91596118D01*
X75114276Y-91598802D01*
X75114278Y-91598803D01*
X75276681Y-91671109D01*
X75282712Y-91673794D01*
X75376113Y-91693647D01*
X75463056Y-91712128D01*
X75463061Y-91712128D01*
X75469513Y-91713500D01*
X75660487Y-91713500D01*
X75666939Y-91712128D01*
X75666944Y-91712128D01*
X75753887Y-91693647D01*
X75847288Y-91673794D01*
X75853319Y-91671109D01*
X76015722Y-91598803D01*
X76015724Y-91598802D01*
X76021752Y-91596118D01*
X76029858Y-91590229D01*
X76100459Y-91538934D01*
X77965000Y-91538934D01*
X77971755Y-91601116D01*
X78022885Y-91737505D01*
X78110239Y-91854061D01*
X78226795Y-91941415D01*
X78363184Y-91992545D01*
X78425366Y-91999300D01*
X79893234Y-91999300D01*
X79955416Y-91992545D01*
X80091805Y-91941415D01*
X80208361Y-91854061D01*
X80242765Y-91808156D01*
X89645704Y-91808156D01*
X89655586Y-91820645D01*
X89707624Y-91855416D01*
X89717734Y-91860906D01*
X89908708Y-91942955D01*
X89919651Y-91946510D01*
X90122373Y-91992382D01*
X90133783Y-91993884D01*
X90341478Y-92002044D01*
X90352960Y-92001442D01*
X90558659Y-91971618D01*
X90569855Y-91968930D01*
X90766674Y-91902118D01*
X90777181Y-91897440D01*
X90915569Y-91819938D01*
X90925434Y-91809860D01*
X90922478Y-91802188D01*
X90297312Y-91177022D01*
X90283368Y-91169408D01*
X90281535Y-91169539D01*
X90274920Y-91173790D01*
X89651900Y-91796810D01*
X89645704Y-91808156D01*
X80242765Y-91808156D01*
X80295715Y-91737505D01*
X80346845Y-91601116D01*
X80353600Y-91538934D01*
X80353600Y-90779382D01*
X89086375Y-90779382D01*
X89099969Y-90986783D01*
X89101770Y-90998153D01*
X89152932Y-91199606D01*
X89156773Y-91210453D01*
X89243793Y-91399215D01*
X89249542Y-91409172D01*
X89268725Y-91436315D01*
X89279314Y-91444703D01*
X89292615Y-91437675D01*
X89912478Y-90817812D01*
X89918856Y-90806132D01*
X90648908Y-90806132D01*
X90649039Y-90807965D01*
X90653290Y-90814580D01*
X91277774Y-91439064D01*
X91290154Y-91445824D01*
X91296734Y-91440898D01*
X91376940Y-91297681D01*
X91381618Y-91287174D01*
X91413541Y-91193134D01*
X103291500Y-91193134D01*
X103298255Y-91255316D01*
X103349385Y-91391705D01*
X103436739Y-91508261D01*
X103553295Y-91595615D01*
X103689684Y-91646745D01*
X103751866Y-91653500D01*
X105798134Y-91653500D01*
X105860316Y-91646745D01*
X105996705Y-91595615D01*
X106113261Y-91508261D01*
X106200615Y-91391705D01*
X106251745Y-91255316D01*
X106258500Y-91193134D01*
X106258500Y-89146866D01*
X106251745Y-89084684D01*
X106200615Y-88948295D01*
X106113261Y-88831739D01*
X105996705Y-88744385D01*
X105860316Y-88693255D01*
X105798134Y-88686500D01*
X103751866Y-88686500D01*
X103689684Y-88693255D01*
X103553295Y-88744385D01*
X103436739Y-88831739D01*
X103349385Y-88948295D01*
X103298255Y-89084684D01*
X103291500Y-89146866D01*
X103291500Y-91193134D01*
X91413541Y-91193134D01*
X91448430Y-91090355D01*
X91451118Y-91079159D01*
X91481238Y-90871420D01*
X91481868Y-90864037D01*
X91483317Y-90808704D01*
X91483074Y-90801305D01*
X91463867Y-90592272D01*
X91461769Y-90580951D01*
X91405352Y-90380913D01*
X91401227Y-90370166D01*
X91309295Y-90183746D01*
X91303286Y-90173941D01*
X91301934Y-90172130D01*
X91290676Y-90163681D01*
X91278257Y-90170453D01*
X90656522Y-90792188D01*
X90648908Y-90806132D01*
X89918856Y-90806132D01*
X89920092Y-90803868D01*
X89919961Y-90802035D01*
X89915710Y-90795420D01*
X89289511Y-90169221D01*
X89277131Y-90162461D01*
X89271165Y-90166927D01*
X89179537Y-90341085D01*
X89175136Y-90351709D01*
X89113498Y-90550215D01*
X89111106Y-90561469D01*
X89086676Y-90767881D01*
X89086375Y-90779382D01*
X80353600Y-90779382D01*
X80353600Y-90071066D01*
X80346845Y-90008884D01*
X80295715Y-89872495D01*
X80242189Y-89801075D01*
X89644687Y-89801075D01*
X89648173Y-89809463D01*
X90271688Y-90432978D01*
X90285632Y-90440592D01*
X90287465Y-90440461D01*
X90294080Y-90436210D01*
X90916989Y-89813301D01*
X90923749Y-89800921D01*
X90917719Y-89792866D01*
X90833680Y-89739841D01*
X90823432Y-89734620D01*
X90630379Y-89657600D01*
X90619343Y-89654331D01*
X90415487Y-89613781D01*
X90404042Y-89612578D01*
X90196216Y-89609858D01*
X90184736Y-89610761D01*
X89979895Y-89645959D01*
X89968775Y-89648939D01*
X89773770Y-89720880D01*
X89763392Y-89725830D01*
X89654285Y-89790742D01*
X89644687Y-89801075D01*
X80242189Y-89801075D01*
X80208361Y-89755939D01*
X80091805Y-89668585D01*
X79955416Y-89617455D01*
X79893234Y-89610700D01*
X78425366Y-89610700D01*
X78363184Y-89617455D01*
X78226795Y-89668585D01*
X78110239Y-89755939D01*
X78022885Y-89872495D01*
X77971755Y-90008884D01*
X77965000Y-90071066D01*
X77965000Y-91538934D01*
X76100459Y-91538934D01*
X76142676Y-91508261D01*
X76176253Y-91483866D01*
X76210506Y-91445824D01*
X76299621Y-91346852D01*
X76299622Y-91346851D01*
X76304040Y-91341944D01*
X76386219Y-91199606D01*
X76396223Y-91182279D01*
X76396224Y-91182278D01*
X76399527Y-91176556D01*
X76458542Y-90994928D01*
X76478504Y-90805000D01*
X76458542Y-90615072D01*
X76399527Y-90433444D01*
X76304040Y-90268056D01*
X76268137Y-90228181D01*
X76180675Y-90131045D01*
X76180674Y-90131044D01*
X76176253Y-90126134D01*
X76021752Y-90013882D01*
X76015724Y-90011198D01*
X76015722Y-90011197D01*
X75853319Y-89938891D01*
X75853318Y-89938891D01*
X75847288Y-89936206D01*
X75753888Y-89916353D01*
X75666944Y-89897872D01*
X75666939Y-89897872D01*
X75660487Y-89896500D01*
X75469513Y-89896500D01*
X75463061Y-89897872D01*
X75463056Y-89897872D01*
X75376112Y-89916353D01*
X75282712Y-89936206D01*
X75276682Y-89938891D01*
X75276681Y-89938891D01*
X75114278Y-90011197D01*
X75114276Y-90011198D01*
X75108248Y-90013882D01*
X74953747Y-90126134D01*
X74949326Y-90131044D01*
X74949325Y-90131045D01*
X74861864Y-90228181D01*
X74825960Y-90268056D01*
X74730473Y-90433444D01*
X74671458Y-90615072D01*
X74651496Y-90805000D01*
X60501125Y-90805000D01*
X59764889Y-90068764D01*
X59750945Y-90061150D01*
X59749112Y-90061281D01*
X59742497Y-90065532D01*
X58890997Y-90917032D01*
X58884237Y-90929412D01*
X25400000Y-90929412D01*
X25400000Y-90597411D01*
X28977031Y-90597411D01*
X28981398Y-90603561D01*
X29180973Y-90720184D01*
X29190256Y-90724631D01*
X29408417Y-90807939D01*
X29418315Y-90810815D01*
X29647154Y-90857372D01*
X29657382Y-90858591D01*
X29890750Y-90867149D01*
X29901036Y-90866682D01*
X30132672Y-90837009D01*
X30142750Y-90834867D01*
X30366424Y-90767761D01*
X30376022Y-90763999D01*
X30585734Y-90661263D01*
X30594579Y-90655990D01*
X30667279Y-90604134D01*
X30675680Y-90593433D01*
X30668693Y-90580280D01*
X29841222Y-89752809D01*
X29827278Y-89745195D01*
X29825445Y-89745326D01*
X29818830Y-89749577D01*
X28984291Y-90584116D01*
X28977031Y-90597411D01*
X25400000Y-90597411D01*
X25400000Y-89349586D01*
X28341068Y-89349586D01*
X28354512Y-89582729D01*
X28355945Y-89592931D01*
X28407283Y-89820736D01*
X28410366Y-89830576D01*
X28498224Y-90046943D01*
X28502867Y-90056134D01*
X28603965Y-90221112D01*
X28614421Y-90230572D01*
X28623199Y-90226788D01*
X29456388Y-89393599D01*
X29462766Y-89381919D01*
X30192818Y-89381919D01*
X30192949Y-89383752D01*
X30197200Y-89390367D01*
X31028455Y-90221622D01*
X31040465Y-90228181D01*
X31052204Y-90219213D01*
X31100928Y-90151406D01*
X31106239Y-90142567D01*
X31209701Y-89933229D01*
X31213499Y-89923636D01*
X31280937Y-89701672D01*
X58239802Y-89701672D01*
X58257649Y-89928441D01*
X58259192Y-89938188D01*
X58312294Y-90159369D01*
X58315343Y-90168754D01*
X58402390Y-90378905D01*
X58406872Y-90387700D01*
X58509509Y-90555187D01*
X58519967Y-90564649D01*
X58528743Y-90560866D01*
X59380055Y-89709554D01*
X59386433Y-89697874D01*
X60116485Y-89697874D01*
X60116616Y-89699707D01*
X60120867Y-89706322D01*
X60972367Y-90557822D01*
X60984747Y-90564582D01*
X60992397Y-90558855D01*
X61097282Y-90387700D01*
X61101764Y-90378905D01*
X61188811Y-90168754D01*
X61191860Y-90159369D01*
X61244962Y-89938188D01*
X61246505Y-89928441D01*
X61264352Y-89701672D01*
X61264352Y-89691812D01*
X61246505Y-89465043D01*
X61244962Y-89455296D01*
X61191860Y-89234115D01*
X61188811Y-89224730D01*
X61101764Y-89014579D01*
X61097282Y-89005784D01*
X61008232Y-88860469D01*
X69707095Y-88860469D01*
X69707392Y-88865622D01*
X69707392Y-88865625D01*
X69716077Y-89016248D01*
X69720427Y-89091697D01*
X69721564Y-89096743D01*
X69721565Y-89096749D01*
X69750407Y-89224730D01*
X69771346Y-89317642D01*
X69773288Y-89322424D01*
X69773289Y-89322428D01*
X69827241Y-89455296D01*
X69858484Y-89532237D01*
X69979501Y-89729719D01*
X70131147Y-89904784D01*
X70247624Y-90001485D01*
X70302379Y-90046943D01*
X70309349Y-90052730D01*
X70509322Y-90169584D01*
X70514147Y-90171426D01*
X70514148Y-90171427D01*
X70546408Y-90183746D01*
X70725694Y-90252209D01*
X70730760Y-90253240D01*
X70730761Y-90253240D01*
X70779461Y-90263148D01*
X70952656Y-90298385D01*
X71083324Y-90303176D01*
X71178949Y-90306683D01*
X71178953Y-90306683D01*
X71184113Y-90306872D01*
X71189233Y-90306216D01*
X71189235Y-90306216D01*
X71262270Y-90296860D01*
X71413847Y-90277442D01*
X71418795Y-90275957D01*
X71418802Y-90275956D01*
X71630747Y-90212369D01*
X71635690Y-90210886D01*
X71691090Y-90183746D01*
X71839049Y-90111262D01*
X71839052Y-90111260D01*
X71843684Y-90108991D01*
X72032243Y-89974494D01*
X72196303Y-89811005D01*
X72203439Y-89801075D01*
X72238121Y-89752809D01*
X72331458Y-89622917D01*
X72334158Y-89617455D01*
X72431784Y-89419922D01*
X72431785Y-89419920D01*
X72434078Y-89415280D01*
X72501408Y-89193671D01*
X72531640Y-88964041D01*
X72532025Y-88948295D01*
X72533245Y-88898365D01*
X72533245Y-88898361D01*
X72533327Y-88895000D01*
X72516969Y-88696029D01*
X72514773Y-88669318D01*
X72514772Y-88669312D01*
X72514349Y-88664167D01*
X72481550Y-88533589D01*
X72459184Y-88444544D01*
X72459183Y-88444540D01*
X72457925Y-88439533D01*
X72455866Y-88434797D01*
X72367630Y-88231868D01*
X72367628Y-88231865D01*
X72365570Y-88227131D01*
X72239764Y-88032665D01*
X72236282Y-88028838D01*
X72149848Y-87933848D01*
X72118796Y-87870002D01*
X72127192Y-87799504D01*
X72172369Y-87744736D01*
X72198812Y-87731067D01*
X72213745Y-87725469D01*
X77965501Y-87725469D01*
X77965871Y-87732290D01*
X77971395Y-87783152D01*
X77975021Y-87798404D01*
X78020176Y-87918854D01*
X78028714Y-87934449D01*
X78105215Y-88036524D01*
X78117776Y-88049085D01*
X78219851Y-88125586D01*
X78235446Y-88134124D01*
X78355894Y-88179278D01*
X78371149Y-88182905D01*
X78422014Y-88188431D01*
X78428828Y-88188800D01*
X78887185Y-88188800D01*
X78902424Y-88184325D01*
X78903629Y-88182935D01*
X78905300Y-88175252D01*
X78905300Y-88170684D01*
X79413300Y-88170684D01*
X79417775Y-88185923D01*
X79419165Y-88187128D01*
X79426848Y-88188799D01*
X79889769Y-88188799D01*
X79896590Y-88188429D01*
X79947452Y-88182905D01*
X79962704Y-88179279D01*
X80083154Y-88134124D01*
X80098749Y-88125586D01*
X80200824Y-88049085D01*
X80213385Y-88036524D01*
X80289886Y-87934449D01*
X80298424Y-87918854D01*
X80343578Y-87798406D01*
X80347205Y-87783151D01*
X80352731Y-87732286D01*
X80353100Y-87725472D01*
X80353100Y-87267115D01*
X80348625Y-87251876D01*
X80347235Y-87250671D01*
X80339552Y-87249000D01*
X79431415Y-87249000D01*
X79416176Y-87253475D01*
X79414971Y-87254865D01*
X79413300Y-87262548D01*
X79413300Y-88170684D01*
X78905300Y-88170684D01*
X78905300Y-87267115D01*
X78900825Y-87251876D01*
X78899435Y-87250671D01*
X78891752Y-87249000D01*
X77983616Y-87249000D01*
X77968377Y-87253475D01*
X77967172Y-87254865D01*
X77965501Y-87262548D01*
X77965501Y-87725469D01*
X72213745Y-87725469D01*
X72258297Y-87708767D01*
X72266705Y-87705615D01*
X72383261Y-87618261D01*
X72470615Y-87501705D01*
X72521745Y-87365316D01*
X72528500Y-87303134D01*
X72528500Y-86360000D01*
X74651496Y-86360000D01*
X74652186Y-86366565D01*
X74669457Y-86530886D01*
X74671458Y-86549928D01*
X74730473Y-86731556D01*
X74733776Y-86737278D01*
X74733777Y-86737279D01*
X74756378Y-86776424D01*
X74825960Y-86896944D01*
X74953747Y-87038866D01*
X75108248Y-87151118D01*
X75114276Y-87153802D01*
X75114278Y-87153803D01*
X75276681Y-87226109D01*
X75282712Y-87228794D01*
X75376113Y-87248647D01*
X75463056Y-87267128D01*
X75463061Y-87267128D01*
X75469513Y-87268500D01*
X75660487Y-87268500D01*
X75666939Y-87267128D01*
X75666944Y-87267128D01*
X75753887Y-87248647D01*
X75847288Y-87228794D01*
X75853319Y-87226109D01*
X76015722Y-87153803D01*
X76015724Y-87153802D01*
X76021752Y-87151118D01*
X76176253Y-87038866D01*
X76244020Y-86963603D01*
X89085495Y-86963603D01*
X89099851Y-87182630D01*
X89153881Y-87395373D01*
X89245775Y-87594708D01*
X89249106Y-87599421D01*
X89249107Y-87599423D01*
X89351805Y-87744736D01*
X89372457Y-87773958D01*
X89397554Y-87798406D01*
X89501068Y-87899245D01*
X89529683Y-87927121D01*
X89534479Y-87930326D01*
X89534482Y-87930328D01*
X89653476Y-88009837D01*
X89712188Y-88049067D01*
X89717491Y-88051345D01*
X89717494Y-88051347D01*
X89890291Y-88125586D01*
X89913860Y-88135712D01*
X90127945Y-88184155D01*
X90133716Y-88184382D01*
X90133718Y-88184382D01*
X90207134Y-88187266D01*
X90347273Y-88192772D01*
X90440974Y-88179186D01*
X90558784Y-88162105D01*
X90558789Y-88162104D01*
X90564498Y-88161276D01*
X90569962Y-88159421D01*
X90569967Y-88159420D01*
X90766878Y-88092577D01*
X90772346Y-88090721D01*
X90963857Y-87983470D01*
X91132615Y-87843115D01*
X91272970Y-87674357D01*
X91380221Y-87482846D01*
X91411815Y-87389773D01*
X91448920Y-87280467D01*
X91448921Y-87280462D01*
X91450776Y-87274998D01*
X91451604Y-87269289D01*
X91451605Y-87269284D01*
X91481739Y-87061447D01*
X91482272Y-87057773D01*
X91483916Y-86995000D01*
X91463832Y-86776424D01*
X91427353Y-86647080D01*
X91405819Y-86570727D01*
X91405818Y-86570725D01*
X91404251Y-86565168D01*
X91399832Y-86556206D01*
X91309725Y-86373488D01*
X91307170Y-86368307D01*
X91261372Y-86306975D01*
X91179293Y-86197058D01*
X91179292Y-86197057D01*
X91175840Y-86192434D01*
X91044917Y-86071410D01*
X91018898Y-86047358D01*
X91018895Y-86047356D01*
X91014658Y-86043439D01*
X90829023Y-85926313D01*
X90625153Y-85844976D01*
X90619485Y-85843849D01*
X90619483Y-85843848D01*
X90415541Y-85803282D01*
X90415537Y-85803282D01*
X90409873Y-85802155D01*
X90404098Y-85802079D01*
X90404094Y-85802079D01*
X90293463Y-85800631D01*
X90190395Y-85799281D01*
X90184698Y-85800260D01*
X90184697Y-85800260D01*
X89979765Y-85835474D01*
X89974068Y-85836453D01*
X89768138Y-85912425D01*
X89763177Y-85915377D01*
X89763176Y-85915377D01*
X89584469Y-86021696D01*
X89584466Y-86021698D01*
X89579501Y-86024652D01*
X89414474Y-86169377D01*
X89278585Y-86341751D01*
X89275894Y-86346867D01*
X89275892Y-86346869D01*
X89179076Y-86530886D01*
X89176384Y-86536003D01*
X89111294Y-86745627D01*
X89085495Y-86963603D01*
X76244020Y-86963603D01*
X76304040Y-86896944D01*
X76373622Y-86776424D01*
X76396223Y-86737279D01*
X76396224Y-86737278D01*
X76399527Y-86731556D01*
X76458542Y-86549928D01*
X76460544Y-86530886D01*
X76477814Y-86366565D01*
X76478504Y-86360000D01*
X76468470Y-86264528D01*
X76459232Y-86176635D01*
X76459232Y-86176633D01*
X76458542Y-86170072D01*
X76399527Y-85988444D01*
X76383203Y-85960169D01*
X76323945Y-85857532D01*
X76304040Y-85823056D01*
X76296560Y-85814748D01*
X76180675Y-85686045D01*
X76180674Y-85686044D01*
X76176253Y-85681134D01*
X76068012Y-85602492D01*
X76027094Y-85572763D01*
X76027093Y-85572762D01*
X76021752Y-85568882D01*
X76015724Y-85566198D01*
X76015722Y-85566197D01*
X75853319Y-85493891D01*
X75853318Y-85493891D01*
X75847288Y-85491206D01*
X75734721Y-85467279D01*
X75666944Y-85452872D01*
X75666939Y-85452872D01*
X75660487Y-85451500D01*
X75469513Y-85451500D01*
X75463061Y-85452872D01*
X75463056Y-85452872D01*
X75395279Y-85467279D01*
X75282712Y-85491206D01*
X75276682Y-85493891D01*
X75276681Y-85493891D01*
X75114278Y-85566197D01*
X75114276Y-85566198D01*
X75108248Y-85568882D01*
X75102907Y-85572762D01*
X75102906Y-85572763D01*
X75061988Y-85602492D01*
X74953747Y-85681134D01*
X74949326Y-85686044D01*
X74949325Y-85686045D01*
X74833441Y-85814748D01*
X74825960Y-85823056D01*
X74806055Y-85857532D01*
X74746798Y-85960169D01*
X74730473Y-85988444D01*
X74671458Y-86170072D01*
X74670768Y-86176633D01*
X74670768Y-86176635D01*
X74661530Y-86264528D01*
X74651496Y-86360000D01*
X72528500Y-86360000D01*
X72528500Y-85406866D01*
X72521745Y-85344684D01*
X72470615Y-85208295D01*
X72383261Y-85091739D01*
X72380941Y-85090000D01*
X77191496Y-85090000D01*
X77211458Y-85279928D01*
X77270473Y-85461556D01*
X77365960Y-85626944D01*
X77370378Y-85631851D01*
X77370379Y-85631852D01*
X77414753Y-85681134D01*
X77493747Y-85768866D01*
X77556898Y-85814748D01*
X77613506Y-85855876D01*
X77648248Y-85881118D01*
X77654276Y-85883802D01*
X77654278Y-85883803D01*
X77816681Y-85956109D01*
X77822712Y-85958794D01*
X77829167Y-85960166D01*
X77829176Y-85960169D01*
X77901452Y-85975532D01*
X77963925Y-86009260D01*
X77998246Y-86071410D01*
X77993236Y-86143008D01*
X77975022Y-86191594D01*
X77971395Y-86206849D01*
X77965869Y-86257714D01*
X77965500Y-86264528D01*
X77965500Y-86722885D01*
X77969975Y-86738124D01*
X77971365Y-86739329D01*
X77979048Y-86741000D01*
X78887185Y-86741000D01*
X78902424Y-86736525D01*
X78903629Y-86735135D01*
X78905300Y-86727452D01*
X78905300Y-86722885D01*
X79413300Y-86722885D01*
X79417775Y-86738124D01*
X79419165Y-86739329D01*
X79426848Y-86741000D01*
X80334984Y-86741000D01*
X80350223Y-86736525D01*
X80351428Y-86735135D01*
X80353099Y-86727452D01*
X80353099Y-86264531D01*
X80352729Y-86257710D01*
X80347205Y-86206848D01*
X80343579Y-86191596D01*
X80298424Y-86071146D01*
X80289886Y-86055551D01*
X80213385Y-85953476D01*
X80200824Y-85940915D01*
X80098749Y-85864414D01*
X80083154Y-85855876D01*
X79962706Y-85810722D01*
X79947451Y-85807095D01*
X79896586Y-85801569D01*
X79889772Y-85801200D01*
X79431415Y-85801200D01*
X79416176Y-85805675D01*
X79414971Y-85807065D01*
X79413300Y-85814748D01*
X79413300Y-86722885D01*
X78905300Y-86722885D01*
X78905300Y-85819316D01*
X78900825Y-85804077D01*
X78875130Y-85781812D01*
X78876185Y-85780594D01*
X78866280Y-85775185D01*
X78832259Y-85712870D01*
X78837328Y-85642055D01*
X78846262Y-85623095D01*
X78854009Y-85609678D01*
X78939527Y-85461556D01*
X78998542Y-85279928D01*
X79018504Y-85090000D01*
X82271496Y-85090000D01*
X82291458Y-85279928D01*
X82350473Y-85461556D01*
X82445960Y-85626944D01*
X82450378Y-85631851D01*
X82450379Y-85631852D01*
X82494753Y-85681134D01*
X82573747Y-85768866D01*
X82636898Y-85814748D01*
X82693506Y-85855876D01*
X82728248Y-85881118D01*
X82734276Y-85883802D01*
X82734278Y-85883803D01*
X82896681Y-85956109D01*
X82902712Y-85958794D01*
X82981458Y-85975532D01*
X83083056Y-85997128D01*
X83083061Y-85997128D01*
X83089513Y-85998500D01*
X83280487Y-85998500D01*
X83286939Y-85997128D01*
X83286944Y-85997128D01*
X83388542Y-85975532D01*
X83467288Y-85958794D01*
X83473319Y-85956109D01*
X83635722Y-85883803D01*
X83635724Y-85883802D01*
X83641752Y-85881118D01*
X83676495Y-85855876D01*
X83733102Y-85814748D01*
X83796253Y-85768866D01*
X83875247Y-85681134D01*
X83919621Y-85631852D01*
X83919622Y-85631851D01*
X83924040Y-85626944D01*
X84019527Y-85461556D01*
X84078542Y-85279928D01*
X84093918Y-85133631D01*
X103286860Y-85133631D01*
X103287157Y-85138783D01*
X103287157Y-85138787D01*
X103294917Y-85273365D01*
X103300903Y-85377171D01*
X103302040Y-85382217D01*
X103302041Y-85382223D01*
X103326602Y-85491206D01*
X103354533Y-85615147D01*
X103356475Y-85619929D01*
X103356476Y-85619933D01*
X103444367Y-85836382D01*
X103446311Y-85841169D01*
X103573772Y-86049166D01*
X103733492Y-86233553D01*
X103921183Y-86389377D01*
X104131804Y-86512453D01*
X104359698Y-86599478D01*
X104364764Y-86600509D01*
X104364765Y-86600509D01*
X104593667Y-86647080D01*
X104593671Y-86647080D01*
X104598746Y-86648113D01*
X104603922Y-86648303D01*
X104603924Y-86648303D01*
X104837363Y-86656863D01*
X104837367Y-86656863D01*
X104842527Y-86657052D01*
X104847647Y-86656396D01*
X104847649Y-86656396D01*
X104924377Y-86646567D01*
X105084494Y-86626055D01*
X105089443Y-86624570D01*
X105089449Y-86624569D01*
X105313200Y-86557440D01*
X105313199Y-86557440D01*
X105318150Y-86555955D01*
X105537219Y-86448634D01*
X105541424Y-86445634D01*
X105541430Y-86445631D01*
X105731614Y-86309974D01*
X105731616Y-86309972D01*
X105735818Y-86306975D01*
X105908614Y-86134781D01*
X106050966Y-85936677D01*
X106054566Y-85929394D01*
X106156756Y-85722626D01*
X106156757Y-85722624D01*
X106159050Y-85717984D01*
X106185219Y-85631852D01*
X106228462Y-85489527D01*
X106228463Y-85489521D01*
X106229966Y-85484575D01*
X106261807Y-85242717D01*
X106263584Y-85170000D01*
X106243596Y-84926876D01*
X106184167Y-84690280D01*
X106116022Y-84533558D01*
X106088954Y-84471305D01*
X106088952Y-84471302D01*
X106086894Y-84466568D01*
X105966849Y-84281006D01*
X105957200Y-84266091D01*
X105957198Y-84266088D01*
X105954390Y-84261748D01*
X105916252Y-84219834D01*
X105793690Y-84085141D01*
X105793688Y-84085140D01*
X105790212Y-84081319D01*
X105786161Y-84078120D01*
X105786157Y-84078116D01*
X105602825Y-83933329D01*
X105602821Y-83933327D01*
X105598770Y-83930127D01*
X105385205Y-83812233D01*
X105380336Y-83810509D01*
X105380332Y-83810507D01*
X105160127Y-83732528D01*
X105160123Y-83732527D01*
X105155252Y-83730802D01*
X105150159Y-83729895D01*
X105150156Y-83729894D01*
X104920177Y-83688928D01*
X104920171Y-83688927D01*
X104915088Y-83688022D01*
X104835380Y-83687048D01*
X104676332Y-83685105D01*
X104676330Y-83685105D01*
X104671162Y-83685042D01*
X104430024Y-83721941D01*
X104198150Y-83797729D01*
X103981769Y-83910370D01*
X103977636Y-83913473D01*
X103977633Y-83913475D01*
X103829050Y-84025035D01*
X103786690Y-84056840D01*
X103783118Y-84060578D01*
X103629619Y-84221206D01*
X103618153Y-84233204D01*
X103615239Y-84237476D01*
X103615238Y-84237477D01*
X103570703Y-84302763D01*
X103480684Y-84434726D01*
X103445697Y-84510098D01*
X103423103Y-84558774D01*
X103377974Y-84655995D01*
X103312783Y-84891067D01*
X103286860Y-85133631D01*
X84093918Y-85133631D01*
X84098504Y-85090000D01*
X84078542Y-84900072D01*
X84019527Y-84718444D01*
X84003267Y-84690280D01*
X83927341Y-84558774D01*
X83924040Y-84553056D01*
X83915187Y-84543223D01*
X83800675Y-84416045D01*
X83800674Y-84416044D01*
X83796253Y-84411134D01*
X83641752Y-84298882D01*
X83635724Y-84296198D01*
X83635722Y-84296197D01*
X83473319Y-84223891D01*
X83473318Y-84223891D01*
X83467288Y-84221206D01*
X83369573Y-84200436D01*
X83286944Y-84182872D01*
X83286939Y-84182872D01*
X83280487Y-84181500D01*
X83089513Y-84181500D01*
X83083061Y-84182872D01*
X83083056Y-84182872D01*
X83000427Y-84200436D01*
X82902712Y-84221206D01*
X82896682Y-84223891D01*
X82896681Y-84223891D01*
X82734278Y-84296197D01*
X82734276Y-84296198D01*
X82728248Y-84298882D01*
X82573747Y-84411134D01*
X82569326Y-84416044D01*
X82569325Y-84416045D01*
X82454814Y-84543223D01*
X82445960Y-84553056D01*
X82442659Y-84558774D01*
X82366734Y-84690280D01*
X82350473Y-84718444D01*
X82291458Y-84900072D01*
X82271496Y-85090000D01*
X79018504Y-85090000D01*
X78998542Y-84900072D01*
X78939527Y-84718444D01*
X78938049Y-84715884D01*
X78928795Y-84646860D01*
X78958901Y-84582563D01*
X79018990Y-84544750D01*
X79053336Y-84539978D01*
X79893234Y-84539978D01*
X79955416Y-84533223D01*
X80091805Y-84482093D01*
X80208361Y-84394739D01*
X80295715Y-84278183D01*
X80346845Y-84141794D01*
X80353600Y-84079612D01*
X80353600Y-83314281D01*
X89085495Y-83314281D01*
X89099851Y-83533308D01*
X89153881Y-83746051D01*
X89245775Y-83945386D01*
X89249106Y-83950099D01*
X89249107Y-83950101D01*
X89344545Y-84085141D01*
X89372457Y-84124636D01*
X89529683Y-84277799D01*
X89534479Y-84281004D01*
X89534482Y-84281006D01*
X89567044Y-84302763D01*
X89712188Y-84399745D01*
X89717491Y-84402023D01*
X89717494Y-84402025D01*
X89891322Y-84476707D01*
X89913860Y-84486390D01*
X90030499Y-84512783D01*
X90108571Y-84530449D01*
X90127945Y-84534833D01*
X90133716Y-84535060D01*
X90133718Y-84535060D01*
X90207134Y-84537944D01*
X90347273Y-84543450D01*
X90438942Y-84530159D01*
X90558784Y-84512783D01*
X90558789Y-84512782D01*
X90564498Y-84511954D01*
X90569962Y-84510099D01*
X90569967Y-84510098D01*
X90766878Y-84443255D01*
X90772346Y-84441399D01*
X90963857Y-84334148D01*
X91132615Y-84193793D01*
X91272970Y-84025035D01*
X91380221Y-83833524D01*
X91414505Y-83732528D01*
X91448920Y-83631145D01*
X91448921Y-83631140D01*
X91450776Y-83625676D01*
X91451604Y-83619967D01*
X91451605Y-83619962D01*
X91481739Y-83412125D01*
X91482272Y-83408451D01*
X91483916Y-83345678D01*
X91471573Y-83211350D01*
X91464361Y-83132856D01*
X91464360Y-83132853D01*
X91463832Y-83127102D01*
X91404251Y-82915846D01*
X91398010Y-82903189D01*
X91309725Y-82724166D01*
X91307170Y-82718985D01*
X91180657Y-82549562D01*
X91179293Y-82547736D01*
X91179292Y-82547735D01*
X91175840Y-82543112D01*
X91078795Y-82453405D01*
X91018898Y-82398036D01*
X91018895Y-82398034D01*
X91014658Y-82394117D01*
X90829023Y-82276991D01*
X90625153Y-82195654D01*
X90619485Y-82194527D01*
X90619483Y-82194526D01*
X90415541Y-82153960D01*
X90415537Y-82153960D01*
X90409873Y-82152833D01*
X90404098Y-82152757D01*
X90404094Y-82152757D01*
X90293463Y-82151309D01*
X90190395Y-82149959D01*
X90184698Y-82150938D01*
X90184697Y-82150938D01*
X89979765Y-82186152D01*
X89974068Y-82187131D01*
X89768138Y-82263103D01*
X89763177Y-82266055D01*
X89763176Y-82266055D01*
X89584469Y-82372374D01*
X89584466Y-82372376D01*
X89579501Y-82375330D01*
X89414474Y-82520055D01*
X89278585Y-82692429D01*
X89275894Y-82697545D01*
X89275892Y-82697547D01*
X89264613Y-82718985D01*
X89176384Y-82886681D01*
X89111294Y-83096305D01*
X89085495Y-83314281D01*
X80353600Y-83314281D01*
X80353600Y-82611744D01*
X80346845Y-82549562D01*
X80295715Y-82413173D01*
X80208361Y-82296617D01*
X80091805Y-82209263D01*
X79955416Y-82158133D01*
X79893234Y-82151378D01*
X78425366Y-82151378D01*
X78363184Y-82158133D01*
X78226795Y-82209263D01*
X78110239Y-82296617D01*
X78022885Y-82413173D01*
X77971755Y-82549562D01*
X77965000Y-82611744D01*
X77965000Y-84079612D01*
X77965277Y-84082162D01*
X77949027Y-84151108D01*
X77897965Y-84200436D01*
X77865697Y-84212068D01*
X77829176Y-84219831D01*
X77829167Y-84219834D01*
X77822712Y-84221206D01*
X77816682Y-84223891D01*
X77816681Y-84223891D01*
X77654278Y-84296197D01*
X77654276Y-84296198D01*
X77648248Y-84298882D01*
X77493747Y-84411134D01*
X77489326Y-84416044D01*
X77489325Y-84416045D01*
X77374814Y-84543223D01*
X77365960Y-84553056D01*
X77362659Y-84558774D01*
X77286734Y-84690280D01*
X77270473Y-84718444D01*
X77211458Y-84900072D01*
X77191496Y-85090000D01*
X72380941Y-85090000D01*
X72266705Y-85004385D01*
X72130316Y-84953255D01*
X72068134Y-84946500D01*
X70171866Y-84946500D01*
X70109684Y-84953255D01*
X69973295Y-85004385D01*
X69856739Y-85091739D01*
X69769385Y-85208295D01*
X69718255Y-85344684D01*
X69711500Y-85406866D01*
X69711500Y-87303134D01*
X69718255Y-87365316D01*
X69769385Y-87501705D01*
X69856739Y-87618261D01*
X69973295Y-87705615D01*
X69981704Y-87708767D01*
X69981705Y-87708768D01*
X70041164Y-87731058D01*
X70097929Y-87773699D01*
X70122629Y-87840261D01*
X70107422Y-87909609D01*
X70088029Y-87936091D01*
X70042753Y-87983470D01*
X70021639Y-88005564D01*
X70018725Y-88009836D01*
X70018724Y-88009837D01*
X70000189Y-88037009D01*
X69891119Y-88196899D01*
X69793602Y-88406981D01*
X69731707Y-88630169D01*
X69707095Y-88860469D01*
X61008232Y-88860469D01*
X60994645Y-88838297D01*
X60984187Y-88828835D01*
X60975411Y-88832618D01*
X60124099Y-89683930D01*
X60116485Y-89697874D01*
X59386433Y-89697874D01*
X59387669Y-89695610D01*
X59387538Y-89693777D01*
X59383287Y-89687162D01*
X58531787Y-88835662D01*
X58519407Y-88828902D01*
X58511757Y-88834629D01*
X58406872Y-89005784D01*
X58402390Y-89014579D01*
X58315343Y-89224730D01*
X58312294Y-89234115D01*
X58259192Y-89455296D01*
X58257649Y-89465043D01*
X58239802Y-89691812D01*
X58239802Y-89701672D01*
X31280937Y-89701672D01*
X31281384Y-89700200D01*
X31283561Y-89690130D01*
X31314279Y-89456802D01*
X31314798Y-89450127D01*
X31316411Y-89384151D01*
X31316217Y-89377434D01*
X31296935Y-89142895D01*
X31295252Y-89132733D01*
X31238362Y-88906240D01*
X31235044Y-88896493D01*
X31141923Y-88682329D01*
X31137056Y-88673254D01*
X31051875Y-88541583D01*
X31041189Y-88532380D01*
X31031624Y-88536783D01*
X30200432Y-89367975D01*
X30192818Y-89381919D01*
X29462766Y-89381919D01*
X29464002Y-89379655D01*
X29463871Y-89377822D01*
X29459620Y-89371207D01*
X28628302Y-88539889D01*
X28616766Y-88533589D01*
X28604483Y-88543213D01*
X28537446Y-88641485D01*
X28532353Y-88650449D01*
X28434029Y-88862270D01*
X28430472Y-88871938D01*
X28368067Y-89096965D01*
X28366136Y-89107085D01*
X28341320Y-89339297D01*
X28341068Y-89349586D01*
X25400000Y-89349586D01*
X25400000Y-88167929D01*
X28980348Y-88167929D01*
X28987094Y-88180261D01*
X29815598Y-89008765D01*
X29829542Y-89016379D01*
X29831375Y-89016248D01*
X29837990Y-89011997D01*
X30385355Y-88464632D01*
X58884170Y-88464632D01*
X58887953Y-88473408D01*
X59739265Y-89324720D01*
X59753209Y-89332334D01*
X59755042Y-89332203D01*
X59761657Y-89327952D01*
X60613157Y-88476452D01*
X60619917Y-88464072D01*
X60614190Y-88456422D01*
X60443035Y-88351537D01*
X60434240Y-88347055D01*
X60224089Y-88260008D01*
X60214704Y-88256959D01*
X59993523Y-88203857D01*
X59983776Y-88202314D01*
X59757007Y-88184467D01*
X59747147Y-88184467D01*
X59520378Y-88202314D01*
X59510631Y-88203857D01*
X59289450Y-88256959D01*
X59280065Y-88260008D01*
X59069914Y-88347055D01*
X59061119Y-88351537D01*
X58893632Y-88454174D01*
X58884170Y-88464632D01*
X30385355Y-88464632D01*
X30584987Y-88265000D01*
X36830000Y-88265000D01*
X53340000Y-88265000D01*
X53340000Y-85744876D01*
X58243577Y-85744876D01*
X58250332Y-85807058D01*
X58301462Y-85943447D01*
X58388816Y-86060003D01*
X58505372Y-86147357D01*
X58641761Y-86198487D01*
X58703943Y-86205242D01*
X60800211Y-86205242D01*
X60862393Y-86198487D01*
X60998782Y-86147357D01*
X61115338Y-86060003D01*
X61202692Y-85943447D01*
X61253822Y-85807058D01*
X61260577Y-85744876D01*
X61260577Y-83648608D01*
X61253822Y-83586426D01*
X61202692Y-83450037D01*
X61115338Y-83333481D01*
X60998782Y-83246127D01*
X60862393Y-83194997D01*
X60800211Y-83188242D01*
X58703943Y-83188242D01*
X58641761Y-83194997D01*
X58505372Y-83246127D01*
X58388816Y-83333481D01*
X58301462Y-83450037D01*
X58250332Y-83586426D01*
X58243577Y-83648608D01*
X58243577Y-85744876D01*
X53340000Y-85744876D01*
X53340000Y-78705469D01*
X53692095Y-78705469D01*
X53692392Y-78710622D01*
X53692392Y-78710625D01*
X53702905Y-78892950D01*
X53705427Y-78936697D01*
X53706564Y-78941743D01*
X53706565Y-78941749D01*
X53730561Y-79048225D01*
X53756346Y-79162642D01*
X53758288Y-79167424D01*
X53758289Y-79167428D01*
X53827467Y-79337793D01*
X53843484Y-79377237D01*
X53964501Y-79574719D01*
X54116147Y-79749784D01*
X54294349Y-79897730D01*
X54494322Y-80014584D01*
X54710694Y-80097209D01*
X54715760Y-80098240D01*
X54715761Y-80098240D01*
X54768846Y-80109040D01*
X54937656Y-80143385D01*
X55068324Y-80148176D01*
X55163949Y-80151683D01*
X55163953Y-80151683D01*
X55169113Y-80151872D01*
X55174233Y-80151216D01*
X55174235Y-80151216D01*
X55271256Y-80138787D01*
X55398847Y-80122442D01*
X55403795Y-80120957D01*
X55403802Y-80120956D01*
X55615747Y-80057369D01*
X55620690Y-80055886D01*
X55701236Y-80016427D01*
X55784842Y-79975469D01*
X57492095Y-79975469D01*
X57492392Y-79980622D01*
X57492392Y-79980625D01*
X57499114Y-80097209D01*
X57505427Y-80206697D01*
X57506564Y-80211743D01*
X57506565Y-80211749D01*
X57538741Y-80354523D01*
X57556346Y-80432642D01*
X57558288Y-80437424D01*
X57558289Y-80437428D01*
X57638842Y-80635805D01*
X57643484Y-80647237D01*
X57764501Y-80844719D01*
X57916147Y-81019784D01*
X58094349Y-81167730D01*
X58294322Y-81284584D01*
X58510694Y-81367209D01*
X58515760Y-81368240D01*
X58515761Y-81368240D01*
X58568846Y-81379040D01*
X58737656Y-81413385D01*
X58868324Y-81418176D01*
X58963949Y-81421683D01*
X58963953Y-81421683D01*
X58969113Y-81421872D01*
X58974233Y-81421216D01*
X58974235Y-81421216D01*
X59047270Y-81411860D01*
X59198847Y-81392442D01*
X59203795Y-81390957D01*
X59203802Y-81390956D01*
X59415747Y-81327369D01*
X59420690Y-81325886D01*
X59425324Y-81323616D01*
X59514356Y-81280000D01*
X60960000Y-81280000D01*
X76835000Y-81280000D01*
X76835000Y-80426825D01*
X78033768Y-80426825D01*
X78034138Y-80433646D01*
X78039662Y-80484508D01*
X78043288Y-80499760D01*
X78088443Y-80620210D01*
X78096981Y-80635805D01*
X78173482Y-80737880D01*
X78186043Y-80750441D01*
X78288118Y-80826942D01*
X78303713Y-80835480D01*
X78424161Y-80880634D01*
X78439416Y-80884261D01*
X78490281Y-80889787D01*
X78497095Y-80890156D01*
X78955452Y-80890156D01*
X78970691Y-80885681D01*
X78971896Y-80884291D01*
X78973567Y-80876608D01*
X78973567Y-80872040D01*
X79481567Y-80872040D01*
X79486042Y-80887279D01*
X79487432Y-80888484D01*
X79495115Y-80890155D01*
X79958036Y-80890155D01*
X79964857Y-80889785D01*
X80015719Y-80884261D01*
X80030971Y-80880635D01*
X80151421Y-80835480D01*
X80167016Y-80826942D01*
X80269091Y-80750441D01*
X80281652Y-80737880D01*
X80358153Y-80635805D01*
X80366691Y-80620210D01*
X80411845Y-80499762D01*
X80415472Y-80484507D01*
X80420998Y-80433642D01*
X80421367Y-80426828D01*
X80421367Y-79968471D01*
X80416892Y-79953232D01*
X80415502Y-79952027D01*
X80407819Y-79950356D01*
X79499682Y-79950356D01*
X79484443Y-79954831D01*
X79483238Y-79956221D01*
X79481567Y-79963904D01*
X79481567Y-80872040D01*
X78973567Y-80872040D01*
X78973567Y-79968471D01*
X78969092Y-79953232D01*
X78967702Y-79952027D01*
X78960019Y-79950356D01*
X78051883Y-79950356D01*
X78036644Y-79954831D01*
X78035439Y-79956221D01*
X78033768Y-79963904D01*
X78033768Y-80426825D01*
X76835000Y-80426825D01*
X76835000Y-79664959D01*
X89153762Y-79664959D01*
X89168118Y-79883986D01*
X89222148Y-80096729D01*
X89314042Y-80296064D01*
X89317373Y-80300777D01*
X89317374Y-80300779D01*
X89413949Y-80437428D01*
X89440724Y-80475314D01*
X89465821Y-80499762D01*
X89579091Y-80610105D01*
X89597950Y-80628477D01*
X89602746Y-80631682D01*
X89602749Y-80631684D01*
X89608917Y-80635805D01*
X89780455Y-80750423D01*
X89785758Y-80752701D01*
X89785761Y-80752703D01*
X89877407Y-80792077D01*
X89982127Y-80837068D01*
X90196212Y-80885511D01*
X90201983Y-80885738D01*
X90201985Y-80885738D01*
X90275401Y-80888622D01*
X90415540Y-80894128D01*
X90508607Y-80880634D01*
X90627051Y-80863461D01*
X90627056Y-80863460D01*
X90632765Y-80862632D01*
X90638229Y-80860777D01*
X90638234Y-80860776D01*
X90835145Y-80793933D01*
X90840613Y-80792077D01*
X91032124Y-80684826D01*
X91072025Y-80651641D01*
X91196444Y-80548162D01*
X91200882Y-80544471D01*
X91293058Y-80433642D01*
X91337546Y-80380151D01*
X91341237Y-80375713D01*
X91448488Y-80184202D01*
X91465654Y-80133631D01*
X103286860Y-80133631D01*
X103287157Y-80138783D01*
X103287157Y-80138787D01*
X103296953Y-80308671D01*
X103300903Y-80377171D01*
X103302040Y-80382217D01*
X103302041Y-80382223D01*
X103328530Y-80499762D01*
X103354533Y-80615147D01*
X103356475Y-80619929D01*
X103356476Y-80619933D01*
X103426377Y-80792077D01*
X103446311Y-80841169D01*
X103573772Y-81049166D01*
X103733492Y-81233553D01*
X103921183Y-81389377D01*
X104131804Y-81512453D01*
X104359698Y-81599478D01*
X104364764Y-81600509D01*
X104364765Y-81600509D01*
X104593667Y-81647080D01*
X104593671Y-81647080D01*
X104598746Y-81648113D01*
X104603922Y-81648303D01*
X104603924Y-81648303D01*
X104837363Y-81656863D01*
X104837367Y-81656863D01*
X104842527Y-81657052D01*
X104847647Y-81656396D01*
X104847649Y-81656396D01*
X104924377Y-81646567D01*
X105084494Y-81626055D01*
X105089443Y-81624570D01*
X105089449Y-81624569D01*
X105313200Y-81557440D01*
X105313199Y-81557440D01*
X105318150Y-81555955D01*
X105537219Y-81448634D01*
X105541424Y-81445634D01*
X105541430Y-81445631D01*
X105731614Y-81309974D01*
X105731616Y-81309972D01*
X105735818Y-81306975D01*
X105908614Y-81134781D01*
X106050966Y-80936677D01*
X106054438Y-80929653D01*
X106156756Y-80722626D01*
X106156757Y-80722624D01*
X106159050Y-80717984D01*
X106187468Y-80624450D01*
X106228462Y-80489527D01*
X106228463Y-80489521D01*
X106229966Y-80484575D01*
X106254784Y-80296064D01*
X106261370Y-80246038D01*
X106261370Y-80246034D01*
X106261807Y-80242717D01*
X106263584Y-80170000D01*
X106243596Y-79926876D01*
X106184167Y-79690280D01*
X106110988Y-79521981D01*
X106088954Y-79471305D01*
X106088952Y-79471302D01*
X106086894Y-79466568D01*
X105954390Y-79261748D01*
X105948550Y-79255329D01*
X105793690Y-79085141D01*
X105793688Y-79085140D01*
X105790212Y-79081319D01*
X105786161Y-79078120D01*
X105786157Y-79078116D01*
X105602825Y-78933329D01*
X105602821Y-78933327D01*
X105598770Y-78930127D01*
X105385205Y-78812233D01*
X105380336Y-78810509D01*
X105380332Y-78810507D01*
X105160127Y-78732528D01*
X105160123Y-78732527D01*
X105155252Y-78730802D01*
X105150159Y-78729895D01*
X105150156Y-78729894D01*
X104920177Y-78688928D01*
X104920171Y-78688927D01*
X104915088Y-78688022D01*
X104835380Y-78687048D01*
X104676332Y-78685105D01*
X104676330Y-78685105D01*
X104671162Y-78685042D01*
X104430024Y-78721941D01*
X104198150Y-78797729D01*
X103981769Y-78910370D01*
X103977636Y-78913473D01*
X103977633Y-78913475D01*
X103804301Y-79043617D01*
X103786690Y-79056840D01*
X103618153Y-79233204D01*
X103615239Y-79237476D01*
X103615238Y-79237477D01*
X103567388Y-79307623D01*
X103480684Y-79434726D01*
X103377974Y-79655995D01*
X103312783Y-79891067D01*
X103286860Y-80133631D01*
X91465654Y-80133631D01*
X91478181Y-80096729D01*
X91517187Y-79981823D01*
X91517188Y-79981818D01*
X91519043Y-79976354D01*
X91519871Y-79970645D01*
X91519872Y-79970640D01*
X91541352Y-79822492D01*
X91550539Y-79759129D01*
X91552183Y-79696356D01*
X91538716Y-79549797D01*
X91532628Y-79483534D01*
X91532627Y-79483531D01*
X91532099Y-79477780D01*
X91528009Y-79463278D01*
X91474086Y-79272083D01*
X91474085Y-79272081D01*
X91472518Y-79266524D01*
X91466998Y-79255329D01*
X91377992Y-79074844D01*
X91375437Y-79069663D01*
X91303372Y-78973155D01*
X91247560Y-78898414D01*
X91247559Y-78898413D01*
X91244107Y-78893790D01*
X91138450Y-78796122D01*
X91087165Y-78748714D01*
X91087162Y-78748712D01*
X91082925Y-78744795D01*
X90897290Y-78627669D01*
X90693420Y-78546332D01*
X90687752Y-78545205D01*
X90687750Y-78545204D01*
X90483808Y-78504638D01*
X90483804Y-78504638D01*
X90478140Y-78503511D01*
X90472365Y-78503435D01*
X90472361Y-78503435D01*
X90361730Y-78501987D01*
X90258662Y-78500637D01*
X90252965Y-78501616D01*
X90252964Y-78501616D01*
X90048032Y-78536830D01*
X90042335Y-78537809D01*
X89836405Y-78613781D01*
X89831444Y-78616733D01*
X89831443Y-78616733D01*
X89652736Y-78723052D01*
X89652733Y-78723054D01*
X89647768Y-78726008D01*
X89482741Y-78870733D01*
X89346852Y-79043107D01*
X89344161Y-79048223D01*
X89344159Y-79048225D01*
X89248803Y-79229467D01*
X89244651Y-79237359D01*
X89179561Y-79446983D01*
X89153762Y-79664959D01*
X76835000Y-79664959D01*
X76835000Y-79424241D01*
X78033767Y-79424241D01*
X78038242Y-79439480D01*
X78039632Y-79440685D01*
X78047315Y-79442356D01*
X78955452Y-79442356D01*
X78970691Y-79437881D01*
X78971896Y-79436491D01*
X78973567Y-79428808D01*
X78973567Y-79424241D01*
X79481567Y-79424241D01*
X79486042Y-79439480D01*
X79487432Y-79440685D01*
X79495115Y-79442356D01*
X80403251Y-79442356D01*
X80418490Y-79437881D01*
X80419695Y-79436491D01*
X80421366Y-79428808D01*
X80421366Y-79139274D01*
X80441368Y-79071153D01*
X80495024Y-79024660D01*
X80549513Y-79015768D01*
X80549513Y-79013500D01*
X80740487Y-79013500D01*
X80746939Y-79012128D01*
X80746944Y-79012128D01*
X80833887Y-78993647D01*
X80927288Y-78973794D01*
X80933319Y-78971109D01*
X81095722Y-78898803D01*
X81095724Y-78898802D01*
X81101752Y-78896118D01*
X81256253Y-78783866D01*
X81311010Y-78723052D01*
X81379621Y-78646852D01*
X81379622Y-78646851D01*
X81384040Y-78641944D01*
X81443007Y-78539810D01*
X81476223Y-78482279D01*
X81476224Y-78482278D01*
X81479527Y-78476556D01*
X81538542Y-78294928D01*
X81540133Y-78279797D01*
X81557814Y-78111565D01*
X81558504Y-78105000D01*
X81551872Y-78041899D01*
X81539232Y-77921635D01*
X81539232Y-77921633D01*
X81538542Y-77915072D01*
X81479527Y-77733444D01*
X81384040Y-77568056D01*
X81379317Y-77562810D01*
X81260675Y-77431045D01*
X81260674Y-77431044D01*
X81256253Y-77426134D01*
X81101752Y-77313882D01*
X81095724Y-77311198D01*
X81095722Y-77311197D01*
X80933319Y-77238891D01*
X80933318Y-77238891D01*
X80927288Y-77236206D01*
X80833887Y-77216353D01*
X80746944Y-77197872D01*
X80746939Y-77197872D01*
X80740487Y-77196500D01*
X80549513Y-77196500D01*
X80543061Y-77197872D01*
X80543056Y-77197872D01*
X80456113Y-77216353D01*
X80362712Y-77236206D01*
X80356682Y-77238891D01*
X80356681Y-77238891D01*
X80194278Y-77311197D01*
X80194276Y-77311198D01*
X80188248Y-77313882D01*
X80033747Y-77426134D01*
X80029326Y-77431044D01*
X80029325Y-77431045D01*
X79910684Y-77562810D01*
X79905960Y-77568056D01*
X79810473Y-77733444D01*
X79751458Y-77915072D01*
X79750768Y-77921633D01*
X79750768Y-77921635D01*
X79738128Y-78041899D01*
X79731496Y-78105000D01*
X79732186Y-78111565D01*
X79749868Y-78279797D01*
X79751458Y-78294928D01*
X79765330Y-78337621D01*
X79767358Y-78408586D01*
X79730696Y-78469384D01*
X79666984Y-78500710D01*
X79645497Y-78502556D01*
X79499682Y-78502556D01*
X79484443Y-78507031D01*
X79483238Y-78508421D01*
X79481567Y-78516104D01*
X79481567Y-79424241D01*
X78973567Y-79424241D01*
X78973567Y-78520672D01*
X78969092Y-78505433D01*
X78967702Y-78504228D01*
X78960019Y-78502557D01*
X78497098Y-78502557D01*
X78490277Y-78502927D01*
X78439415Y-78508451D01*
X78424163Y-78512077D01*
X78303713Y-78557232D01*
X78288118Y-78565770D01*
X78186043Y-78642271D01*
X78173482Y-78654832D01*
X78096981Y-78756907D01*
X78088443Y-78772502D01*
X78043289Y-78892950D01*
X78039662Y-78908205D01*
X78034136Y-78959070D01*
X78033767Y-78965884D01*
X78033767Y-79424241D01*
X76835000Y-79424241D01*
X76835000Y-76651062D01*
X78653493Y-76651062D01*
X78662789Y-76663077D01*
X78713994Y-76698931D01*
X78723489Y-76704414D01*
X78920947Y-76796490D01*
X78931239Y-76800236D01*
X79141688Y-76856625D01*
X79152481Y-76858528D01*
X79369525Y-76877517D01*
X79380475Y-76877517D01*
X79597519Y-76858528D01*
X79608312Y-76856625D01*
X79818761Y-76800236D01*
X79829053Y-76796490D01*
X80026511Y-76704414D01*
X80036006Y-76698931D01*
X80088048Y-76662491D01*
X80096424Y-76652012D01*
X80089356Y-76638566D01*
X79387812Y-75937022D01*
X79373868Y-75929408D01*
X79372035Y-75929539D01*
X79365420Y-75933790D01*
X78659923Y-76639287D01*
X78653493Y-76651062D01*
X76835000Y-76651062D01*
X76835000Y-75570475D01*
X78062483Y-75570475D01*
X78081472Y-75787519D01*
X78083375Y-75798312D01*
X78139764Y-76008761D01*
X78143510Y-76019053D01*
X78235586Y-76216511D01*
X78241069Y-76226006D01*
X78277509Y-76278048D01*
X78287988Y-76286424D01*
X78301434Y-76279356D01*
X79002978Y-75577812D01*
X79009356Y-75566132D01*
X79739408Y-75566132D01*
X79739539Y-75567965D01*
X79743790Y-75574580D01*
X80449287Y-76280077D01*
X80461062Y-76286507D01*
X80473077Y-76277211D01*
X80508931Y-76226006D01*
X80514414Y-76216511D01*
X80606490Y-76019053D01*
X80610236Y-76008761D01*
X80666625Y-75798312D01*
X80668528Y-75787519D01*
X80687517Y-75570475D01*
X80687517Y-75565000D01*
X90761502Y-75565000D01*
X90781457Y-75793087D01*
X90782881Y-75798400D01*
X90782881Y-75798402D01*
X90822601Y-75946636D01*
X90840716Y-76014243D01*
X90843039Y-76019224D01*
X90843039Y-76019225D01*
X90935151Y-76216762D01*
X90935154Y-76216767D01*
X90937477Y-76221749D01*
X90940634Y-76226257D01*
X91057632Y-76393347D01*
X91068802Y-76409300D01*
X91230700Y-76571198D01*
X91235208Y-76574355D01*
X91235211Y-76574357D01*
X91282780Y-76607665D01*
X91418251Y-76702523D01*
X91423233Y-76704846D01*
X91423238Y-76704849D01*
X91619765Y-76796490D01*
X91625757Y-76799284D01*
X91631065Y-76800706D01*
X91631067Y-76800707D01*
X91841598Y-76857119D01*
X91841600Y-76857119D01*
X91846913Y-76858543D01*
X92075000Y-76878498D01*
X92303087Y-76858543D01*
X92308400Y-76857119D01*
X92308402Y-76857119D01*
X92518933Y-76800707D01*
X92518935Y-76800706D01*
X92524243Y-76799284D01*
X92530235Y-76796490D01*
X92726762Y-76704849D01*
X92726767Y-76704846D01*
X92731749Y-76702523D01*
X92867220Y-76607665D01*
X92914789Y-76574357D01*
X92914792Y-76574355D01*
X92919300Y-76571198D01*
X93081198Y-76409300D01*
X93092369Y-76393347D01*
X93097076Y-76386624D01*
X103923621Y-76386624D01*
X103927988Y-76392774D01*
X104127563Y-76509397D01*
X104136846Y-76513844D01*
X104355007Y-76597152D01*
X104364905Y-76600028D01*
X104593744Y-76646585D01*
X104603972Y-76647804D01*
X104837340Y-76656362D01*
X104847626Y-76655895D01*
X105079262Y-76626222D01*
X105089340Y-76624080D01*
X105313014Y-76556974D01*
X105322612Y-76553212D01*
X105532324Y-76450476D01*
X105541169Y-76445203D01*
X105613869Y-76393347D01*
X105622270Y-76382646D01*
X105615283Y-76369493D01*
X104787812Y-75542022D01*
X104773868Y-75534408D01*
X104772035Y-75534539D01*
X104765420Y-75538790D01*
X103930881Y-76373329D01*
X103923621Y-76386624D01*
X93097076Y-76386624D01*
X93209366Y-76226257D01*
X93212523Y-76221749D01*
X93214846Y-76216767D01*
X93214849Y-76216762D01*
X93306961Y-76019225D01*
X93306961Y-76019224D01*
X93309284Y-76014243D01*
X93327400Y-75946636D01*
X93367119Y-75798402D01*
X93367119Y-75798400D01*
X93368543Y-75793087D01*
X93388498Y-75565000D01*
X93368543Y-75336913D01*
X93362969Y-75316110D01*
X93315458Y-75138799D01*
X103287658Y-75138799D01*
X103301102Y-75371942D01*
X103302535Y-75382144D01*
X103353873Y-75609949D01*
X103356956Y-75619789D01*
X103444814Y-75836156D01*
X103449457Y-75845347D01*
X103550555Y-76010325D01*
X103561011Y-76019785D01*
X103569789Y-76016001D01*
X104402978Y-75182812D01*
X104409356Y-75171132D01*
X105139408Y-75171132D01*
X105139539Y-75172965D01*
X105143790Y-75179580D01*
X105975045Y-76010835D01*
X105987055Y-76017394D01*
X105998794Y-76008426D01*
X106047518Y-75940619D01*
X106052829Y-75931780D01*
X106156291Y-75722442D01*
X106160089Y-75712849D01*
X106227974Y-75489413D01*
X106230151Y-75479343D01*
X106260869Y-75246015D01*
X106261388Y-75239340D01*
X106263001Y-75173364D01*
X106262807Y-75166647D01*
X106243525Y-74932108D01*
X106241842Y-74921946D01*
X106184952Y-74695453D01*
X106181634Y-74685706D01*
X106088513Y-74471542D01*
X106083646Y-74462467D01*
X105998465Y-74330796D01*
X105987779Y-74321593D01*
X105978214Y-74325996D01*
X105147022Y-75157188D01*
X105139408Y-75171132D01*
X104409356Y-75171132D01*
X104410592Y-75168868D01*
X104410461Y-75167035D01*
X104406210Y-75160420D01*
X103574892Y-74329102D01*
X103563356Y-74322802D01*
X103551073Y-74332426D01*
X103484036Y-74430698D01*
X103478943Y-74439662D01*
X103380619Y-74651483D01*
X103377062Y-74661151D01*
X103314657Y-74886178D01*
X103312726Y-74896298D01*
X103287910Y-75128510D01*
X103287658Y-75138799D01*
X93315458Y-75138799D01*
X93310707Y-75121067D01*
X93310706Y-75121065D01*
X93309284Y-75115757D01*
X93304576Y-75105661D01*
X93214849Y-74913238D01*
X93214846Y-74913233D01*
X93212523Y-74908251D01*
X93081198Y-74720700D01*
X92919300Y-74558802D01*
X92914792Y-74555645D01*
X92914789Y-74555643D01*
X92803886Y-74477988D01*
X92731749Y-74427477D01*
X92726767Y-74425154D01*
X92726762Y-74425151D01*
X92529225Y-74333039D01*
X92529224Y-74333039D01*
X92524243Y-74330716D01*
X92518935Y-74329294D01*
X92518933Y-74329293D01*
X92308402Y-74272881D01*
X92308400Y-74272881D01*
X92303087Y-74271457D01*
X92075000Y-74251502D01*
X91846913Y-74271457D01*
X91841600Y-74272881D01*
X91841598Y-74272881D01*
X91631067Y-74329293D01*
X91631065Y-74329294D01*
X91625757Y-74330716D01*
X91620776Y-74333039D01*
X91620775Y-74333039D01*
X91423238Y-74425151D01*
X91423233Y-74425154D01*
X91418251Y-74427477D01*
X91346114Y-74477988D01*
X91235211Y-74555643D01*
X91235208Y-74555645D01*
X91230700Y-74558802D01*
X91068802Y-74720700D01*
X90937477Y-74908251D01*
X90935154Y-74913233D01*
X90935151Y-74913238D01*
X90845424Y-75105661D01*
X90840716Y-75115757D01*
X90839294Y-75121065D01*
X90839293Y-75121067D01*
X90787031Y-75316110D01*
X90781457Y-75336913D01*
X90761502Y-75565000D01*
X80687517Y-75565000D01*
X80687517Y-75559525D01*
X80668528Y-75342481D01*
X80666625Y-75331688D01*
X80610236Y-75121239D01*
X80606490Y-75110947D01*
X80514414Y-74913489D01*
X80508931Y-74903994D01*
X80472491Y-74851952D01*
X80462012Y-74843576D01*
X80448566Y-74850644D01*
X79747022Y-75552188D01*
X79739408Y-75566132D01*
X79009356Y-75566132D01*
X79010592Y-75563868D01*
X79010461Y-75562035D01*
X79006210Y-75555420D01*
X78300713Y-74849923D01*
X78288938Y-74843493D01*
X78276923Y-74852789D01*
X78241069Y-74903994D01*
X78235586Y-74913489D01*
X78143510Y-75110947D01*
X78139764Y-75121239D01*
X78083375Y-75331688D01*
X78081472Y-75342481D01*
X78062483Y-75559525D01*
X78062483Y-75570475D01*
X76835000Y-75570475D01*
X76835000Y-74477988D01*
X78653576Y-74477988D01*
X78660644Y-74491434D01*
X79362188Y-75192978D01*
X79376132Y-75200592D01*
X79377965Y-75200461D01*
X79384580Y-75196210D01*
X80090077Y-74490713D01*
X80096507Y-74478938D01*
X80087211Y-74466923D01*
X80036006Y-74431069D01*
X80026511Y-74425586D01*
X79829053Y-74333510D01*
X79818761Y-74329764D01*
X79608312Y-74273375D01*
X79597519Y-74271472D01*
X79380475Y-74252483D01*
X79369525Y-74252483D01*
X79152481Y-74271472D01*
X79141688Y-74273375D01*
X78931239Y-74329764D01*
X78920947Y-74333510D01*
X78723489Y-74425586D01*
X78713994Y-74431069D01*
X78661952Y-74467509D01*
X78653576Y-74477988D01*
X76835000Y-74477988D01*
X76835000Y-73957142D01*
X103926938Y-73957142D01*
X103933684Y-73969474D01*
X104762188Y-74797978D01*
X104776132Y-74805592D01*
X104777965Y-74805461D01*
X104784580Y-74801210D01*
X105617391Y-73968399D01*
X105624412Y-73955543D01*
X105616639Y-73944875D01*
X105602548Y-73933746D01*
X105593970Y-73928047D01*
X105389526Y-73815189D01*
X105380126Y-73810964D01*
X105159993Y-73733011D01*
X105150036Y-73730381D01*
X104920129Y-73689427D01*
X104909878Y-73688458D01*
X104676367Y-73685605D01*
X104666083Y-73686325D01*
X104435253Y-73721647D01*
X104425225Y-73724036D01*
X104203263Y-73796584D01*
X104193753Y-73800581D01*
X103986624Y-73908405D01*
X103977904Y-73913897D01*
X103935391Y-73945817D01*
X103926938Y-73957142D01*
X76835000Y-73957142D01*
X76835000Y-71411530D01*
X78772830Y-71411530D01*
X78782710Y-71424017D01*
X78822472Y-71450585D01*
X78832575Y-71456071D01*
X79014973Y-71534435D01*
X79025916Y-71537990D01*
X79219533Y-71581802D01*
X79230942Y-71583304D01*
X79429308Y-71591097D01*
X79440790Y-71590495D01*
X79637250Y-71562011D01*
X79648445Y-71559323D01*
X79836424Y-71495512D01*
X79846931Y-71490834D01*
X79968745Y-71422614D01*
X79978610Y-71412536D01*
X79975654Y-71404864D01*
X79387812Y-70817022D01*
X79373868Y-70809408D01*
X79372035Y-70809539D01*
X79365420Y-70813790D01*
X78779027Y-71400183D01*
X78772830Y-71411530D01*
X76835000Y-71411530D01*
X76835000Y-71120000D01*
X60960000Y-71120000D01*
X60960000Y-81280000D01*
X59514356Y-81280000D01*
X59624049Y-81226262D01*
X59624052Y-81226260D01*
X59628684Y-81223991D01*
X59817243Y-81089494D01*
X59981303Y-80926005D01*
X60116458Y-80737917D01*
X60124016Y-80722626D01*
X60216784Y-80534922D01*
X60216785Y-80534920D01*
X60219078Y-80530280D01*
X60286408Y-80308671D01*
X60316640Y-80079041D01*
X60318327Y-80010000D01*
X60302911Y-79822492D01*
X60299773Y-79784318D01*
X60299772Y-79784312D01*
X60299349Y-79779167D01*
X60269329Y-79659653D01*
X60244184Y-79559544D01*
X60244183Y-79559540D01*
X60242925Y-79554533D01*
X60240866Y-79549797D01*
X60152630Y-79346868D01*
X60152628Y-79346865D01*
X60150570Y-79342131D01*
X60024764Y-79147665D01*
X59868887Y-78976358D01*
X59864836Y-78973159D01*
X59864832Y-78973155D01*
X59692077Y-78836722D01*
X59651014Y-78778805D01*
X59647782Y-78707882D01*
X59683407Y-78646470D01*
X59697001Y-78635261D01*
X59700872Y-78632500D01*
X59817243Y-78549494D01*
X59981303Y-78386005D01*
X60116458Y-78197917D01*
X60163641Y-78102450D01*
X60216784Y-77994922D01*
X60216785Y-77994920D01*
X60219078Y-77990280D01*
X60286408Y-77768671D01*
X60316640Y-77539041D01*
X60318327Y-77470000D01*
X60307059Y-77332945D01*
X60299773Y-77244318D01*
X60299772Y-77244312D01*
X60299349Y-77239167D01*
X60267277Y-77111484D01*
X60244184Y-77019544D01*
X60244183Y-77019540D01*
X60242925Y-77014533D01*
X60240866Y-77009797D01*
X60152630Y-76806868D01*
X60152628Y-76806865D01*
X60150570Y-76802131D01*
X60024764Y-76607665D01*
X59868887Y-76436358D01*
X59864836Y-76433159D01*
X59864832Y-76433155D01*
X59692077Y-76296722D01*
X59651014Y-76238805D01*
X59647782Y-76167882D01*
X59683407Y-76106470D01*
X59697001Y-76095261D01*
X59700872Y-76092500D01*
X59817243Y-76009494D01*
X59981303Y-75846005D01*
X60116458Y-75657917D01*
X60152300Y-75585397D01*
X60216784Y-75454922D01*
X60216785Y-75454920D01*
X60219078Y-75450280D01*
X60286408Y-75228671D01*
X60316640Y-74999041D01*
X60317206Y-74975886D01*
X60318245Y-74933365D01*
X60318245Y-74933361D01*
X60318327Y-74930000D01*
X60308088Y-74805461D01*
X60299773Y-74704318D01*
X60299772Y-74704312D01*
X60299349Y-74699167D01*
X60263298Y-74555643D01*
X60244184Y-74479544D01*
X60244183Y-74479540D01*
X60242925Y-74474533D01*
X60237679Y-74462467D01*
X60152630Y-74266868D01*
X60152628Y-74266865D01*
X60150570Y-74262131D01*
X60024764Y-74067665D01*
X59936889Y-73971091D01*
X59934848Y-73968848D01*
X59903796Y-73905002D01*
X59912192Y-73834504D01*
X59957369Y-73779736D01*
X59983812Y-73766067D01*
X60043297Y-73743767D01*
X60051705Y-73740615D01*
X60168261Y-73653261D01*
X60255615Y-73536705D01*
X60306745Y-73400316D01*
X60313500Y-73338134D01*
X60313500Y-71441866D01*
X60306745Y-71379684D01*
X60255615Y-71243295D01*
X60168261Y-71126739D01*
X60051705Y-71039385D01*
X59915316Y-70988255D01*
X59853134Y-70981500D01*
X59819828Y-70981500D01*
X59751707Y-70961498D01*
X59705214Y-70907842D01*
X59695110Y-70837568D01*
X59724604Y-70772988D01*
X59771612Y-70739090D01*
X59775484Y-70737486D01*
X59784276Y-70733006D01*
X59978217Y-70614158D01*
X59986201Y-70608358D01*
X60159176Y-70460623D01*
X60166140Y-70453659D01*
X60194274Y-70420718D01*
X78227874Y-70420718D01*
X78240858Y-70618803D01*
X78242659Y-70630173D01*
X78291523Y-70822576D01*
X78295364Y-70833423D01*
X78378475Y-71013705D01*
X78384223Y-71023661D01*
X78395675Y-71039867D01*
X78406263Y-71048254D01*
X78419564Y-71041226D01*
X79002978Y-70457812D01*
X79009356Y-70446132D01*
X79739408Y-70446132D01*
X79739539Y-70447965D01*
X79743790Y-70454580D01*
X80330950Y-71041740D01*
X80343330Y-71048500D01*
X80349910Y-71043574D01*
X80420834Y-70916931D01*
X80425512Y-70906424D01*
X80489323Y-70718445D01*
X80492011Y-70707250D01*
X80520791Y-70508753D01*
X80521493Y-70500525D01*
X80541332Y-70449487D01*
X80539324Y-70445365D01*
X80748966Y-70445365D01*
X80770514Y-70486147D01*
X80772766Y-70502993D01*
X80780740Y-70624649D01*
X80832471Y-70828343D01*
X80834890Y-70833590D01*
X80918038Y-71013953D01*
X80918041Y-71013958D01*
X80920457Y-71019199D01*
X80923788Y-71023912D01*
X80923789Y-71023914D01*
X81001534Y-71133919D01*
X81041751Y-71190825D01*
X81192289Y-71337474D01*
X81197085Y-71340679D01*
X81197088Y-71340681D01*
X81309244Y-71415621D01*
X81367031Y-71454233D01*
X81372339Y-71456514D01*
X81372340Y-71456514D01*
X81554822Y-71534914D01*
X81554825Y-71534915D01*
X81560125Y-71537192D01*
X81565754Y-71538466D01*
X81565755Y-71538466D01*
X81759467Y-71582299D01*
X81759473Y-71582300D01*
X81765104Y-71583574D01*
X81770875Y-71583801D01*
X81770877Y-71583801D01*
X81834433Y-71586298D01*
X81975103Y-71591825D01*
X82183088Y-71561669D01*
X82188552Y-71559814D01*
X82188557Y-71559813D01*
X82376624Y-71495973D01*
X82376629Y-71495971D01*
X82382096Y-71494115D01*
X82565460Y-71391426D01*
X82727041Y-71257041D01*
X82861426Y-71095460D01*
X82932711Y-70968171D01*
X82961291Y-70917139D01*
X82961292Y-70917137D01*
X82964115Y-70912096D01*
X82965971Y-70906629D01*
X82965973Y-70906624D01*
X83029813Y-70718557D01*
X83029814Y-70718552D01*
X83031669Y-70713088D01*
X83061825Y-70505103D01*
X83061868Y-70503466D01*
X83082816Y-70449564D01*
X83081184Y-70446214D01*
X83287868Y-70446214D01*
X83310730Y-70489477D01*
X83312985Y-70506334D01*
X83314157Y-70524215D01*
X83320740Y-70624649D01*
X83372471Y-70828343D01*
X83374890Y-70833590D01*
X83458038Y-71013953D01*
X83458041Y-71013958D01*
X83460457Y-71019199D01*
X83463788Y-71023912D01*
X83463789Y-71023914D01*
X83541534Y-71133919D01*
X83581751Y-71190825D01*
X83732289Y-71337474D01*
X83737085Y-71340679D01*
X83737088Y-71340681D01*
X83849244Y-71415621D01*
X83907031Y-71454233D01*
X83912339Y-71456514D01*
X83912340Y-71456514D01*
X84094822Y-71534914D01*
X84094825Y-71534915D01*
X84100125Y-71537192D01*
X84105754Y-71538466D01*
X84105755Y-71538466D01*
X84299467Y-71582299D01*
X84299473Y-71582300D01*
X84305104Y-71583574D01*
X84310875Y-71583801D01*
X84310877Y-71583801D01*
X84374433Y-71586298D01*
X84515103Y-71591825D01*
X84723088Y-71561669D01*
X84728552Y-71559814D01*
X84728557Y-71559813D01*
X84916624Y-71495973D01*
X84916629Y-71495971D01*
X84922096Y-71494115D01*
X85105460Y-71391426D01*
X85267041Y-71257041D01*
X85401426Y-71095460D01*
X85472711Y-70968171D01*
X85501291Y-70917139D01*
X85501292Y-70917137D01*
X85504115Y-70912096D01*
X85505971Y-70906629D01*
X85505973Y-70906624D01*
X85569813Y-70718557D01*
X85569814Y-70718552D01*
X85571669Y-70713088D01*
X85601825Y-70505103D01*
X85601868Y-70503466D01*
X85622816Y-70449564D01*
X85621184Y-70446214D01*
X85827868Y-70446214D01*
X85850730Y-70489477D01*
X85852985Y-70506334D01*
X85854157Y-70524215D01*
X85860740Y-70624649D01*
X85912471Y-70828343D01*
X85914890Y-70833590D01*
X85998038Y-71013953D01*
X85998041Y-71013958D01*
X86000457Y-71019199D01*
X86003788Y-71023912D01*
X86003789Y-71023914D01*
X86081534Y-71133919D01*
X86121751Y-71190825D01*
X86272289Y-71337474D01*
X86277085Y-71340679D01*
X86277088Y-71340681D01*
X86389244Y-71415621D01*
X86447031Y-71454233D01*
X86452339Y-71456514D01*
X86452340Y-71456514D01*
X86634822Y-71534914D01*
X86634825Y-71534915D01*
X86640125Y-71537192D01*
X86645754Y-71538466D01*
X86645755Y-71538466D01*
X86839467Y-71582299D01*
X86839473Y-71582300D01*
X86845104Y-71583574D01*
X86850875Y-71583801D01*
X86850877Y-71583801D01*
X86914433Y-71586298D01*
X87055103Y-71591825D01*
X87263088Y-71561669D01*
X87268552Y-71559814D01*
X87268557Y-71559813D01*
X87456624Y-71495973D01*
X87456629Y-71495971D01*
X87462096Y-71494115D01*
X87645460Y-71391426D01*
X87807041Y-71257041D01*
X87941426Y-71095460D01*
X88003665Y-70984323D01*
X97698450Y-70984323D01*
X97705504Y-70994295D01*
X97755586Y-71036169D01*
X97762523Y-71041209D01*
X98005418Y-71193577D01*
X98012984Y-71197634D01*
X98274316Y-71315629D01*
X98282346Y-71318616D01*
X98557285Y-71400057D01*
X98565637Y-71401924D01*
X98849089Y-71445298D01*
X98857622Y-71446014D01*
X99144334Y-71450519D01*
X99152885Y-71450070D01*
X99437558Y-71415621D01*
X99445958Y-71414019D01*
X99723337Y-71341250D01*
X99731439Y-71338523D01*
X99996365Y-71228787D01*
X100004033Y-71224981D01*
X100251614Y-71080306D01*
X100258695Y-71075493D01*
X100362194Y-70994340D01*
X100370665Y-70982480D01*
X100364149Y-70970859D01*
X99047812Y-69654522D01*
X99033868Y-69646908D01*
X99032035Y-69647039D01*
X99025420Y-69651290D01*
X97705742Y-70970969D01*
X97698450Y-70984323D01*
X88003665Y-70984323D01*
X88012711Y-70968171D01*
X88041291Y-70917139D01*
X88041292Y-70917137D01*
X88044115Y-70912096D01*
X88045971Y-70906629D01*
X88045973Y-70906624D01*
X88109813Y-70718557D01*
X88109814Y-70718552D01*
X88111669Y-70713088D01*
X88141825Y-70505103D01*
X88143399Y-70445000D01*
X88124169Y-70235721D01*
X88119519Y-70219231D01*
X88079182Y-70076210D01*
X88067123Y-70033451D01*
X87981492Y-69859809D01*
X87976726Y-69850144D01*
X87974171Y-69844963D01*
X87959608Y-69825460D01*
X87851880Y-69681195D01*
X87851879Y-69681194D01*
X87848427Y-69676571D01*
X87825343Y-69655232D01*
X87698341Y-69537833D01*
X87698338Y-69537831D01*
X87694101Y-69533914D01*
X87516362Y-69421769D01*
X87321163Y-69343892D01*
X87315506Y-69342767D01*
X87315500Y-69342765D01*
X87120707Y-69304019D01*
X87120705Y-69304019D01*
X87115040Y-69302892D01*
X87109265Y-69302816D01*
X87109261Y-69302816D01*
X87004001Y-69301438D01*
X86904898Y-69300141D01*
X86899201Y-69301120D01*
X86899200Y-69301120D01*
X86757353Y-69325494D01*
X86697772Y-69335732D01*
X86500601Y-69408472D01*
X86495640Y-69411424D01*
X86495639Y-69411424D01*
X86388012Y-69475456D01*
X86319988Y-69515926D01*
X86161981Y-69654494D01*
X86147664Y-69672655D01*
X86089748Y-69746122D01*
X86031872Y-69819537D01*
X86029181Y-69824653D01*
X86029179Y-69824655D01*
X85936710Y-70000410D01*
X85934018Y-70005527D01*
X85871696Y-70206234D01*
X85871017Y-70211969D01*
X85871017Y-70211970D01*
X85849212Y-70396206D01*
X85827868Y-70446214D01*
X85621184Y-70446214D01*
X85599855Y-70402440D01*
X85598614Y-70392926D01*
X85588301Y-70280684D01*
X85584169Y-70235721D01*
X85579519Y-70219231D01*
X85539182Y-70076210D01*
X85527123Y-70033451D01*
X85441492Y-69859809D01*
X85436726Y-69850144D01*
X85434171Y-69844963D01*
X85419608Y-69825460D01*
X85311880Y-69681195D01*
X85311879Y-69681194D01*
X85308427Y-69676571D01*
X85285343Y-69655232D01*
X85158341Y-69537833D01*
X85158338Y-69537831D01*
X85154101Y-69533914D01*
X84976362Y-69421769D01*
X84781163Y-69343892D01*
X84775506Y-69342767D01*
X84775500Y-69342765D01*
X84580707Y-69304019D01*
X84580705Y-69304019D01*
X84575040Y-69302892D01*
X84569265Y-69302816D01*
X84569261Y-69302816D01*
X84464001Y-69301438D01*
X84364898Y-69300141D01*
X84359201Y-69301120D01*
X84359200Y-69301120D01*
X84217353Y-69325494D01*
X84157772Y-69335732D01*
X83960601Y-69408472D01*
X83955640Y-69411424D01*
X83955639Y-69411424D01*
X83848012Y-69475456D01*
X83779988Y-69515926D01*
X83621981Y-69654494D01*
X83607664Y-69672655D01*
X83549748Y-69746122D01*
X83491872Y-69819537D01*
X83489181Y-69824653D01*
X83489179Y-69824655D01*
X83396710Y-70000410D01*
X83394018Y-70005527D01*
X83331696Y-70206234D01*
X83331017Y-70211969D01*
X83331017Y-70211970D01*
X83309212Y-70396206D01*
X83287868Y-70446214D01*
X83081184Y-70446214D01*
X83059855Y-70402440D01*
X83058614Y-70392926D01*
X83048301Y-70280684D01*
X83044169Y-70235721D01*
X83039519Y-70219231D01*
X82999182Y-70076210D01*
X82987123Y-70033451D01*
X82901492Y-69859809D01*
X82896726Y-69850144D01*
X82894171Y-69844963D01*
X82879608Y-69825460D01*
X82771880Y-69681195D01*
X82771879Y-69681194D01*
X82768427Y-69676571D01*
X82745343Y-69655232D01*
X82618341Y-69537833D01*
X82618338Y-69537831D01*
X82614101Y-69533914D01*
X82436362Y-69421769D01*
X82241163Y-69343892D01*
X82235506Y-69342767D01*
X82235500Y-69342765D01*
X82040707Y-69304019D01*
X82040705Y-69304019D01*
X82035040Y-69302892D01*
X82029265Y-69302816D01*
X82029261Y-69302816D01*
X81924001Y-69301438D01*
X81824898Y-69300141D01*
X81819201Y-69301120D01*
X81819200Y-69301120D01*
X81677353Y-69325494D01*
X81617772Y-69335732D01*
X81420601Y-69408472D01*
X81415640Y-69411424D01*
X81415639Y-69411424D01*
X81308012Y-69475456D01*
X81239988Y-69515926D01*
X81081981Y-69654494D01*
X81067664Y-69672655D01*
X81009748Y-69746122D01*
X80951872Y-69819537D01*
X80949181Y-69824653D01*
X80949179Y-69824655D01*
X80856710Y-70000410D01*
X80854018Y-70005527D01*
X80791696Y-70206234D01*
X80791018Y-70211966D01*
X80791017Y-70211969D01*
X80768929Y-70398595D01*
X80748966Y-70445365D01*
X80539324Y-70445365D01*
X80519572Y-70404828D01*
X80518331Y-70395314D01*
X80504204Y-70241566D01*
X80502107Y-70230251D01*
X80448222Y-70039190D01*
X80444100Y-70028451D01*
X80356299Y-69850409D01*
X80354192Y-69846970D01*
X80344876Y-69839980D01*
X80332459Y-69846751D01*
X79747022Y-70432188D01*
X79739408Y-70446132D01*
X79009356Y-70446132D01*
X79010592Y-70443868D01*
X79010461Y-70442035D01*
X79006210Y-70435420D01*
X78417626Y-69846836D01*
X78405246Y-69840076D01*
X78399280Y-69844542D01*
X78317173Y-70000602D01*
X78312768Y-70011236D01*
X78253900Y-70200822D01*
X78251508Y-70212076D01*
X78228175Y-70409217D01*
X78227874Y-70420718D01*
X60194274Y-70420718D01*
X60313875Y-70280684D01*
X60319675Y-70272700D01*
X60438523Y-70078759D01*
X60443005Y-70069964D01*
X60530054Y-69859809D01*
X60533100Y-69850435D01*
X60578960Y-69659416D01*
X60578255Y-69645332D01*
X60569374Y-69641801D01*
X57621562Y-69641801D01*
X57608031Y-69645774D01*
X57606671Y-69655232D01*
X57653536Y-69850435D01*
X57656582Y-69859809D01*
X57743631Y-70069964D01*
X57748113Y-70078759D01*
X57866961Y-70272700D01*
X57872761Y-70280684D01*
X58020496Y-70453659D01*
X58027460Y-70460623D01*
X58200435Y-70608358D01*
X58208419Y-70614158D01*
X58402360Y-70733006D01*
X58411152Y-70737486D01*
X58415024Y-70739090D01*
X58470306Y-70783637D01*
X58492728Y-70851000D01*
X58475171Y-70919792D01*
X58423210Y-70968171D01*
X58366808Y-70981500D01*
X57956866Y-70981500D01*
X57894684Y-70988255D01*
X57758295Y-71039385D01*
X57641739Y-71126739D01*
X57554385Y-71243295D01*
X57503255Y-71379684D01*
X57496500Y-71441866D01*
X57496500Y-73338134D01*
X57503255Y-73400316D01*
X57554385Y-73536705D01*
X57641739Y-73653261D01*
X57758295Y-73740615D01*
X57766704Y-73743767D01*
X57766705Y-73743768D01*
X57826164Y-73766058D01*
X57882929Y-73808699D01*
X57907629Y-73875261D01*
X57892422Y-73944609D01*
X57873029Y-73971091D01*
X57806639Y-74040564D01*
X57803725Y-74044836D01*
X57803724Y-74044837D01*
X57731412Y-74150842D01*
X57676119Y-74231899D01*
X57578602Y-74441981D01*
X57516707Y-74665169D01*
X57492095Y-74895469D01*
X57492392Y-74900622D01*
X57492392Y-74900625D01*
X57498067Y-74999041D01*
X57505427Y-75126697D01*
X57506564Y-75131743D01*
X57506565Y-75131749D01*
X57538741Y-75274523D01*
X57556346Y-75352642D01*
X57558288Y-75357424D01*
X57558289Y-75357428D01*
X57641540Y-75562450D01*
X57643484Y-75567237D01*
X57764501Y-75764719D01*
X57916147Y-75939784D01*
X58094349Y-76087730D01*
X58098819Y-76090342D01*
X58102511Y-76092500D01*
X58151232Y-76144140D01*
X58164301Y-76213924D01*
X58137566Y-76279694D01*
X58114589Y-76302045D01*
X57971739Y-76409300D01*
X57966655Y-76413117D01*
X57963083Y-76416855D01*
X57812571Y-76574357D01*
X57806639Y-76580564D01*
X57803725Y-76584836D01*
X57803724Y-76584837D01*
X57776954Y-76624080D01*
X57676119Y-76771899D01*
X57578602Y-76981981D01*
X57516707Y-77205169D01*
X57492095Y-77435469D01*
X57492392Y-77440622D01*
X57492392Y-77440625D01*
X57499951Y-77571719D01*
X57505427Y-77666697D01*
X57506564Y-77671743D01*
X57506565Y-77671749D01*
X57538741Y-77814523D01*
X57556346Y-77892642D01*
X57558288Y-77897424D01*
X57558289Y-77897428D01*
X57627467Y-78067793D01*
X57643484Y-78107237D01*
X57764501Y-78304719D01*
X57916147Y-78479784D01*
X58094349Y-78627730D01*
X58098819Y-78630342D01*
X58102511Y-78632500D01*
X58151232Y-78684140D01*
X58164301Y-78753924D01*
X58137566Y-78819694D01*
X58114589Y-78842045D01*
X57981796Y-78941749D01*
X57966655Y-78953117D01*
X57806639Y-79120564D01*
X57803725Y-79124836D01*
X57803724Y-79124837D01*
X57732350Y-79229467D01*
X57676119Y-79311899D01*
X57578602Y-79521981D01*
X57516707Y-79745169D01*
X57492095Y-79975469D01*
X55784842Y-79975469D01*
X55824049Y-79956262D01*
X55824052Y-79956260D01*
X55828684Y-79953991D01*
X56017243Y-79819494D01*
X56181303Y-79656005D01*
X56316458Y-79467917D01*
X56330513Y-79439480D01*
X56416784Y-79264922D01*
X56416785Y-79264920D01*
X56419078Y-79260280D01*
X56486408Y-79038671D01*
X56516640Y-78809041D01*
X56516858Y-78800119D01*
X56518245Y-78743365D01*
X56518245Y-78743361D01*
X56518327Y-78740000D01*
X56509345Y-78630750D01*
X56499773Y-78514318D01*
X56499772Y-78514312D01*
X56499349Y-78509167D01*
X56448976Y-78308622D01*
X56444184Y-78289544D01*
X56444183Y-78289540D01*
X56442925Y-78284533D01*
X56440866Y-78279797D01*
X56352630Y-78076868D01*
X56352628Y-78076865D01*
X56350570Y-78072131D01*
X56224764Y-77877665D01*
X56068887Y-77706358D01*
X56064836Y-77703159D01*
X56064832Y-77703155D01*
X55891669Y-77566400D01*
X55850606Y-77508483D01*
X55847374Y-77437560D01*
X55882999Y-77376148D01*
X55896593Y-77364939D01*
X56012711Y-77282114D01*
X56020578Y-77275465D01*
X56177260Y-77119329D01*
X56183937Y-77111484D01*
X56313010Y-76931859D01*
X56318321Y-76923020D01*
X56416318Y-76724737D01*
X56420117Y-76715142D01*
X56484415Y-76503517D01*
X56486594Y-76493436D01*
X56489422Y-76471960D01*
X56487210Y-76457779D01*
X56474052Y-76454000D01*
X53736968Y-76454000D01*
X53723437Y-76457973D01*
X53722000Y-76467966D01*
X53755685Y-76617439D01*
X53758773Y-76627292D01*
X53841989Y-76832226D01*
X53846629Y-76841413D01*
X53962208Y-77030022D01*
X53968286Y-77038326D01*
X54113113Y-77205519D01*
X54120475Y-77212728D01*
X54290660Y-77354018D01*
X54299099Y-77359927D01*
X54302936Y-77362169D01*
X54351662Y-77413805D01*
X54364736Y-77483587D01*
X54338007Y-77549360D01*
X54315023Y-77571719D01*
X54181796Y-77671749D01*
X54166655Y-77683117D01*
X54006639Y-77850564D01*
X54003725Y-77854836D01*
X54003724Y-77854837D01*
X53966917Y-77908794D01*
X53876119Y-78041899D01*
X53778602Y-78251981D01*
X53716707Y-78475169D01*
X53692095Y-78705469D01*
X53340000Y-78705469D01*
X53340000Y-73625469D01*
X53692095Y-73625469D01*
X53692392Y-73630622D01*
X53692392Y-73630625D01*
X53702790Y-73810964D01*
X53705427Y-73856697D01*
X53706564Y-73861743D01*
X53706565Y-73861749D01*
X53730600Y-73968399D01*
X53756346Y-74082642D01*
X53758288Y-74087424D01*
X53758289Y-74087428D01*
X53841540Y-74292450D01*
X53843484Y-74297237D01*
X53964501Y-74494719D01*
X54116147Y-74669784D01*
X54294349Y-74817730D01*
X54298816Y-74820340D01*
X54302974Y-74822770D01*
X54351698Y-74874408D01*
X54364769Y-74944191D01*
X54338038Y-75009963D01*
X54315057Y-75032318D01*
X54171123Y-75140386D01*
X54163416Y-75147229D01*
X54010600Y-75307143D01*
X54004113Y-75315153D01*
X53879474Y-75497867D01*
X53874376Y-75506841D01*
X53781252Y-75707459D01*
X53777689Y-75717146D01*
X53718581Y-75930279D01*
X53718484Y-75930788D01*
X53720625Y-75942609D01*
X53733001Y-75946000D01*
X56474900Y-75946000D01*
X56488431Y-75942027D01*
X56489736Y-75932947D01*
X56443710Y-75749708D01*
X56440389Y-75739953D01*
X56352193Y-75537118D01*
X56347315Y-75528020D01*
X56227177Y-75342315D01*
X56220885Y-75334144D01*
X56072023Y-75170547D01*
X56064490Y-75163521D01*
X55891654Y-75027024D01*
X55850591Y-74969107D01*
X55847359Y-74898184D01*
X55882984Y-74836772D01*
X55896578Y-74825563D01*
X55935251Y-74797978D01*
X56017243Y-74739494D01*
X56181303Y-74576005D01*
X56316458Y-74387917D01*
X56343348Y-74333510D01*
X56416784Y-74184922D01*
X56416785Y-74184920D01*
X56419078Y-74180280D01*
X56486408Y-73958671D01*
X56516640Y-73729041D01*
X56517684Y-73686325D01*
X56518245Y-73663365D01*
X56518245Y-73663361D01*
X56518327Y-73660000D01*
X56507499Y-73528297D01*
X56499773Y-73434318D01*
X56499772Y-73434312D01*
X56499349Y-73429167D01*
X56442925Y-73204533D01*
X56440866Y-73199797D01*
X56352630Y-72996868D01*
X56352628Y-72996865D01*
X56350570Y-72992131D01*
X56224764Y-72797665D01*
X56068887Y-72626358D01*
X56064836Y-72623159D01*
X56064832Y-72623155D01*
X55891177Y-72486011D01*
X55891172Y-72486008D01*
X55887123Y-72482810D01*
X55882607Y-72480317D01*
X55882604Y-72480315D01*
X55688879Y-72373373D01*
X55688875Y-72373371D01*
X55684355Y-72370876D01*
X55679486Y-72369152D01*
X55679482Y-72369150D01*
X55470903Y-72295288D01*
X55470899Y-72295287D01*
X55466028Y-72293562D01*
X55460935Y-72292655D01*
X55460932Y-72292654D01*
X55243095Y-72253851D01*
X55243089Y-72253850D01*
X55238006Y-72252945D01*
X55165096Y-72252054D01*
X55011581Y-72250179D01*
X55011579Y-72250179D01*
X55006411Y-72250116D01*
X54777464Y-72285150D01*
X54557314Y-72357106D01*
X54552726Y-72359494D01*
X54552722Y-72359496D01*
X54424508Y-72426240D01*
X54351872Y-72464052D01*
X54347739Y-72467155D01*
X54347736Y-72467157D01*
X54170790Y-72600012D01*
X54166655Y-72603117D01*
X54006639Y-72770564D01*
X54003725Y-72774836D01*
X54003724Y-72774837D01*
X53988152Y-72797665D01*
X53876119Y-72961899D01*
X53778602Y-73171981D01*
X53716707Y-73395169D01*
X53692095Y-73625469D01*
X53340000Y-73625469D01*
X53340000Y-71120000D01*
X53332206Y-71120000D01*
X53329351Y-71117526D01*
X53290967Y-71057800D01*
X53290967Y-70986803D01*
X53329350Y-70927077D01*
X53393931Y-70897584D01*
X53411863Y-70896301D01*
X55061452Y-70896301D01*
X55123634Y-70889546D01*
X55260023Y-70838416D01*
X55376579Y-70751062D01*
X55463933Y-70634506D01*
X55515063Y-70498117D01*
X55521818Y-70435935D01*
X55521818Y-69116186D01*
X57607676Y-69116186D01*
X57608381Y-69130270D01*
X57617262Y-69133801D01*
X58821203Y-69133801D01*
X58836442Y-69129326D01*
X58837647Y-69127936D01*
X58839318Y-69120253D01*
X58839318Y-69115686D01*
X59347318Y-69115686D01*
X59351793Y-69130925D01*
X59353183Y-69132130D01*
X59360866Y-69133801D01*
X60565074Y-69133801D01*
X60578605Y-69129828D01*
X60579965Y-69120370D01*
X60571441Y-69084865D01*
X61686705Y-69084865D01*
X61706660Y-69312952D01*
X61708084Y-69318265D01*
X61708084Y-69318267D01*
X61760256Y-69512972D01*
X61765919Y-69534108D01*
X61768242Y-69539089D01*
X61768242Y-69539090D01*
X61860354Y-69736627D01*
X61860357Y-69736632D01*
X61862680Y-69741614D01*
X61917668Y-69820145D01*
X61938878Y-69850435D01*
X61994005Y-69929165D01*
X62155903Y-70091063D01*
X62160411Y-70094220D01*
X62160414Y-70094222D01*
X62208156Y-70127651D01*
X62343454Y-70222388D01*
X62348436Y-70224711D01*
X62348441Y-70224714D01*
X62545978Y-70316826D01*
X62550960Y-70319149D01*
X62556268Y-70320571D01*
X62556270Y-70320572D01*
X62766801Y-70376984D01*
X62766803Y-70376984D01*
X62772116Y-70378408D01*
X63000203Y-70398363D01*
X63228290Y-70378408D01*
X63233603Y-70376984D01*
X63233605Y-70376984D01*
X63444136Y-70320572D01*
X63444138Y-70320571D01*
X63449446Y-70319149D01*
X63454428Y-70316826D01*
X63651965Y-70224714D01*
X63651970Y-70224711D01*
X63656952Y-70222388D01*
X63792250Y-70127651D01*
X63839992Y-70094222D01*
X63839995Y-70094220D01*
X63844503Y-70091063D01*
X64006401Y-69929165D01*
X64061529Y-69850435D01*
X64134572Y-69746118D01*
X64137726Y-69741614D01*
X64140049Y-69736632D01*
X64141085Y-69734838D01*
X64192469Y-69685846D01*
X64262182Y-69672411D01*
X64328093Y-69698799D01*
X64359321Y-69734838D01*
X64360357Y-69736632D01*
X64362680Y-69741614D01*
X64365834Y-69746118D01*
X64438878Y-69850435D01*
X64494005Y-69929165D01*
X64655903Y-70091063D01*
X64660411Y-70094220D01*
X64660414Y-70094222D01*
X64708156Y-70127651D01*
X64843454Y-70222388D01*
X64848436Y-70224711D01*
X64848441Y-70224714D01*
X65045978Y-70316826D01*
X65050960Y-70319149D01*
X65056268Y-70320571D01*
X65056270Y-70320572D01*
X65266801Y-70376984D01*
X65266803Y-70376984D01*
X65272116Y-70378408D01*
X65500203Y-70398363D01*
X65728290Y-70378408D01*
X65733603Y-70376984D01*
X65733605Y-70376984D01*
X65944136Y-70320572D01*
X65944138Y-70320571D01*
X65949446Y-70319149D01*
X65954428Y-70316826D01*
X66151965Y-70224714D01*
X66151970Y-70224711D01*
X66156952Y-70222388D01*
X66292250Y-70127651D01*
X66339992Y-70094222D01*
X66339995Y-70094220D01*
X66344503Y-70091063D01*
X66506401Y-69929165D01*
X66561529Y-69850435D01*
X66582738Y-69820145D01*
X66637726Y-69741614D01*
X66640049Y-69736632D01*
X66640052Y-69736627D01*
X66732164Y-69539090D01*
X66732164Y-69539089D01*
X66734487Y-69534108D01*
X66740151Y-69512972D01*
X66749484Y-69478139D01*
X78772251Y-69478139D01*
X78775738Y-69486528D01*
X79362188Y-70072978D01*
X79376132Y-70080592D01*
X79377965Y-70080461D01*
X79384580Y-70076210D01*
X79970657Y-69490133D01*
X79977417Y-69477753D01*
X79971387Y-69469698D01*
X79901020Y-69425299D01*
X79890769Y-69420076D01*
X79706389Y-69346516D01*
X79695352Y-69343247D01*
X79500654Y-69304518D01*
X79489210Y-69303315D01*
X79290719Y-69300718D01*
X79279239Y-69301621D01*
X79083599Y-69335238D01*
X79072479Y-69338218D01*
X78886234Y-69406927D01*
X78875856Y-69411877D01*
X78781849Y-69467806D01*
X78772251Y-69478139D01*
X66749484Y-69478139D01*
X66792322Y-69318267D01*
X66792322Y-69318265D01*
X66793746Y-69312952D01*
X66813701Y-69084865D01*
X66793746Y-68856778D01*
X66772157Y-68776206D01*
X66735910Y-68640932D01*
X66735909Y-68640930D01*
X66734487Y-68635622D01*
X66713100Y-68589757D01*
X66708550Y-68580000D01*
X87986496Y-68580000D01*
X87987186Y-68586565D01*
X87999409Y-68702856D01*
X88006458Y-68769928D01*
X88065473Y-68951556D01*
X88160960Y-69116944D01*
X88165378Y-69121851D01*
X88165379Y-69121852D01*
X88184254Y-69142815D01*
X88288747Y-69258866D01*
X88355647Y-69307472D01*
X88426096Y-69358656D01*
X88443248Y-69371118D01*
X88449276Y-69373802D01*
X88449278Y-69373803D01*
X88564941Y-69425299D01*
X88617712Y-69448794D01*
X88707156Y-69467806D01*
X88798056Y-69487128D01*
X88798061Y-69487128D01*
X88804513Y-69488500D01*
X88995487Y-69488500D01*
X89001939Y-69487128D01*
X89001944Y-69487128D01*
X89092844Y-69467806D01*
X89182288Y-69448794D01*
X89235059Y-69425299D01*
X89350722Y-69373803D01*
X89350724Y-69373802D01*
X89356752Y-69371118D01*
X89373905Y-69358656D01*
X89444353Y-69307472D01*
X89511253Y-69258866D01*
X89615746Y-69142815D01*
X89634621Y-69121852D01*
X89634622Y-69121851D01*
X89639040Y-69116944D01*
X89734527Y-68951556D01*
X89793542Y-68769928D01*
X89800592Y-68702856D01*
X89812814Y-68586565D01*
X89813504Y-68580000D01*
X89797541Y-68428116D01*
X89794232Y-68396635D01*
X89794232Y-68396633D01*
X89793542Y-68390072D01*
X89734527Y-68208444D01*
X89717020Y-68178120D01*
X89642341Y-68048774D01*
X89639040Y-68043056D01*
X89557212Y-67952176D01*
X89515675Y-67906045D01*
X89515674Y-67906044D01*
X89511253Y-67901134D01*
X89380883Y-67806414D01*
X89362094Y-67792763D01*
X89362093Y-67792762D01*
X89356752Y-67788882D01*
X89350724Y-67786198D01*
X89350722Y-67786197D01*
X89270779Y-67750605D01*
X89252816Y-67742607D01*
X89198721Y-67696627D01*
X89178071Y-67628700D01*
X89197423Y-67560392D01*
X89252816Y-67512393D01*
X89350722Y-67468803D01*
X89350724Y-67468802D01*
X89356752Y-67466118D01*
X89369857Y-67456597D01*
X89501789Y-67360742D01*
X89511253Y-67353866D01*
X89546629Y-67314577D01*
X89634621Y-67216852D01*
X89634622Y-67216851D01*
X89639040Y-67211944D01*
X89700171Y-67106062D01*
X90083493Y-67106062D01*
X90092789Y-67118077D01*
X90143994Y-67153931D01*
X90153489Y-67159414D01*
X90350947Y-67251490D01*
X90361239Y-67255236D01*
X90571688Y-67311625D01*
X90582481Y-67313528D01*
X90799525Y-67332517D01*
X90810475Y-67332517D01*
X91027519Y-67313528D01*
X91038312Y-67311625D01*
X91248761Y-67255236D01*
X91259053Y-67251490D01*
X91456511Y-67159414D01*
X91466006Y-67153931D01*
X91518048Y-67117491D01*
X91526424Y-67107012D01*
X91519356Y-67093566D01*
X90817812Y-66392022D01*
X90803868Y-66384408D01*
X90802035Y-66384539D01*
X90795420Y-66388790D01*
X90089923Y-67094287D01*
X90083493Y-67106062D01*
X89700171Y-67106062D01*
X89725827Y-67061625D01*
X89731223Y-67052279D01*
X89731224Y-67052278D01*
X89734527Y-67046556D01*
X89793542Y-66864928D01*
X89797025Y-66831795D01*
X89811508Y-66693991D01*
X89838521Y-66628335D01*
X89847723Y-66618067D01*
X90432978Y-66032812D01*
X90439356Y-66021132D01*
X91169408Y-66021132D01*
X91169539Y-66022965D01*
X91173790Y-66029580D01*
X91879287Y-66735077D01*
X91891062Y-66741507D01*
X91903077Y-66732211D01*
X91938931Y-66681006D01*
X91944414Y-66671511D01*
X92036490Y-66474053D01*
X92040236Y-66463761D01*
X92096625Y-66253312D01*
X92098528Y-66242519D01*
X92117517Y-66025475D01*
X92117517Y-66014525D01*
X92098528Y-65797481D01*
X92096625Y-65786688D01*
X92040236Y-65576239D01*
X92036490Y-65565947D01*
X91944414Y-65368489D01*
X91938931Y-65358994D01*
X91902491Y-65306952D01*
X91892012Y-65298576D01*
X91878566Y-65305644D01*
X91177022Y-66007188D01*
X91169408Y-66021132D01*
X90439356Y-66021132D01*
X90440592Y-66018868D01*
X90440461Y-66017035D01*
X90436210Y-66010420D01*
X89730713Y-65304923D01*
X89718938Y-65298493D01*
X89706923Y-65307789D01*
X89671069Y-65358994D01*
X89665586Y-65368489D01*
X89573510Y-65565947D01*
X89569764Y-65576239D01*
X89511951Y-65792001D01*
X89509747Y-65791410D01*
X89482545Y-65846270D01*
X89421625Y-65882728D01*
X89350664Y-65880463D01*
X89338754Y-65875868D01*
X89188323Y-65808892D01*
X89188315Y-65808889D01*
X89182288Y-65806206D01*
X89088888Y-65786353D01*
X89001944Y-65767872D01*
X89001939Y-65767872D01*
X88995487Y-65766500D01*
X88804513Y-65766500D01*
X88798061Y-65767872D01*
X88798056Y-65767872D01*
X88711112Y-65786353D01*
X88617712Y-65806206D01*
X88611682Y-65808891D01*
X88611681Y-65808891D01*
X88449278Y-65881197D01*
X88449276Y-65881198D01*
X88443248Y-65883882D01*
X88288747Y-65996134D01*
X88284326Y-66001044D01*
X88284325Y-66001045D01*
X88226869Y-66064857D01*
X88160960Y-66138056D01*
X88157659Y-66143774D01*
X88087985Y-66264453D01*
X88065473Y-66303444D01*
X88006458Y-66485072D01*
X87986496Y-66675000D01*
X87987186Y-66681565D01*
X88002976Y-66831795D01*
X88006458Y-66864928D01*
X88065473Y-67046556D01*
X88068776Y-67052278D01*
X88068777Y-67052279D01*
X88074173Y-67061625D01*
X88160960Y-67211944D01*
X88165378Y-67216851D01*
X88165379Y-67216852D01*
X88253371Y-67314577D01*
X88288747Y-67353866D01*
X88298211Y-67360742D01*
X88430144Y-67456597D01*
X88443248Y-67466118D01*
X88449276Y-67468802D01*
X88449278Y-67468803D01*
X88547184Y-67512393D01*
X88601279Y-67558373D01*
X88621929Y-67626300D01*
X88602577Y-67694608D01*
X88547184Y-67742607D01*
X88529221Y-67750605D01*
X88449278Y-67786197D01*
X88449276Y-67786198D01*
X88443248Y-67788882D01*
X88437907Y-67792762D01*
X88437906Y-67792763D01*
X88419117Y-67806414D01*
X88288747Y-67901134D01*
X88284326Y-67906044D01*
X88284325Y-67906045D01*
X88242789Y-67952176D01*
X88160960Y-68043056D01*
X88157659Y-68048774D01*
X88082981Y-68178120D01*
X88065473Y-68208444D01*
X88006458Y-68390072D01*
X88005768Y-68396633D01*
X88005768Y-68396635D01*
X88002459Y-68428116D01*
X87986496Y-68580000D01*
X66708550Y-68580000D01*
X66640052Y-68433103D01*
X66640049Y-68433098D01*
X66637726Y-68428116D01*
X66536836Y-68284031D01*
X66509560Y-68245076D01*
X66509558Y-68245073D01*
X66506401Y-68240565D01*
X66344503Y-68078667D01*
X66339995Y-68075510D01*
X66339992Y-68075508D01*
X66259517Y-68019159D01*
X66156952Y-67947342D01*
X66151970Y-67945019D01*
X66151965Y-67945016D01*
X65954428Y-67852904D01*
X65954427Y-67852904D01*
X65949446Y-67850581D01*
X65944138Y-67849159D01*
X65944136Y-67849158D01*
X65733605Y-67792746D01*
X65733603Y-67792746D01*
X65728290Y-67791322D01*
X65500203Y-67771367D01*
X65272116Y-67791322D01*
X65266803Y-67792746D01*
X65266801Y-67792746D01*
X65056270Y-67849158D01*
X65056268Y-67849159D01*
X65050960Y-67850581D01*
X65045979Y-67852904D01*
X65045978Y-67852904D01*
X64848441Y-67945016D01*
X64848436Y-67945019D01*
X64843454Y-67947342D01*
X64740889Y-68019159D01*
X64660414Y-68075508D01*
X64660411Y-68075510D01*
X64655903Y-68078667D01*
X64494005Y-68240565D01*
X64490848Y-68245073D01*
X64490846Y-68245076D01*
X64437023Y-68321943D01*
X64362680Y-68428116D01*
X64360357Y-68433098D01*
X64359321Y-68434892D01*
X64307937Y-68483884D01*
X64238224Y-68497319D01*
X64172313Y-68470931D01*
X64141085Y-68434892D01*
X64140049Y-68433098D01*
X64137726Y-68428116D01*
X64063383Y-68321943D01*
X64009560Y-68245076D01*
X64009558Y-68245073D01*
X64006401Y-68240565D01*
X63844503Y-68078667D01*
X63839995Y-68075510D01*
X63839992Y-68075508D01*
X63759517Y-68019159D01*
X63656952Y-67947342D01*
X63651970Y-67945019D01*
X63651965Y-67945016D01*
X63454428Y-67852904D01*
X63454427Y-67852904D01*
X63449446Y-67850581D01*
X63444138Y-67849159D01*
X63444136Y-67849158D01*
X63233605Y-67792746D01*
X63233603Y-67792746D01*
X63228290Y-67791322D01*
X63000203Y-67771367D01*
X62772116Y-67791322D01*
X62766803Y-67792746D01*
X62766801Y-67792746D01*
X62556270Y-67849158D01*
X62556268Y-67849159D01*
X62550960Y-67850581D01*
X62545979Y-67852904D01*
X62545978Y-67852904D01*
X62348441Y-67945016D01*
X62348436Y-67945019D01*
X62343454Y-67947342D01*
X62240889Y-68019159D01*
X62160414Y-68075508D01*
X62160411Y-68075510D01*
X62155903Y-68078667D01*
X61994005Y-68240565D01*
X61990848Y-68245073D01*
X61990846Y-68245076D01*
X61963570Y-68284031D01*
X61862680Y-68428116D01*
X61860357Y-68433098D01*
X61860354Y-68433103D01*
X61787306Y-68589757D01*
X61765919Y-68635622D01*
X61764497Y-68640930D01*
X61764496Y-68640932D01*
X61728249Y-68776206D01*
X61706660Y-68856778D01*
X61686705Y-69084865D01*
X60571441Y-69084865D01*
X60533100Y-68925167D01*
X60530054Y-68915793D01*
X60443005Y-68705638D01*
X60438523Y-68696843D01*
X60319675Y-68502902D01*
X60313875Y-68494918D01*
X60166140Y-68321943D01*
X60159176Y-68314979D01*
X59986201Y-68167244D01*
X59978217Y-68161444D01*
X59784276Y-68042596D01*
X59775481Y-68038114D01*
X59565326Y-67951065D01*
X59555952Y-67948019D01*
X59364933Y-67902159D01*
X59350849Y-67902864D01*
X59347318Y-67911745D01*
X59347318Y-69115686D01*
X58839318Y-69115686D01*
X58839318Y-67916045D01*
X58835345Y-67902514D01*
X58825887Y-67901154D01*
X58630684Y-67948019D01*
X58621310Y-67951065D01*
X58411155Y-68038114D01*
X58402360Y-68042596D01*
X58208419Y-68161444D01*
X58200435Y-68167244D01*
X58027460Y-68314979D01*
X58020496Y-68321943D01*
X57872761Y-68494918D01*
X57866961Y-68502902D01*
X57748113Y-68696843D01*
X57743631Y-68705638D01*
X57656582Y-68915793D01*
X57653536Y-68925167D01*
X57607676Y-69116186D01*
X55521818Y-69116186D01*
X55521818Y-68339667D01*
X55515063Y-68277485D01*
X55463933Y-68141096D01*
X55376579Y-68024540D01*
X55260023Y-67937186D01*
X55123634Y-67886056D01*
X55061452Y-67879301D01*
X52965184Y-67879301D01*
X52903002Y-67886056D01*
X52766613Y-67937186D01*
X52650057Y-68024540D01*
X52562703Y-68141096D01*
X52511573Y-68277485D01*
X52504818Y-68339667D01*
X52504818Y-70435935D01*
X52511573Y-70498117D01*
X52562703Y-70634506D01*
X52650057Y-70751062D01*
X52766613Y-70838416D01*
X52775021Y-70841568D01*
X52866916Y-70876018D01*
X52923680Y-70918660D01*
X52948380Y-70985221D01*
X52933173Y-71054570D01*
X52882887Y-71104688D01*
X52822686Y-71120000D01*
X49873049Y-71120000D01*
X49804928Y-71099998D01*
X49758435Y-71046342D01*
X49748331Y-70976068D01*
X49777825Y-70911488D01*
X49840438Y-70872293D01*
X50006618Y-70827765D01*
X50006620Y-70827764D01*
X50011928Y-70826342D01*
X50019646Y-70822743D01*
X50214447Y-70731907D01*
X50214452Y-70731904D01*
X50219434Y-70729581D01*
X50369292Y-70624649D01*
X50402474Y-70601415D01*
X50402477Y-70601413D01*
X50406985Y-70598256D01*
X50568883Y-70436358D01*
X50579835Y-70420718D01*
X50697051Y-70253315D01*
X50700208Y-70248807D01*
X50702531Y-70243825D01*
X50702534Y-70243820D01*
X50794646Y-70046283D01*
X50794646Y-70046282D01*
X50796969Y-70041301D01*
X50799073Y-70033451D01*
X50854804Y-69825460D01*
X50854804Y-69825458D01*
X50856228Y-69820145D01*
X50876183Y-69592058D01*
X50856228Y-69363971D01*
X50850546Y-69342765D01*
X50798392Y-69148125D01*
X50798391Y-69148123D01*
X50796969Y-69142815D01*
X50791425Y-69130925D01*
X50702534Y-68940296D01*
X50702531Y-68940291D01*
X50700208Y-68935309D01*
X50568883Y-68747758D01*
X50406985Y-68585860D01*
X50402477Y-68582703D01*
X50402474Y-68582701D01*
X50277107Y-68494918D01*
X50219434Y-68454535D01*
X50214450Y-68452211D01*
X50212157Y-68450887D01*
X50163164Y-68399505D01*
X50149728Y-68329791D01*
X50176114Y-68263880D01*
X50212157Y-68232649D01*
X50223687Y-68225992D01*
X50275733Y-68189549D01*
X50284109Y-68179070D01*
X50277041Y-68165624D01*
X49575497Y-67464080D01*
X49561553Y-67456466D01*
X49559720Y-67456597D01*
X49553105Y-67460848D01*
X48847608Y-68166345D01*
X48841178Y-68178120D01*
X48850474Y-68190135D01*
X48901683Y-68225992D01*
X48913213Y-68232649D01*
X48962206Y-68284031D01*
X48975643Y-68353745D01*
X48949256Y-68419656D01*
X48913213Y-68450887D01*
X48910920Y-68452211D01*
X48905936Y-68454535D01*
X48848263Y-68494918D01*
X48722896Y-68582701D01*
X48722893Y-68582703D01*
X48718385Y-68585860D01*
X48556487Y-68747758D01*
X48425162Y-68935309D01*
X48422839Y-68940291D01*
X48422836Y-68940296D01*
X48333945Y-69130925D01*
X48328401Y-69142815D01*
X48326979Y-69148123D01*
X48326978Y-69148125D01*
X48274824Y-69342765D01*
X48269142Y-69363971D01*
X48249187Y-69592058D01*
X48269142Y-69820145D01*
X48270566Y-69825458D01*
X48270566Y-69825460D01*
X48326298Y-70033451D01*
X48328401Y-70041301D01*
X48330724Y-70046282D01*
X48330724Y-70046283D01*
X48422836Y-70243820D01*
X48422839Y-70243825D01*
X48425162Y-70248807D01*
X48428319Y-70253315D01*
X48545536Y-70420718D01*
X48556487Y-70436358D01*
X48718385Y-70598256D01*
X48722893Y-70601413D01*
X48722896Y-70601415D01*
X48756078Y-70624649D01*
X48905936Y-70729581D01*
X48910918Y-70731904D01*
X48910923Y-70731907D01*
X49105724Y-70822743D01*
X49113442Y-70826342D01*
X49118750Y-70827764D01*
X49118752Y-70827765D01*
X49284932Y-70872293D01*
X49345555Y-70909245D01*
X49376576Y-70973106D01*
X49368148Y-71043600D01*
X49322945Y-71098347D01*
X49252321Y-71120000D01*
X36830000Y-71120000D01*
X36830000Y-88265000D01*
X30584987Y-88265000D01*
X30670801Y-88179186D01*
X30677822Y-88166330D01*
X30670049Y-88155662D01*
X30655958Y-88144533D01*
X30647380Y-88138834D01*
X30442936Y-88025976D01*
X30433536Y-88021751D01*
X30213403Y-87943798D01*
X30203446Y-87941168D01*
X29973539Y-87900214D01*
X29963288Y-87899245D01*
X29729777Y-87896392D01*
X29719493Y-87897112D01*
X29488663Y-87932434D01*
X29478635Y-87934823D01*
X29256673Y-88007371D01*
X29247163Y-88011368D01*
X29040034Y-88119192D01*
X29031314Y-88124684D01*
X28988801Y-88156604D01*
X28980348Y-88167929D01*
X25400000Y-88167929D01*
X25400000Y-85403921D01*
X28344910Y-85403921D01*
X28351665Y-85466103D01*
X28402795Y-85602492D01*
X28490149Y-85719048D01*
X28606705Y-85806402D01*
X28743094Y-85857532D01*
X28805276Y-85864287D01*
X30851544Y-85864287D01*
X30913726Y-85857532D01*
X31050115Y-85806402D01*
X31166671Y-85719048D01*
X31254025Y-85602492D01*
X31305155Y-85466103D01*
X31311910Y-85403921D01*
X31311910Y-83357653D01*
X31305155Y-83295471D01*
X31254025Y-83159082D01*
X31166671Y-83042526D01*
X31050115Y-82955172D01*
X30913726Y-82904042D01*
X30851544Y-82897287D01*
X28805276Y-82897287D01*
X28743094Y-82904042D01*
X28606705Y-82955172D01*
X28490149Y-83042526D01*
X28402795Y-83159082D01*
X28351665Y-83295471D01*
X28344910Y-83357653D01*
X28344910Y-85403921D01*
X25400000Y-85403921D01*
X25400000Y-75958411D01*
X30393493Y-75958411D01*
X30402789Y-75970426D01*
X30453994Y-76006280D01*
X30463489Y-76011763D01*
X30660947Y-76103839D01*
X30671239Y-76107585D01*
X30881688Y-76163974D01*
X30892481Y-76165877D01*
X31109525Y-76184866D01*
X31120475Y-76184866D01*
X31337519Y-76165877D01*
X31348312Y-76163974D01*
X31558761Y-76107585D01*
X31569053Y-76103839D01*
X31766511Y-76011763D01*
X31776006Y-76006280D01*
X31828048Y-75969840D01*
X31836424Y-75959361D01*
X31829356Y-75945915D01*
X31127812Y-75244371D01*
X31113868Y-75236757D01*
X31112035Y-75236888D01*
X31105420Y-75241139D01*
X30399923Y-75946636D01*
X30393493Y-75958411D01*
X25400000Y-75958411D01*
X25400000Y-74877824D01*
X29802483Y-74877824D01*
X29821472Y-75094868D01*
X29823375Y-75105661D01*
X29879764Y-75316110D01*
X29883510Y-75326402D01*
X29975586Y-75523860D01*
X29981069Y-75533355D01*
X30017509Y-75585397D01*
X30027988Y-75593773D01*
X30041434Y-75586705D01*
X30742978Y-74885161D01*
X30749356Y-74873481D01*
X31479408Y-74873481D01*
X31479539Y-74875314D01*
X31483790Y-74881929D01*
X32189287Y-75587426D01*
X32201062Y-75593856D01*
X32213077Y-75584560D01*
X32248931Y-75533355D01*
X32254414Y-75523860D01*
X32346490Y-75326402D01*
X32350236Y-75316110D01*
X32406625Y-75105661D01*
X32408528Y-75094868D01*
X32427517Y-74877824D01*
X32427517Y-74866874D01*
X32408528Y-74649830D01*
X32406625Y-74639037D01*
X32350236Y-74428588D01*
X32346490Y-74418296D01*
X32254414Y-74220838D01*
X32248931Y-74211343D01*
X32212491Y-74159301D01*
X32202012Y-74150925D01*
X32188566Y-74157993D01*
X31487022Y-74859537D01*
X31479408Y-74873481D01*
X30749356Y-74873481D01*
X30750592Y-74871217D01*
X30750461Y-74869384D01*
X30746210Y-74862769D01*
X30040713Y-74157272D01*
X30028938Y-74150842D01*
X30016923Y-74160138D01*
X29981069Y-74211343D01*
X29975586Y-74220838D01*
X29883510Y-74418296D01*
X29879764Y-74428588D01*
X29823375Y-74639037D01*
X29821472Y-74649830D01*
X29802483Y-74866874D01*
X29802483Y-74877824D01*
X25400000Y-74877824D01*
X25400000Y-73785337D01*
X30393576Y-73785337D01*
X30400644Y-73798783D01*
X31102188Y-74500327D01*
X31116132Y-74507941D01*
X31117965Y-74507810D01*
X31124580Y-74503559D01*
X31830077Y-73798062D01*
X31836507Y-73786287D01*
X31827211Y-73774272D01*
X31776006Y-73738418D01*
X31766511Y-73732935D01*
X31569053Y-73640859D01*
X31558761Y-73637113D01*
X31348312Y-73580724D01*
X31337519Y-73578821D01*
X31120475Y-73559832D01*
X31109525Y-73559832D01*
X30892481Y-73578821D01*
X30881688Y-73580724D01*
X30671239Y-73637113D01*
X30660947Y-73640859D01*
X30463489Y-73732935D01*
X30453994Y-73738418D01*
X30401952Y-73774858D01*
X30393576Y-73785337D01*
X25400000Y-73785337D01*
X25400000Y-72220483D01*
X29806500Y-72220483D01*
X29813255Y-72282665D01*
X29864385Y-72419054D01*
X29951739Y-72535610D01*
X30068295Y-72622964D01*
X30204684Y-72674094D01*
X30266866Y-72680849D01*
X31963134Y-72680849D01*
X32025316Y-72674094D01*
X32161705Y-72622964D01*
X32278261Y-72535610D01*
X32365615Y-72419054D01*
X32416745Y-72282665D01*
X32423500Y-72220483D01*
X32423500Y-70524215D01*
X32416745Y-70462033D01*
X32365615Y-70325644D01*
X32278261Y-70209088D01*
X32161705Y-70121734D01*
X32025316Y-70070604D01*
X31963134Y-70063849D01*
X30266866Y-70063849D01*
X30204684Y-70070604D01*
X30068295Y-70121734D01*
X29951739Y-70209088D01*
X29864385Y-70325644D01*
X29813255Y-70462033D01*
X29806500Y-70524215D01*
X29806500Y-72220483D01*
X25400000Y-72220483D01*
X25400000Y-67097533D01*
X48250168Y-67097533D01*
X48269157Y-67314577D01*
X48271060Y-67325370D01*
X48327449Y-67535819D01*
X48331195Y-67546111D01*
X48423271Y-67743569D01*
X48428754Y-67753064D01*
X48465194Y-67805106D01*
X48475673Y-67813482D01*
X48489119Y-67806414D01*
X49190663Y-67104870D01*
X49197041Y-67093190D01*
X49927093Y-67093190D01*
X49927224Y-67095023D01*
X49931475Y-67101638D01*
X50636972Y-67807135D01*
X50648747Y-67813565D01*
X50660762Y-67804269D01*
X50696616Y-67753064D01*
X50702099Y-67743569D01*
X50794175Y-67546111D01*
X50797921Y-67535819D01*
X50854310Y-67325370D01*
X50856213Y-67314577D01*
X50875202Y-67097533D01*
X50875202Y-67086583D01*
X50856213Y-66869539D01*
X50854310Y-66858746D01*
X50797921Y-66648297D01*
X50794175Y-66638005D01*
X50702099Y-66440547D01*
X50696616Y-66431052D01*
X50660176Y-66379010D01*
X50649697Y-66370634D01*
X50636251Y-66377702D01*
X49934707Y-67079246D01*
X49927093Y-67093190D01*
X49197041Y-67093190D01*
X49198277Y-67090926D01*
X49198146Y-67089093D01*
X49193895Y-67082478D01*
X48488398Y-66376981D01*
X48476623Y-66370551D01*
X48464608Y-66379847D01*
X48428754Y-66431052D01*
X48423271Y-66440547D01*
X48331195Y-66638005D01*
X48327449Y-66648297D01*
X48271060Y-66858746D01*
X48269157Y-66869539D01*
X48250168Y-67086583D01*
X48250168Y-67097533D01*
X25400000Y-67097533D01*
X25400000Y-66005046D01*
X48841261Y-66005046D01*
X48848329Y-66018492D01*
X49549873Y-66720036D01*
X49563817Y-66727650D01*
X49565650Y-66727519D01*
X49572265Y-66723268D01*
X50277762Y-66017771D01*
X50284192Y-66005996D01*
X50274896Y-65993981D01*
X50223691Y-65958127D01*
X50214196Y-65952644D01*
X50016738Y-65860568D01*
X50006446Y-65856822D01*
X49916357Y-65832683D01*
X64122100Y-65832683D01*
X64136456Y-66051710D01*
X64190486Y-66264453D01*
X64282380Y-66463788D01*
X64285711Y-66468501D01*
X64285712Y-66468503D01*
X64398671Y-66628335D01*
X64409062Y-66643038D01*
X64435133Y-66668435D01*
X64503543Y-66735077D01*
X64566288Y-66796201D01*
X64571084Y-66799406D01*
X64571087Y-66799408D01*
X64645096Y-66848859D01*
X64748793Y-66918147D01*
X64754096Y-66920425D01*
X64754099Y-66920427D01*
X64927927Y-66995109D01*
X64950465Y-67004792D01*
X65107258Y-67040271D01*
X65145176Y-67048851D01*
X65164550Y-67053235D01*
X65170321Y-67053462D01*
X65170323Y-67053462D01*
X65243739Y-67056346D01*
X65383878Y-67061852D01*
X65475547Y-67048561D01*
X65595389Y-67031185D01*
X65595394Y-67031184D01*
X65601103Y-67030356D01*
X65606567Y-67028501D01*
X65606572Y-67028500D01*
X65761113Y-66976040D01*
X65808951Y-66959801D01*
X66000462Y-66852550D01*
X66169220Y-66712195D01*
X66264184Y-66598014D01*
X75252005Y-66598014D01*
X75258760Y-66660196D01*
X75309890Y-66796585D01*
X75397244Y-66913141D01*
X75513800Y-67000495D01*
X75650189Y-67051625D01*
X75712371Y-67058380D01*
X77180239Y-67058380D01*
X77242421Y-67051625D01*
X77378810Y-67000495D01*
X77495366Y-66913141D01*
X77582720Y-66796585D01*
X77633850Y-66660196D01*
X77640605Y-66598014D01*
X77640605Y-65130146D01*
X77633850Y-65067964D01*
X77582720Y-64931575D01*
X77495366Y-64815019D01*
X77378810Y-64727665D01*
X77242421Y-64676535D01*
X77180239Y-64669780D01*
X75712371Y-64669780D01*
X75650189Y-64676535D01*
X75513800Y-64727665D01*
X75397244Y-64815019D01*
X75309890Y-64931575D01*
X75258760Y-65067964D01*
X75252005Y-65130146D01*
X75252005Y-66598014D01*
X66264184Y-66598014D01*
X66309575Y-66543437D01*
X66416826Y-66351926D01*
X66487381Y-66144078D01*
X66488209Y-66138369D01*
X66488210Y-66138364D01*
X66509395Y-65992251D01*
X66518877Y-65926853D01*
X66520521Y-65864080D01*
X66508178Y-65729752D01*
X66500966Y-65651258D01*
X66500965Y-65651255D01*
X66500437Y-65645504D01*
X66440856Y-65434248D01*
X66426474Y-65405083D01*
X66346330Y-65242568D01*
X66343775Y-65237387D01*
X66217262Y-65067964D01*
X66215898Y-65066138D01*
X66215897Y-65066137D01*
X66212445Y-65061514D01*
X66087172Y-64945713D01*
X66055503Y-64916438D01*
X66055500Y-64916436D01*
X66051263Y-64912519D01*
X65865628Y-64795393D01*
X65661758Y-64714056D01*
X65656090Y-64712929D01*
X65656088Y-64712928D01*
X65452146Y-64672362D01*
X65452142Y-64672362D01*
X65446478Y-64671235D01*
X65440703Y-64671159D01*
X65440699Y-64671159D01*
X65330068Y-64669711D01*
X65227000Y-64668361D01*
X65221303Y-64669340D01*
X65221302Y-64669340D01*
X65087090Y-64692402D01*
X65010673Y-64705533D01*
X64804743Y-64781505D01*
X64799782Y-64784457D01*
X64799781Y-64784457D01*
X64621074Y-64890776D01*
X64621071Y-64890778D01*
X64616106Y-64893732D01*
X64451079Y-65038457D01*
X64315190Y-65210831D01*
X64312499Y-65215947D01*
X64312497Y-65215949D01*
X64232242Y-65368489D01*
X64212989Y-65405083D01*
X64147899Y-65614707D01*
X64122100Y-65832683D01*
X49916357Y-65832683D01*
X49795997Y-65800433D01*
X49785204Y-65798530D01*
X49568160Y-65779541D01*
X49557210Y-65779541D01*
X49340166Y-65798530D01*
X49329373Y-65800433D01*
X49118924Y-65856822D01*
X49108632Y-65860568D01*
X48911174Y-65952644D01*
X48901679Y-65958127D01*
X48849637Y-65994567D01*
X48841261Y-66005046D01*
X25400000Y-66005046D01*
X25400000Y-65231624D01*
X28956121Y-65231624D01*
X28960488Y-65237774D01*
X29160063Y-65354397D01*
X29169346Y-65358844D01*
X29387507Y-65442152D01*
X29397405Y-65445028D01*
X29626244Y-65491585D01*
X29636472Y-65492804D01*
X29869840Y-65501362D01*
X29880126Y-65500895D01*
X30111762Y-65471222D01*
X30121840Y-65469080D01*
X30345514Y-65401974D01*
X30355112Y-65398212D01*
X30564824Y-65295476D01*
X30573669Y-65290203D01*
X30646369Y-65238347D01*
X30654770Y-65227646D01*
X30647783Y-65214493D01*
X29820312Y-64387022D01*
X29806368Y-64379408D01*
X29804535Y-64379539D01*
X29797920Y-64383790D01*
X28963381Y-65218329D01*
X28956121Y-65231624D01*
X25400000Y-65231624D01*
X25400000Y-63983799D01*
X28320158Y-63983799D01*
X28333602Y-64216942D01*
X28335035Y-64227144D01*
X28386373Y-64454949D01*
X28389456Y-64464789D01*
X28477314Y-64681156D01*
X28481957Y-64690347D01*
X28583055Y-64855325D01*
X28593511Y-64864785D01*
X28602289Y-64861001D01*
X29435478Y-64027812D01*
X29441856Y-64016132D01*
X30171908Y-64016132D01*
X30172039Y-64017965D01*
X30176290Y-64024580D01*
X31007545Y-64855835D01*
X31019555Y-64862394D01*
X31031294Y-64853426D01*
X31080018Y-64785619D01*
X31085329Y-64776780D01*
X31188791Y-64567442D01*
X31192589Y-64557849D01*
X31260474Y-64334413D01*
X31262651Y-64324343D01*
X31293369Y-64091015D01*
X31293888Y-64084340D01*
X31295501Y-64018364D01*
X31295307Y-64011647D01*
X31276025Y-63777108D01*
X31274342Y-63766946D01*
X31217452Y-63540453D01*
X31214134Y-63530706D01*
X31121013Y-63316542D01*
X31116146Y-63307467D01*
X31030965Y-63175796D01*
X31020279Y-63166593D01*
X31010714Y-63170996D01*
X30179522Y-64002188D01*
X30171908Y-64016132D01*
X29441856Y-64016132D01*
X29443092Y-64013868D01*
X29442961Y-64012035D01*
X29438710Y-64005420D01*
X28607392Y-63174102D01*
X28595856Y-63167802D01*
X28583573Y-63177426D01*
X28516536Y-63275698D01*
X28511443Y-63284662D01*
X28413119Y-63496483D01*
X28409562Y-63506151D01*
X28347157Y-63731178D01*
X28345226Y-63741298D01*
X28320410Y-63973510D01*
X28320158Y-63983799D01*
X25400000Y-63983799D01*
X25400000Y-62802142D01*
X28959438Y-62802142D01*
X28966184Y-62814474D01*
X29794688Y-63642978D01*
X29808632Y-63650592D01*
X29810465Y-63650461D01*
X29817080Y-63646210D01*
X30649891Y-62813399D01*
X30656912Y-62800543D01*
X30649139Y-62789875D01*
X30635048Y-62778746D01*
X30626470Y-62773047D01*
X30422026Y-62660189D01*
X30412626Y-62655964D01*
X30192493Y-62578011D01*
X30182536Y-62575381D01*
X29952629Y-62534427D01*
X29942378Y-62533458D01*
X29708867Y-62530605D01*
X29698583Y-62531325D01*
X29467753Y-62566647D01*
X29457725Y-62569036D01*
X29235763Y-62641584D01*
X29226253Y-62645581D01*
X29019124Y-62753405D01*
X29010404Y-62758897D01*
X28967891Y-62790817D01*
X28959438Y-62802142D01*
X25400000Y-62802142D01*
X25400000Y-58978631D01*
X28319360Y-58978631D01*
X28319657Y-58983783D01*
X28319657Y-58983787D01*
X28328747Y-59141423D01*
X28333403Y-59222171D01*
X28334540Y-59227217D01*
X28334541Y-59227223D01*
X28358723Y-59334527D01*
X28387033Y-59460147D01*
X28388975Y-59464929D01*
X28388976Y-59464933D01*
X28466154Y-59654998D01*
X28478811Y-59686169D01*
X28606272Y-59894166D01*
X28765992Y-60078553D01*
X28953683Y-60234377D01*
X29164304Y-60357453D01*
X29392198Y-60444478D01*
X29397264Y-60445509D01*
X29397265Y-60445509D01*
X29626167Y-60492080D01*
X29626171Y-60492080D01*
X29631246Y-60493113D01*
X29636422Y-60493303D01*
X29636424Y-60493303D01*
X29869863Y-60501863D01*
X29869867Y-60501863D01*
X29875027Y-60502052D01*
X29880147Y-60501396D01*
X29880149Y-60501396D01*
X29956877Y-60491567D01*
X30116994Y-60471055D01*
X30121943Y-60469570D01*
X30121949Y-60469569D01*
X30345700Y-60402440D01*
X30345699Y-60402440D01*
X30350650Y-60400955D01*
X30569719Y-60293634D01*
X30573924Y-60290634D01*
X30573930Y-60290631D01*
X30764114Y-60154974D01*
X30764116Y-60154972D01*
X30768318Y-60151975D01*
X30941114Y-59979781D01*
X31083466Y-59781677D01*
X31108006Y-59732025D01*
X31189256Y-59567626D01*
X31189257Y-59567624D01*
X31191550Y-59562984D01*
X31221341Y-59464933D01*
X31260962Y-59334527D01*
X31260963Y-59334521D01*
X31262466Y-59329575D01*
X31287269Y-59141174D01*
X31293870Y-59091038D01*
X31293870Y-59091034D01*
X31294307Y-59087717D01*
X31296084Y-59015000D01*
X31276096Y-58771876D01*
X31216667Y-58535280D01*
X31119394Y-58311568D01*
X31004147Y-58133423D01*
X30989700Y-58111091D01*
X30989698Y-58111088D01*
X30986890Y-58106748D01*
X30978208Y-58097206D01*
X30826190Y-57930141D01*
X30826188Y-57930140D01*
X30822712Y-57926319D01*
X30818661Y-57923120D01*
X30818657Y-57923116D01*
X30635325Y-57778329D01*
X30635321Y-57778327D01*
X30631270Y-57775127D01*
X30417705Y-57657233D01*
X30412836Y-57655509D01*
X30412832Y-57655507D01*
X30192627Y-57577528D01*
X30192623Y-57577527D01*
X30187752Y-57575802D01*
X30182659Y-57574895D01*
X30182656Y-57574894D01*
X29952677Y-57533928D01*
X29952671Y-57533927D01*
X29947588Y-57533022D01*
X29867880Y-57532048D01*
X29708832Y-57530105D01*
X29708830Y-57530105D01*
X29703662Y-57530042D01*
X29462524Y-57566941D01*
X29230650Y-57642729D01*
X29226058Y-57645119D01*
X29226059Y-57645119D01*
X29034190Y-57745000D01*
X29014269Y-57755370D01*
X29010136Y-57758473D01*
X29010133Y-57758475D01*
X28823325Y-57898735D01*
X28819190Y-57901840D01*
X28650653Y-58078204D01*
X28647739Y-58082476D01*
X28647738Y-58082477D01*
X28616450Y-58128343D01*
X28513184Y-58279726D01*
X28497296Y-58313953D01*
X28413217Y-58495086D01*
X28410474Y-58500995D01*
X28345283Y-58736067D01*
X28319360Y-58978631D01*
X25400000Y-58978631D01*
X25400000Y-53978631D01*
X28319360Y-53978631D01*
X28319657Y-53983783D01*
X28319657Y-53983787D01*
X28326774Y-54107215D01*
X28333403Y-54222171D01*
X28334540Y-54227217D01*
X28334541Y-54227223D01*
X28357304Y-54328228D01*
X28387033Y-54460147D01*
X28388975Y-54464929D01*
X28388976Y-54464933D01*
X28468736Y-54661357D01*
X28478811Y-54686169D01*
X28518589Y-54751081D01*
X28593574Y-54873444D01*
X28606272Y-54894166D01*
X28765992Y-55078553D01*
X28953683Y-55234377D01*
X29164304Y-55357453D01*
X29392198Y-55444478D01*
X29397264Y-55445509D01*
X29397265Y-55445509D01*
X29626167Y-55492080D01*
X29626171Y-55492080D01*
X29631246Y-55493113D01*
X29636422Y-55493303D01*
X29636424Y-55493303D01*
X29869863Y-55501863D01*
X29869867Y-55501863D01*
X29875027Y-55502052D01*
X29880147Y-55501396D01*
X29880149Y-55501396D01*
X29956877Y-55491567D01*
X30116994Y-55471055D01*
X30121943Y-55469570D01*
X30121949Y-55469569D01*
X30345700Y-55402440D01*
X30345699Y-55402440D01*
X30350650Y-55400955D01*
X30569719Y-55293634D01*
X30573924Y-55290634D01*
X30573930Y-55290631D01*
X30764114Y-55154974D01*
X30764116Y-55154972D01*
X30768318Y-55151975D01*
X30941114Y-54979781D01*
X30946861Y-54971784D01*
X30968140Y-54942170D01*
X31083466Y-54781677D01*
X31092380Y-54763642D01*
X31189256Y-54567626D01*
X31189257Y-54567624D01*
X31191550Y-54562984D01*
X31244395Y-54389053D01*
X31260962Y-54334527D01*
X31260963Y-54334521D01*
X31262466Y-54329575D01*
X31283697Y-54168312D01*
X31293870Y-54091038D01*
X31293870Y-54091034D01*
X31294307Y-54087717D01*
X31296084Y-54015000D01*
X31276096Y-53771876D01*
X31216667Y-53535280D01*
X31119394Y-53311568D01*
X30986890Y-53106748D01*
X30822712Y-52926319D01*
X30818661Y-52923120D01*
X30818657Y-52923116D01*
X30635325Y-52778329D01*
X30635321Y-52778327D01*
X30631270Y-52775127D01*
X30609625Y-52763178D01*
X30540342Y-52724932D01*
X30417705Y-52657233D01*
X30412836Y-52655509D01*
X30412832Y-52655507D01*
X30192627Y-52577528D01*
X30192623Y-52577527D01*
X30187752Y-52575802D01*
X30182659Y-52574895D01*
X30182656Y-52574894D01*
X29952677Y-52533928D01*
X29952671Y-52533927D01*
X29947588Y-52533022D01*
X29867880Y-52532048D01*
X29708832Y-52530105D01*
X29708830Y-52530105D01*
X29703662Y-52530042D01*
X29462524Y-52566941D01*
X29230650Y-52642729D01*
X29226058Y-52645119D01*
X29226059Y-52645119D01*
X29037980Y-52743027D01*
X29014269Y-52755370D01*
X29010136Y-52758473D01*
X29010133Y-52758475D01*
X28823325Y-52898735D01*
X28819190Y-52901840D01*
X28650653Y-53078204D01*
X28647739Y-53082476D01*
X28647738Y-53082477D01*
X28628219Y-53111091D01*
X28513184Y-53279726D01*
X28497461Y-53313598D01*
X28415003Y-53491239D01*
X28410474Y-53500995D01*
X28345283Y-53736067D01*
X28319360Y-53978631D01*
X25400000Y-53978631D01*
X25400000Y-50038134D01*
X28324000Y-50038134D01*
X28330755Y-50100316D01*
X28381885Y-50236705D01*
X28469239Y-50353261D01*
X28585795Y-50440615D01*
X28722184Y-50491745D01*
X28784366Y-50498500D01*
X30830634Y-50498500D01*
X30892816Y-50491745D01*
X31029205Y-50440615D01*
X31145761Y-50353261D01*
X31233115Y-50236705D01*
X31284245Y-50100316D01*
X31291000Y-50038134D01*
X31291000Y-47991866D01*
X31284245Y-47929684D01*
X31233115Y-47793295D01*
X31145761Y-47676739D01*
X31029205Y-47589385D01*
X30892816Y-47538255D01*
X30830634Y-47531500D01*
X28784366Y-47531500D01*
X28722184Y-47538255D01*
X28585795Y-47589385D01*
X28469239Y-47676739D01*
X28381885Y-47793295D01*
X28330755Y-47929684D01*
X28324000Y-47991866D01*
X28324000Y-50038134D01*
X25400000Y-50038134D01*
X25400000Y-45846000D01*
X25420002Y-45777879D01*
X25473658Y-45731386D01*
X25526000Y-45720000D01*
X50674000Y-45720000D01*
X50742121Y-45740002D01*
G37*
%TD.AperFunction*%
%TD*%
M02*
