%TF.GenerationSoftware,KiCad,Pcbnew,(6.0.9)*%
%TF.CreationDate,2022-12-19T09:49:19-08:00*%
%TF.ProjectId,TinyG-SuperPid-Integrator,54696e79-472d-4537-9570-65725069642d,rev?*%
%TF.SameCoordinates,Original*%
%TF.FileFunction,Copper,L2,Inr*%
%TF.FilePolarity,Positive*%
%FSLAX46Y46*%
G04 Gerber Fmt 4.6, Leading zero omitted, Abs format (unit mm)*
G04 Created by KiCad (PCBNEW (6.0.9)) date 2022-12-19 09:49:19*
%MOMM*%
%LPD*%
G01*
G04 APERTURE LIST*
%TA.AperFunction,ComponentPad*%
%ADD10C,1.270000*%
%TD*%
%TA.AperFunction,ComponentPad*%
%ADD11R,1.950000X1.950000*%
%TD*%
%TA.AperFunction,ComponentPad*%
%ADD12C,1.950000*%
%TD*%
%TA.AperFunction,ComponentPad*%
%ADD13C,2.000000*%
%TD*%
%TA.AperFunction,ComponentPad*%
%ADD14C,1.600000*%
%TD*%
%TA.AperFunction,ComponentPad*%
%ADD15O,1.600000X1.600000*%
%TD*%
%TA.AperFunction,ComponentPad*%
%ADD16R,1.371600X1.371600*%
%TD*%
%TA.AperFunction,ComponentPad*%
%ADD17C,1.371600*%
%TD*%
%TA.AperFunction,ComponentPad*%
%ADD18R,2.000000X2.000000*%
%TD*%
%TA.AperFunction,ComponentPad*%
%ADD19O,2.000000X2.000000*%
%TD*%
%TA.AperFunction,ComponentPad*%
%ADD20R,1.800000X1.800000*%
%TD*%
%TA.AperFunction,ComponentPad*%
%ADD21O,1.800000X1.800000*%
%TD*%
%TA.AperFunction,ComponentPad*%
%ADD22R,1.408000X1.408000*%
%TD*%
%TA.AperFunction,ComponentPad*%
%ADD23C,1.408000*%
%TD*%
%TA.AperFunction,ComponentPad*%
%ADD24C,3.316000*%
%TD*%
%TA.AperFunction,ComponentPad*%
%ADD25R,1.600000X1.600000*%
%TD*%
%TA.AperFunction,ComponentPad*%
%ADD26C,1.800000*%
%TD*%
%TA.AperFunction,ViaPad*%
%ADD27C,0.800000*%
%TD*%
G04 APERTURE END LIST*
D10*
%TO.N,Net-(J1-Pad1)*%
%TO.C,U2*%
X86995000Y-47585000D03*
%TO.N,Net-(R1-Pad1)*%
X84455000Y-47585000D03*
%TO.N,Net-(R2-Pad1)*%
X81915000Y-47585000D03*
%TO.N,Net-(J1-Pad2)*%
X79375000Y-47585000D03*
%TO.N,GND*%
X79375000Y-57745000D03*
%TO.N,Net-(J2-Pad3)*%
X81915000Y-57745000D03*
%TO.N,Net-(J2-Pad2)*%
X84455000Y-57745000D03*
%TO.N,+5V*%
X86995000Y-57745000D03*
%TD*%
D11*
%TO.N,+5V*%
%TO.C,J2*%
X104775000Y-90170000D03*
D12*
%TO.N,Net-(J2-Pad2)*%
X104775000Y-85170000D03*
%TO.N,Net-(J2-Pad3)*%
X104775000Y-80170000D03*
%TO.N,GND*%
X104775000Y-75170000D03*
%TD*%
D13*
%TO.N,Net-(Cb1-Pad1)*%
%TO.C,L1*%
X45085000Y-73570000D03*
%TO.N,+5V*%
X45085000Y-85640000D03*
%TD*%
D14*
%TO.N,GND*%
%TO.C,RL1*%
X79375000Y-75565000D03*
D15*
%TO.N,+5V*%
X92075000Y-75565000D03*
%TD*%
D16*
%TO.N,Net-(R1-Pad1)*%
%TO.C,R1*%
X76415700Y-48260000D03*
D17*
%TO.N,GND*%
X65290500Y-48260000D03*
%TD*%
D18*
%TO.N,Net-(Cb1-Pad1)*%
%TO.C,D1*%
X54013318Y-69387801D03*
D19*
%TO.N,GND*%
X59093318Y-69387801D03*
%TD*%
D16*
%TO.N,GND*%
%TO.C,R9*%
X79159300Y-86995000D03*
D17*
%TO.N,Net-(R9-Pad2)*%
X90284500Y-86995000D03*
%TD*%
D11*
%TO.N,Net-(J1-Pad1)*%
%TO.C,J1*%
X29807500Y-49015000D03*
D12*
%TO.N,Net-(J1-Pad2)*%
X29807500Y-54015000D03*
%TO.N,Net-(J1-Pad3)*%
X29807500Y-59015000D03*
%TO.N,GND*%
X29807500Y-64015000D03*
%TD*%
D20*
%TO.N,Net-(Cb1-Pad1)*%
%TO.C,U1*%
X58905000Y-72390000D03*
D21*
%TO.N,Net-(Cin1-Pad1)*%
X55105000Y-73660000D03*
%TO.N,Net-(Cb1-Pad2)*%
X58905000Y-74930000D03*
%TO.N,GND*%
X55105000Y-76200000D03*
%TO.N,unconnected-(U1-Pad5)*%
X58905000Y-77470000D03*
%TO.N,+5V*%
X55105000Y-78740000D03*
%TO.N,unconnected-(U1-Pad7)*%
X58905000Y-80010000D03*
%TD*%
D11*
%TO.N,Net-(J5-Pad1)*%
%TO.C,J5*%
X104812500Y-53420000D03*
D12*
%TO.N,GND*%
X104812500Y-48420000D03*
%TD*%
D14*
%TO.N,+5V*%
%TO.C,C2*%
X90805000Y-63520000D03*
%TO.N,GND*%
X90805000Y-66020000D03*
%TD*%
D22*
%TO.N,+5V*%
%TO.C,J4*%
X96365000Y-67782500D03*
D23*
%TO.N,Net-(J4-Pad2)*%
X96365000Y-65282500D03*
%TO.N,Net-(J4-Pad3)*%
X96365000Y-63282500D03*
%TO.N,GND*%
X96365000Y-60782500D03*
D24*
X99035000Y-69282500D03*
X99035000Y-59282500D03*
%TD*%
D16*
%TO.N,Net-(J4-Pad3)*%
%TO.C,R8*%
X79159300Y-83345678D03*
D17*
%TO.N,+5V*%
X90284500Y-83345678D03*
%TD*%
D25*
%TO.N,Net-(Cin1-Pad1)*%
%TO.C,Cin1*%
X31115000Y-71372349D03*
D14*
%TO.N,GND*%
X31115000Y-74872349D03*
%TD*%
D16*
%TO.N,Net-(D2-Pad1)*%
%TO.C,R10*%
X79159300Y-90805000D03*
D17*
%TO.N,GND*%
X90284500Y-90805000D03*
%TD*%
D10*
%TO.N,unconnected-(U3-Pad1)*%
%TO.C,U3*%
X86995000Y-60285000D03*
%TO.N,unconnected-(U3-Pad2)*%
X84455000Y-60285000D03*
%TO.N,Net-(R9-Pad2)*%
X81915000Y-60285000D03*
%TO.N,Net-(J1-Pad3)*%
X79375000Y-60285000D03*
%TO.N,GND*%
X79375000Y-70445000D03*
%TO.N,Net-(J5-Pad1)*%
X81915000Y-70445000D03*
%TO.N,unconnected-(U3-Pad7)*%
X84455000Y-70445000D03*
%TO.N,+5V*%
X86995000Y-70445000D03*
%TD*%
D14*
%TO.N,Net-(Cb1-Pad1)*%
%TO.C,Cb1*%
X63000203Y-69084865D03*
%TO.N,Net-(Cb1-Pad2)*%
X65500203Y-69084865D03*
%TD*%
%TO.N,Net-(Cin1-Pad1)*%
%TO.C,Cinx1*%
X49562685Y-69592058D03*
%TO.N,GND*%
X49562685Y-67092058D03*
%TD*%
%TO.N,+5V*%
%TO.C,C1*%
X90805000Y-51435000D03*
%TO.N,GND*%
X90805000Y-53935000D03*
%TD*%
D18*
%TO.N,+5V*%
%TO.C,Cout1*%
X59752077Y-84696742D03*
D13*
%TO.N,GND*%
X59752077Y-89696742D03*
%TD*%
D11*
%TO.N,Net-(Cin1-Pad1)*%
%TO.C,J3*%
X29828410Y-84380787D03*
D12*
%TO.N,GND*%
X29828410Y-89380787D03*
%TD*%
D16*
%TO.N,GND*%
%TO.C,R7*%
X79227567Y-79696356D03*
D17*
%TO.N,Net-(J4-Pad3)*%
X90352767Y-79696356D03*
%TD*%
D16*
%TO.N,Net-(R2-Pad1)*%
%TO.C,R2*%
X76415700Y-51585365D03*
D17*
%TO.N,GND*%
X65290500Y-51585365D03*
%TD*%
D20*
%TO.N,Net-(D2-Pad1)*%
%TO.C,D2*%
X71120000Y-86355000D03*
D26*
%TO.N,+5V*%
X71120000Y-88895000D03*
%TD*%
D16*
%TO.N,GND*%
%TO.C,R5*%
X65312152Y-62214758D03*
D17*
%TO.N,Net-(J4-Pad2)*%
X76437352Y-62214758D03*
%TD*%
D16*
%TO.N,Net-(J2-Pad2)*%
%TO.C,R3*%
X76415700Y-54910730D03*
D17*
%TO.N,+5V*%
X65290500Y-54910730D03*
%TD*%
D16*
%TO.N,Net-(J2-Pad3)*%
%TO.C,R4*%
X76390749Y-58532218D03*
D17*
%TO.N,+5V*%
X65265549Y-58532218D03*
%TD*%
D16*
%TO.N,Net-(J4-Pad2)*%
%TO.C,R6*%
X76446305Y-65864080D03*
D17*
%TO.N,+5V*%
X65321105Y-65864080D03*
%TD*%
D27*
%TO.N,Net-(J1-Pad3)*%
X62865000Y-47714500D03*
X62865000Y-60325000D03*
%TO.N,Net-(J2-Pad2)*%
X83185000Y-85090000D03*
X84455000Y-55245000D03*
%TO.N,Net-(J2-Pad3)*%
X80645000Y-78105000D03*
X81915000Y-55880000D03*
%TO.N,Net-(J4-Pad3)*%
X94615000Y-63500000D03*
X94615000Y-68580000D03*
X88900000Y-68580000D03*
%TO.N,Net-(R1-Pad1)*%
X84455000Y-50165000D03*
%TO.N,Net-(R2-Pad1)*%
X81915000Y-51435000D03*
%TO.N,Net-(R9-Pad2)*%
X78105000Y-85090000D03*
X78105000Y-62230000D03*
%TO.N,Net-(J5-Pad1)*%
X88900000Y-66675000D03*
X93980000Y-61595000D03*
X88900000Y-61595000D03*
%TO.N,Net-(D2-Pad1)*%
X75565000Y-86360000D03*
X75565000Y-90805000D03*
%TD*%
%TA.AperFunction,Conductor*%
%TO.N,+5V*%
G36*
X109797121Y-45740002D02*
G01*
X109843614Y-45793658D01*
X109855000Y-45846000D01*
X109855000Y-92584000D01*
X109834998Y-92652121D01*
X109781342Y-92698614D01*
X109729000Y-92710000D01*
X43306000Y-92710000D01*
X43237879Y-92689998D01*
X43191386Y-92636342D01*
X43180000Y-92584000D01*
X43180000Y-89696742D01*
X58238912Y-89696742D01*
X58257542Y-89933453D01*
X58258696Y-89938260D01*
X58258697Y-89938266D01*
X58276851Y-90013882D01*
X58312972Y-90164336D01*
X58314865Y-90168907D01*
X58314866Y-90168909D01*
X58400301Y-90375168D01*
X58403837Y-90383705D01*
X58406423Y-90387925D01*
X58525318Y-90581944D01*
X58525322Y-90581950D01*
X58527901Y-90586158D01*
X58682108Y-90766711D01*
X58862661Y-90920918D01*
X58866869Y-90923497D01*
X58866875Y-90923501D01*
X58988825Y-90998232D01*
X59065114Y-91044982D01*
X59069684Y-91046875D01*
X59069688Y-91046877D01*
X59174925Y-91090467D01*
X59284483Y-91135847D01*
X59364686Y-91155102D01*
X59510553Y-91190122D01*
X59510559Y-91190123D01*
X59515366Y-91191277D01*
X59752077Y-91209907D01*
X59988788Y-91191277D01*
X59993595Y-91190123D01*
X59993601Y-91190122D01*
X60139468Y-91155102D01*
X60219671Y-91135847D01*
X60329229Y-91090467D01*
X60434466Y-91046877D01*
X60434470Y-91046875D01*
X60439040Y-91044982D01*
X60515329Y-90998232D01*
X60637279Y-90923501D01*
X60637285Y-90923497D01*
X60641493Y-90920918D01*
X60777215Y-90805000D01*
X74651496Y-90805000D01*
X74671458Y-90994928D01*
X74730473Y-91176556D01*
X74733776Y-91182278D01*
X74733777Y-91182279D01*
X74749504Y-91209519D01*
X74825960Y-91341944D01*
X74830378Y-91346851D01*
X74830379Y-91346852D01*
X74877017Y-91398649D01*
X74953747Y-91483866D01*
X74976950Y-91500724D01*
X75097057Y-91587987D01*
X75108248Y-91596118D01*
X75114276Y-91598802D01*
X75114278Y-91598803D01*
X75236266Y-91653115D01*
X75282712Y-91673794D01*
X75376113Y-91693647D01*
X75463056Y-91712128D01*
X75463061Y-91712128D01*
X75469513Y-91713500D01*
X75660487Y-91713500D01*
X75666939Y-91712128D01*
X75666944Y-91712128D01*
X75753887Y-91693647D01*
X75847288Y-91673794D01*
X75893734Y-91653115D01*
X76015722Y-91598803D01*
X76015724Y-91598802D01*
X76021752Y-91596118D01*
X76032944Y-91587987D01*
X76100459Y-91538934D01*
X77965000Y-91538934D01*
X77971755Y-91601116D01*
X78022885Y-91737505D01*
X78110239Y-91854061D01*
X78226795Y-91941415D01*
X78363184Y-91992545D01*
X78425366Y-91999300D01*
X79893234Y-91999300D01*
X79955416Y-91992545D01*
X80091805Y-91941415D01*
X80208361Y-91854061D01*
X80295715Y-91737505D01*
X80346845Y-91601116D01*
X80353600Y-91538934D01*
X80353600Y-90773603D01*
X89085495Y-90773603D01*
X89099851Y-90992630D01*
X89153881Y-91205373D01*
X89245775Y-91404708D01*
X89249106Y-91409421D01*
X89249107Y-91409423D01*
X89343038Y-91542331D01*
X89372457Y-91583958D01*
X89424734Y-91634884D01*
X89466085Y-91675166D01*
X89529683Y-91737121D01*
X89534479Y-91740326D01*
X89534482Y-91740328D01*
X89541012Y-91744691D01*
X89712188Y-91859067D01*
X89717491Y-91861345D01*
X89717494Y-91861347D01*
X89809140Y-91900721D01*
X89913860Y-91945712D01*
X90030499Y-91972105D01*
X90108571Y-91989771D01*
X90127945Y-91994155D01*
X90133716Y-91994382D01*
X90133718Y-91994382D01*
X90207134Y-91997266D01*
X90347273Y-92002772D01*
X90438942Y-91989481D01*
X90558784Y-91972105D01*
X90558789Y-91972104D01*
X90564498Y-91971276D01*
X90569962Y-91969421D01*
X90569967Y-91969420D01*
X90766878Y-91902577D01*
X90772346Y-91900721D01*
X90963857Y-91793470D01*
X91132615Y-91653115D01*
X91272970Y-91484357D01*
X91380221Y-91292846D01*
X91412931Y-91196486D01*
X91415245Y-91189669D01*
X103292001Y-91189669D01*
X103292371Y-91196490D01*
X103297895Y-91247352D01*
X103301521Y-91262604D01*
X103346676Y-91383054D01*
X103355214Y-91398649D01*
X103431715Y-91500724D01*
X103444276Y-91513285D01*
X103546351Y-91589786D01*
X103561946Y-91598324D01*
X103682394Y-91643478D01*
X103697649Y-91647105D01*
X103748514Y-91652631D01*
X103755328Y-91653000D01*
X104502885Y-91653000D01*
X104518124Y-91648525D01*
X104519329Y-91647135D01*
X104521000Y-91639452D01*
X104521000Y-91634884D01*
X105029000Y-91634884D01*
X105033475Y-91650123D01*
X105034865Y-91651328D01*
X105042548Y-91652999D01*
X105794669Y-91652999D01*
X105801490Y-91652629D01*
X105852352Y-91647105D01*
X105867604Y-91643479D01*
X105988054Y-91598324D01*
X106003649Y-91589786D01*
X106105724Y-91513285D01*
X106118285Y-91500724D01*
X106194786Y-91398649D01*
X106203324Y-91383054D01*
X106248478Y-91262606D01*
X106252105Y-91247351D01*
X106257631Y-91196486D01*
X106258000Y-91189672D01*
X106258000Y-90442115D01*
X106253525Y-90426876D01*
X106252135Y-90425671D01*
X106244452Y-90424000D01*
X105047115Y-90424000D01*
X105031876Y-90428475D01*
X105030671Y-90429865D01*
X105029000Y-90437548D01*
X105029000Y-91634884D01*
X104521000Y-91634884D01*
X104521000Y-90442115D01*
X104516525Y-90426876D01*
X104515135Y-90425671D01*
X104507452Y-90424000D01*
X103310116Y-90424000D01*
X103294877Y-90428475D01*
X103293672Y-90429865D01*
X103292001Y-90437548D01*
X103292001Y-91189669D01*
X91415245Y-91189669D01*
X91448920Y-91090467D01*
X91448921Y-91090462D01*
X91450776Y-91084998D01*
X91451604Y-91079289D01*
X91451605Y-91079284D01*
X91481739Y-90871447D01*
X91482272Y-90867773D01*
X91483916Y-90805000D01*
X91471573Y-90670672D01*
X91464361Y-90592178D01*
X91464360Y-90592175D01*
X91463832Y-90586424D01*
X91418834Y-90426876D01*
X91405819Y-90380727D01*
X91405818Y-90380725D01*
X91404251Y-90375168D01*
X91389869Y-90346003D01*
X91309725Y-90183488D01*
X91307170Y-90178307D01*
X91298374Y-90166527D01*
X91179293Y-90007058D01*
X91179292Y-90007057D01*
X91175840Y-90002434D01*
X91067680Y-89902452D01*
X91062739Y-89897885D01*
X103292000Y-89897885D01*
X103296475Y-89913124D01*
X103297865Y-89914329D01*
X103305548Y-89916000D01*
X104502885Y-89916000D01*
X104518124Y-89911525D01*
X104519329Y-89910135D01*
X104521000Y-89902452D01*
X104521000Y-89897885D01*
X105029000Y-89897885D01*
X105033475Y-89913124D01*
X105034865Y-89914329D01*
X105042548Y-89916000D01*
X106239884Y-89916000D01*
X106255123Y-89911525D01*
X106256328Y-89910135D01*
X106257999Y-89902452D01*
X106257999Y-89150331D01*
X106257629Y-89143510D01*
X106252105Y-89092648D01*
X106248479Y-89077396D01*
X106203324Y-88956946D01*
X106194786Y-88941351D01*
X106118285Y-88839276D01*
X106105724Y-88826715D01*
X106003649Y-88750214D01*
X105988054Y-88741676D01*
X105867606Y-88696522D01*
X105852351Y-88692895D01*
X105801486Y-88687369D01*
X105794672Y-88687000D01*
X105047115Y-88687000D01*
X105031876Y-88691475D01*
X105030671Y-88692865D01*
X105029000Y-88700548D01*
X105029000Y-89897885D01*
X104521000Y-89897885D01*
X104521000Y-88705116D01*
X104516525Y-88689877D01*
X104515135Y-88688672D01*
X104507452Y-88687001D01*
X103755331Y-88687001D01*
X103748510Y-88687371D01*
X103697648Y-88692895D01*
X103682396Y-88696521D01*
X103561946Y-88741676D01*
X103546351Y-88750214D01*
X103444276Y-88826715D01*
X103431715Y-88839276D01*
X103355214Y-88941351D01*
X103346676Y-88956946D01*
X103301522Y-89077394D01*
X103297895Y-89092649D01*
X103292369Y-89143514D01*
X103292000Y-89150328D01*
X103292000Y-89897885D01*
X91062739Y-89897885D01*
X91018898Y-89857358D01*
X91018895Y-89857356D01*
X91014658Y-89853439D01*
X90829023Y-89736313D01*
X90625153Y-89654976D01*
X90619485Y-89653849D01*
X90619483Y-89653848D01*
X90415541Y-89613282D01*
X90415537Y-89613282D01*
X90409873Y-89612155D01*
X90404098Y-89612079D01*
X90404094Y-89612079D01*
X90293463Y-89610631D01*
X90190395Y-89609281D01*
X90184698Y-89610260D01*
X90184697Y-89610260D01*
X89979765Y-89645474D01*
X89974068Y-89646453D01*
X89768138Y-89722425D01*
X89763177Y-89725377D01*
X89763176Y-89725377D01*
X89584469Y-89831696D01*
X89584466Y-89831698D01*
X89579501Y-89834652D01*
X89414474Y-89979377D01*
X89278585Y-90151751D01*
X89275894Y-90156867D01*
X89275892Y-90156869D01*
X89197581Y-90305714D01*
X89176384Y-90346003D01*
X89111294Y-90555627D01*
X89085495Y-90773603D01*
X80353600Y-90773603D01*
X80353600Y-90071066D01*
X80346845Y-90008884D01*
X80295715Y-89872495D01*
X80208361Y-89755939D01*
X80091805Y-89668585D01*
X79955416Y-89617455D01*
X79893234Y-89610700D01*
X78425366Y-89610700D01*
X78363184Y-89617455D01*
X78226795Y-89668585D01*
X78110239Y-89755939D01*
X78022885Y-89872495D01*
X77971755Y-90008884D01*
X77965000Y-90071066D01*
X77965000Y-91538934D01*
X76100459Y-91538934D01*
X76153050Y-91500724D01*
X76176253Y-91483866D01*
X76252983Y-91398649D01*
X76299621Y-91346852D01*
X76299622Y-91346851D01*
X76304040Y-91341944D01*
X76380496Y-91209519D01*
X76396223Y-91182279D01*
X76396224Y-91182278D01*
X76399527Y-91176556D01*
X76458542Y-90994928D01*
X76478504Y-90805000D01*
X76458542Y-90615072D01*
X76399527Y-90433444D01*
X76394075Y-90424000D01*
X76349043Y-90346003D01*
X76304040Y-90268056D01*
X76253482Y-90211905D01*
X76180675Y-90131045D01*
X76180674Y-90131044D01*
X76176253Y-90126134D01*
X76021752Y-90013882D01*
X76015724Y-90011198D01*
X76015722Y-90011197D01*
X75853319Y-89938891D01*
X75853318Y-89938891D01*
X75847288Y-89936206D01*
X75752227Y-89916000D01*
X75666944Y-89897872D01*
X75666939Y-89897872D01*
X75660487Y-89896500D01*
X75469513Y-89896500D01*
X75463061Y-89897872D01*
X75463056Y-89897872D01*
X75377773Y-89916000D01*
X75282712Y-89936206D01*
X75276682Y-89938891D01*
X75276681Y-89938891D01*
X75114278Y-90011197D01*
X75114276Y-90011198D01*
X75108248Y-90013882D01*
X74953747Y-90126134D01*
X74949326Y-90131044D01*
X74949325Y-90131045D01*
X74876519Y-90211905D01*
X74825960Y-90268056D01*
X74780957Y-90346003D01*
X74735926Y-90424000D01*
X74730473Y-90433444D01*
X74671458Y-90615072D01*
X74651496Y-90805000D01*
X60777215Y-90805000D01*
X60822046Y-90766711D01*
X60976253Y-90586158D01*
X60978832Y-90581950D01*
X60978836Y-90581944D01*
X61097731Y-90387925D01*
X61100317Y-90383705D01*
X61103854Y-90375168D01*
X61189288Y-90168909D01*
X61189289Y-90168907D01*
X61191182Y-90164336D01*
X61217094Y-90056406D01*
X70323423Y-90056406D01*
X70328704Y-90063461D01*
X70505080Y-90166527D01*
X70514363Y-90170974D01*
X70721003Y-90249883D01*
X70730901Y-90252759D01*
X70947653Y-90296857D01*
X70957883Y-90298076D01*
X71178914Y-90306182D01*
X71189223Y-90305714D01*
X71408623Y-90277608D01*
X71418688Y-90275468D01*
X71630557Y-90211905D01*
X71640152Y-90208144D01*
X71838778Y-90110838D01*
X71847636Y-90105559D01*
X71905097Y-90064572D01*
X71913497Y-90053874D01*
X71906510Y-90040721D01*
X71132811Y-89267021D01*
X71118868Y-89259408D01*
X71117034Y-89259539D01*
X71110420Y-89263790D01*
X70330180Y-90044031D01*
X70323423Y-90056406D01*
X61217094Y-90056406D01*
X61227303Y-90013882D01*
X61245457Y-89938266D01*
X61245458Y-89938260D01*
X61246612Y-89933453D01*
X61265242Y-89696742D01*
X61246612Y-89460031D01*
X61236939Y-89419737D01*
X61192337Y-89233960D01*
X61191182Y-89229148D01*
X61189288Y-89224575D01*
X61102212Y-89014353D01*
X61102210Y-89014349D01*
X61100317Y-89009779D01*
X61035851Y-88904580D01*
X61011987Y-88865638D01*
X69707893Y-88865638D01*
X69720627Y-89086468D01*
X69722061Y-89096670D01*
X69770685Y-89312439D01*
X69773773Y-89322292D01*
X69856986Y-89527220D01*
X69861634Y-89536421D01*
X69950097Y-89680781D01*
X69960553Y-89690242D01*
X69969331Y-89686458D01*
X70747979Y-88907811D01*
X70754356Y-88896132D01*
X71484408Y-88896132D01*
X71484539Y-88897966D01*
X71488790Y-88904580D01*
X72266307Y-89682096D01*
X72278313Y-89688652D01*
X72290052Y-89679684D01*
X72328010Y-89626859D01*
X72333321Y-89618020D01*
X72431318Y-89419737D01*
X72435117Y-89410142D01*
X72499415Y-89198517D01*
X72501594Y-89188436D01*
X72530702Y-88967338D01*
X72531221Y-88960663D01*
X72532744Y-88898364D01*
X72532550Y-88891646D01*
X72514279Y-88669400D01*
X72512596Y-88659238D01*
X72458710Y-88444708D01*
X72455389Y-88434953D01*
X72367193Y-88232118D01*
X72362315Y-88223020D01*
X72289224Y-88110038D01*
X72278538Y-88100835D01*
X72268973Y-88105238D01*
X71492021Y-88882189D01*
X71484408Y-88896132D01*
X70754356Y-88896132D01*
X70755592Y-88893868D01*
X70755461Y-88892034D01*
X70751210Y-88885420D01*
X69973862Y-88108073D01*
X69962330Y-88101776D01*
X69950048Y-88111399D01*
X69894467Y-88192877D01*
X69889379Y-88201833D01*
X69796252Y-88402459D01*
X69792689Y-88412146D01*
X69733581Y-88625280D01*
X69731650Y-88635400D01*
X69708145Y-88855349D01*
X69707893Y-88865638D01*
X61011987Y-88865638D01*
X60978836Y-88811540D01*
X60978832Y-88811534D01*
X60976253Y-88807326D01*
X60822046Y-88626773D01*
X60641493Y-88472566D01*
X60637285Y-88469987D01*
X60637279Y-88469983D01*
X60443260Y-88351088D01*
X60439040Y-88348502D01*
X60434470Y-88346609D01*
X60434466Y-88346607D01*
X60224244Y-88259531D01*
X60224242Y-88259530D01*
X60219671Y-88257637D01*
X60075481Y-88223020D01*
X59993601Y-88203362D01*
X59993595Y-88203361D01*
X59988788Y-88202207D01*
X59752077Y-88183577D01*
X59515366Y-88202207D01*
X59510559Y-88203361D01*
X59510553Y-88203362D01*
X59428673Y-88223020D01*
X59284483Y-88257637D01*
X59279912Y-88259530D01*
X59279910Y-88259531D01*
X59069688Y-88346607D01*
X59069684Y-88346609D01*
X59065114Y-88348502D01*
X59060894Y-88351088D01*
X58866875Y-88469983D01*
X58866869Y-88469987D01*
X58862661Y-88472566D01*
X58682108Y-88626773D01*
X58527901Y-88807326D01*
X58525322Y-88811534D01*
X58525318Y-88811540D01*
X58468303Y-88904580D01*
X58403837Y-89009779D01*
X58401944Y-89014349D01*
X58401942Y-89014353D01*
X58314866Y-89224575D01*
X58312972Y-89229148D01*
X58311817Y-89233960D01*
X58267216Y-89419737D01*
X58257542Y-89460031D01*
X58238912Y-89696742D01*
X43180000Y-89696742D01*
X43180000Y-87303134D01*
X69711500Y-87303134D01*
X69718255Y-87365316D01*
X69769385Y-87501705D01*
X69856739Y-87618261D01*
X69973295Y-87705615D01*
X70109684Y-87756745D01*
X70171866Y-87763500D01*
X70295520Y-87763500D01*
X70363641Y-87783502D01*
X70384616Y-87800405D01*
X71107189Y-88522979D01*
X71121132Y-88530592D01*
X71122966Y-88530461D01*
X71129580Y-88526210D01*
X71855384Y-87800405D01*
X71917697Y-87766380D01*
X71944480Y-87763500D01*
X72068134Y-87763500D01*
X72130316Y-87756745D01*
X72266705Y-87705615D01*
X72383261Y-87618261D01*
X72470615Y-87501705D01*
X72521745Y-87365316D01*
X72528500Y-87303134D01*
X72528500Y-86360000D01*
X74651496Y-86360000D01*
X74652186Y-86366565D01*
X74669457Y-86530886D01*
X74671458Y-86549928D01*
X74730473Y-86731556D01*
X74733776Y-86737278D01*
X74733777Y-86737279D01*
X74756378Y-86776424D01*
X74825960Y-86896944D01*
X74953747Y-87038866D01*
X74984827Y-87061447D01*
X75083153Y-87132885D01*
X75108248Y-87151118D01*
X75114276Y-87153802D01*
X75114278Y-87153803D01*
X75276681Y-87226109D01*
X75282712Y-87228794D01*
X75376113Y-87248647D01*
X75463056Y-87267128D01*
X75463061Y-87267128D01*
X75469513Y-87268500D01*
X75660487Y-87268500D01*
X75666939Y-87267128D01*
X75666944Y-87267128D01*
X75753887Y-87248647D01*
X75847288Y-87228794D01*
X75853319Y-87226109D01*
X76015722Y-87153803D01*
X76015724Y-87153802D01*
X76021752Y-87151118D01*
X76046848Y-87132885D01*
X76145173Y-87061447D01*
X76176253Y-87038866D01*
X76304040Y-86896944D01*
X76373622Y-86776424D01*
X76396223Y-86737279D01*
X76396224Y-86737278D01*
X76399527Y-86731556D01*
X76458542Y-86549928D01*
X76460544Y-86530886D01*
X76477814Y-86366565D01*
X76478504Y-86360000D01*
X76465214Y-86233553D01*
X76459232Y-86176635D01*
X76459232Y-86176633D01*
X76458542Y-86170072D01*
X76399527Y-85988444D01*
X76392011Y-85975425D01*
X76339112Y-85883803D01*
X76304040Y-85823056D01*
X76296198Y-85814346D01*
X76180675Y-85686045D01*
X76180674Y-85686044D01*
X76176253Y-85681134D01*
X76021752Y-85568882D01*
X76015724Y-85566198D01*
X76015722Y-85566197D01*
X75853319Y-85493891D01*
X75853318Y-85493891D01*
X75847288Y-85491206D01*
X75734721Y-85467279D01*
X75666944Y-85452872D01*
X75666939Y-85452872D01*
X75660487Y-85451500D01*
X75469513Y-85451500D01*
X75463061Y-85452872D01*
X75463056Y-85452872D01*
X75395279Y-85467279D01*
X75282712Y-85491206D01*
X75276682Y-85493891D01*
X75276681Y-85493891D01*
X75114278Y-85566197D01*
X75114276Y-85566198D01*
X75108248Y-85568882D01*
X74953747Y-85681134D01*
X74949326Y-85686044D01*
X74949325Y-85686045D01*
X74833803Y-85814346D01*
X74825960Y-85823056D01*
X74790888Y-85883803D01*
X74737990Y-85975425D01*
X74730473Y-85988444D01*
X74671458Y-86170072D01*
X74670768Y-86176633D01*
X74670768Y-86176635D01*
X74664786Y-86233553D01*
X74651496Y-86360000D01*
X72528500Y-86360000D01*
X72528500Y-85406866D01*
X72521745Y-85344684D01*
X72470615Y-85208295D01*
X72383261Y-85091739D01*
X72380941Y-85090000D01*
X77191496Y-85090000D01*
X77211458Y-85279928D01*
X77270473Y-85461556D01*
X77365960Y-85626944D01*
X77370378Y-85631851D01*
X77370379Y-85631852D01*
X77469026Y-85741411D01*
X77493747Y-85768866D01*
X77648248Y-85881118D01*
X77654276Y-85883802D01*
X77654278Y-85883803D01*
X77816681Y-85956109D01*
X77822712Y-85958794D01*
X77829167Y-85960166D01*
X77829170Y-85960167D01*
X77861507Y-85967040D01*
X77900957Y-85975426D01*
X77963430Y-86009153D01*
X77997751Y-86071302D01*
X77992742Y-86142901D01*
X77971755Y-86198884D01*
X77965000Y-86261066D01*
X77965000Y-87728934D01*
X77971755Y-87791116D01*
X78022885Y-87927505D01*
X78110239Y-88044061D01*
X78226795Y-88131415D01*
X78363184Y-88182545D01*
X78425366Y-88189300D01*
X79893234Y-88189300D01*
X79955416Y-88182545D01*
X80091805Y-88131415D01*
X80208361Y-88044061D01*
X80295715Y-87927505D01*
X80346845Y-87791116D01*
X80353600Y-87728934D01*
X80353600Y-86963603D01*
X89085495Y-86963603D01*
X89099851Y-87182630D01*
X89153881Y-87395373D01*
X89245775Y-87594708D01*
X89249106Y-87599421D01*
X89249107Y-87599423D01*
X89360895Y-87757598D01*
X89372457Y-87773958D01*
X89529683Y-87927121D01*
X89534479Y-87930326D01*
X89534482Y-87930328D01*
X89541012Y-87934691D01*
X89712188Y-88049067D01*
X89717491Y-88051345D01*
X89717494Y-88051347D01*
X89849528Y-88108073D01*
X89913860Y-88135712D01*
X90030499Y-88162105D01*
X90108571Y-88179771D01*
X90127945Y-88184155D01*
X90133716Y-88184382D01*
X90133718Y-88184382D01*
X90207134Y-88187266D01*
X90347273Y-88192772D01*
X90438942Y-88179481D01*
X90558784Y-88162105D01*
X90558789Y-88162104D01*
X90564498Y-88161276D01*
X90569962Y-88159421D01*
X90569967Y-88159420D01*
X90766878Y-88092577D01*
X90772346Y-88090721D01*
X90963857Y-87983470D01*
X91132615Y-87843115D01*
X91272970Y-87674357D01*
X91380221Y-87482846D01*
X91411815Y-87389773D01*
X91448920Y-87280467D01*
X91448921Y-87280462D01*
X91450776Y-87274998D01*
X91451604Y-87269289D01*
X91451605Y-87269284D01*
X91471381Y-87132885D01*
X91482272Y-87057773D01*
X91483916Y-86995000D01*
X91463832Y-86776424D01*
X91427353Y-86647080D01*
X91405819Y-86570727D01*
X91405818Y-86570725D01*
X91404251Y-86565168D01*
X91399832Y-86556206D01*
X91309725Y-86373488D01*
X91307170Y-86368307D01*
X91261372Y-86306975D01*
X91179293Y-86197058D01*
X91179292Y-86197057D01*
X91175840Y-86192434D01*
X91044800Y-86071302D01*
X91018898Y-86047358D01*
X91018895Y-86047356D01*
X91014658Y-86043439D01*
X90829023Y-85926313D01*
X90625153Y-85844976D01*
X90619485Y-85843849D01*
X90619483Y-85843848D01*
X90415541Y-85803282D01*
X90415537Y-85803282D01*
X90409873Y-85802155D01*
X90404098Y-85802079D01*
X90404094Y-85802079D01*
X90293463Y-85800631D01*
X90190395Y-85799281D01*
X90184698Y-85800260D01*
X90184697Y-85800260D01*
X89979765Y-85835474D01*
X89974068Y-85836453D01*
X89768138Y-85912425D01*
X89763177Y-85915377D01*
X89763176Y-85915377D01*
X89584469Y-86021696D01*
X89584466Y-86021698D01*
X89579501Y-86024652D01*
X89414474Y-86169377D01*
X89278585Y-86341751D01*
X89275894Y-86346867D01*
X89275892Y-86346869D01*
X89179076Y-86530886D01*
X89176384Y-86536003D01*
X89111294Y-86745627D01*
X89085495Y-86963603D01*
X80353600Y-86963603D01*
X80353600Y-86261066D01*
X80346845Y-86198884D01*
X80295715Y-86062495D01*
X80208361Y-85945939D01*
X80091805Y-85858585D01*
X79955416Y-85807455D01*
X79893234Y-85800700D01*
X78961960Y-85800700D01*
X78893839Y-85780698D01*
X78847346Y-85727042D01*
X78837242Y-85656768D01*
X78852841Y-85611700D01*
X78936223Y-85467279D01*
X78936224Y-85467278D01*
X78939527Y-85461556D01*
X78998542Y-85279928D01*
X79018504Y-85090000D01*
X82271496Y-85090000D01*
X82291458Y-85279928D01*
X82350473Y-85461556D01*
X82445960Y-85626944D01*
X82450378Y-85631851D01*
X82450379Y-85631852D01*
X82549026Y-85741411D01*
X82573747Y-85768866D01*
X82728248Y-85881118D01*
X82734276Y-85883802D01*
X82734278Y-85883803D01*
X82896681Y-85956109D01*
X82902712Y-85958794D01*
X82996112Y-85978647D01*
X83083056Y-85997128D01*
X83083061Y-85997128D01*
X83089513Y-85998500D01*
X83280487Y-85998500D01*
X83286939Y-85997128D01*
X83286944Y-85997128D01*
X83373888Y-85978647D01*
X83467288Y-85958794D01*
X83473319Y-85956109D01*
X83635722Y-85883803D01*
X83635724Y-85883802D01*
X83641752Y-85881118D01*
X83796253Y-85768866D01*
X83820974Y-85741411D01*
X83919621Y-85631852D01*
X83919622Y-85631851D01*
X83924040Y-85626944D01*
X84019527Y-85461556D01*
X84078542Y-85279928D01*
X84093918Y-85133631D01*
X103286860Y-85133631D01*
X103287157Y-85138783D01*
X103287157Y-85138787D01*
X103294607Y-85267978D01*
X103300903Y-85377171D01*
X103302040Y-85382217D01*
X103302041Y-85382223D01*
X103326602Y-85491206D01*
X103354533Y-85615147D01*
X103356475Y-85619929D01*
X103356476Y-85619933D01*
X103444367Y-85836382D01*
X103446311Y-85841169D01*
X103518392Y-85958794D01*
X103549030Y-86008790D01*
X103573772Y-86049166D01*
X103733492Y-86233553D01*
X103921183Y-86389377D01*
X104131804Y-86512453D01*
X104359698Y-86599478D01*
X104364764Y-86600509D01*
X104364765Y-86600509D01*
X104593667Y-86647080D01*
X104593671Y-86647080D01*
X104598746Y-86648113D01*
X104603922Y-86648303D01*
X104603924Y-86648303D01*
X104837363Y-86656863D01*
X104837367Y-86656863D01*
X104842527Y-86657052D01*
X104847647Y-86656396D01*
X104847649Y-86656396D01*
X104924377Y-86646567D01*
X105084494Y-86626055D01*
X105089443Y-86624570D01*
X105089449Y-86624569D01*
X105313200Y-86557440D01*
X105313199Y-86557440D01*
X105318150Y-86555955D01*
X105537219Y-86448634D01*
X105541424Y-86445634D01*
X105541430Y-86445631D01*
X105731614Y-86309974D01*
X105731616Y-86309972D01*
X105735818Y-86306975D01*
X105908614Y-86134781D01*
X106050966Y-85936677D01*
X106054566Y-85929394D01*
X106156756Y-85722626D01*
X106156757Y-85722624D01*
X106159050Y-85717984D01*
X106186636Y-85627188D01*
X106228462Y-85489527D01*
X106228463Y-85489521D01*
X106229966Y-85484575D01*
X106258056Y-85271210D01*
X106261370Y-85246038D01*
X106261370Y-85246034D01*
X106261807Y-85242717D01*
X106263584Y-85170000D01*
X106243596Y-84926876D01*
X106184167Y-84690280D01*
X106116247Y-84534076D01*
X106088954Y-84471305D01*
X106088952Y-84471302D01*
X106086894Y-84466568D01*
X105969671Y-84285369D01*
X105957200Y-84266091D01*
X105957198Y-84266088D01*
X105954390Y-84261748D01*
X105916252Y-84219834D01*
X105793690Y-84085141D01*
X105793688Y-84085140D01*
X105790212Y-84081319D01*
X105786161Y-84078120D01*
X105786157Y-84078116D01*
X105602825Y-83933329D01*
X105602821Y-83933327D01*
X105598770Y-83930127D01*
X105385205Y-83812233D01*
X105380336Y-83810509D01*
X105380332Y-83810507D01*
X105160127Y-83732528D01*
X105160123Y-83732527D01*
X105155252Y-83730802D01*
X105150159Y-83729895D01*
X105150156Y-83729894D01*
X104920177Y-83688928D01*
X104920171Y-83688927D01*
X104915088Y-83688022D01*
X104835380Y-83687048D01*
X104676332Y-83685105D01*
X104676330Y-83685105D01*
X104671162Y-83685042D01*
X104430024Y-83721941D01*
X104198150Y-83797729D01*
X104193558Y-83800119D01*
X104193559Y-83800119D01*
X104044184Y-83877879D01*
X103981769Y-83910370D01*
X103977636Y-83913473D01*
X103977633Y-83913475D01*
X103881864Y-83985381D01*
X103786690Y-84056840D01*
X103783118Y-84060578D01*
X103629619Y-84221206D01*
X103618153Y-84233204D01*
X103615239Y-84237476D01*
X103615238Y-84237477D01*
X103570703Y-84302763D01*
X103480684Y-84434726D01*
X103463705Y-84471305D01*
X103423103Y-84558774D01*
X103377974Y-84655995D01*
X103312783Y-84891067D01*
X103286860Y-85133631D01*
X84093918Y-85133631D01*
X84098504Y-85090000D01*
X84078542Y-84900072D01*
X84019527Y-84718444D01*
X84003267Y-84690280D01*
X83927341Y-84558774D01*
X83924040Y-84553056D01*
X83906951Y-84534076D01*
X83800675Y-84416045D01*
X83800674Y-84416044D01*
X83796253Y-84411134D01*
X83710505Y-84348834D01*
X89645704Y-84348834D01*
X89655586Y-84361323D01*
X89707624Y-84396094D01*
X89717734Y-84401584D01*
X89908708Y-84483633D01*
X89919651Y-84487188D01*
X90122373Y-84533060D01*
X90133783Y-84534562D01*
X90341478Y-84542722D01*
X90352960Y-84542120D01*
X90558659Y-84512296D01*
X90569855Y-84509608D01*
X90766674Y-84442796D01*
X90777181Y-84438118D01*
X90915569Y-84360616D01*
X90925434Y-84350538D01*
X90922478Y-84342866D01*
X90297312Y-83717700D01*
X90283368Y-83710086D01*
X90281535Y-83710217D01*
X90274920Y-83714468D01*
X89651900Y-84337488D01*
X89645704Y-84348834D01*
X83710505Y-84348834D01*
X83641752Y-84298882D01*
X83635724Y-84296198D01*
X83635722Y-84296197D01*
X83473319Y-84223891D01*
X83473318Y-84223891D01*
X83467288Y-84221206D01*
X83368543Y-84200217D01*
X83286944Y-84182872D01*
X83286939Y-84182872D01*
X83280487Y-84181500D01*
X83089513Y-84181500D01*
X83083061Y-84182872D01*
X83083056Y-84182872D01*
X83001457Y-84200217D01*
X82902712Y-84221206D01*
X82896682Y-84223891D01*
X82896681Y-84223891D01*
X82734278Y-84296197D01*
X82734276Y-84296198D01*
X82728248Y-84298882D01*
X82573747Y-84411134D01*
X82569326Y-84416044D01*
X82569325Y-84416045D01*
X82463050Y-84534076D01*
X82445960Y-84553056D01*
X82442659Y-84558774D01*
X82366734Y-84690280D01*
X82350473Y-84718444D01*
X82291458Y-84900072D01*
X82271496Y-85090000D01*
X79018504Y-85090000D01*
X78998542Y-84900072D01*
X78939527Y-84718444D01*
X78938049Y-84715884D01*
X78928795Y-84646860D01*
X78958901Y-84582563D01*
X79018990Y-84544750D01*
X79053336Y-84539978D01*
X79893234Y-84539978D01*
X79955416Y-84533223D01*
X80091805Y-84482093D01*
X80208361Y-84394739D01*
X80295715Y-84278183D01*
X80346845Y-84141794D01*
X80353600Y-84079612D01*
X80353600Y-83320060D01*
X89086375Y-83320060D01*
X89099969Y-83527461D01*
X89101770Y-83538831D01*
X89152932Y-83740284D01*
X89156773Y-83751131D01*
X89243793Y-83939893D01*
X89249542Y-83949850D01*
X89268725Y-83976993D01*
X89279314Y-83985381D01*
X89292615Y-83978353D01*
X89912478Y-83358490D01*
X89918856Y-83346810D01*
X90648908Y-83346810D01*
X90649039Y-83348643D01*
X90653290Y-83355258D01*
X91277774Y-83979742D01*
X91290154Y-83986502D01*
X91296734Y-83981576D01*
X91376940Y-83838359D01*
X91381618Y-83827852D01*
X91448430Y-83631033D01*
X91451118Y-83619837D01*
X91481238Y-83412098D01*
X91481868Y-83404715D01*
X91483317Y-83349382D01*
X91483074Y-83341983D01*
X91463867Y-83132950D01*
X91461769Y-83121629D01*
X91405352Y-82921591D01*
X91401227Y-82910844D01*
X91309296Y-82724426D01*
X91303286Y-82714619D01*
X91301934Y-82712808D01*
X91290676Y-82704359D01*
X91278257Y-82711131D01*
X90656522Y-83332866D01*
X90648908Y-83346810D01*
X89918856Y-83346810D01*
X89920092Y-83344546D01*
X89919961Y-83342713D01*
X89915710Y-83336098D01*
X89289511Y-82709899D01*
X89277131Y-82703139D01*
X89271165Y-82707605D01*
X89179537Y-82881763D01*
X89175136Y-82892387D01*
X89113498Y-83090893D01*
X89111106Y-83102147D01*
X89086676Y-83308559D01*
X89086375Y-83320060D01*
X80353600Y-83320060D01*
X80353600Y-82611744D01*
X80346845Y-82549562D01*
X80295715Y-82413173D01*
X80242189Y-82341753D01*
X89644687Y-82341753D01*
X89648173Y-82350141D01*
X90271688Y-82973656D01*
X90285632Y-82981270D01*
X90287465Y-82981139D01*
X90294080Y-82976888D01*
X90916989Y-82353979D01*
X90923749Y-82341599D01*
X90917719Y-82333544D01*
X90833680Y-82280519D01*
X90823432Y-82275298D01*
X90630379Y-82198278D01*
X90619343Y-82195009D01*
X90415487Y-82154459D01*
X90404042Y-82153256D01*
X90196216Y-82150536D01*
X90184736Y-82151439D01*
X89979895Y-82186637D01*
X89968775Y-82189617D01*
X89773770Y-82261558D01*
X89763392Y-82266508D01*
X89654285Y-82331420D01*
X89644687Y-82341753D01*
X80242189Y-82341753D01*
X80208361Y-82296617D01*
X80091805Y-82209263D01*
X79955416Y-82158133D01*
X79893234Y-82151378D01*
X78425366Y-82151378D01*
X78363184Y-82158133D01*
X78226795Y-82209263D01*
X78110239Y-82296617D01*
X78022885Y-82413173D01*
X77971755Y-82549562D01*
X77965000Y-82611744D01*
X77965000Y-84079612D01*
X77965277Y-84082162D01*
X77949027Y-84151108D01*
X77897965Y-84200436D01*
X77865697Y-84212068D01*
X77829176Y-84219831D01*
X77829167Y-84219834D01*
X77822712Y-84221206D01*
X77816682Y-84223891D01*
X77816681Y-84223891D01*
X77654278Y-84296197D01*
X77654276Y-84296198D01*
X77648248Y-84298882D01*
X77493747Y-84411134D01*
X77489326Y-84416044D01*
X77489325Y-84416045D01*
X77383050Y-84534076D01*
X77365960Y-84553056D01*
X77362659Y-84558774D01*
X77286734Y-84690280D01*
X77270473Y-84718444D01*
X77211458Y-84900072D01*
X77191496Y-85090000D01*
X72380941Y-85090000D01*
X72266705Y-85004385D01*
X72130316Y-84953255D01*
X72068134Y-84946500D01*
X70171866Y-84946500D01*
X70109684Y-84953255D01*
X69973295Y-85004385D01*
X69856739Y-85091739D01*
X69769385Y-85208295D01*
X69718255Y-85344684D01*
X69711500Y-85406866D01*
X69711500Y-87303134D01*
X43180000Y-87303134D01*
X43180000Y-86872670D01*
X44217160Y-86872670D01*
X44222887Y-86880320D01*
X44394042Y-86985205D01*
X44402837Y-86989687D01*
X44612988Y-87076734D01*
X44622373Y-87079783D01*
X44843554Y-87132885D01*
X44853301Y-87134428D01*
X45080070Y-87152275D01*
X45089930Y-87152275D01*
X45316699Y-87134428D01*
X45326446Y-87132885D01*
X45547627Y-87079783D01*
X45557012Y-87076734D01*
X45767163Y-86989687D01*
X45775958Y-86985205D01*
X45943445Y-86882568D01*
X45952907Y-86872110D01*
X45949124Y-86863334D01*
X45097812Y-86012022D01*
X45083868Y-86004408D01*
X45082035Y-86004539D01*
X45075420Y-86008790D01*
X44223920Y-86860290D01*
X44217160Y-86872670D01*
X43180000Y-86872670D01*
X43180000Y-85644930D01*
X43572725Y-85644930D01*
X43590572Y-85871699D01*
X43592115Y-85881446D01*
X43645217Y-86102627D01*
X43648266Y-86112012D01*
X43735313Y-86322163D01*
X43739795Y-86330958D01*
X43842432Y-86498445D01*
X43852890Y-86507907D01*
X43861666Y-86504124D01*
X44712978Y-85652812D01*
X44719356Y-85641132D01*
X45449408Y-85641132D01*
X45449539Y-85642965D01*
X45453790Y-85649580D01*
X46305290Y-86501080D01*
X46317670Y-86507840D01*
X46325320Y-86502113D01*
X46430205Y-86330958D01*
X46434687Y-86322163D01*
X46521734Y-86112012D01*
X46524783Y-86102627D01*
X46577885Y-85881446D01*
X46579428Y-85871699D01*
X46589682Y-85741411D01*
X58244078Y-85741411D01*
X58244448Y-85748232D01*
X58249972Y-85799094D01*
X58253598Y-85814346D01*
X58298753Y-85934796D01*
X58307291Y-85950391D01*
X58383792Y-86052466D01*
X58396353Y-86065027D01*
X58498428Y-86141528D01*
X58514023Y-86150066D01*
X58634471Y-86195220D01*
X58649726Y-86198847D01*
X58700591Y-86204373D01*
X58707405Y-86204742D01*
X59479962Y-86204742D01*
X59495201Y-86200267D01*
X59496406Y-86198877D01*
X59498077Y-86191194D01*
X59498077Y-86186626D01*
X60006077Y-86186626D01*
X60010552Y-86201865D01*
X60011942Y-86203070D01*
X60019625Y-86204741D01*
X60796746Y-86204741D01*
X60803567Y-86204371D01*
X60854429Y-86198847D01*
X60869681Y-86195221D01*
X60990131Y-86150066D01*
X61005726Y-86141528D01*
X61107801Y-86065027D01*
X61120362Y-86052466D01*
X61196863Y-85950391D01*
X61205401Y-85934796D01*
X61250555Y-85814348D01*
X61254182Y-85799093D01*
X61259708Y-85748228D01*
X61260077Y-85741414D01*
X61260077Y-84968857D01*
X61255602Y-84953618D01*
X61254212Y-84952413D01*
X61246529Y-84950742D01*
X60024192Y-84950742D01*
X60008953Y-84955217D01*
X60007748Y-84956607D01*
X60006077Y-84964290D01*
X60006077Y-86186626D01*
X59498077Y-86186626D01*
X59498077Y-84968857D01*
X59493602Y-84953618D01*
X59492212Y-84952413D01*
X59484529Y-84950742D01*
X58262193Y-84950742D01*
X58246954Y-84955217D01*
X58245749Y-84956607D01*
X58244078Y-84964290D01*
X58244078Y-85741411D01*
X46589682Y-85741411D01*
X46597275Y-85644930D01*
X46597275Y-85635070D01*
X46579428Y-85408301D01*
X46577885Y-85398554D01*
X46524783Y-85177373D01*
X46521734Y-85167988D01*
X46434687Y-84957837D01*
X46430205Y-84949042D01*
X46327568Y-84781555D01*
X46317110Y-84772093D01*
X46308334Y-84775876D01*
X45457022Y-85627188D01*
X45449408Y-85641132D01*
X44719356Y-85641132D01*
X44720592Y-85638868D01*
X44720461Y-85637035D01*
X44716210Y-85630420D01*
X43864710Y-84778920D01*
X43852330Y-84772160D01*
X43844680Y-84777887D01*
X43739795Y-84949042D01*
X43735313Y-84957837D01*
X43648266Y-85167988D01*
X43645217Y-85177373D01*
X43592115Y-85398554D01*
X43590572Y-85408301D01*
X43572725Y-85635070D01*
X43572725Y-85644930D01*
X43180000Y-85644930D01*
X43180000Y-84407890D01*
X44217093Y-84407890D01*
X44220876Y-84416666D01*
X45072188Y-85267978D01*
X45086132Y-85275592D01*
X45087965Y-85275461D01*
X45094580Y-85271210D01*
X45941163Y-84424627D01*
X58244077Y-84424627D01*
X58248552Y-84439866D01*
X58249942Y-84441071D01*
X58257625Y-84442742D01*
X59479962Y-84442742D01*
X59495201Y-84438267D01*
X59496406Y-84436877D01*
X59498077Y-84429194D01*
X59498077Y-84424627D01*
X60006077Y-84424627D01*
X60010552Y-84439866D01*
X60011942Y-84441071D01*
X60019625Y-84442742D01*
X61241961Y-84442742D01*
X61257200Y-84438267D01*
X61258405Y-84436877D01*
X61260076Y-84429194D01*
X61260076Y-83652073D01*
X61259706Y-83645252D01*
X61254182Y-83594390D01*
X61250556Y-83579138D01*
X61205401Y-83458688D01*
X61196863Y-83443093D01*
X61120362Y-83341018D01*
X61107801Y-83328457D01*
X61005726Y-83251956D01*
X60990131Y-83243418D01*
X60869683Y-83198264D01*
X60854428Y-83194637D01*
X60803563Y-83189111D01*
X60796749Y-83188742D01*
X60024192Y-83188742D01*
X60008953Y-83193217D01*
X60007748Y-83194607D01*
X60006077Y-83202290D01*
X60006077Y-84424627D01*
X59498077Y-84424627D01*
X59498077Y-83206858D01*
X59493602Y-83191619D01*
X59492212Y-83190414D01*
X59484529Y-83188743D01*
X58707408Y-83188743D01*
X58700587Y-83189113D01*
X58649725Y-83194637D01*
X58634473Y-83198263D01*
X58514023Y-83243418D01*
X58498428Y-83251956D01*
X58396353Y-83328457D01*
X58383792Y-83341018D01*
X58307291Y-83443093D01*
X58298753Y-83458688D01*
X58253599Y-83579136D01*
X58249972Y-83594391D01*
X58244446Y-83645256D01*
X58244077Y-83652070D01*
X58244077Y-84424627D01*
X45941163Y-84424627D01*
X45946080Y-84419710D01*
X45952840Y-84407330D01*
X45947113Y-84399680D01*
X45775958Y-84294795D01*
X45767163Y-84290313D01*
X45557012Y-84203266D01*
X45547627Y-84200217D01*
X45326446Y-84147115D01*
X45316699Y-84145572D01*
X45089930Y-84127725D01*
X45080070Y-84127725D01*
X44853301Y-84145572D01*
X44843554Y-84147115D01*
X44622373Y-84200217D01*
X44612988Y-84203266D01*
X44402837Y-84290313D01*
X44394042Y-84294795D01*
X44226555Y-84397432D01*
X44217093Y-84407890D01*
X43180000Y-84407890D01*
X43180000Y-83946000D01*
X43200002Y-83877879D01*
X43253658Y-83831386D01*
X43306000Y-83820000D01*
X52705000Y-83820000D01*
X52705000Y-79007966D01*
X53722000Y-79007966D01*
X53755685Y-79157439D01*
X53758773Y-79167292D01*
X53841989Y-79372226D01*
X53846629Y-79381413D01*
X53962208Y-79570022D01*
X53968286Y-79578326D01*
X54113113Y-79745519D01*
X54120475Y-79752728D01*
X54290660Y-79894018D01*
X54299099Y-79899927D01*
X54490077Y-80011525D01*
X54499364Y-80015975D01*
X54706003Y-80094883D01*
X54715901Y-80097759D01*
X54833250Y-80121634D01*
X54847299Y-80120438D01*
X54851000Y-80110093D01*
X54851000Y-80108928D01*
X55359000Y-80108928D01*
X55363064Y-80122770D01*
X55376479Y-80124804D01*
X55393613Y-80122609D01*
X55403698Y-80120466D01*
X55615557Y-80056905D01*
X55625152Y-80053144D01*
X55823778Y-79955838D01*
X55832636Y-79950559D01*
X56012716Y-79822109D01*
X56020578Y-79815465D01*
X56177260Y-79659329D01*
X56183937Y-79651484D01*
X56313010Y-79471859D01*
X56318321Y-79463020D01*
X56416318Y-79264737D01*
X56420117Y-79255142D01*
X56484415Y-79043517D01*
X56486594Y-79033436D01*
X56489422Y-79011960D01*
X56487210Y-78997779D01*
X56474052Y-78994000D01*
X55377115Y-78994000D01*
X55361876Y-78998475D01*
X55360671Y-78999865D01*
X55359000Y-79007548D01*
X55359000Y-80108928D01*
X54851000Y-80108928D01*
X54851000Y-79012115D01*
X54846525Y-78996876D01*
X54845135Y-78995671D01*
X54837452Y-78994000D01*
X53736968Y-78994000D01*
X53723437Y-78997973D01*
X53722000Y-79007966D01*
X52705000Y-79007966D01*
X52705000Y-77596000D01*
X52725002Y-77527879D01*
X52778658Y-77481386D01*
X52831000Y-77470000D01*
X54076390Y-77470000D01*
X54144511Y-77490002D01*
X54191004Y-77543658D01*
X54201108Y-77613932D01*
X54171614Y-77678512D01*
X54166836Y-77683346D01*
X54166988Y-77683491D01*
X54010600Y-77847143D01*
X54004113Y-77855153D01*
X53879474Y-78037867D01*
X53874376Y-78046841D01*
X53781252Y-78247459D01*
X53777689Y-78257146D01*
X53718581Y-78470279D01*
X53718484Y-78470788D01*
X53720625Y-78482609D01*
X53733001Y-78486000D01*
X56474900Y-78486000D01*
X56488431Y-78482027D01*
X56489736Y-78472947D01*
X56443710Y-78289708D01*
X56440389Y-78279953D01*
X56352193Y-78077118D01*
X56347315Y-78068020D01*
X56227177Y-77882315D01*
X56220885Y-77874144D01*
X56072023Y-77710547D01*
X56064492Y-77703523D01*
X56053551Y-77694883D01*
X56012488Y-77636967D01*
X56009255Y-77566044D01*
X56044879Y-77504632D01*
X56108050Y-77472228D01*
X56131642Y-77470000D01*
X57024000Y-77470000D01*
X57092121Y-77490002D01*
X57138614Y-77543658D01*
X57150000Y-77596000D01*
X57150000Y-81915000D01*
X78105000Y-81915000D01*
X78105000Y-80939895D01*
X78125002Y-80871774D01*
X78178658Y-80825281D01*
X78248932Y-80815177D01*
X78289747Y-80828787D01*
X78295062Y-80832771D01*
X78303463Y-80835920D01*
X78303466Y-80835922D01*
X78369765Y-80860776D01*
X78431451Y-80883901D01*
X78493633Y-80890656D01*
X79961501Y-80890656D01*
X80023683Y-80883901D01*
X80160072Y-80832771D01*
X80276628Y-80745417D01*
X80363982Y-80628861D01*
X80415112Y-80492472D01*
X80421867Y-80430290D01*
X80421867Y-79664959D01*
X89153762Y-79664959D01*
X89168118Y-79883986D01*
X89222148Y-80096729D01*
X89314042Y-80296064D01*
X89317373Y-80300777D01*
X89317374Y-80300779D01*
X89411305Y-80433687D01*
X89440724Y-80475314D01*
X89497148Y-80530280D01*
X89579091Y-80610105D01*
X89597950Y-80628477D01*
X89602746Y-80631682D01*
X89602749Y-80631684D01*
X89609279Y-80636047D01*
X89780455Y-80750423D01*
X89785758Y-80752701D01*
X89785761Y-80752703D01*
X89877407Y-80792077D01*
X89982127Y-80837068D01*
X90098766Y-80863461D01*
X90176838Y-80881127D01*
X90196212Y-80885511D01*
X90201983Y-80885738D01*
X90201985Y-80885738D01*
X90275401Y-80888622D01*
X90415540Y-80894128D01*
X90507209Y-80880837D01*
X90627051Y-80863461D01*
X90627056Y-80863460D01*
X90632765Y-80862632D01*
X90638229Y-80860777D01*
X90638234Y-80860776D01*
X90835145Y-80793933D01*
X90840613Y-80792077D01*
X91032124Y-80684826D01*
X91200882Y-80544471D01*
X91293020Y-80433687D01*
X91337546Y-80380151D01*
X91341237Y-80375713D01*
X91448488Y-80184202D01*
X91465655Y-80133631D01*
X103286860Y-80133631D01*
X103287157Y-80138783D01*
X103287157Y-80138787D01*
X103295924Y-80290818D01*
X103300903Y-80377171D01*
X103302040Y-80382217D01*
X103302041Y-80382223D01*
X103335407Y-80530280D01*
X103354533Y-80615147D01*
X103356475Y-80619929D01*
X103356476Y-80619933D01*
X103440714Y-80827385D01*
X103446311Y-80841169D01*
X103573772Y-81049166D01*
X103733492Y-81233553D01*
X103921183Y-81389377D01*
X104131804Y-81512453D01*
X104359698Y-81599478D01*
X104364764Y-81600509D01*
X104364765Y-81600509D01*
X104593667Y-81647080D01*
X104593671Y-81647080D01*
X104598746Y-81648113D01*
X104603922Y-81648303D01*
X104603924Y-81648303D01*
X104837363Y-81656863D01*
X104837367Y-81656863D01*
X104842527Y-81657052D01*
X104847647Y-81656396D01*
X104847649Y-81656396D01*
X104924377Y-81646567D01*
X105084494Y-81626055D01*
X105089443Y-81624570D01*
X105089449Y-81624569D01*
X105313200Y-81557440D01*
X105313199Y-81557440D01*
X105318150Y-81555955D01*
X105537219Y-81448634D01*
X105541424Y-81445634D01*
X105541430Y-81445631D01*
X105731614Y-81309974D01*
X105731616Y-81309972D01*
X105735818Y-81306975D01*
X105908614Y-81134781D01*
X106050966Y-80936677D01*
X106056241Y-80926005D01*
X106156756Y-80722626D01*
X106156757Y-80722624D01*
X106159050Y-80717984D01*
X106211768Y-80544471D01*
X106228462Y-80489527D01*
X106228463Y-80489521D01*
X106229966Y-80484575D01*
X106254784Y-80296064D01*
X106261370Y-80246038D01*
X106261370Y-80246034D01*
X106261807Y-80242717D01*
X106263584Y-80170000D01*
X106243596Y-79926876D01*
X106184167Y-79690280D01*
X106086894Y-79466568D01*
X105954390Y-79261748D01*
X105850583Y-79147665D01*
X105793690Y-79085141D01*
X105793688Y-79085140D01*
X105790212Y-79081319D01*
X105786161Y-79078120D01*
X105786157Y-79078116D01*
X105602825Y-78933329D01*
X105602821Y-78933327D01*
X105598770Y-78930127D01*
X105385205Y-78812233D01*
X105380336Y-78810509D01*
X105380332Y-78810507D01*
X105160127Y-78732528D01*
X105160123Y-78732527D01*
X105155252Y-78730802D01*
X105150159Y-78729895D01*
X105150156Y-78729894D01*
X104920177Y-78688928D01*
X104920171Y-78688927D01*
X104915088Y-78688022D01*
X104835380Y-78687048D01*
X104676332Y-78685105D01*
X104676330Y-78685105D01*
X104671162Y-78685042D01*
X104430024Y-78721941D01*
X104198150Y-78797729D01*
X104193558Y-78800119D01*
X104193559Y-78800119D01*
X104001229Y-78900240D01*
X103981769Y-78910370D01*
X103977636Y-78913473D01*
X103977633Y-78913475D01*
X103798164Y-79048225D01*
X103786690Y-79056840D01*
X103618153Y-79233204D01*
X103615239Y-79237476D01*
X103615238Y-79237477D01*
X103564471Y-79311899D01*
X103480684Y-79434726D01*
X103377974Y-79655995D01*
X103312783Y-79891067D01*
X103286860Y-80133631D01*
X91465655Y-80133631D01*
X91469727Y-80121634D01*
X91517187Y-79981823D01*
X91517188Y-79981818D01*
X91519043Y-79976354D01*
X91519871Y-79970645D01*
X91519872Y-79970640D01*
X91542371Y-79815465D01*
X91550539Y-79759129D01*
X91552183Y-79696356D01*
X91539152Y-79554533D01*
X91532628Y-79483534D01*
X91532627Y-79483531D01*
X91532099Y-79477780D01*
X91527936Y-79463020D01*
X91474086Y-79272083D01*
X91474085Y-79272081D01*
X91472518Y-79266524D01*
X91458136Y-79237359D01*
X91377992Y-79074844D01*
X91375437Y-79069663D01*
X91341872Y-79024713D01*
X91247560Y-78898414D01*
X91247559Y-78898413D01*
X91244107Y-78893790D01*
X91138450Y-78796122D01*
X91087165Y-78748714D01*
X91087162Y-78748712D01*
X91082925Y-78744795D01*
X90897290Y-78627669D01*
X90693420Y-78546332D01*
X90687752Y-78545205D01*
X90687750Y-78545204D01*
X90483808Y-78504638D01*
X90483804Y-78504638D01*
X90478140Y-78503511D01*
X90472365Y-78503435D01*
X90472361Y-78503435D01*
X90361730Y-78501987D01*
X90258662Y-78500637D01*
X90252965Y-78501616D01*
X90252964Y-78501616D01*
X90048032Y-78536830D01*
X90042335Y-78537809D01*
X89836405Y-78613781D01*
X89831444Y-78616733D01*
X89831443Y-78616733D01*
X89652736Y-78723052D01*
X89652733Y-78723054D01*
X89647768Y-78726008D01*
X89482741Y-78870733D01*
X89346852Y-79043107D01*
X89344161Y-79048223D01*
X89344159Y-79048225D01*
X89324737Y-79085141D01*
X89244651Y-79237359D01*
X89179561Y-79446983D01*
X89153762Y-79664959D01*
X80421867Y-79664959D01*
X80421867Y-79139327D01*
X80441869Y-79071206D01*
X80495525Y-79024713D01*
X80549513Y-79015898D01*
X80549513Y-79013500D01*
X80740487Y-79013500D01*
X80746939Y-79012128D01*
X80746944Y-79012128D01*
X80833887Y-78993647D01*
X80927288Y-78973794D01*
X80973730Y-78953117D01*
X81095722Y-78898803D01*
X81095724Y-78898802D01*
X81101752Y-78896118D01*
X81256253Y-78783866D01*
X81311010Y-78723052D01*
X81379621Y-78646852D01*
X81379622Y-78646851D01*
X81384040Y-78641944D01*
X81443007Y-78539810D01*
X81476223Y-78482279D01*
X81476224Y-78482278D01*
X81479527Y-78476556D01*
X81538542Y-78294928D01*
X81558504Y-78105000D01*
X81538542Y-77915072D01*
X81479527Y-77733444D01*
X81466308Y-77710547D01*
X81423826Y-77636967D01*
X81384040Y-77568056D01*
X81374274Y-77557209D01*
X81260675Y-77431045D01*
X81260674Y-77431044D01*
X81256253Y-77426134D01*
X81101752Y-77313882D01*
X81095724Y-77311198D01*
X81095722Y-77311197D01*
X80933319Y-77238891D01*
X80933318Y-77238891D01*
X80927288Y-77236206D01*
X80833887Y-77216353D01*
X80746944Y-77197872D01*
X80746939Y-77197872D01*
X80740487Y-77196500D01*
X80549513Y-77196500D01*
X80543061Y-77197872D01*
X80543056Y-77197872D01*
X80456113Y-77216353D01*
X80362712Y-77236206D01*
X80356682Y-77238891D01*
X80356681Y-77238891D01*
X80194278Y-77311197D01*
X80194276Y-77311198D01*
X80188248Y-77313882D01*
X80033747Y-77426134D01*
X80029326Y-77431044D01*
X80029325Y-77431045D01*
X79915727Y-77557209D01*
X79905960Y-77568056D01*
X79866174Y-77636967D01*
X79823693Y-77710547D01*
X79810473Y-77733444D01*
X79751458Y-77915072D01*
X79731496Y-78105000D01*
X79751458Y-78294928D01*
X79753498Y-78301206D01*
X79765167Y-78337120D01*
X79767194Y-78408088D01*
X79730532Y-78468885D01*
X79666820Y-78500211D01*
X79645334Y-78502056D01*
X78493633Y-78502056D01*
X78431451Y-78508811D01*
X78384181Y-78526532D01*
X78303466Y-78556790D01*
X78303463Y-78556792D01*
X78295062Y-78559941D01*
X78290128Y-78563639D01*
X78222152Y-78578506D01*
X78155604Y-78553770D01*
X78112994Y-78496982D01*
X78105000Y-78452817D01*
X78105000Y-76432173D01*
X78125002Y-76364052D01*
X78178658Y-76317559D01*
X78248932Y-76307455D01*
X78313512Y-76336949D01*
X78334213Y-76359902D01*
X78354852Y-76389377D01*
X78368802Y-76409300D01*
X78530700Y-76571198D01*
X78535208Y-76574355D01*
X78535211Y-76574357D01*
X78544076Y-76580564D01*
X78718251Y-76702523D01*
X78723233Y-76704846D01*
X78723238Y-76704849D01*
X78919765Y-76796490D01*
X78925757Y-76799284D01*
X78931065Y-76800706D01*
X78931067Y-76800707D01*
X79141598Y-76857119D01*
X79141600Y-76857119D01*
X79146913Y-76858543D01*
X79375000Y-76878498D01*
X79603087Y-76858543D01*
X79608400Y-76857119D01*
X79608402Y-76857119D01*
X79818933Y-76800707D01*
X79818935Y-76800706D01*
X79824243Y-76799284D01*
X79830235Y-76796490D01*
X80026762Y-76704849D01*
X80026767Y-76704846D01*
X80031749Y-76702523D01*
X80205924Y-76580564D01*
X80214789Y-76574357D01*
X80214792Y-76574355D01*
X80219300Y-76571198D01*
X80381198Y-76409300D01*
X80395149Y-76389377D01*
X80452847Y-76306975D01*
X80512523Y-76221749D01*
X80514846Y-76216767D01*
X80514849Y-76216762D01*
X80606961Y-76019225D01*
X80606961Y-76019224D01*
X80609284Y-76014243D01*
X80629236Y-75939784D01*
X80658245Y-75831522D01*
X90792273Y-75831522D01*
X90839764Y-76008761D01*
X90843510Y-76019053D01*
X90935586Y-76216511D01*
X90941069Y-76226007D01*
X91066028Y-76404467D01*
X91073084Y-76412875D01*
X91227125Y-76566916D01*
X91235533Y-76573972D01*
X91413993Y-76698931D01*
X91423489Y-76704414D01*
X91620947Y-76796490D01*
X91631239Y-76800236D01*
X91803503Y-76846394D01*
X91817599Y-76846058D01*
X91821000Y-76838116D01*
X91821000Y-76832967D01*
X92329000Y-76832967D01*
X92332973Y-76846498D01*
X92341522Y-76847727D01*
X92518761Y-76800236D01*
X92529053Y-76796490D01*
X92726511Y-76704414D01*
X92736007Y-76698931D01*
X92914467Y-76573972D01*
X92922875Y-76566916D01*
X93076916Y-76412875D01*
X93083972Y-76404467D01*
X93208931Y-76226007D01*
X93214414Y-76216511D01*
X93306490Y-76019053D01*
X93310236Y-76008761D01*
X93356394Y-75836497D01*
X93356058Y-75822401D01*
X93348116Y-75819000D01*
X92347115Y-75819000D01*
X92331876Y-75823475D01*
X92330671Y-75824865D01*
X92329000Y-75832548D01*
X92329000Y-76832967D01*
X91821000Y-76832967D01*
X91821000Y-75837115D01*
X91816525Y-75821876D01*
X91815135Y-75820671D01*
X91807452Y-75819000D01*
X90807033Y-75819000D01*
X90793502Y-75822973D01*
X90792273Y-75831522D01*
X80658245Y-75831522D01*
X80667119Y-75798402D01*
X80667119Y-75798400D01*
X80668543Y-75793087D01*
X80688498Y-75565000D01*
X80668543Y-75336913D01*
X80658244Y-75298478D01*
X80656911Y-75293503D01*
X90793606Y-75293503D01*
X90793942Y-75307599D01*
X90801884Y-75311000D01*
X91802885Y-75311000D01*
X91818124Y-75306525D01*
X91819329Y-75305135D01*
X91821000Y-75297452D01*
X91821000Y-75292885D01*
X92329000Y-75292885D01*
X92333475Y-75308124D01*
X92334865Y-75309329D01*
X92342548Y-75311000D01*
X93342967Y-75311000D01*
X93356498Y-75307027D01*
X93357727Y-75298478D01*
X93313556Y-75133631D01*
X103286860Y-75133631D01*
X103287157Y-75138783D01*
X103287157Y-75138787D01*
X103296306Y-75297452D01*
X103300903Y-75377171D01*
X103302040Y-75382217D01*
X103302041Y-75382223D01*
X103335825Y-75532131D01*
X103354533Y-75615147D01*
X103356475Y-75619929D01*
X103356476Y-75619933D01*
X103442394Y-75831522D01*
X103446311Y-75841169D01*
X103573772Y-76049166D01*
X103733492Y-76233553D01*
X103921183Y-76389377D01*
X104131804Y-76512453D01*
X104359698Y-76599478D01*
X104364764Y-76600509D01*
X104364765Y-76600509D01*
X104593667Y-76647080D01*
X104593671Y-76647080D01*
X104598746Y-76648113D01*
X104603922Y-76648303D01*
X104603924Y-76648303D01*
X104837363Y-76656863D01*
X104837367Y-76656863D01*
X104842527Y-76657052D01*
X104847647Y-76656396D01*
X104847649Y-76656396D01*
X104924377Y-76646567D01*
X105084494Y-76626055D01*
X105089443Y-76624570D01*
X105089449Y-76624569D01*
X105313200Y-76557440D01*
X105313199Y-76557440D01*
X105318150Y-76555955D01*
X105537219Y-76448634D01*
X105541424Y-76445634D01*
X105541430Y-76445631D01*
X105731614Y-76309974D01*
X105731616Y-76309972D01*
X105735818Y-76306975D01*
X105908614Y-76134781D01*
X106050966Y-75936677D01*
X106102430Y-75832548D01*
X106156756Y-75722626D01*
X106156757Y-75722624D01*
X106159050Y-75717984D01*
X106190295Y-75615147D01*
X106228462Y-75489527D01*
X106228463Y-75489521D01*
X106229966Y-75484575D01*
X106247335Y-75352642D01*
X106261370Y-75246038D01*
X106261370Y-75246034D01*
X106261807Y-75242717D01*
X106263584Y-75170000D01*
X106243596Y-74926876D01*
X106184167Y-74690280D01*
X106125625Y-74555643D01*
X106088954Y-74471305D01*
X106088952Y-74471302D01*
X106086894Y-74466568D01*
X105968531Y-74283606D01*
X105957200Y-74266091D01*
X105957198Y-74266088D01*
X105954390Y-74261748D01*
X105934497Y-74239885D01*
X105793690Y-74085141D01*
X105793688Y-74085140D01*
X105790212Y-74081319D01*
X105786161Y-74078120D01*
X105786157Y-74078116D01*
X105602825Y-73933329D01*
X105602821Y-73933327D01*
X105598770Y-73930127D01*
X105385205Y-73812233D01*
X105380336Y-73810509D01*
X105380332Y-73810507D01*
X105160127Y-73732528D01*
X105160123Y-73732527D01*
X105155252Y-73730802D01*
X105150159Y-73729895D01*
X105150156Y-73729894D01*
X104920177Y-73688928D01*
X104920171Y-73688927D01*
X104915088Y-73688022D01*
X104835380Y-73687048D01*
X104676332Y-73685105D01*
X104676330Y-73685105D01*
X104671162Y-73685042D01*
X104430024Y-73721941D01*
X104198150Y-73797729D01*
X103981769Y-73910370D01*
X103977636Y-73913473D01*
X103977633Y-73913475D01*
X103790825Y-74053735D01*
X103786690Y-74056840D01*
X103618153Y-74233204D01*
X103615239Y-74237476D01*
X103615238Y-74237477D01*
X103552284Y-74329764D01*
X103480684Y-74434726D01*
X103463705Y-74471305D01*
X103423090Y-74558802D01*
X103377974Y-74655995D01*
X103312783Y-74891067D01*
X103286860Y-75133631D01*
X93313556Y-75133631D01*
X93310236Y-75121239D01*
X93306490Y-75110947D01*
X93214414Y-74913489D01*
X93208931Y-74903993D01*
X93083972Y-74725533D01*
X93076916Y-74717125D01*
X92922875Y-74563084D01*
X92914467Y-74556028D01*
X92736007Y-74431069D01*
X92726511Y-74425586D01*
X92529053Y-74333510D01*
X92518761Y-74329764D01*
X92346497Y-74283606D01*
X92332401Y-74283942D01*
X92329000Y-74291884D01*
X92329000Y-75292885D01*
X91821000Y-75292885D01*
X91821000Y-74297033D01*
X91817027Y-74283502D01*
X91808478Y-74282273D01*
X91631239Y-74329764D01*
X91620947Y-74333510D01*
X91423489Y-74425586D01*
X91413993Y-74431069D01*
X91235533Y-74556028D01*
X91227125Y-74563084D01*
X91073084Y-74717125D01*
X91066028Y-74725533D01*
X90941069Y-74903993D01*
X90935586Y-74913489D01*
X90843510Y-75110947D01*
X90839764Y-75121239D01*
X90793606Y-75293503D01*
X80656911Y-75293503D01*
X80610707Y-75121067D01*
X80610706Y-75121065D01*
X80609284Y-75115757D01*
X80585399Y-75064535D01*
X80514849Y-74913238D01*
X80514846Y-74913233D01*
X80512523Y-74908251D01*
X80381198Y-74720700D01*
X80219300Y-74558802D01*
X80214792Y-74555645D01*
X80214789Y-74555643D01*
X80127780Y-74494719D01*
X80031749Y-74427477D01*
X80026767Y-74425154D01*
X80026762Y-74425151D01*
X79829225Y-74333039D01*
X79829224Y-74333039D01*
X79824243Y-74330716D01*
X79818935Y-74329294D01*
X79818933Y-74329293D01*
X79608402Y-74272881D01*
X79608400Y-74272881D01*
X79603087Y-74271457D01*
X79375000Y-74251502D01*
X79146913Y-74271457D01*
X79141600Y-74272881D01*
X79141598Y-74272881D01*
X78931067Y-74329293D01*
X78931065Y-74329294D01*
X78925757Y-74330716D01*
X78920776Y-74333039D01*
X78920775Y-74333039D01*
X78723238Y-74425151D01*
X78723233Y-74425154D01*
X78718251Y-74427477D01*
X78622220Y-74494719D01*
X78535211Y-74555643D01*
X78535208Y-74555645D01*
X78530700Y-74558802D01*
X78368802Y-74720700D01*
X78365645Y-74725208D01*
X78365643Y-74725211D01*
X78334213Y-74770098D01*
X78278756Y-74814426D01*
X78208136Y-74821735D01*
X78144776Y-74789704D01*
X78108791Y-74728503D01*
X78105000Y-74697827D01*
X78105000Y-70995962D01*
X78125002Y-70927841D01*
X78178658Y-70881348D01*
X78248932Y-70871244D01*
X78313512Y-70900738D01*
X78345426Y-70943211D01*
X78378038Y-71013953D01*
X78378041Y-71013958D01*
X78380457Y-71019199D01*
X78383788Y-71023912D01*
X78383789Y-71023914D01*
X78397684Y-71043574D01*
X78501751Y-71190825D01*
X78652289Y-71337474D01*
X78657085Y-71340679D01*
X78657088Y-71340681D01*
X78764627Y-71412536D01*
X78827031Y-71454233D01*
X78832339Y-71456514D01*
X78832340Y-71456514D01*
X79014822Y-71534914D01*
X79014825Y-71534915D01*
X79020125Y-71537192D01*
X79025754Y-71538466D01*
X79025755Y-71538466D01*
X79219467Y-71582299D01*
X79219473Y-71582300D01*
X79225104Y-71583574D01*
X79230875Y-71583801D01*
X79230877Y-71583801D01*
X79294433Y-71586298D01*
X79435103Y-71591825D01*
X79643088Y-71561669D01*
X79648552Y-71559814D01*
X79648557Y-71559813D01*
X79836624Y-71495973D01*
X79836629Y-71495971D01*
X79842096Y-71494115D01*
X80025460Y-71391426D01*
X80187041Y-71257041D01*
X80321426Y-71095460D01*
X80406690Y-70943211D01*
X80421291Y-70917139D01*
X80421292Y-70917137D01*
X80424115Y-70912096D01*
X80425971Y-70906629D01*
X80425973Y-70906624D01*
X80489813Y-70718557D01*
X80489814Y-70718552D01*
X80491669Y-70713088D01*
X80521825Y-70505103D01*
X80521868Y-70503466D01*
X80542816Y-70449564D01*
X80541184Y-70446214D01*
X80747868Y-70446214D01*
X80770730Y-70489477D01*
X80772985Y-70506334D01*
X80773145Y-70508772D01*
X80780740Y-70624649D01*
X80832471Y-70828343D01*
X80843652Y-70852596D01*
X80918038Y-71013953D01*
X80918041Y-71013958D01*
X80920457Y-71019199D01*
X80923788Y-71023912D01*
X80923789Y-71023914D01*
X80937684Y-71043574D01*
X81041751Y-71190825D01*
X81192289Y-71337474D01*
X81197085Y-71340679D01*
X81197088Y-71340681D01*
X81304627Y-71412536D01*
X81367031Y-71454233D01*
X81372339Y-71456514D01*
X81372340Y-71456514D01*
X81554822Y-71534914D01*
X81554825Y-71534915D01*
X81560125Y-71537192D01*
X81565754Y-71538466D01*
X81565755Y-71538466D01*
X81759467Y-71582299D01*
X81759473Y-71582300D01*
X81765104Y-71583574D01*
X81770875Y-71583801D01*
X81770877Y-71583801D01*
X81834433Y-71586298D01*
X81975103Y-71591825D01*
X82183088Y-71561669D01*
X82188552Y-71559814D01*
X82188557Y-71559813D01*
X82376624Y-71495973D01*
X82376629Y-71495971D01*
X82382096Y-71494115D01*
X82565460Y-71391426D01*
X82727041Y-71257041D01*
X82861426Y-71095460D01*
X82946690Y-70943211D01*
X82961291Y-70917139D01*
X82961292Y-70917137D01*
X82964115Y-70912096D01*
X82965971Y-70906629D01*
X82965973Y-70906624D01*
X83029813Y-70718557D01*
X83029814Y-70718552D01*
X83031669Y-70713088D01*
X83061825Y-70505103D01*
X83061868Y-70503466D01*
X83082816Y-70449564D01*
X83081184Y-70446214D01*
X83287868Y-70446214D01*
X83310730Y-70489477D01*
X83312985Y-70506334D01*
X83313145Y-70508772D01*
X83320740Y-70624649D01*
X83372471Y-70828343D01*
X83383652Y-70852596D01*
X83458038Y-71013953D01*
X83458041Y-71013958D01*
X83460457Y-71019199D01*
X83463788Y-71023912D01*
X83463789Y-71023914D01*
X83477684Y-71043574D01*
X83581751Y-71190825D01*
X83732289Y-71337474D01*
X83737085Y-71340679D01*
X83737088Y-71340681D01*
X83844627Y-71412536D01*
X83907031Y-71454233D01*
X83912339Y-71456514D01*
X83912340Y-71456514D01*
X84094822Y-71534914D01*
X84094825Y-71534915D01*
X84100125Y-71537192D01*
X84105754Y-71538466D01*
X84105755Y-71538466D01*
X84299467Y-71582299D01*
X84299473Y-71582300D01*
X84305104Y-71583574D01*
X84310875Y-71583801D01*
X84310877Y-71583801D01*
X84374433Y-71586298D01*
X84515103Y-71591825D01*
X84723088Y-71561669D01*
X84728552Y-71559814D01*
X84728557Y-71559813D01*
X84916624Y-71495973D01*
X84916629Y-71495971D01*
X84922096Y-71494115D01*
X85069562Y-71411530D01*
X86392830Y-71411530D01*
X86402710Y-71424017D01*
X86442472Y-71450585D01*
X86452575Y-71456071D01*
X86634973Y-71534435D01*
X86645916Y-71537990D01*
X86839533Y-71581802D01*
X86850942Y-71583304D01*
X87049308Y-71591097D01*
X87060790Y-71590495D01*
X87257250Y-71562011D01*
X87268445Y-71559323D01*
X87456424Y-71495512D01*
X87466931Y-71490834D01*
X87588745Y-71422614D01*
X87598610Y-71412536D01*
X87595654Y-71404864D01*
X87007812Y-70817022D01*
X86993868Y-70809408D01*
X86992035Y-70809539D01*
X86985420Y-70813790D01*
X86399027Y-71400183D01*
X86392830Y-71411530D01*
X85069562Y-71411530D01*
X85105460Y-71391426D01*
X85267041Y-71257041D01*
X85401426Y-71095460D01*
X85486690Y-70943211D01*
X85501291Y-70917139D01*
X85501292Y-70917137D01*
X85504115Y-70912096D01*
X85505971Y-70906629D01*
X85505973Y-70906624D01*
X85569813Y-70718557D01*
X85569814Y-70718552D01*
X85571669Y-70713088D01*
X85601825Y-70505103D01*
X85601922Y-70501394D01*
X85601994Y-70500551D01*
X85621836Y-70449493D01*
X85619832Y-70445380D01*
X85829464Y-70445380D01*
X85851013Y-70486159D01*
X85853268Y-70503015D01*
X85860858Y-70618803D01*
X85862659Y-70630173D01*
X85911523Y-70822576D01*
X85915364Y-70833423D01*
X85998475Y-71013705D01*
X86004223Y-71023661D01*
X86015675Y-71039867D01*
X86026263Y-71048254D01*
X86039564Y-71041226D01*
X86622978Y-70457812D01*
X86629356Y-70446132D01*
X87359408Y-70446132D01*
X87359539Y-70447965D01*
X87363790Y-70454580D01*
X87950950Y-71041740D01*
X87963330Y-71048500D01*
X87969910Y-71043574D01*
X88040834Y-70916931D01*
X88045512Y-70906424D01*
X88109323Y-70718445D01*
X88112011Y-70707250D01*
X88140791Y-70508750D01*
X88141421Y-70501367D01*
X88142800Y-70448704D01*
X88142557Y-70441305D01*
X88124204Y-70241566D01*
X88122107Y-70230251D01*
X88068222Y-70039190D01*
X88064100Y-70028451D01*
X87976299Y-69850409D01*
X87974192Y-69846970D01*
X87964876Y-69839980D01*
X87952459Y-69846751D01*
X87367022Y-70432188D01*
X87359408Y-70446132D01*
X86629356Y-70446132D01*
X86630592Y-70443868D01*
X86630461Y-70442035D01*
X86626210Y-70435420D01*
X86037626Y-69846836D01*
X86025246Y-69840076D01*
X86019280Y-69844542D01*
X85937173Y-70000602D01*
X85932768Y-70011236D01*
X85873900Y-70200822D01*
X85871508Y-70212076D01*
X85849432Y-70398597D01*
X85829464Y-70445380D01*
X85619832Y-70445380D01*
X85600075Y-70404830D01*
X85598834Y-70395316D01*
X85584698Y-70241478D01*
X85584169Y-70235721D01*
X85577501Y-70212076D01*
X85529337Y-70041301D01*
X85527123Y-70033451D01*
X85457717Y-69892709D01*
X85436726Y-69850144D01*
X85434171Y-69844963D01*
X85382930Y-69776342D01*
X85311880Y-69681195D01*
X85311879Y-69681194D01*
X85308427Y-69676571D01*
X85280428Y-69650689D01*
X85158341Y-69537833D01*
X85158338Y-69537831D01*
X85154101Y-69533914D01*
X85065703Y-69478139D01*
X86392251Y-69478139D01*
X86395738Y-69486528D01*
X86982188Y-70072978D01*
X86996132Y-70080592D01*
X86997965Y-70080461D01*
X87004580Y-70076210D01*
X87590657Y-69490133D01*
X87597417Y-69477753D01*
X87591387Y-69469698D01*
X87521020Y-69425299D01*
X87510769Y-69420076D01*
X87326389Y-69346516D01*
X87315352Y-69343247D01*
X87120654Y-69304518D01*
X87109210Y-69303315D01*
X86910719Y-69300718D01*
X86899239Y-69301621D01*
X86703599Y-69335238D01*
X86692479Y-69338218D01*
X86506234Y-69406927D01*
X86495856Y-69411877D01*
X86401849Y-69467806D01*
X86392251Y-69478139D01*
X85065703Y-69478139D01*
X84976362Y-69421769D01*
X84781163Y-69343892D01*
X84775506Y-69342767D01*
X84775500Y-69342765D01*
X84580707Y-69304019D01*
X84580705Y-69304019D01*
X84575040Y-69302892D01*
X84569265Y-69302816D01*
X84569261Y-69302816D01*
X84464001Y-69301438D01*
X84364898Y-69300141D01*
X84359201Y-69301120D01*
X84359200Y-69301120D01*
X84163469Y-69334753D01*
X84157772Y-69335732D01*
X83960601Y-69408472D01*
X83955640Y-69411424D01*
X83955639Y-69411424D01*
X83848012Y-69475456D01*
X83779988Y-69515926D01*
X83621981Y-69654494D01*
X83491872Y-69819537D01*
X83489181Y-69824653D01*
X83489179Y-69824655D01*
X83399697Y-69994733D01*
X83394018Y-70005527D01*
X83331696Y-70206234D01*
X83331017Y-70211969D01*
X83331017Y-70211970D01*
X83309212Y-70396206D01*
X83287868Y-70446214D01*
X83081184Y-70446214D01*
X83059855Y-70402440D01*
X83058614Y-70392926D01*
X83044698Y-70241478D01*
X83044169Y-70235721D01*
X83037501Y-70212076D01*
X82989337Y-70041301D01*
X82987123Y-70033451D01*
X82917717Y-69892709D01*
X82896726Y-69850144D01*
X82894171Y-69844963D01*
X82842930Y-69776342D01*
X82771880Y-69681195D01*
X82771879Y-69681194D01*
X82768427Y-69676571D01*
X82740428Y-69650689D01*
X82618341Y-69537833D01*
X82618338Y-69537831D01*
X82614101Y-69533914D01*
X82436362Y-69421769D01*
X82241163Y-69343892D01*
X82235506Y-69342767D01*
X82235500Y-69342765D01*
X82040707Y-69304019D01*
X82040705Y-69304019D01*
X82035040Y-69302892D01*
X82029265Y-69302816D01*
X82029261Y-69302816D01*
X81924001Y-69301438D01*
X81824898Y-69300141D01*
X81819201Y-69301120D01*
X81819200Y-69301120D01*
X81623469Y-69334753D01*
X81617772Y-69335732D01*
X81420601Y-69408472D01*
X81415640Y-69411424D01*
X81415639Y-69411424D01*
X81308012Y-69475456D01*
X81239988Y-69515926D01*
X81081981Y-69654494D01*
X80951872Y-69819537D01*
X80949181Y-69824653D01*
X80949179Y-69824655D01*
X80859697Y-69994733D01*
X80854018Y-70005527D01*
X80791696Y-70206234D01*
X80791017Y-70211969D01*
X80791017Y-70211970D01*
X80769212Y-70396206D01*
X80747868Y-70446214D01*
X80541184Y-70446214D01*
X80519855Y-70402440D01*
X80518614Y-70392926D01*
X80504698Y-70241478D01*
X80504169Y-70235721D01*
X80497501Y-70212076D01*
X80449337Y-70041301D01*
X80447123Y-70033451D01*
X80377717Y-69892709D01*
X80356726Y-69850144D01*
X80354171Y-69844963D01*
X80302930Y-69776342D01*
X80231880Y-69681195D01*
X80231879Y-69681194D01*
X80228427Y-69676571D01*
X80200428Y-69650689D01*
X80078341Y-69537833D01*
X80078338Y-69537831D01*
X80074101Y-69533914D01*
X79896362Y-69421769D01*
X79701163Y-69343892D01*
X79695506Y-69342767D01*
X79695500Y-69342765D01*
X79500707Y-69304019D01*
X79500705Y-69304019D01*
X79495040Y-69302892D01*
X79489265Y-69302816D01*
X79489261Y-69302816D01*
X79384001Y-69301438D01*
X79284898Y-69300141D01*
X79279201Y-69301120D01*
X79279200Y-69301120D01*
X79083469Y-69334753D01*
X79077772Y-69335732D01*
X78880601Y-69408472D01*
X78875640Y-69411424D01*
X78875639Y-69411424D01*
X78768012Y-69475456D01*
X78699988Y-69515926D01*
X78541981Y-69654494D01*
X78411872Y-69819537D01*
X78354194Y-69929165D01*
X78342508Y-69951377D01*
X78293089Y-70002349D01*
X78223956Y-70018512D01*
X78157060Y-69994733D01*
X78113640Y-69938562D01*
X78105000Y-69892709D01*
X78105000Y-69850000D01*
X68706000Y-69850000D01*
X68637879Y-69829998D01*
X68591386Y-69776342D01*
X68580000Y-69724000D01*
X68580000Y-68580000D01*
X87986496Y-68580000D01*
X87987186Y-68586565D01*
X87998507Y-68694274D01*
X88006458Y-68769928D01*
X88065473Y-68951556D01*
X88160960Y-69116944D01*
X88288747Y-69258866D01*
X88443248Y-69371118D01*
X88449276Y-69373802D01*
X88449278Y-69373803D01*
X88564941Y-69425299D01*
X88617712Y-69448794D01*
X88707156Y-69467806D01*
X88798056Y-69487128D01*
X88798061Y-69487128D01*
X88804513Y-69488500D01*
X88995487Y-69488500D01*
X89001939Y-69487128D01*
X89001944Y-69487128D01*
X89092844Y-69467806D01*
X89182288Y-69448794D01*
X89235059Y-69425299D01*
X89350722Y-69373803D01*
X89350724Y-69373802D01*
X89356752Y-69371118D01*
X89511253Y-69258866D01*
X89639040Y-69116944D01*
X89734527Y-68951556D01*
X89793542Y-68769928D01*
X89801494Y-68694274D01*
X89812814Y-68586565D01*
X89813504Y-68580000D01*
X89797541Y-68428116D01*
X89794232Y-68396635D01*
X89794232Y-68396633D01*
X89793542Y-68390072D01*
X89734527Y-68208444D01*
X89639040Y-68043056D01*
X89511253Y-67901134D01*
X89356752Y-67788882D01*
X89350724Y-67786198D01*
X89350722Y-67786197D01*
X89252816Y-67742607D01*
X89198721Y-67696627D01*
X89178071Y-67628700D01*
X89197423Y-67560392D01*
X89252816Y-67512393D01*
X89257832Y-67510160D01*
X89334341Y-67476096D01*
X89350722Y-67468803D01*
X89350724Y-67468802D01*
X89356752Y-67466118D01*
X89511253Y-67353866D01*
X89518387Y-67345943D01*
X89634621Y-67216852D01*
X89634622Y-67216851D01*
X89639040Y-67211944D01*
X89708256Y-67092058D01*
X89731226Y-67052274D01*
X89731227Y-67052272D01*
X89734527Y-67046556D01*
X89735903Y-67042322D01*
X89781366Y-66988835D01*
X89849294Y-66968186D01*
X89917602Y-66987539D01*
X89939587Y-67005085D01*
X89960700Y-67026198D01*
X89965208Y-67029355D01*
X89965211Y-67029357D01*
X90043389Y-67084098D01*
X90148251Y-67157523D01*
X90153233Y-67159846D01*
X90153238Y-67159849D01*
X90350775Y-67251961D01*
X90355757Y-67254284D01*
X90361065Y-67255706D01*
X90361067Y-67255707D01*
X90571598Y-67312119D01*
X90571600Y-67312119D01*
X90576913Y-67313543D01*
X90805000Y-67333498D01*
X91033087Y-67313543D01*
X91038400Y-67312119D01*
X91038402Y-67312119D01*
X91248933Y-67255707D01*
X91248935Y-67255706D01*
X91254243Y-67254284D01*
X91259225Y-67251961D01*
X91456762Y-67159849D01*
X91456767Y-67159846D01*
X91461749Y-67157523D01*
X91566611Y-67084098D01*
X91644789Y-67029357D01*
X91644792Y-67029355D01*
X91649300Y-67026198D01*
X91811198Y-66864300D01*
X91815715Y-66857850D01*
X91910294Y-66722776D01*
X91942523Y-66676749D01*
X91944846Y-66671767D01*
X91944849Y-66671762D01*
X92036961Y-66474225D01*
X92036961Y-66474224D01*
X92039284Y-66469243D01*
X92042705Y-66456478D01*
X92097119Y-66253402D01*
X92097119Y-66253400D01*
X92098543Y-66248087D01*
X92118498Y-66020000D01*
X92098543Y-65791913D01*
X92039284Y-65570757D01*
X92005902Y-65499168D01*
X91944849Y-65368238D01*
X91944846Y-65368233D01*
X91942523Y-65363251D01*
X91811198Y-65175700D01*
X91649300Y-65013802D01*
X91644792Y-65010645D01*
X91644789Y-65010643D01*
X91466253Y-64885631D01*
X91461749Y-64882477D01*
X91456765Y-64880153D01*
X91454472Y-64878829D01*
X91405479Y-64827447D01*
X91392043Y-64757733D01*
X91418429Y-64691822D01*
X91454472Y-64660591D01*
X91466002Y-64653934D01*
X91518048Y-64617491D01*
X91526424Y-64607012D01*
X91519356Y-64593566D01*
X90817812Y-63892022D01*
X90803868Y-63884408D01*
X90802035Y-63884539D01*
X90795420Y-63888790D01*
X90089923Y-64594287D01*
X90083493Y-64606062D01*
X90092789Y-64618077D01*
X90143998Y-64653934D01*
X90155528Y-64660591D01*
X90204521Y-64711973D01*
X90217958Y-64781687D01*
X90191571Y-64847598D01*
X90155528Y-64878829D01*
X90153235Y-64880153D01*
X90148251Y-64882477D01*
X90143747Y-64885631D01*
X89965211Y-65010643D01*
X89965208Y-65010645D01*
X89960700Y-65013802D01*
X89798802Y-65175700D01*
X89667477Y-65363251D01*
X89665154Y-65368233D01*
X89665151Y-65368238D01*
X89604098Y-65499168D01*
X89570716Y-65570757D01*
X89511457Y-65791913D01*
X89509210Y-65791311D01*
X89482104Y-65846026D01*
X89421197Y-65882507D01*
X89350235Y-65880267D01*
X89338282Y-65875658D01*
X89188323Y-65808892D01*
X89188315Y-65808889D01*
X89182288Y-65806206D01*
X89052225Y-65778560D01*
X89001944Y-65767872D01*
X89001939Y-65767872D01*
X88995487Y-65766500D01*
X88804513Y-65766500D01*
X88798061Y-65767872D01*
X88798056Y-65767872D01*
X88747775Y-65778560D01*
X88617712Y-65806206D01*
X88611682Y-65808891D01*
X88611681Y-65808891D01*
X88449278Y-65881197D01*
X88449276Y-65881198D01*
X88443248Y-65883882D01*
X88288747Y-65996134D01*
X88284326Y-66001044D01*
X88284325Y-66001045D01*
X88226869Y-66064857D01*
X88160960Y-66138056D01*
X88065473Y-66303444D01*
X88006458Y-66485072D01*
X88005768Y-66491633D01*
X88005768Y-66491635D01*
X87996478Y-66580022D01*
X87986496Y-66675000D01*
X88006458Y-66864928D01*
X88065473Y-67046556D01*
X88068776Y-67052278D01*
X88068777Y-67052279D01*
X88091744Y-67092058D01*
X88160960Y-67211944D01*
X88165378Y-67216851D01*
X88165379Y-67216852D01*
X88281613Y-67345943D01*
X88288747Y-67353866D01*
X88443248Y-67466118D01*
X88449276Y-67468802D01*
X88449278Y-67468803D01*
X88465659Y-67476096D01*
X88542169Y-67510160D01*
X88547184Y-67512393D01*
X88601279Y-67558373D01*
X88621929Y-67626300D01*
X88602577Y-67694608D01*
X88547184Y-67742607D01*
X88449278Y-67786197D01*
X88449276Y-67786198D01*
X88443248Y-67788882D01*
X88288747Y-67901134D01*
X88160960Y-68043056D01*
X88065473Y-68208444D01*
X88006458Y-68390072D01*
X88005768Y-68396633D01*
X88005768Y-68396635D01*
X88002459Y-68428116D01*
X87986496Y-68580000D01*
X68580000Y-68580000D01*
X68580000Y-66598014D01*
X75252005Y-66598014D01*
X75258760Y-66660196D01*
X75309890Y-66796585D01*
X75397244Y-66913141D01*
X75513800Y-67000495D01*
X75650189Y-67051625D01*
X75712371Y-67058380D01*
X77180239Y-67058380D01*
X77242421Y-67051625D01*
X77378810Y-67000495D01*
X77495366Y-66913141D01*
X77582720Y-66796585D01*
X77633850Y-66660196D01*
X77640605Y-66598014D01*
X77640605Y-65130146D01*
X77633850Y-65067964D01*
X77582720Y-64931575D01*
X77495366Y-64815019D01*
X77378810Y-64727665D01*
X77242421Y-64676535D01*
X77180239Y-64669780D01*
X75712371Y-64669780D01*
X75650189Y-64676535D01*
X75513800Y-64727665D01*
X75397244Y-64815019D01*
X75309890Y-64931575D01*
X75258760Y-65067964D01*
X75252005Y-65130146D01*
X75252005Y-66598014D01*
X68580000Y-66598014D01*
X68580000Y-63525475D01*
X89492483Y-63525475D01*
X89511472Y-63742519D01*
X89513375Y-63753312D01*
X89569764Y-63963761D01*
X89573510Y-63974053D01*
X89665586Y-64171511D01*
X89671069Y-64181006D01*
X89707509Y-64233048D01*
X89717988Y-64241424D01*
X89731434Y-64234356D01*
X90432978Y-63532812D01*
X90439356Y-63521132D01*
X91169408Y-63521132D01*
X91169539Y-63522965D01*
X91173790Y-63529580D01*
X91879287Y-64235077D01*
X91891062Y-64241507D01*
X91903077Y-64232211D01*
X91938931Y-64181006D01*
X91944414Y-64171511D01*
X92036490Y-63974053D01*
X92040236Y-63963761D01*
X92096625Y-63753312D01*
X92098528Y-63742519D01*
X92117517Y-63525475D01*
X92117517Y-63514525D01*
X92098528Y-63297481D01*
X92096625Y-63286688D01*
X92040236Y-63076239D01*
X92036490Y-63065947D01*
X91944414Y-62868489D01*
X91938931Y-62858994D01*
X91902491Y-62806952D01*
X91892012Y-62798576D01*
X91878566Y-62805644D01*
X91177022Y-63507188D01*
X91169408Y-63521132D01*
X90439356Y-63521132D01*
X90440592Y-63518868D01*
X90440461Y-63517035D01*
X90436210Y-63510420D01*
X89730713Y-62804923D01*
X89718938Y-62798493D01*
X89706923Y-62807789D01*
X89671069Y-62858994D01*
X89665586Y-62868489D01*
X89573510Y-63065947D01*
X89569764Y-63076239D01*
X89513375Y-63286688D01*
X89511472Y-63297481D01*
X89492483Y-63514525D01*
X89492483Y-63525475D01*
X68580000Y-63525475D01*
X68580000Y-63500000D01*
X66424296Y-63500000D01*
X66356175Y-63479998D01*
X66309682Y-63426342D01*
X66299578Y-63356068D01*
X66329072Y-63291488D01*
X66348730Y-63273175D01*
X66354031Y-63269202D01*
X66354033Y-63269200D01*
X66361213Y-63263819D01*
X66448567Y-63147263D01*
X66499697Y-63010874D01*
X66506452Y-62948692D01*
X66506452Y-62183361D01*
X75238347Y-62183361D01*
X75252703Y-62402388D01*
X75306733Y-62615131D01*
X75398627Y-62814466D01*
X75401958Y-62819179D01*
X75401959Y-62819181D01*
X75507682Y-62968774D01*
X75525309Y-62993716D01*
X75682535Y-63146879D01*
X75687331Y-63150084D01*
X75687334Y-63150086D01*
X75761343Y-63199537D01*
X75865040Y-63268825D01*
X75870343Y-63271103D01*
X75870346Y-63271105D01*
X76007510Y-63330035D01*
X76066712Y-63355470D01*
X76280797Y-63403913D01*
X76286568Y-63404140D01*
X76286570Y-63404140D01*
X76359986Y-63407024D01*
X76500125Y-63412530D01*
X76591794Y-63399239D01*
X76711636Y-63381863D01*
X76711641Y-63381862D01*
X76717350Y-63381034D01*
X76722814Y-63379179D01*
X76722819Y-63379178D01*
X76919730Y-63312335D01*
X76925198Y-63310479D01*
X77116709Y-63203228D01*
X77285467Y-63062873D01*
X77368300Y-62963278D01*
X77427236Y-62923696D01*
X77498218Y-62922260D01*
X77539228Y-62941910D01*
X77648248Y-63021118D01*
X77654276Y-63023802D01*
X77654278Y-63023803D01*
X77816681Y-63096109D01*
X77822712Y-63098794D01*
X77916113Y-63118647D01*
X78003056Y-63137128D01*
X78003061Y-63137128D01*
X78009513Y-63138500D01*
X78200487Y-63138500D01*
X78206939Y-63137128D01*
X78206944Y-63137128D01*
X78293887Y-63118647D01*
X78387288Y-63098794D01*
X78393319Y-63096109D01*
X78555722Y-63023803D01*
X78555724Y-63023802D01*
X78561752Y-63021118D01*
X78586665Y-63003018D01*
X78661437Y-62948692D01*
X78716253Y-62908866D01*
X78797006Y-62819181D01*
X78839621Y-62771852D01*
X78839622Y-62771851D01*
X78844040Y-62766944D01*
X78928660Y-62620378D01*
X78936223Y-62607279D01*
X78936224Y-62607278D01*
X78939527Y-62601556D01*
X78998542Y-62419928D01*
X79001814Y-62388803D01*
X79017814Y-62236565D01*
X79018504Y-62230000D01*
X79009748Y-62146695D01*
X78999232Y-62046635D01*
X78999232Y-62046633D01*
X78998542Y-62040072D01*
X78939527Y-61858444D01*
X78844040Y-61693056D01*
X78755750Y-61595000D01*
X87986496Y-61595000D01*
X87987186Y-61601565D01*
X88002855Y-61750644D01*
X88006458Y-61784928D01*
X88065473Y-61966556D01*
X88160960Y-62131944D01*
X88165378Y-62136851D01*
X88165379Y-62136852D01*
X88255161Y-62236565D01*
X88288747Y-62273866D01*
X88443248Y-62386118D01*
X88449276Y-62388802D01*
X88449278Y-62388803D01*
X88611681Y-62461109D01*
X88617712Y-62463794D01*
X88711113Y-62483647D01*
X88798056Y-62502128D01*
X88798061Y-62502128D01*
X88804513Y-62503500D01*
X88995487Y-62503500D01*
X89001939Y-62502128D01*
X89001944Y-62502128D01*
X89088887Y-62483647D01*
X89182288Y-62463794D01*
X89188319Y-62461109D01*
X89251480Y-62432988D01*
X90083576Y-62432988D01*
X90090644Y-62446434D01*
X90792188Y-63147978D01*
X90806132Y-63155592D01*
X90807965Y-63155461D01*
X90814580Y-63151210D01*
X91520077Y-62445713D01*
X91526507Y-62433938D01*
X91517211Y-62421923D01*
X91466006Y-62386069D01*
X91456511Y-62380586D01*
X91259053Y-62288510D01*
X91248761Y-62284764D01*
X91038312Y-62228375D01*
X91027519Y-62226472D01*
X90810475Y-62207483D01*
X90799525Y-62207483D01*
X90582481Y-62226472D01*
X90571688Y-62228375D01*
X90361239Y-62284764D01*
X90350947Y-62288510D01*
X90153489Y-62380586D01*
X90143994Y-62386069D01*
X90091952Y-62422509D01*
X90083576Y-62432988D01*
X89251480Y-62432988D01*
X89350722Y-62388803D01*
X89350724Y-62388802D01*
X89356752Y-62386118D01*
X89511253Y-62273866D01*
X89544839Y-62236565D01*
X89634621Y-62136852D01*
X89634622Y-62136851D01*
X89639040Y-62131944D01*
X89734527Y-61966556D01*
X89793542Y-61784928D01*
X89797146Y-61750644D01*
X89812814Y-61601565D01*
X89813504Y-61595000D01*
X93066496Y-61595000D01*
X93067186Y-61601565D01*
X93082855Y-61750644D01*
X93086458Y-61784928D01*
X93145473Y-61966556D01*
X93240960Y-62131944D01*
X93245378Y-62136851D01*
X93245379Y-62136852D01*
X93335161Y-62236565D01*
X93368747Y-62273866D01*
X93523248Y-62386118D01*
X93529276Y-62388802D01*
X93529278Y-62388803D01*
X93691681Y-62461109D01*
X93697712Y-62463794D01*
X93791113Y-62483647D01*
X93878056Y-62502128D01*
X93878061Y-62502128D01*
X93884513Y-62503500D01*
X94053144Y-62503500D01*
X94121265Y-62523502D01*
X94167758Y-62577158D01*
X94177862Y-62647432D01*
X94148368Y-62712012D01*
X94127205Y-62731436D01*
X94003747Y-62821134D01*
X93999326Y-62826044D01*
X93999325Y-62826045D01*
X93921257Y-62912749D01*
X93875960Y-62963056D01*
X93842438Y-63021118D01*
X93813554Y-63071147D01*
X93780473Y-63128444D01*
X93721458Y-63310072D01*
X93720768Y-63316633D01*
X93720768Y-63316635D01*
X93711917Y-63400853D01*
X93701496Y-63500000D01*
X93721458Y-63689928D01*
X93780473Y-63871556D01*
X93875960Y-64036944D01*
X93880378Y-64041851D01*
X93880379Y-64041852D01*
X93999325Y-64173955D01*
X94003747Y-64178866D01*
X94158248Y-64291118D01*
X94164276Y-64293802D01*
X94164278Y-64293803D01*
X94290776Y-64350123D01*
X94332712Y-64368794D01*
X94426113Y-64388647D01*
X94513056Y-64407128D01*
X94513061Y-64407128D01*
X94519513Y-64408500D01*
X94710487Y-64408500D01*
X94716939Y-64407128D01*
X94716944Y-64407128D01*
X94803887Y-64388647D01*
X94897288Y-64368794D01*
X94939224Y-64350123D01*
X95065722Y-64293803D01*
X95065724Y-64293802D01*
X95071752Y-64291118D01*
X95226253Y-64178866D01*
X95230675Y-64173955D01*
X95289203Y-64108953D01*
X95349649Y-64071713D01*
X95420633Y-64073065D01*
X95471934Y-64104168D01*
X95561171Y-64193405D01*
X95595197Y-64255717D01*
X95590132Y-64326532D01*
X95561171Y-64371595D01*
X95432623Y-64500143D01*
X95310933Y-64673934D01*
X95308610Y-64678916D01*
X95308607Y-64678921D01*
X95239348Y-64827447D01*
X95221270Y-64866216D01*
X95219848Y-64871524D01*
X95219847Y-64871526D01*
X95180680Y-65017699D01*
X95166359Y-65071147D01*
X95147868Y-65282500D01*
X95166359Y-65493853D01*
X95221270Y-65698784D01*
X95223592Y-65703764D01*
X95223593Y-65703766D01*
X95308607Y-65886079D01*
X95308610Y-65886084D01*
X95310933Y-65891066D01*
X95432623Y-66064857D01*
X95582643Y-66214877D01*
X95587151Y-66218034D01*
X95587154Y-66218036D01*
X95637662Y-66253402D01*
X95756434Y-66336567D01*
X95756499Y-66336597D01*
X95804333Y-66386765D01*
X95817769Y-66456478D01*
X95791383Y-66522389D01*
X95733550Y-66563571D01*
X95692340Y-66570501D01*
X95616331Y-66570501D01*
X95609510Y-66570871D01*
X95558648Y-66576395D01*
X95543396Y-66580021D01*
X95422946Y-66625176D01*
X95407351Y-66633714D01*
X95305276Y-66710215D01*
X95292715Y-66722776D01*
X95216214Y-66824851D01*
X95207676Y-66840446D01*
X95162522Y-66960894D01*
X95158895Y-66976149D01*
X95153369Y-67027014D01*
X95153000Y-67033828D01*
X95153001Y-67631033D01*
X95132999Y-67699154D01*
X95079343Y-67745647D01*
X95009070Y-67755751D01*
X94975753Y-67746140D01*
X94903323Y-67713892D01*
X94903315Y-67713889D01*
X94897288Y-67711206D01*
X94803888Y-67691353D01*
X94716944Y-67672872D01*
X94716939Y-67672872D01*
X94710487Y-67671500D01*
X94519513Y-67671500D01*
X94513061Y-67672872D01*
X94513056Y-67672872D01*
X94426112Y-67691353D01*
X94332712Y-67711206D01*
X94326682Y-67713891D01*
X94326681Y-67713891D01*
X94164278Y-67786197D01*
X94164276Y-67786198D01*
X94158248Y-67788882D01*
X94003747Y-67901134D01*
X93875960Y-68043056D01*
X93780473Y-68208444D01*
X93721458Y-68390072D01*
X93720768Y-68396633D01*
X93720768Y-68396635D01*
X93717459Y-68428116D01*
X93701496Y-68580000D01*
X93702186Y-68586565D01*
X93713507Y-68694274D01*
X93721458Y-68769928D01*
X93780473Y-68951556D01*
X93875960Y-69116944D01*
X94003747Y-69258866D01*
X94158248Y-69371118D01*
X94164276Y-69373802D01*
X94164278Y-69373803D01*
X94279941Y-69425299D01*
X94332712Y-69448794D01*
X94422156Y-69467806D01*
X94513056Y-69487128D01*
X94513061Y-69487128D01*
X94519513Y-69488500D01*
X94710487Y-69488500D01*
X94716939Y-69487128D01*
X94716944Y-69487128D01*
X94807844Y-69467806D01*
X94897288Y-69448794D01*
X94950059Y-69425299D01*
X95065722Y-69373803D01*
X95065724Y-69373802D01*
X95071752Y-69371118D01*
X95226253Y-69258866D01*
X95354040Y-69116944D01*
X95396985Y-69042561D01*
X95448367Y-68993568D01*
X95518081Y-68980132D01*
X95535472Y-68984157D01*
X95535711Y-68983152D01*
X95558643Y-68988605D01*
X95609514Y-68994131D01*
X95616328Y-68994500D01*
X96092885Y-68994500D01*
X96108124Y-68990025D01*
X96109329Y-68988635D01*
X96111000Y-68980952D01*
X96111000Y-67654500D01*
X96131002Y-67586379D01*
X96184658Y-67539886D01*
X96237000Y-67528500D01*
X96493000Y-67528500D01*
X96561121Y-67548502D01*
X96607614Y-67602158D01*
X96619000Y-67654500D01*
X96619000Y-68976384D01*
X96623475Y-68991623D01*
X96624865Y-68992828D01*
X96632548Y-68994499D01*
X96748127Y-68994499D01*
X96816248Y-69014501D01*
X96862741Y-69068157D01*
X96873739Y-69130385D01*
X96864014Y-69253955D01*
X96863557Y-69259760D01*
X96880561Y-69554669D01*
X96881386Y-69558874D01*
X96881387Y-69558882D01*
X96903709Y-69672655D01*
X96937432Y-69844542D01*
X96938819Y-69848592D01*
X96938820Y-69848597D01*
X97000398Y-70028451D01*
X97033117Y-70124014D01*
X97165845Y-70387915D01*
X97168271Y-70391444D01*
X97168274Y-70391450D01*
X97254428Y-70516803D01*
X97333161Y-70631361D01*
X97336042Y-70634527D01*
X97521567Y-70838416D01*
X97531968Y-70849847D01*
X97569643Y-70881348D01*
X97755296Y-71036579D01*
X97755301Y-71036583D01*
X97758588Y-71039331D01*
X97840020Y-71090413D01*
X98005187Y-71194022D01*
X98005191Y-71194024D01*
X98008827Y-71196305D01*
X98081761Y-71229236D01*
X98274142Y-71316100D01*
X98274146Y-71316102D01*
X98278054Y-71317866D01*
X98344249Y-71337474D01*
X98557175Y-71400546D01*
X98557180Y-71400547D01*
X98561288Y-71401764D01*
X98565522Y-71402412D01*
X98565527Y-71402413D01*
X98849046Y-71445797D01*
X98849048Y-71445797D01*
X98853288Y-71446446D01*
X99003669Y-71448808D01*
X99144360Y-71451019D01*
X99144366Y-71451019D01*
X99148651Y-71451086D01*
X99441910Y-71415598D01*
X99727640Y-71340638D01*
X100000553Y-71227594D01*
X100255599Y-71078557D01*
X100488059Y-70896285D01*
X100498413Y-70885601D01*
X100643345Y-70736041D01*
X100693630Y-70684151D01*
X100696163Y-70680703D01*
X100696167Y-70680698D01*
X100865972Y-70449536D01*
X100868510Y-70446081D01*
X101009463Y-70186480D01*
X101113879Y-69910150D01*
X101144525Y-69776342D01*
X101178868Y-69626391D01*
X101178869Y-69626387D01*
X101179826Y-69622207D01*
X101186237Y-69550382D01*
X101205866Y-69330442D01*
X101206086Y-69327978D01*
X101206562Y-69282500D01*
X101205304Y-69264040D01*
X101186762Y-68992062D01*
X101186761Y-68992056D01*
X101186470Y-68987785D01*
X101126567Y-68698524D01*
X101027961Y-68420069D01*
X101012479Y-68390072D01*
X100894442Y-68161379D01*
X100894442Y-68161378D01*
X100892477Y-68157572D01*
X100880898Y-68141096D01*
X100744724Y-67947342D01*
X100722621Y-67915892D01*
X100564878Y-67746140D01*
X100524457Y-67702642D01*
X100524454Y-67702639D01*
X100521536Y-67699499D01*
X100518221Y-67696785D01*
X100518217Y-67696782D01*
X100323523Y-67537427D01*
X100292945Y-67512399D01*
X100041076Y-67358054D01*
X100031536Y-67353866D01*
X99774522Y-67241045D01*
X99770590Y-67239319D01*
X99486493Y-67158392D01*
X99482251Y-67157788D01*
X99482245Y-67157787D01*
X99198292Y-67117375D01*
X99194041Y-67116770D01*
X99038386Y-67115955D01*
X98902932Y-67115245D01*
X98902925Y-67115245D01*
X98898646Y-67115223D01*
X98894402Y-67115782D01*
X98894398Y-67115782D01*
X98765557Y-67132744D01*
X98605775Y-67153780D01*
X98601635Y-67154913D01*
X98601633Y-67154913D01*
X98414065Y-67206226D01*
X98320846Y-67231728D01*
X98049131Y-67347624D01*
X97795660Y-67499324D01*
X97781779Y-67510445D01*
X97716111Y-67537427D01*
X97646279Y-67524622D01*
X97594455Y-67476096D01*
X97576999Y-67412111D01*
X97576999Y-67033831D01*
X97576629Y-67027010D01*
X97571105Y-66976148D01*
X97567479Y-66960896D01*
X97522324Y-66840446D01*
X97513786Y-66824851D01*
X97437285Y-66722776D01*
X97424724Y-66710215D01*
X97322649Y-66633714D01*
X97307054Y-66625176D01*
X97186606Y-66580022D01*
X97171351Y-66576395D01*
X97120486Y-66570869D01*
X97113672Y-66570500D01*
X97037662Y-66570500D01*
X96969541Y-66550498D01*
X96923048Y-66496842D01*
X96912944Y-66426568D01*
X96942438Y-66361988D01*
X96972782Y-66336932D01*
X96973566Y-66336567D01*
X96978067Y-66333415D01*
X96978071Y-66333413D01*
X97142846Y-66218036D01*
X97142849Y-66218034D01*
X97147357Y-66214877D01*
X97297377Y-66064857D01*
X97419067Y-65891066D01*
X97421390Y-65886084D01*
X97421393Y-65886079D01*
X97506407Y-65703766D01*
X97506408Y-65703764D01*
X97508730Y-65698784D01*
X97563641Y-65493853D01*
X97582132Y-65282500D01*
X97563641Y-65071147D01*
X97549320Y-65017699D01*
X97510153Y-64871526D01*
X97510152Y-64871524D01*
X97508730Y-64866216D01*
X97490652Y-64827447D01*
X97421393Y-64678921D01*
X97421390Y-64678916D01*
X97419067Y-64673934D01*
X97297377Y-64500143D01*
X97168829Y-64371595D01*
X97134803Y-64309283D01*
X97139868Y-64238468D01*
X97168829Y-64193405D01*
X97297377Y-64064857D01*
X97313486Y-64041852D01*
X97415910Y-63895574D01*
X97419067Y-63891066D01*
X97421390Y-63886084D01*
X97421393Y-63886079D01*
X97506407Y-63703766D01*
X97506408Y-63703764D01*
X97508730Y-63698784D01*
X97555841Y-63522965D01*
X97562217Y-63499168D01*
X97562217Y-63499166D01*
X97563641Y-63493853D01*
X97582132Y-63282500D01*
X97563641Y-63071147D01*
X97550236Y-63021118D01*
X97510153Y-62871526D01*
X97510152Y-62871524D01*
X97508730Y-62866216D01*
X97504292Y-62856699D01*
X97421393Y-62678921D01*
X97421390Y-62678916D01*
X97419067Y-62673934D01*
X97297377Y-62500143D01*
X97147357Y-62350123D01*
X97142849Y-62346966D01*
X97142846Y-62346964D01*
X97031437Y-62268955D01*
X96973566Y-62228433D01*
X96968584Y-62226110D01*
X96968579Y-62226107D01*
X96798279Y-62146695D01*
X96744994Y-62099778D01*
X96725533Y-62031500D01*
X96746075Y-61963540D01*
X96798279Y-61918305D01*
X96968579Y-61838893D01*
X96968584Y-61838890D01*
X96973566Y-61836567D01*
X97096277Y-61750644D01*
X97142846Y-61718036D01*
X97142849Y-61718034D01*
X97147357Y-61714877D01*
X97297377Y-61564857D01*
X97303548Y-61556045D01*
X97377402Y-61450570D01*
X97419067Y-61391066D01*
X97421390Y-61386084D01*
X97421393Y-61386079D01*
X97506407Y-61203766D01*
X97506408Y-61203764D01*
X97508730Y-61198784D01*
X97538277Y-61088514D01*
X97575227Y-61027892D01*
X97639088Y-60996871D01*
X97709582Y-61005299D01*
X97740805Y-61024463D01*
X97755289Y-61036573D01*
X97758588Y-61039331D01*
X97843511Y-61092603D01*
X98005187Y-61194022D01*
X98005191Y-61194024D01*
X98008827Y-61196305D01*
X98123806Y-61248220D01*
X98274142Y-61316100D01*
X98274146Y-61316102D01*
X98278054Y-61317866D01*
X98282173Y-61319086D01*
X98557175Y-61400546D01*
X98557180Y-61400547D01*
X98561288Y-61401764D01*
X98565522Y-61402412D01*
X98565527Y-61402413D01*
X98849046Y-61445797D01*
X98849048Y-61445797D01*
X98853288Y-61446446D01*
X99003669Y-61448808D01*
X99144360Y-61451019D01*
X99144366Y-61451019D01*
X99148651Y-61451086D01*
X99441910Y-61415598D01*
X99649240Y-61361206D01*
X99723497Y-61341725D01*
X99723498Y-61341725D01*
X99727640Y-61340638D01*
X100000553Y-61227594D01*
X100255599Y-61078557D01*
X100488059Y-60896285D01*
X100499634Y-60884341D01*
X100690647Y-60687229D01*
X100693630Y-60684151D01*
X100696163Y-60680703D01*
X100696167Y-60680698D01*
X100865972Y-60449536D01*
X100868510Y-60446081D01*
X101009463Y-60186480D01*
X101113879Y-59910150D01*
X101154774Y-59731590D01*
X101178868Y-59626391D01*
X101178869Y-59626387D01*
X101179826Y-59622207D01*
X101183122Y-59585283D01*
X101205866Y-59330442D01*
X101206086Y-59327978D01*
X101206165Y-59320478D01*
X101206536Y-59284985D01*
X101206562Y-59282500D01*
X101205679Y-59269549D01*
X101186762Y-58992062D01*
X101186761Y-58992056D01*
X101186470Y-58987785D01*
X101160424Y-58862011D01*
X101127436Y-58702721D01*
X101126567Y-58698524D01*
X101027961Y-58420069D01*
X101019295Y-58403277D01*
X100894442Y-58161379D01*
X100894442Y-58161378D01*
X100892477Y-58157572D01*
X100871935Y-58128343D01*
X100786829Y-58007250D01*
X100722621Y-57915892D01*
X100616198Y-57801367D01*
X100524457Y-57702642D01*
X100524454Y-57702639D01*
X100521536Y-57699499D01*
X100518221Y-57696785D01*
X100518217Y-57696782D01*
X100328580Y-57541566D01*
X100292945Y-57512399D01*
X100041076Y-57358054D01*
X100022335Y-57349827D01*
X99774522Y-57241045D01*
X99770590Y-57239319D01*
X99486493Y-57158392D01*
X99482251Y-57157788D01*
X99482245Y-57157787D01*
X99198292Y-57117375D01*
X99194041Y-57116770D01*
X99038386Y-57115955D01*
X98902932Y-57115245D01*
X98902925Y-57115245D01*
X98898646Y-57115223D01*
X98894402Y-57115782D01*
X98894398Y-57115782D01*
X98827002Y-57124655D01*
X98605775Y-57153780D01*
X98601635Y-57154913D01*
X98601633Y-57154913D01*
X98588916Y-57158392D01*
X98320846Y-57231728D01*
X98049131Y-57347624D01*
X97959631Y-57401189D01*
X97799342Y-57497120D01*
X97799338Y-57497123D01*
X97795660Y-57499324D01*
X97792317Y-57502002D01*
X97792313Y-57502005D01*
X97750229Y-57535721D01*
X97565122Y-57684020D01*
X97562178Y-57687122D01*
X97562174Y-57687126D01*
X97508328Y-57743868D01*
X97361783Y-57898294D01*
X97189405Y-58138183D01*
X97051179Y-58399246D01*
X97049704Y-58403277D01*
X96978213Y-58598638D01*
X96949663Y-58676654D01*
X96886734Y-58965272D01*
X96863557Y-59259760D01*
X96869961Y-59370832D01*
X96877006Y-59493015D01*
X96860958Y-59562174D01*
X96810068Y-59611679D01*
X96740492Y-59625811D01*
X96718604Y-59621975D01*
X96581668Y-59585283D01*
X96581666Y-59585283D01*
X96576353Y-59583859D01*
X96365000Y-59565368D01*
X96153647Y-59583859D01*
X96148334Y-59585283D01*
X96148332Y-59585283D01*
X95954026Y-59637347D01*
X95954024Y-59637348D01*
X95948716Y-59638770D01*
X95943736Y-59641092D01*
X95943734Y-59641093D01*
X95761421Y-59726107D01*
X95761416Y-59726110D01*
X95756434Y-59728433D01*
X95678293Y-59783148D01*
X95587154Y-59846964D01*
X95587151Y-59846966D01*
X95582643Y-59850123D01*
X95432623Y-60000143D01*
X95310933Y-60173934D01*
X95308610Y-60178916D01*
X95308607Y-60178921D01*
X95243551Y-60318435D01*
X95221270Y-60366216D01*
X95219848Y-60371524D01*
X95219847Y-60371526D01*
X95172729Y-60547374D01*
X95166359Y-60571147D01*
X95147868Y-60782500D01*
X95166359Y-60993853D01*
X95167783Y-60999166D01*
X95167783Y-60999168D01*
X95210963Y-61160316D01*
X95221270Y-61198784D01*
X95223592Y-61203764D01*
X95223593Y-61203766D01*
X95308607Y-61386079D01*
X95308610Y-61386084D01*
X95310933Y-61391066D01*
X95352598Y-61450570D01*
X95426453Y-61556045D01*
X95432623Y-61564857D01*
X95582643Y-61714877D01*
X95587151Y-61718034D01*
X95587154Y-61718036D01*
X95633723Y-61750644D01*
X95756434Y-61836567D01*
X95761416Y-61838890D01*
X95761421Y-61838893D01*
X95931721Y-61918305D01*
X95985006Y-61965222D01*
X96004467Y-62033500D01*
X95983925Y-62101460D01*
X95931721Y-62146695D01*
X95761421Y-62226107D01*
X95761416Y-62226110D01*
X95756434Y-62228433D01*
X95698563Y-62268955D01*
X95587154Y-62346964D01*
X95587151Y-62346966D01*
X95582643Y-62350123D01*
X95432623Y-62500143D01*
X95310933Y-62673934D01*
X95308608Y-62678919D01*
X95308605Y-62678925D01*
X95302831Y-62691308D01*
X95255914Y-62744594D01*
X95187637Y-62764055D01*
X95114575Y-62739995D01*
X95077094Y-62712763D01*
X95077093Y-62712762D01*
X95071752Y-62708882D01*
X95065724Y-62706198D01*
X95065722Y-62706197D01*
X94903319Y-62633891D01*
X94903318Y-62633891D01*
X94897288Y-62631206D01*
X94784721Y-62607279D01*
X94716944Y-62592872D01*
X94716939Y-62592872D01*
X94710487Y-62591500D01*
X94541856Y-62591500D01*
X94473735Y-62571498D01*
X94427242Y-62517842D01*
X94417138Y-62447568D01*
X94446632Y-62382988D01*
X94467795Y-62363564D01*
X94576253Y-62284764D01*
X94591253Y-62273866D01*
X94624839Y-62236565D01*
X94714621Y-62136852D01*
X94714622Y-62136851D01*
X94719040Y-62131944D01*
X94814527Y-61966556D01*
X94873542Y-61784928D01*
X94877146Y-61750644D01*
X94892814Y-61601565D01*
X94893504Y-61595000D01*
X94885063Y-61514688D01*
X94874232Y-61411635D01*
X94874232Y-61411633D01*
X94873542Y-61405072D01*
X94814527Y-61223444D01*
X94719040Y-61058056D01*
X94687512Y-61023040D01*
X94595675Y-60921045D01*
X94595674Y-60921044D01*
X94591253Y-60916134D01*
X94436752Y-60803882D01*
X94430724Y-60801198D01*
X94430722Y-60801197D01*
X94268319Y-60728891D01*
X94268318Y-60728891D01*
X94262288Y-60726206D01*
X94149721Y-60702279D01*
X94081944Y-60687872D01*
X94081939Y-60687872D01*
X94075487Y-60686500D01*
X93884513Y-60686500D01*
X93878061Y-60687872D01*
X93878056Y-60687872D01*
X93810279Y-60702279D01*
X93697712Y-60726206D01*
X93691682Y-60728891D01*
X93691681Y-60728891D01*
X93529278Y-60801197D01*
X93529276Y-60801198D01*
X93523248Y-60803882D01*
X93368747Y-60916134D01*
X93364326Y-60921044D01*
X93364325Y-60921045D01*
X93272489Y-61023040D01*
X93240960Y-61058056D01*
X93145473Y-61223444D01*
X93086458Y-61405072D01*
X93085768Y-61411633D01*
X93085768Y-61411635D01*
X93074937Y-61514688D01*
X93066496Y-61595000D01*
X89813504Y-61595000D01*
X89805063Y-61514688D01*
X89794232Y-61411635D01*
X89794232Y-61411633D01*
X89793542Y-61405072D01*
X89734527Y-61223444D01*
X89639040Y-61058056D01*
X89607512Y-61023040D01*
X89515675Y-60921045D01*
X89515674Y-60921044D01*
X89511253Y-60916134D01*
X89356752Y-60803882D01*
X89350724Y-60801198D01*
X89350722Y-60801197D01*
X89188319Y-60728891D01*
X89188318Y-60728891D01*
X89182288Y-60726206D01*
X89069721Y-60702279D01*
X89001944Y-60687872D01*
X89001939Y-60687872D01*
X88995487Y-60686500D01*
X88804513Y-60686500D01*
X88798061Y-60687872D01*
X88798056Y-60687872D01*
X88730279Y-60702279D01*
X88617712Y-60726206D01*
X88611682Y-60728891D01*
X88611681Y-60728891D01*
X88449278Y-60801197D01*
X88449276Y-60801198D01*
X88443248Y-60803882D01*
X88288747Y-60916134D01*
X88160960Y-61058056D01*
X88157659Y-61063774D01*
X88156904Y-61064813D01*
X88156376Y-61065996D01*
X88065473Y-61223444D01*
X88006458Y-61405072D01*
X88005768Y-61411633D01*
X88005768Y-61411635D01*
X87994937Y-61514688D01*
X87986496Y-61595000D01*
X78755750Y-61595000D01*
X78716253Y-61551134D01*
X78614804Y-61477427D01*
X78567094Y-61442763D01*
X78567093Y-61442762D01*
X78561752Y-61438882D01*
X78555724Y-61436198D01*
X78555722Y-61436197D01*
X78393319Y-61363891D01*
X78393318Y-61363891D01*
X78387288Y-61361206D01*
X78259836Y-61334115D01*
X78206944Y-61322872D01*
X78206939Y-61322872D01*
X78200487Y-61321500D01*
X78009513Y-61321500D01*
X78003061Y-61322872D01*
X78003056Y-61322872D01*
X77950164Y-61334115D01*
X77822712Y-61361206D01*
X77816682Y-61363891D01*
X77816681Y-61363891D01*
X77654278Y-61436197D01*
X77654276Y-61436198D01*
X77648248Y-61438882D01*
X77642907Y-61442762D01*
X77642906Y-61442763D01*
X77554616Y-61506910D01*
X77487749Y-61530768D01*
X77418597Y-61514688D01*
X77379597Y-61480362D01*
X77332149Y-61416820D01*
X77332142Y-61416813D01*
X77328692Y-61412192D01*
X77197612Y-61291023D01*
X77171750Y-61267116D01*
X77171747Y-61267114D01*
X77167510Y-61263197D01*
X76981875Y-61146071D01*
X76778005Y-61064734D01*
X76772337Y-61063607D01*
X76772335Y-61063606D01*
X76568393Y-61023040D01*
X76568389Y-61023040D01*
X76562725Y-61021913D01*
X76556950Y-61021837D01*
X76556946Y-61021837D01*
X76446315Y-61020389D01*
X76343247Y-61019039D01*
X76337550Y-61020018D01*
X76337549Y-61020018D01*
X76132617Y-61055232D01*
X76126920Y-61056211D01*
X75920990Y-61132183D01*
X75916029Y-61135135D01*
X75916028Y-61135135D01*
X75737321Y-61241454D01*
X75737318Y-61241456D01*
X75732353Y-61244410D01*
X75567326Y-61389135D01*
X75431437Y-61561509D01*
X75428746Y-61566625D01*
X75428744Y-61566627D01*
X75364809Y-61688148D01*
X75329236Y-61755761D01*
X75264146Y-61965385D01*
X75238347Y-62183361D01*
X66506452Y-62183361D01*
X66506452Y-61480824D01*
X66499697Y-61418642D01*
X66448567Y-61282253D01*
X66361213Y-61165697D01*
X66244657Y-61078343D01*
X66108268Y-61027213D01*
X66046086Y-61020458D01*
X64578218Y-61020458D01*
X64516036Y-61027213D01*
X64379647Y-61078343D01*
X64263091Y-61165697D01*
X64175737Y-61282253D01*
X64124607Y-61418642D01*
X64117852Y-61480824D01*
X64117852Y-62948692D01*
X64124607Y-63010874D01*
X64175737Y-63147263D01*
X64263091Y-63263819D01*
X64270271Y-63269200D01*
X64270273Y-63269202D01*
X64275574Y-63273175D01*
X64318089Y-63330035D01*
X64323113Y-63400853D01*
X64289053Y-63463146D01*
X64226721Y-63497136D01*
X64200008Y-63500000D01*
X63626000Y-63500000D01*
X63557879Y-63479998D01*
X63511386Y-63426342D01*
X63500000Y-63374000D01*
X63500000Y-61025859D01*
X63520002Y-60957738D01*
X63532364Y-60941548D01*
X63533843Y-60939906D01*
X63604040Y-60861944D01*
X63619027Y-60835987D01*
X63696223Y-60702279D01*
X63696224Y-60702278D01*
X63699527Y-60696556D01*
X63758542Y-60514928D01*
X63763827Y-60464649D01*
X63777814Y-60331565D01*
X63778504Y-60325000D01*
X63774689Y-60288704D01*
X63771140Y-60254938D01*
X78226995Y-60254938D01*
X78240740Y-60464649D01*
X78292471Y-60668343D01*
X78294890Y-60673590D01*
X78378038Y-60853953D01*
X78378041Y-60853958D01*
X78380457Y-60859199D01*
X78383788Y-60863912D01*
X78383789Y-60863914D01*
X78497255Y-61024463D01*
X78501751Y-61030825D01*
X78652289Y-61177474D01*
X78657085Y-61180679D01*
X78657088Y-61180681D01*
X78758168Y-61248220D01*
X78827031Y-61294233D01*
X78832339Y-61296514D01*
X78832340Y-61296514D01*
X79014822Y-61374914D01*
X79014825Y-61374915D01*
X79020125Y-61377192D01*
X79025754Y-61378466D01*
X79025755Y-61378466D01*
X79219467Y-61422299D01*
X79219473Y-61422300D01*
X79225104Y-61423574D01*
X79230875Y-61423801D01*
X79230877Y-61423801D01*
X79294433Y-61426298D01*
X79435103Y-61431825D01*
X79643088Y-61401669D01*
X79648552Y-61399814D01*
X79648557Y-61399813D01*
X79836624Y-61335973D01*
X79836629Y-61335971D01*
X79842096Y-61334115D01*
X80025460Y-61231426D01*
X80187041Y-61097041D01*
X80321426Y-60935460D01*
X80424115Y-60752096D01*
X80425971Y-60746629D01*
X80425973Y-60746624D01*
X80489813Y-60558557D01*
X80489814Y-60558552D01*
X80491669Y-60553088D01*
X80521825Y-60345103D01*
X80521868Y-60343466D01*
X80542816Y-60289564D01*
X80541184Y-60286214D01*
X80747868Y-60286214D01*
X80770730Y-60329477D01*
X80772985Y-60346334D01*
X80780740Y-60464649D01*
X80832471Y-60668343D01*
X80834890Y-60673590D01*
X80918038Y-60853953D01*
X80918041Y-60853958D01*
X80920457Y-60859199D01*
X80923788Y-60863912D01*
X80923789Y-60863914D01*
X81037255Y-61024463D01*
X81041751Y-61030825D01*
X81192289Y-61177474D01*
X81197085Y-61180679D01*
X81197088Y-61180681D01*
X81298168Y-61248220D01*
X81367031Y-61294233D01*
X81372339Y-61296514D01*
X81372340Y-61296514D01*
X81554822Y-61374914D01*
X81554825Y-61374915D01*
X81560125Y-61377192D01*
X81565754Y-61378466D01*
X81565755Y-61378466D01*
X81759467Y-61422299D01*
X81759473Y-61422300D01*
X81765104Y-61423574D01*
X81770875Y-61423801D01*
X81770877Y-61423801D01*
X81834433Y-61426298D01*
X81975103Y-61431825D01*
X82183088Y-61401669D01*
X82188552Y-61399814D01*
X82188557Y-61399813D01*
X82376624Y-61335973D01*
X82376629Y-61335971D01*
X82382096Y-61334115D01*
X82565460Y-61231426D01*
X82727041Y-61097041D01*
X82861426Y-60935460D01*
X82964115Y-60752096D01*
X82965971Y-60746629D01*
X82965973Y-60746624D01*
X83029813Y-60558557D01*
X83029814Y-60558552D01*
X83031669Y-60553088D01*
X83061825Y-60345103D01*
X83061868Y-60343466D01*
X83082816Y-60289564D01*
X83081184Y-60286214D01*
X83287868Y-60286214D01*
X83310730Y-60329477D01*
X83312985Y-60346334D01*
X83320740Y-60464649D01*
X83372471Y-60668343D01*
X83374890Y-60673590D01*
X83458038Y-60853953D01*
X83458041Y-60853958D01*
X83460457Y-60859199D01*
X83463788Y-60863912D01*
X83463789Y-60863914D01*
X83577255Y-61024463D01*
X83581751Y-61030825D01*
X83732289Y-61177474D01*
X83737085Y-61180679D01*
X83737088Y-61180681D01*
X83838168Y-61248220D01*
X83907031Y-61294233D01*
X83912339Y-61296514D01*
X83912340Y-61296514D01*
X84094822Y-61374914D01*
X84094825Y-61374915D01*
X84100125Y-61377192D01*
X84105754Y-61378466D01*
X84105755Y-61378466D01*
X84299467Y-61422299D01*
X84299473Y-61422300D01*
X84305104Y-61423574D01*
X84310875Y-61423801D01*
X84310877Y-61423801D01*
X84374433Y-61426298D01*
X84515103Y-61431825D01*
X84723088Y-61401669D01*
X84728552Y-61399814D01*
X84728557Y-61399813D01*
X84916624Y-61335973D01*
X84916629Y-61335971D01*
X84922096Y-61334115D01*
X85105460Y-61231426D01*
X85267041Y-61097041D01*
X85401426Y-60935460D01*
X85504115Y-60752096D01*
X85505971Y-60746629D01*
X85505973Y-60746624D01*
X85569813Y-60558557D01*
X85569814Y-60558552D01*
X85571669Y-60553088D01*
X85601825Y-60345103D01*
X85601868Y-60343466D01*
X85622816Y-60289564D01*
X85621184Y-60286214D01*
X85827868Y-60286214D01*
X85850730Y-60329477D01*
X85852985Y-60346334D01*
X85860740Y-60464649D01*
X85912471Y-60668343D01*
X85914890Y-60673590D01*
X85998038Y-60853953D01*
X85998041Y-60853958D01*
X86000457Y-60859199D01*
X86003788Y-60863912D01*
X86003789Y-60863914D01*
X86117255Y-61024463D01*
X86121751Y-61030825D01*
X86272289Y-61177474D01*
X86277085Y-61180679D01*
X86277088Y-61180681D01*
X86378168Y-61248220D01*
X86447031Y-61294233D01*
X86452339Y-61296514D01*
X86452340Y-61296514D01*
X86634822Y-61374914D01*
X86634825Y-61374915D01*
X86640125Y-61377192D01*
X86645754Y-61378466D01*
X86645755Y-61378466D01*
X86839467Y-61422299D01*
X86839473Y-61422300D01*
X86845104Y-61423574D01*
X86850875Y-61423801D01*
X86850877Y-61423801D01*
X86914433Y-61426298D01*
X87055103Y-61431825D01*
X87263088Y-61401669D01*
X87268552Y-61399814D01*
X87268557Y-61399813D01*
X87456624Y-61335973D01*
X87456629Y-61335971D01*
X87462096Y-61334115D01*
X87645460Y-61231426D01*
X87807041Y-61097041D01*
X87834709Y-61063774D01*
X87937731Y-60939903D01*
X87937732Y-60939902D01*
X87941426Y-60935460D01*
X87943700Y-60931400D01*
X87943975Y-60931176D01*
X87944622Y-60929753D01*
X88041291Y-60757139D01*
X88041292Y-60757137D01*
X88044115Y-60752096D01*
X88045971Y-60746629D01*
X88045973Y-60746624D01*
X88109813Y-60558557D01*
X88109814Y-60558552D01*
X88111669Y-60553088D01*
X88141825Y-60345103D01*
X88143399Y-60285000D01*
X88124169Y-60075721D01*
X88067123Y-59873451D01*
X87989964Y-59716989D01*
X87976726Y-59690144D01*
X87974171Y-59684963D01*
X87965782Y-59673728D01*
X87851880Y-59521195D01*
X87851879Y-59521194D01*
X87848427Y-59516571D01*
X87824544Y-59494494D01*
X87698341Y-59377833D01*
X87698338Y-59377831D01*
X87694101Y-59373914D01*
X87516362Y-59261769D01*
X87321163Y-59183892D01*
X87315506Y-59182767D01*
X87315500Y-59182765D01*
X87120707Y-59144019D01*
X87120705Y-59144019D01*
X87115040Y-59142892D01*
X87109266Y-59142816D01*
X87109262Y-59142816D01*
X87090597Y-59142572D01*
X87066726Y-59142260D01*
X87040881Y-59134302D01*
X87035226Y-59137630D01*
X87002852Y-59141423D01*
X86955080Y-59140798D01*
X86904898Y-59140141D01*
X86899201Y-59141120D01*
X86899200Y-59141120D01*
X86703469Y-59174753D01*
X86697772Y-59175732D01*
X86500601Y-59248472D01*
X86495640Y-59251424D01*
X86495639Y-59251424D01*
X86362823Y-59330442D01*
X86319988Y-59355926D01*
X86161981Y-59494494D01*
X86158410Y-59499024D01*
X86061301Y-59622207D01*
X86031872Y-59659537D01*
X86029181Y-59664653D01*
X86029179Y-59664655D01*
X85995188Y-59729262D01*
X85934018Y-59845527D01*
X85871696Y-60046234D01*
X85871017Y-60051969D01*
X85871017Y-60051970D01*
X85849212Y-60236206D01*
X85827868Y-60286214D01*
X85621184Y-60286214D01*
X85599855Y-60242440D01*
X85598614Y-60232926D01*
X85584698Y-60081478D01*
X85584169Y-60075721D01*
X85527123Y-59873451D01*
X85449964Y-59716989D01*
X85436726Y-59690144D01*
X85434171Y-59684963D01*
X85425782Y-59673728D01*
X85311880Y-59521195D01*
X85311879Y-59521194D01*
X85308427Y-59516571D01*
X85284544Y-59494494D01*
X85158341Y-59377833D01*
X85158338Y-59377831D01*
X85154101Y-59373914D01*
X84976362Y-59261769D01*
X84781163Y-59183892D01*
X84775506Y-59182767D01*
X84775500Y-59182765D01*
X84580707Y-59144019D01*
X84580705Y-59144019D01*
X84575040Y-59142892D01*
X84569265Y-59142816D01*
X84569261Y-59142816D01*
X84534466Y-59142361D01*
X84532720Y-59142338D01*
X84490049Y-59129200D01*
X84476146Y-59137382D01*
X84443775Y-59141174D01*
X84364898Y-59140141D01*
X84359201Y-59141120D01*
X84359200Y-59141120D01*
X84163469Y-59174753D01*
X84157772Y-59175732D01*
X83960601Y-59248472D01*
X83955640Y-59251424D01*
X83955639Y-59251424D01*
X83822823Y-59330442D01*
X83779988Y-59355926D01*
X83621981Y-59494494D01*
X83618410Y-59499024D01*
X83521301Y-59622207D01*
X83491872Y-59659537D01*
X83489181Y-59664653D01*
X83489179Y-59664655D01*
X83455188Y-59729262D01*
X83394018Y-59845527D01*
X83331696Y-60046234D01*
X83331017Y-60051969D01*
X83331017Y-60051970D01*
X83309212Y-60236206D01*
X83287868Y-60286214D01*
X83081184Y-60286214D01*
X83059855Y-60242440D01*
X83058614Y-60232926D01*
X83044698Y-60081478D01*
X83044169Y-60075721D01*
X82987123Y-59873451D01*
X82909964Y-59716989D01*
X82896726Y-59690144D01*
X82894171Y-59684963D01*
X82885782Y-59673728D01*
X82771880Y-59521195D01*
X82771879Y-59521194D01*
X82768427Y-59516571D01*
X82744544Y-59494494D01*
X82618341Y-59377833D01*
X82618338Y-59377831D01*
X82614101Y-59373914D01*
X82436362Y-59261769D01*
X82241163Y-59183892D01*
X82235506Y-59182767D01*
X82235500Y-59182765D01*
X82040707Y-59144019D01*
X82040705Y-59144019D01*
X82035040Y-59142892D01*
X82029265Y-59142816D01*
X82029261Y-59142816D01*
X81994466Y-59142361D01*
X81992720Y-59142338D01*
X81950049Y-59129200D01*
X81936146Y-59137382D01*
X81903775Y-59141174D01*
X81824898Y-59140141D01*
X81819201Y-59141120D01*
X81819200Y-59141120D01*
X81623469Y-59174753D01*
X81617772Y-59175732D01*
X81420601Y-59248472D01*
X81415640Y-59251424D01*
X81415639Y-59251424D01*
X81282823Y-59330442D01*
X81239988Y-59355926D01*
X81081981Y-59494494D01*
X81078410Y-59499024D01*
X80981301Y-59622207D01*
X80951872Y-59659537D01*
X80949181Y-59664653D01*
X80949179Y-59664655D01*
X80915188Y-59729262D01*
X80854018Y-59845527D01*
X80791696Y-60046234D01*
X80791017Y-60051969D01*
X80791017Y-60051970D01*
X80769212Y-60236206D01*
X80747868Y-60286214D01*
X80541184Y-60286214D01*
X80519855Y-60242440D01*
X80518614Y-60232926D01*
X80504698Y-60081478D01*
X80504169Y-60075721D01*
X80447123Y-59873451D01*
X80369964Y-59716989D01*
X80356726Y-59690144D01*
X80354171Y-59684963D01*
X80345782Y-59673728D01*
X80231880Y-59521195D01*
X80231879Y-59521194D01*
X80228427Y-59516571D01*
X80204544Y-59494494D01*
X80078341Y-59377833D01*
X80078338Y-59377831D01*
X80074101Y-59373914D01*
X79896362Y-59261769D01*
X79701163Y-59183892D01*
X79695506Y-59182767D01*
X79695500Y-59182765D01*
X79500707Y-59144019D01*
X79500705Y-59144019D01*
X79495040Y-59142892D01*
X79489265Y-59142816D01*
X79489261Y-59142816D01*
X79454466Y-59142361D01*
X79452720Y-59142338D01*
X79410049Y-59129200D01*
X79396146Y-59137382D01*
X79363775Y-59141174D01*
X79284898Y-59140141D01*
X79279201Y-59141120D01*
X79279200Y-59141120D01*
X79083469Y-59174753D01*
X79077772Y-59175732D01*
X78880601Y-59248472D01*
X78875640Y-59251424D01*
X78875639Y-59251424D01*
X78742823Y-59330442D01*
X78699988Y-59355926D01*
X78541981Y-59494494D01*
X78538410Y-59499024D01*
X78441301Y-59622207D01*
X78411872Y-59659537D01*
X78409181Y-59664653D01*
X78409179Y-59664655D01*
X78375188Y-59729262D01*
X78314018Y-59845527D01*
X78251696Y-60046234D01*
X78226995Y-60254938D01*
X63771140Y-60254938D01*
X63759232Y-60141635D01*
X63759232Y-60141633D01*
X63758542Y-60135072D01*
X63699527Y-59953444D01*
X63639875Y-59850123D01*
X63607343Y-59793777D01*
X63604040Y-59788056D01*
X63532364Y-59708451D01*
X63501647Y-59644444D01*
X63500000Y-59624141D01*
X63500000Y-59535374D01*
X64626753Y-59535374D01*
X64636635Y-59547863D01*
X64688673Y-59582634D01*
X64698783Y-59588124D01*
X64889757Y-59670173D01*
X64900700Y-59673728D01*
X65103422Y-59719600D01*
X65114832Y-59721102D01*
X65322527Y-59729262D01*
X65334009Y-59728660D01*
X65539708Y-59698836D01*
X65550904Y-59696148D01*
X65747723Y-59629336D01*
X65758230Y-59624658D01*
X65896618Y-59547156D01*
X65906483Y-59537078D01*
X65903527Y-59529406D01*
X65640273Y-59266152D01*
X75196449Y-59266152D01*
X75203204Y-59328334D01*
X75254334Y-59464723D01*
X75341688Y-59581279D01*
X75458244Y-59668633D01*
X75594633Y-59719763D01*
X75650509Y-59725833D01*
X75653032Y-59726107D01*
X75656815Y-59726518D01*
X77124683Y-59726518D01*
X77128467Y-59726107D01*
X77130989Y-59725833D01*
X77186865Y-59719763D01*
X77323254Y-59668633D01*
X77439810Y-59581279D01*
X77527164Y-59464723D01*
X77578294Y-59328334D01*
X77585049Y-59266152D01*
X77585049Y-57798284D01*
X77578294Y-57736102D01*
X77570360Y-57714938D01*
X78226995Y-57714938D01*
X78240740Y-57924649D01*
X78292471Y-58128343D01*
X78294890Y-58133590D01*
X78378038Y-58313953D01*
X78378041Y-58313958D01*
X78380457Y-58319199D01*
X78383788Y-58323912D01*
X78383789Y-58323914D01*
X78449053Y-58416259D01*
X78501751Y-58490825D01*
X78652289Y-58637474D01*
X78657085Y-58640679D01*
X78657088Y-58640681D01*
X78779710Y-58722614D01*
X78827031Y-58754233D01*
X78832339Y-58756514D01*
X78832340Y-58756514D01*
X79014822Y-58834914D01*
X79014825Y-58834915D01*
X79020125Y-58837192D01*
X79025754Y-58838466D01*
X79025755Y-58838466D01*
X79219467Y-58882299D01*
X79219473Y-58882300D01*
X79225104Y-58883574D01*
X79230875Y-58883801D01*
X79230877Y-58883801D01*
X79370369Y-58889282D01*
X79408852Y-58902243D01*
X79420456Y-58894999D01*
X79436289Y-58891653D01*
X79438558Y-58891324D01*
X79643088Y-58861669D01*
X79648552Y-58859814D01*
X79648557Y-58859813D01*
X79836624Y-58795973D01*
X79836629Y-58795971D01*
X79842096Y-58794115D01*
X80025460Y-58691426D01*
X80187041Y-58557041D01*
X80321426Y-58395460D01*
X80424115Y-58212096D01*
X80425971Y-58206629D01*
X80425973Y-58206624D01*
X80489813Y-58018557D01*
X80489814Y-58018552D01*
X80491669Y-58013088D01*
X80521825Y-57805103D01*
X80521868Y-57803466D01*
X80542816Y-57749564D01*
X80541184Y-57746214D01*
X80747868Y-57746214D01*
X80770730Y-57789477D01*
X80772985Y-57806334D01*
X80773145Y-57808772D01*
X80780740Y-57924649D01*
X80832471Y-58128343D01*
X80834890Y-58133590D01*
X80918038Y-58313953D01*
X80918041Y-58313958D01*
X80920457Y-58319199D01*
X80923788Y-58323912D01*
X80923789Y-58323914D01*
X80989053Y-58416259D01*
X81041751Y-58490825D01*
X81192289Y-58637474D01*
X81197085Y-58640679D01*
X81197088Y-58640681D01*
X81319710Y-58722614D01*
X81367031Y-58754233D01*
X81372339Y-58756514D01*
X81372340Y-58756514D01*
X81554822Y-58834914D01*
X81554825Y-58834915D01*
X81560125Y-58837192D01*
X81565754Y-58838466D01*
X81565755Y-58838466D01*
X81759467Y-58882299D01*
X81759473Y-58882300D01*
X81765104Y-58883574D01*
X81770875Y-58883801D01*
X81770877Y-58883801D01*
X81910369Y-58889282D01*
X81948852Y-58902243D01*
X81960456Y-58894999D01*
X81976289Y-58891653D01*
X81978558Y-58891324D01*
X82183088Y-58861669D01*
X82188552Y-58859814D01*
X82188557Y-58859813D01*
X82376624Y-58795973D01*
X82376629Y-58795971D01*
X82382096Y-58794115D01*
X82565460Y-58691426D01*
X82727041Y-58557041D01*
X82861426Y-58395460D01*
X82964115Y-58212096D01*
X82965971Y-58206629D01*
X82965973Y-58206624D01*
X83029813Y-58018557D01*
X83029814Y-58018552D01*
X83031669Y-58013088D01*
X83061825Y-57805103D01*
X83061868Y-57803466D01*
X83082816Y-57749564D01*
X83081184Y-57746214D01*
X83287868Y-57746214D01*
X83310730Y-57789477D01*
X83312985Y-57806334D01*
X83313145Y-57808772D01*
X83320740Y-57924649D01*
X83372471Y-58128343D01*
X83374890Y-58133590D01*
X83458038Y-58313953D01*
X83458041Y-58313958D01*
X83460457Y-58319199D01*
X83463788Y-58323912D01*
X83463789Y-58323914D01*
X83529053Y-58416259D01*
X83581751Y-58490825D01*
X83732289Y-58637474D01*
X83737085Y-58640679D01*
X83737088Y-58640681D01*
X83859710Y-58722614D01*
X83907031Y-58754233D01*
X83912339Y-58756514D01*
X83912340Y-58756514D01*
X84094822Y-58834914D01*
X84094825Y-58834915D01*
X84100125Y-58837192D01*
X84105754Y-58838466D01*
X84105755Y-58838466D01*
X84299467Y-58882299D01*
X84299473Y-58882300D01*
X84305104Y-58883574D01*
X84310875Y-58883801D01*
X84310877Y-58883801D01*
X84450369Y-58889282D01*
X84488852Y-58902243D01*
X84500456Y-58894999D01*
X84516289Y-58891653D01*
X84518558Y-58891324D01*
X84723088Y-58861669D01*
X84728552Y-58859814D01*
X84728557Y-58859813D01*
X84916624Y-58795973D01*
X84916629Y-58795971D01*
X84922096Y-58794115D01*
X85069562Y-58711530D01*
X86392830Y-58711530D01*
X86402710Y-58724017D01*
X86442472Y-58750585D01*
X86452575Y-58756071D01*
X86634973Y-58834435D01*
X86645916Y-58837990D01*
X86839533Y-58881802D01*
X86850942Y-58883304D01*
X87009447Y-58889531D01*
X87031304Y-58896893D01*
X87034462Y-58894921D01*
X87055107Y-58891536D01*
X87055076Y-58891324D01*
X87257250Y-58862011D01*
X87268445Y-58859323D01*
X87456424Y-58795512D01*
X87466931Y-58790834D01*
X87588745Y-58722614D01*
X87598610Y-58712536D01*
X87595654Y-58704864D01*
X87007812Y-58117022D01*
X86993868Y-58109408D01*
X86992035Y-58109539D01*
X86985420Y-58113790D01*
X86399027Y-58700183D01*
X86392830Y-58711530D01*
X85069562Y-58711530D01*
X85105460Y-58691426D01*
X85267041Y-58557041D01*
X85401426Y-58395460D01*
X85504115Y-58212096D01*
X85505971Y-58206629D01*
X85505973Y-58206624D01*
X85569813Y-58018557D01*
X85569814Y-58018552D01*
X85571669Y-58013088D01*
X85601825Y-57805103D01*
X85601922Y-57801394D01*
X85601994Y-57800551D01*
X85621836Y-57749493D01*
X85619832Y-57745380D01*
X85829464Y-57745380D01*
X85851013Y-57786159D01*
X85853268Y-57803015D01*
X85860858Y-57918803D01*
X85862659Y-57930173D01*
X85911523Y-58122576D01*
X85915364Y-58133423D01*
X85998475Y-58313705D01*
X86004223Y-58323661D01*
X86015675Y-58339867D01*
X86026263Y-58348254D01*
X86039564Y-58341226D01*
X86622978Y-57757812D01*
X86629356Y-57746132D01*
X87359408Y-57746132D01*
X87359539Y-57747965D01*
X87363790Y-57754580D01*
X87950950Y-58341740D01*
X87963330Y-58348500D01*
X87969910Y-58343574D01*
X88040834Y-58216931D01*
X88045512Y-58206424D01*
X88109323Y-58018445D01*
X88112011Y-58007250D01*
X88140791Y-57808750D01*
X88141421Y-57801367D01*
X88142800Y-57748704D01*
X88142557Y-57741305D01*
X88124204Y-57541566D01*
X88122107Y-57530251D01*
X88068222Y-57339190D01*
X88064100Y-57328451D01*
X87976299Y-57150409D01*
X87974192Y-57146970D01*
X87964876Y-57139980D01*
X87952459Y-57146751D01*
X87367022Y-57732188D01*
X87359408Y-57746132D01*
X86629356Y-57746132D01*
X86630592Y-57743868D01*
X86630461Y-57742035D01*
X86626210Y-57735420D01*
X86037626Y-57146836D01*
X86025246Y-57140076D01*
X86019280Y-57144542D01*
X85937173Y-57300602D01*
X85932768Y-57311236D01*
X85873900Y-57500822D01*
X85871508Y-57512076D01*
X85849432Y-57698597D01*
X85829464Y-57745380D01*
X85619832Y-57745380D01*
X85600075Y-57704830D01*
X85598834Y-57695316D01*
X85584698Y-57541478D01*
X85584169Y-57535721D01*
X85577501Y-57512076D01*
X85533575Y-57356327D01*
X85527123Y-57333451D01*
X85434171Y-57144963D01*
X85308427Y-56976571D01*
X85154101Y-56833914D01*
X85065703Y-56778139D01*
X86392251Y-56778139D01*
X86395738Y-56786528D01*
X86982188Y-57372978D01*
X86996132Y-57380592D01*
X86997965Y-57380461D01*
X87004580Y-57376210D01*
X87590657Y-56790133D01*
X87597417Y-56777753D01*
X87591387Y-56769698D01*
X87521020Y-56725299D01*
X87510769Y-56720076D01*
X87326389Y-56646516D01*
X87315352Y-56643247D01*
X87120654Y-56604518D01*
X87109210Y-56603315D01*
X86910719Y-56600718D01*
X86899239Y-56601621D01*
X86703599Y-56635238D01*
X86692479Y-56638218D01*
X86506234Y-56706927D01*
X86495856Y-56711877D01*
X86401849Y-56767806D01*
X86392251Y-56778139D01*
X85065703Y-56778139D01*
X84976362Y-56721769D01*
X84781163Y-56643892D01*
X84775506Y-56642767D01*
X84775500Y-56642765D01*
X84580707Y-56604019D01*
X84580705Y-56604019D01*
X84575040Y-56602892D01*
X84569265Y-56602816D01*
X84569261Y-56602816D01*
X84464001Y-56601438D01*
X84364898Y-56600141D01*
X84359201Y-56601120D01*
X84359200Y-56601120D01*
X84163469Y-56634753D01*
X84157772Y-56635732D01*
X83960601Y-56708472D01*
X83955640Y-56711424D01*
X83955639Y-56711424D01*
X83847733Y-56775622D01*
X83779988Y-56815926D01*
X83621981Y-56954494D01*
X83491872Y-57119537D01*
X83489181Y-57124653D01*
X83489179Y-57124655D01*
X83396710Y-57300410D01*
X83394018Y-57305527D01*
X83331696Y-57506234D01*
X83331017Y-57511969D01*
X83331017Y-57511970D01*
X83309212Y-57696206D01*
X83287868Y-57746214D01*
X83081184Y-57746214D01*
X83059855Y-57702440D01*
X83058614Y-57692926D01*
X83044698Y-57541478D01*
X83044169Y-57535721D01*
X83037501Y-57512076D01*
X82993575Y-57356327D01*
X82987123Y-57333451D01*
X82894171Y-57144963D01*
X82768427Y-56976571D01*
X82614101Y-56833914D01*
X82521712Y-56775621D01*
X82474775Y-56722356D01*
X82464085Y-56652168D01*
X82493039Y-56587344D01*
X82514883Y-56567127D01*
X82526253Y-56558866D01*
X82654040Y-56416944D01*
X82749527Y-56251556D01*
X82808542Y-56069928D01*
X82811814Y-56038803D01*
X82827814Y-55886565D01*
X82828504Y-55880000D01*
X82810305Y-55706846D01*
X82809232Y-55696635D01*
X82809232Y-55696633D01*
X82808542Y-55690072D01*
X82749527Y-55508444D01*
X82654040Y-55343056D01*
X82629844Y-55316183D01*
X82565750Y-55245000D01*
X83541496Y-55245000D01*
X83542186Y-55251565D01*
X83548978Y-55316183D01*
X83561458Y-55434928D01*
X83620473Y-55616556D01*
X83715960Y-55781944D01*
X83720378Y-55786851D01*
X83720379Y-55786852D01*
X83777617Y-55850421D01*
X83843747Y-55923866D01*
X83998248Y-56036118D01*
X84004276Y-56038802D01*
X84004278Y-56038803D01*
X84166681Y-56111109D01*
X84172712Y-56113794D01*
X84266112Y-56133647D01*
X84353056Y-56152128D01*
X84353061Y-56152128D01*
X84359513Y-56153500D01*
X84550487Y-56153500D01*
X84556939Y-56152128D01*
X84556944Y-56152128D01*
X84643888Y-56133647D01*
X84737288Y-56113794D01*
X84743319Y-56111109D01*
X84905722Y-56038803D01*
X84905724Y-56038802D01*
X84911752Y-56036118D01*
X85066253Y-55923866D01*
X85132383Y-55850421D01*
X85189621Y-55786852D01*
X85189622Y-55786851D01*
X85194040Y-55781944D01*
X85289527Y-55616556D01*
X85348542Y-55434928D01*
X85361023Y-55316183D01*
X85367814Y-55251565D01*
X85368504Y-55245000D01*
X85353672Y-55103883D01*
X85349232Y-55061635D01*
X85349232Y-55061633D01*
X85348542Y-55055072D01*
X85289527Y-54873444D01*
X85194040Y-54708056D01*
X85184988Y-54698002D01*
X85070675Y-54571045D01*
X85070674Y-54571044D01*
X85066253Y-54566134D01*
X84967157Y-54494136D01*
X84917094Y-54457763D01*
X84917093Y-54457762D01*
X84911752Y-54453882D01*
X84905724Y-54451198D01*
X84905722Y-54451197D01*
X84743319Y-54378891D01*
X84743318Y-54378891D01*
X84737288Y-54376206D01*
X84643887Y-54356353D01*
X84556944Y-54337872D01*
X84556939Y-54337872D01*
X84550487Y-54336500D01*
X84359513Y-54336500D01*
X84353061Y-54337872D01*
X84353056Y-54337872D01*
X84266112Y-54356353D01*
X84172712Y-54376206D01*
X84166682Y-54378891D01*
X84166681Y-54378891D01*
X84004278Y-54451197D01*
X84004276Y-54451198D01*
X83998248Y-54453882D01*
X83992907Y-54457762D01*
X83992906Y-54457763D01*
X83942843Y-54494136D01*
X83843747Y-54566134D01*
X83839326Y-54571044D01*
X83839325Y-54571045D01*
X83725013Y-54698002D01*
X83715960Y-54708056D01*
X83620473Y-54873444D01*
X83561458Y-55055072D01*
X83560768Y-55061633D01*
X83560768Y-55061635D01*
X83556328Y-55103883D01*
X83541496Y-55245000D01*
X82565750Y-55245000D01*
X82530675Y-55206045D01*
X82530674Y-55206044D01*
X82526253Y-55201134D01*
X82371752Y-55088882D01*
X82365724Y-55086198D01*
X82365722Y-55086197D01*
X82203319Y-55013891D01*
X82203318Y-55013891D01*
X82197288Y-55011206D01*
X82102918Y-54991147D01*
X82016944Y-54972872D01*
X82016939Y-54972872D01*
X82010487Y-54971500D01*
X81819513Y-54971500D01*
X81813061Y-54972872D01*
X81813056Y-54972872D01*
X81727082Y-54991147D01*
X81632712Y-55011206D01*
X81626682Y-55013891D01*
X81626681Y-55013891D01*
X81464278Y-55086197D01*
X81464276Y-55086198D01*
X81458248Y-55088882D01*
X81303747Y-55201134D01*
X81299326Y-55206044D01*
X81299325Y-55206045D01*
X81200157Y-55316183D01*
X81175960Y-55343056D01*
X81080473Y-55508444D01*
X81021458Y-55690072D01*
X81020768Y-55696633D01*
X81020768Y-55696635D01*
X81019695Y-55706846D01*
X81001496Y-55880000D01*
X81002186Y-55886565D01*
X81018187Y-56038803D01*
X81021458Y-56069928D01*
X81080473Y-56251556D01*
X81175960Y-56416944D01*
X81303747Y-56558866D01*
X81314826Y-56566915D01*
X81358179Y-56623135D01*
X81364256Y-56693871D01*
X81331125Y-56756663D01*
X81305189Y-56777135D01*
X81239988Y-56815926D01*
X81081981Y-56954494D01*
X80951872Y-57119537D01*
X80949181Y-57124653D01*
X80949179Y-57124655D01*
X80856710Y-57300410D01*
X80854018Y-57305527D01*
X80791696Y-57506234D01*
X80791017Y-57511969D01*
X80791017Y-57511970D01*
X80769212Y-57696206D01*
X80747868Y-57746214D01*
X80541184Y-57746214D01*
X80519855Y-57702440D01*
X80518614Y-57692926D01*
X80504698Y-57541478D01*
X80504169Y-57535721D01*
X80497501Y-57512076D01*
X80453575Y-57356327D01*
X80447123Y-57333451D01*
X80354171Y-57144963D01*
X80228427Y-56976571D01*
X80074101Y-56833914D01*
X79896362Y-56721769D01*
X79701163Y-56643892D01*
X79695506Y-56642767D01*
X79695500Y-56642765D01*
X79500707Y-56604019D01*
X79500705Y-56604019D01*
X79495040Y-56602892D01*
X79489265Y-56602816D01*
X79489261Y-56602816D01*
X79384001Y-56601438D01*
X79284898Y-56600141D01*
X79279201Y-56601120D01*
X79279200Y-56601120D01*
X79083469Y-56634753D01*
X79077772Y-56635732D01*
X78880601Y-56708472D01*
X78875640Y-56711424D01*
X78875639Y-56711424D01*
X78767733Y-56775622D01*
X78699988Y-56815926D01*
X78541981Y-56954494D01*
X78411872Y-57119537D01*
X78409181Y-57124653D01*
X78409179Y-57124655D01*
X78316710Y-57300410D01*
X78314018Y-57305527D01*
X78251696Y-57506234D01*
X78251017Y-57511969D01*
X78251017Y-57511970D01*
X78250966Y-57512399D01*
X78226995Y-57714938D01*
X77570360Y-57714938D01*
X77527164Y-57599713D01*
X77439810Y-57483157D01*
X77323254Y-57395803D01*
X77186865Y-57344673D01*
X77124683Y-57337918D01*
X75656815Y-57337918D01*
X75594633Y-57344673D01*
X75458244Y-57395803D01*
X75341688Y-57483157D01*
X75254334Y-57599713D01*
X75203204Y-57736102D01*
X75196449Y-57798284D01*
X75196449Y-59266152D01*
X65640273Y-59266152D01*
X65278361Y-58904240D01*
X65264417Y-58896626D01*
X65262584Y-58896757D01*
X65255969Y-58901008D01*
X64632949Y-59524028D01*
X64626753Y-59535374D01*
X63500000Y-59535374D01*
X63500000Y-58506600D01*
X64067424Y-58506600D01*
X64081018Y-58714001D01*
X64082819Y-58725371D01*
X64133981Y-58926824D01*
X64137822Y-58937671D01*
X64224842Y-59126433D01*
X64230591Y-59136390D01*
X64249774Y-59163533D01*
X64260363Y-59171921D01*
X64273664Y-59164893D01*
X64893527Y-58545030D01*
X64899905Y-58533350D01*
X65629957Y-58533350D01*
X65630088Y-58535183D01*
X65634339Y-58541798D01*
X66258823Y-59166282D01*
X66271203Y-59173042D01*
X66277783Y-59168116D01*
X66357989Y-59024899D01*
X66362667Y-59014392D01*
X66429479Y-58817573D01*
X66432167Y-58806377D01*
X66462287Y-58598638D01*
X66462917Y-58591255D01*
X66464366Y-58535922D01*
X66464123Y-58528523D01*
X66444916Y-58319490D01*
X66442818Y-58308169D01*
X66386401Y-58108131D01*
X66382276Y-58097384D01*
X66290345Y-57910966D01*
X66284335Y-57901159D01*
X66282983Y-57899348D01*
X66271725Y-57890899D01*
X66259306Y-57897671D01*
X65637571Y-58519406D01*
X65629957Y-58533350D01*
X64899905Y-58533350D01*
X64901141Y-58531086D01*
X64901010Y-58529253D01*
X64896759Y-58522638D01*
X64270560Y-57896439D01*
X64258180Y-57889679D01*
X64252214Y-57894145D01*
X64160586Y-58068303D01*
X64156185Y-58078927D01*
X64094547Y-58277433D01*
X64092155Y-58288687D01*
X64067725Y-58495099D01*
X64067424Y-58506600D01*
X63500000Y-58506600D01*
X63500000Y-57528293D01*
X64625736Y-57528293D01*
X64629222Y-57536681D01*
X65252737Y-58160196D01*
X65266681Y-58167810D01*
X65268514Y-58167679D01*
X65275129Y-58163428D01*
X65898038Y-57540519D01*
X65904798Y-57528139D01*
X65898768Y-57520084D01*
X65814729Y-57467059D01*
X65804481Y-57461838D01*
X65611428Y-57384818D01*
X65600392Y-57381549D01*
X65396536Y-57340999D01*
X65385091Y-57339796D01*
X65177265Y-57337076D01*
X65165785Y-57337979D01*
X64960944Y-57373177D01*
X64949824Y-57376157D01*
X64754819Y-57448098D01*
X64744441Y-57453048D01*
X64635334Y-57517960D01*
X64625736Y-57528293D01*
X63500000Y-57528293D01*
X63500000Y-55913886D01*
X64651704Y-55913886D01*
X64661586Y-55926375D01*
X64713624Y-55961146D01*
X64723734Y-55966636D01*
X64914708Y-56048685D01*
X64925651Y-56052240D01*
X65128373Y-56098112D01*
X65139783Y-56099614D01*
X65347478Y-56107774D01*
X65358960Y-56107172D01*
X65564659Y-56077348D01*
X65575855Y-56074660D01*
X65772674Y-56007848D01*
X65783181Y-56003170D01*
X65921569Y-55925668D01*
X65931434Y-55915590D01*
X65928478Y-55907918D01*
X65665224Y-55644664D01*
X75221400Y-55644664D01*
X75228155Y-55706846D01*
X75279285Y-55843235D01*
X75366639Y-55959791D01*
X75483195Y-56047145D01*
X75619584Y-56098275D01*
X75681766Y-56105030D01*
X77149634Y-56105030D01*
X77211816Y-56098275D01*
X77348205Y-56047145D01*
X77464761Y-55959791D01*
X77552115Y-55843235D01*
X77603245Y-55706846D01*
X77610000Y-55644664D01*
X77610000Y-54176796D01*
X77603245Y-54114614D01*
X77552115Y-53978225D01*
X77519720Y-53935000D01*
X89491502Y-53935000D01*
X89511457Y-54163087D01*
X89512881Y-54168400D01*
X89512881Y-54168402D01*
X89545324Y-54289478D01*
X89570716Y-54384243D01*
X89573039Y-54389224D01*
X89573039Y-54389225D01*
X89665151Y-54586762D01*
X89665154Y-54586767D01*
X89667477Y-54591749D01*
X89798802Y-54779300D01*
X89960700Y-54941198D01*
X89965208Y-54944355D01*
X89965211Y-54944357D01*
X90032034Y-54991147D01*
X90148251Y-55072523D01*
X90153233Y-55074846D01*
X90153238Y-55074849D01*
X90350775Y-55166961D01*
X90355757Y-55169284D01*
X90361065Y-55170706D01*
X90361067Y-55170707D01*
X90571598Y-55227119D01*
X90571600Y-55227119D01*
X90576913Y-55228543D01*
X90805000Y-55248498D01*
X91033087Y-55228543D01*
X91038400Y-55227119D01*
X91038402Y-55227119D01*
X91248933Y-55170707D01*
X91248935Y-55170706D01*
X91254243Y-55169284D01*
X91259225Y-55166961D01*
X91456762Y-55074849D01*
X91456767Y-55074846D01*
X91461749Y-55072523D01*
X91577966Y-54991147D01*
X91644789Y-54944357D01*
X91644792Y-54944355D01*
X91649300Y-54941198D01*
X91811198Y-54779300D01*
X91942523Y-54591749D01*
X91944846Y-54586767D01*
X91944849Y-54586762D01*
X92011823Y-54443134D01*
X103329000Y-54443134D01*
X103335755Y-54505316D01*
X103386885Y-54641705D01*
X103474239Y-54758261D01*
X103590795Y-54845615D01*
X103727184Y-54896745D01*
X103789366Y-54903500D01*
X105835634Y-54903500D01*
X105897816Y-54896745D01*
X106034205Y-54845615D01*
X106150761Y-54758261D01*
X106238115Y-54641705D01*
X106289245Y-54505316D01*
X106296000Y-54443134D01*
X106296000Y-52396866D01*
X106289245Y-52334684D01*
X106238115Y-52198295D01*
X106150761Y-52081739D01*
X106034205Y-51994385D01*
X105897816Y-51943255D01*
X105835634Y-51936500D01*
X103789366Y-51936500D01*
X103727184Y-51943255D01*
X103590795Y-51994385D01*
X103474239Y-52081739D01*
X103386885Y-52198295D01*
X103335755Y-52334684D01*
X103329000Y-52396866D01*
X103329000Y-54443134D01*
X92011823Y-54443134D01*
X92036961Y-54389225D01*
X92036961Y-54389224D01*
X92039284Y-54384243D01*
X92064677Y-54289478D01*
X92097119Y-54168402D01*
X92097119Y-54168400D01*
X92098543Y-54163087D01*
X92118498Y-53935000D01*
X92098543Y-53706913D01*
X92097119Y-53701598D01*
X92040707Y-53491067D01*
X92040706Y-53491065D01*
X92039284Y-53485757D01*
X92036961Y-53480775D01*
X91944849Y-53283238D01*
X91944846Y-53283233D01*
X91942523Y-53278251D01*
X91811198Y-53090700D01*
X91649300Y-52928802D01*
X91644792Y-52925645D01*
X91644789Y-52925643D01*
X91466253Y-52800631D01*
X91461749Y-52797477D01*
X91456765Y-52795153D01*
X91454472Y-52793829D01*
X91405479Y-52742447D01*
X91392043Y-52672733D01*
X91418429Y-52606822D01*
X91454472Y-52575591D01*
X91466002Y-52568934D01*
X91518048Y-52532491D01*
X91526424Y-52522012D01*
X91519356Y-52508566D01*
X90817812Y-51807022D01*
X90803868Y-51799408D01*
X90802035Y-51799539D01*
X90795420Y-51803790D01*
X90089923Y-52509287D01*
X90083493Y-52521062D01*
X90092789Y-52533077D01*
X90143998Y-52568934D01*
X90155528Y-52575591D01*
X90204521Y-52626973D01*
X90217958Y-52696687D01*
X90191571Y-52762598D01*
X90155528Y-52793829D01*
X90153235Y-52795153D01*
X90148251Y-52797477D01*
X90143747Y-52800631D01*
X89965211Y-52925643D01*
X89965208Y-52925645D01*
X89960700Y-52928802D01*
X89798802Y-53090700D01*
X89667477Y-53278251D01*
X89665154Y-53283233D01*
X89665151Y-53283238D01*
X89573039Y-53480775D01*
X89570716Y-53485757D01*
X89569294Y-53491065D01*
X89569293Y-53491067D01*
X89512881Y-53701598D01*
X89511457Y-53706913D01*
X89491502Y-53935000D01*
X77519720Y-53935000D01*
X77464761Y-53861669D01*
X77348205Y-53774315D01*
X77211816Y-53723185D01*
X77149634Y-53716430D01*
X75681766Y-53716430D01*
X75619584Y-53723185D01*
X75483195Y-53774315D01*
X75366639Y-53861669D01*
X75279285Y-53978225D01*
X75228155Y-54114614D01*
X75221400Y-54176796D01*
X75221400Y-55644664D01*
X65665224Y-55644664D01*
X65303312Y-55282752D01*
X65289368Y-55275138D01*
X65287535Y-55275269D01*
X65280920Y-55279520D01*
X64657900Y-55902540D01*
X64651704Y-55913886D01*
X63500000Y-55913886D01*
X63500000Y-54885112D01*
X64092375Y-54885112D01*
X64105969Y-55092513D01*
X64107770Y-55103883D01*
X64158932Y-55305336D01*
X64162773Y-55316183D01*
X64249793Y-55504945D01*
X64255542Y-55514902D01*
X64274725Y-55542045D01*
X64285314Y-55550433D01*
X64298615Y-55543405D01*
X64918478Y-54923542D01*
X64924856Y-54911862D01*
X65654908Y-54911862D01*
X65655039Y-54913695D01*
X65659290Y-54920310D01*
X66283774Y-55544794D01*
X66296154Y-55551554D01*
X66302734Y-55546628D01*
X66382940Y-55403411D01*
X66387618Y-55392904D01*
X66454430Y-55196085D01*
X66457118Y-55184889D01*
X66487238Y-54977150D01*
X66487868Y-54969767D01*
X66489317Y-54914434D01*
X66489074Y-54907035D01*
X66469867Y-54698002D01*
X66467769Y-54686681D01*
X66411352Y-54486643D01*
X66407227Y-54475896D01*
X66315296Y-54289478D01*
X66309286Y-54279671D01*
X66307934Y-54277860D01*
X66296676Y-54269411D01*
X66284257Y-54276183D01*
X65662522Y-54897918D01*
X65654908Y-54911862D01*
X64924856Y-54911862D01*
X64926092Y-54909598D01*
X64925961Y-54907765D01*
X64921710Y-54901150D01*
X64295511Y-54274951D01*
X64283131Y-54268191D01*
X64277165Y-54272657D01*
X64185537Y-54446815D01*
X64181136Y-54457439D01*
X64119498Y-54655945D01*
X64117106Y-54667199D01*
X64092676Y-54873611D01*
X64092375Y-54885112D01*
X63500000Y-54885112D01*
X63500000Y-53906805D01*
X64650687Y-53906805D01*
X64654173Y-53915193D01*
X65277688Y-54538708D01*
X65291632Y-54546322D01*
X65293465Y-54546191D01*
X65300080Y-54541940D01*
X65922989Y-53919031D01*
X65929749Y-53906651D01*
X65923719Y-53898596D01*
X65839680Y-53845571D01*
X65829432Y-53840350D01*
X65636379Y-53763330D01*
X65625343Y-53760061D01*
X65421487Y-53719511D01*
X65410042Y-53718308D01*
X65202216Y-53715588D01*
X65190736Y-53716491D01*
X64985895Y-53751689D01*
X64974775Y-53754669D01*
X64779770Y-53826610D01*
X64769392Y-53831560D01*
X64660285Y-53896472D01*
X64650687Y-53906805D01*
X63500000Y-53906805D01*
X63500000Y-51553968D01*
X64091495Y-51553968D01*
X64105851Y-51772995D01*
X64159881Y-51985738D01*
X64251775Y-52185073D01*
X64255106Y-52189786D01*
X64255107Y-52189788D01*
X64363741Y-52343500D01*
X64378457Y-52364323D01*
X64408376Y-52393469D01*
X64527267Y-52509287D01*
X64535683Y-52517486D01*
X64540479Y-52520691D01*
X64540482Y-52520693D01*
X64612680Y-52568934D01*
X64718188Y-52639432D01*
X64723491Y-52641710D01*
X64723494Y-52641712D01*
X64897322Y-52716394D01*
X64919860Y-52726077D01*
X65036499Y-52752470D01*
X65114571Y-52770136D01*
X65133945Y-52774520D01*
X65139716Y-52774747D01*
X65139718Y-52774747D01*
X65213134Y-52777631D01*
X65353273Y-52783137D01*
X65444942Y-52769846D01*
X65564784Y-52752470D01*
X65564789Y-52752469D01*
X65570498Y-52751641D01*
X65575962Y-52749786D01*
X65575967Y-52749785D01*
X65772878Y-52682942D01*
X65778346Y-52681086D01*
X65969857Y-52573835D01*
X66138615Y-52433480D01*
X66233579Y-52319299D01*
X75221400Y-52319299D01*
X75228155Y-52381481D01*
X75279285Y-52517870D01*
X75366639Y-52634426D01*
X75483195Y-52721780D01*
X75619584Y-52772910D01*
X75681766Y-52779665D01*
X77149634Y-52779665D01*
X77211816Y-52772910D01*
X77348205Y-52721780D01*
X77464761Y-52634426D01*
X77552115Y-52517870D01*
X77603245Y-52381481D01*
X77610000Y-52319299D01*
X77610000Y-51435000D01*
X81001496Y-51435000D01*
X81021458Y-51624928D01*
X81080473Y-51806556D01*
X81175960Y-51971944D01*
X81180378Y-51976851D01*
X81180379Y-51976852D01*
X81262218Y-52067743D01*
X81303747Y-52113866D01*
X81352595Y-52149356D01*
X81431526Y-52206703D01*
X81458248Y-52226118D01*
X81464276Y-52228802D01*
X81464278Y-52228803D01*
X81544954Y-52264722D01*
X81632712Y-52303794D01*
X81726112Y-52323647D01*
X81813056Y-52342128D01*
X81813061Y-52342128D01*
X81819513Y-52343500D01*
X82010487Y-52343500D01*
X82016939Y-52342128D01*
X82016944Y-52342128D01*
X82103888Y-52323647D01*
X82197288Y-52303794D01*
X82285046Y-52264722D01*
X82365722Y-52228803D01*
X82365724Y-52228802D01*
X82371752Y-52226118D01*
X82398475Y-52206703D01*
X82477405Y-52149356D01*
X82526253Y-52113866D01*
X82567782Y-52067743D01*
X82649621Y-51976852D01*
X82649622Y-51976851D01*
X82654040Y-51971944D01*
X82749527Y-51806556D01*
X82808542Y-51624928D01*
X82827929Y-51440475D01*
X89492483Y-51440475D01*
X89511472Y-51657519D01*
X89513375Y-51668312D01*
X89569764Y-51878761D01*
X89573510Y-51889053D01*
X89665586Y-52086511D01*
X89671069Y-52096006D01*
X89707509Y-52148048D01*
X89717988Y-52156424D01*
X89731434Y-52149356D01*
X90432978Y-51447812D01*
X90439356Y-51436132D01*
X91169408Y-51436132D01*
X91169539Y-51437965D01*
X91173790Y-51444580D01*
X91879287Y-52150077D01*
X91891062Y-52156507D01*
X91903077Y-52147211D01*
X91938931Y-52096006D01*
X91944414Y-52086511D01*
X92036490Y-51889053D01*
X92040236Y-51878761D01*
X92096625Y-51668312D01*
X92098528Y-51657519D01*
X92117517Y-51440475D01*
X92117517Y-51429525D01*
X92098528Y-51212481D01*
X92096625Y-51201688D01*
X92040236Y-50991239D01*
X92036490Y-50980947D01*
X91944414Y-50783489D01*
X91938931Y-50773994D01*
X91902491Y-50721952D01*
X91892012Y-50713576D01*
X91878566Y-50720644D01*
X91177022Y-51422188D01*
X91169408Y-51436132D01*
X90439356Y-51436132D01*
X90440592Y-51433868D01*
X90440461Y-51432035D01*
X90436210Y-51425420D01*
X89730713Y-50719923D01*
X89718938Y-50713493D01*
X89706923Y-50722789D01*
X89671069Y-50773994D01*
X89665586Y-50783489D01*
X89573510Y-50980947D01*
X89569764Y-50991239D01*
X89513375Y-51201688D01*
X89511472Y-51212481D01*
X89492483Y-51429525D01*
X89492483Y-51440475D01*
X82827929Y-51440475D01*
X82828504Y-51435000D01*
X82821335Y-51366789D01*
X82809232Y-51251635D01*
X82809232Y-51251633D01*
X82808542Y-51245072D01*
X82749527Y-51063444D01*
X82654040Y-50898056D01*
X82615136Y-50854848D01*
X82530675Y-50761045D01*
X82530674Y-50761044D01*
X82526253Y-50756134D01*
X82371752Y-50643882D01*
X82365724Y-50641198D01*
X82365722Y-50641197D01*
X82203319Y-50568891D01*
X82203318Y-50568891D01*
X82197288Y-50566206D01*
X82084721Y-50542279D01*
X82016944Y-50527872D01*
X82016939Y-50527872D01*
X82010487Y-50526500D01*
X81819513Y-50526500D01*
X81813061Y-50527872D01*
X81813056Y-50527872D01*
X81745279Y-50542279D01*
X81632712Y-50566206D01*
X81626682Y-50568891D01*
X81626681Y-50568891D01*
X81464278Y-50641197D01*
X81464276Y-50641198D01*
X81458248Y-50643882D01*
X81303747Y-50756134D01*
X81299326Y-50761044D01*
X81299325Y-50761045D01*
X81214865Y-50854848D01*
X81175960Y-50898056D01*
X81080473Y-51063444D01*
X81021458Y-51245072D01*
X81020768Y-51251633D01*
X81020768Y-51251635D01*
X81008665Y-51366789D01*
X81001496Y-51435000D01*
X77610000Y-51435000D01*
X77610000Y-50851431D01*
X77603245Y-50789249D01*
X77552115Y-50652860D01*
X77464761Y-50536304D01*
X77348205Y-50448950D01*
X77211816Y-50397820D01*
X77149634Y-50391065D01*
X75681766Y-50391065D01*
X75619584Y-50397820D01*
X75483195Y-50448950D01*
X75366639Y-50536304D01*
X75279285Y-50652860D01*
X75228155Y-50789249D01*
X75221400Y-50851431D01*
X75221400Y-52319299D01*
X66233579Y-52319299D01*
X66278970Y-52264722D01*
X66386221Y-52073211D01*
X66432628Y-51936500D01*
X66454920Y-51870832D01*
X66454921Y-51870827D01*
X66456776Y-51865363D01*
X66457604Y-51859654D01*
X66457605Y-51859649D01*
X66487739Y-51651812D01*
X66488272Y-51648138D01*
X66489916Y-51585365D01*
X66469832Y-51366789D01*
X66410251Y-51155533D01*
X66395869Y-51126368D01*
X66315725Y-50963853D01*
X66313170Y-50958672D01*
X66223774Y-50838955D01*
X66185293Y-50787423D01*
X66185292Y-50787422D01*
X66181840Y-50782799D01*
X66084795Y-50693092D01*
X66024898Y-50637723D01*
X66024895Y-50637721D01*
X66020658Y-50633804D01*
X65835023Y-50516678D01*
X65631153Y-50435341D01*
X65625485Y-50434214D01*
X65625483Y-50434213D01*
X65421541Y-50393647D01*
X65421537Y-50393647D01*
X65415873Y-50392520D01*
X65410098Y-50392444D01*
X65410094Y-50392444D01*
X65299463Y-50390996D01*
X65196395Y-50389646D01*
X65190698Y-50390625D01*
X65190697Y-50390625D01*
X64985765Y-50425839D01*
X64980068Y-50426818D01*
X64774138Y-50502790D01*
X64769177Y-50505742D01*
X64769176Y-50505742D01*
X64590469Y-50612061D01*
X64590466Y-50612063D01*
X64585501Y-50615017D01*
X64420474Y-50759742D01*
X64284585Y-50932116D01*
X64281894Y-50937232D01*
X64281892Y-50937234D01*
X64212183Y-51069729D01*
X64182384Y-51126368D01*
X64117294Y-51335992D01*
X64091495Y-51553968D01*
X63500000Y-51553968D01*
X63500000Y-50165000D01*
X83541496Y-50165000D01*
X83542186Y-50171565D01*
X83560729Y-50347988D01*
X83561458Y-50354928D01*
X83620473Y-50536556D01*
X83715960Y-50701944D01*
X83720378Y-50706851D01*
X83720379Y-50706852D01*
X83794570Y-50789249D01*
X83843747Y-50843866D01*
X83911578Y-50893148D01*
X83972257Y-50937234D01*
X83998248Y-50956118D01*
X84004276Y-50958802D01*
X84004278Y-50958803D01*
X84015621Y-50963853D01*
X84172712Y-51033794D01*
X84266112Y-51053647D01*
X84353056Y-51072128D01*
X84353061Y-51072128D01*
X84359513Y-51073500D01*
X84550487Y-51073500D01*
X84556939Y-51072128D01*
X84556944Y-51072128D01*
X84643887Y-51053647D01*
X84737288Y-51033794D01*
X84894379Y-50963853D01*
X84905722Y-50958803D01*
X84905724Y-50958802D01*
X84911752Y-50956118D01*
X84937744Y-50937234D01*
X84998422Y-50893148D01*
X85066253Y-50843866D01*
X85115430Y-50789249D01*
X85189621Y-50706852D01*
X85189622Y-50706851D01*
X85194040Y-50701944D01*
X85289527Y-50536556D01*
X85348542Y-50354928D01*
X85349272Y-50347988D01*
X90083576Y-50347988D01*
X90090644Y-50361434D01*
X90792188Y-51062978D01*
X90806132Y-51070592D01*
X90807965Y-51070461D01*
X90814580Y-51066210D01*
X91520077Y-50360713D01*
X91526507Y-50348938D01*
X91517211Y-50336923D01*
X91466006Y-50301069D01*
X91456511Y-50295586D01*
X91259053Y-50203510D01*
X91248761Y-50199764D01*
X91038312Y-50143375D01*
X91027519Y-50141472D01*
X90810475Y-50122483D01*
X90799525Y-50122483D01*
X90582481Y-50141472D01*
X90571688Y-50143375D01*
X90361239Y-50199764D01*
X90350947Y-50203510D01*
X90153489Y-50295586D01*
X90143994Y-50301069D01*
X90091952Y-50337509D01*
X90083576Y-50347988D01*
X85349272Y-50347988D01*
X85367814Y-50171565D01*
X85368504Y-50165000D01*
X85348542Y-49975072D01*
X85289527Y-49793444D01*
X85194040Y-49628056D01*
X85130039Y-49556975D01*
X85070675Y-49491045D01*
X85070674Y-49491044D01*
X85066253Y-49486134D01*
X84926753Y-49384781D01*
X84917094Y-49377763D01*
X84917093Y-49377762D01*
X84911752Y-49373882D01*
X84905724Y-49371198D01*
X84905722Y-49371197D01*
X84743319Y-49298891D01*
X84743318Y-49298891D01*
X84737288Y-49296206D01*
X84643887Y-49276353D01*
X84556944Y-49257872D01*
X84556939Y-49257872D01*
X84550487Y-49256500D01*
X84359513Y-49256500D01*
X84353061Y-49257872D01*
X84353056Y-49257872D01*
X84266113Y-49276353D01*
X84172712Y-49296206D01*
X84166682Y-49298891D01*
X84166681Y-49298891D01*
X84004278Y-49371197D01*
X84004276Y-49371198D01*
X83998248Y-49373882D01*
X83992907Y-49377762D01*
X83992906Y-49377763D01*
X83983247Y-49384781D01*
X83843747Y-49486134D01*
X83839326Y-49491044D01*
X83839325Y-49491045D01*
X83779962Y-49556975D01*
X83715960Y-49628056D01*
X83620473Y-49793444D01*
X83561458Y-49975072D01*
X83541496Y-50165000D01*
X63500000Y-50165000D01*
X63500000Y-48415359D01*
X63520002Y-48347238D01*
X63532364Y-48331048D01*
X63536810Y-48326111D01*
X63604040Y-48251444D01*
X63617227Y-48228603D01*
X64091495Y-48228603D01*
X64105851Y-48447630D01*
X64159881Y-48660373D01*
X64251775Y-48859708D01*
X64255106Y-48864421D01*
X64255107Y-48864423D01*
X64349038Y-48997331D01*
X64378457Y-49038958D01*
X64427139Y-49086382D01*
X64530095Y-49186677D01*
X64535683Y-49192121D01*
X64540479Y-49195326D01*
X64540482Y-49195328D01*
X64547012Y-49199691D01*
X64718188Y-49314067D01*
X64723491Y-49316345D01*
X64723494Y-49316347D01*
X64897322Y-49391029D01*
X64919860Y-49400712D01*
X65036499Y-49427105D01*
X65114571Y-49444771D01*
X65133945Y-49449155D01*
X65139716Y-49449382D01*
X65139718Y-49449382D01*
X65213134Y-49452266D01*
X65353273Y-49457772D01*
X65444942Y-49444481D01*
X65564784Y-49427105D01*
X65564789Y-49427104D01*
X65570498Y-49426276D01*
X65575962Y-49424421D01*
X65575967Y-49424420D01*
X65772878Y-49357577D01*
X65778346Y-49355721D01*
X65969857Y-49248470D01*
X66138615Y-49108115D01*
X66233579Y-48993934D01*
X75221400Y-48993934D01*
X75228155Y-49056116D01*
X75279285Y-49192505D01*
X75366639Y-49309061D01*
X75483195Y-49396415D01*
X75619584Y-49447545D01*
X75681766Y-49454300D01*
X77149634Y-49454300D01*
X77211816Y-49447545D01*
X77348205Y-49396415D01*
X77464761Y-49309061D01*
X77552115Y-49192505D01*
X77603245Y-49056116D01*
X77610000Y-48993934D01*
X77610000Y-47554938D01*
X78226995Y-47554938D01*
X78240740Y-47764649D01*
X78292471Y-47968343D01*
X78294890Y-47973590D01*
X78378038Y-48153953D01*
X78378041Y-48153958D01*
X78380457Y-48159199D01*
X78383788Y-48163912D01*
X78383789Y-48163914D01*
X78493440Y-48319065D01*
X78501751Y-48330825D01*
X78652289Y-48477474D01*
X78657085Y-48480679D01*
X78657088Y-48480681D01*
X78799106Y-48575574D01*
X78827031Y-48594233D01*
X78832339Y-48596514D01*
X78832340Y-48596514D01*
X79014822Y-48674914D01*
X79014825Y-48674915D01*
X79020125Y-48677192D01*
X79025754Y-48678466D01*
X79025755Y-48678466D01*
X79219467Y-48722299D01*
X79219473Y-48722300D01*
X79225104Y-48723574D01*
X79230875Y-48723801D01*
X79230877Y-48723801D01*
X79294433Y-48726298D01*
X79435103Y-48731825D01*
X79643088Y-48701669D01*
X79648552Y-48699814D01*
X79648557Y-48699813D01*
X79836624Y-48635973D01*
X79836629Y-48635971D01*
X79842096Y-48634115D01*
X79854496Y-48627171D01*
X79932843Y-48583294D01*
X80025460Y-48531426D01*
X80187041Y-48397041D01*
X80321426Y-48235460D01*
X80401891Y-48091779D01*
X80421291Y-48057139D01*
X80421292Y-48057137D01*
X80424115Y-48052096D01*
X80425971Y-48046629D01*
X80425973Y-48046624D01*
X80489813Y-47858557D01*
X80489814Y-47858552D01*
X80491669Y-47853088D01*
X80521825Y-47645103D01*
X80521868Y-47643466D01*
X80542816Y-47589564D01*
X80541184Y-47586214D01*
X80747868Y-47586214D01*
X80770730Y-47629477D01*
X80772985Y-47646334D01*
X80775809Y-47689423D01*
X80780740Y-47764649D01*
X80832471Y-47968343D01*
X80834890Y-47973590D01*
X80918038Y-48153953D01*
X80918041Y-48153958D01*
X80920457Y-48159199D01*
X80923788Y-48163912D01*
X80923789Y-48163914D01*
X81033440Y-48319065D01*
X81041751Y-48330825D01*
X81192289Y-48477474D01*
X81197085Y-48480679D01*
X81197088Y-48480681D01*
X81339106Y-48575574D01*
X81367031Y-48594233D01*
X81372339Y-48596514D01*
X81372340Y-48596514D01*
X81554822Y-48674914D01*
X81554825Y-48674915D01*
X81560125Y-48677192D01*
X81565754Y-48678466D01*
X81565755Y-48678466D01*
X81759467Y-48722299D01*
X81759473Y-48722300D01*
X81765104Y-48723574D01*
X81770875Y-48723801D01*
X81770877Y-48723801D01*
X81834433Y-48726298D01*
X81975103Y-48731825D01*
X82183088Y-48701669D01*
X82188552Y-48699814D01*
X82188557Y-48699813D01*
X82376624Y-48635973D01*
X82376629Y-48635971D01*
X82382096Y-48634115D01*
X82394496Y-48627171D01*
X82472843Y-48583294D01*
X82565460Y-48531426D01*
X82727041Y-48397041D01*
X82861426Y-48235460D01*
X82941891Y-48091779D01*
X82961291Y-48057139D01*
X82961292Y-48057137D01*
X82964115Y-48052096D01*
X82965971Y-48046629D01*
X82965973Y-48046624D01*
X83029813Y-47858557D01*
X83029814Y-47858552D01*
X83031669Y-47853088D01*
X83061825Y-47645103D01*
X83061868Y-47643466D01*
X83082816Y-47589564D01*
X83081184Y-47586214D01*
X83287868Y-47586214D01*
X83310730Y-47629477D01*
X83312985Y-47646334D01*
X83315809Y-47689423D01*
X83320740Y-47764649D01*
X83372471Y-47968343D01*
X83374890Y-47973590D01*
X83458038Y-48153953D01*
X83458041Y-48153958D01*
X83460457Y-48159199D01*
X83463788Y-48163912D01*
X83463789Y-48163914D01*
X83573440Y-48319065D01*
X83581751Y-48330825D01*
X83732289Y-48477474D01*
X83737085Y-48480679D01*
X83737088Y-48480681D01*
X83879106Y-48575574D01*
X83907031Y-48594233D01*
X83912339Y-48596514D01*
X83912340Y-48596514D01*
X84094822Y-48674914D01*
X84094825Y-48674915D01*
X84100125Y-48677192D01*
X84105754Y-48678466D01*
X84105755Y-48678466D01*
X84299467Y-48722299D01*
X84299473Y-48722300D01*
X84305104Y-48723574D01*
X84310875Y-48723801D01*
X84310877Y-48723801D01*
X84374433Y-48726298D01*
X84515103Y-48731825D01*
X84723088Y-48701669D01*
X84728552Y-48699814D01*
X84728557Y-48699813D01*
X84916624Y-48635973D01*
X84916629Y-48635971D01*
X84922096Y-48634115D01*
X84934496Y-48627171D01*
X85012843Y-48583294D01*
X85105460Y-48531426D01*
X85267041Y-48397041D01*
X85401426Y-48235460D01*
X85481891Y-48091779D01*
X85501291Y-48057139D01*
X85501292Y-48057137D01*
X85504115Y-48052096D01*
X85505971Y-48046629D01*
X85505973Y-48046624D01*
X85569813Y-47858557D01*
X85569814Y-47858552D01*
X85571669Y-47853088D01*
X85601825Y-47645103D01*
X85601868Y-47643466D01*
X85622816Y-47589564D01*
X85621184Y-47586214D01*
X85827868Y-47586214D01*
X85850730Y-47629477D01*
X85852985Y-47646334D01*
X85855809Y-47689423D01*
X85860740Y-47764649D01*
X85912471Y-47968343D01*
X85914890Y-47973590D01*
X85998038Y-48153953D01*
X85998041Y-48153958D01*
X86000457Y-48159199D01*
X86003788Y-48163912D01*
X86003789Y-48163914D01*
X86113440Y-48319065D01*
X86121751Y-48330825D01*
X86272289Y-48477474D01*
X86277085Y-48480679D01*
X86277088Y-48480681D01*
X86419106Y-48575574D01*
X86447031Y-48594233D01*
X86452339Y-48596514D01*
X86452340Y-48596514D01*
X86634822Y-48674914D01*
X86634825Y-48674915D01*
X86640125Y-48677192D01*
X86645754Y-48678466D01*
X86645755Y-48678466D01*
X86839467Y-48722299D01*
X86839473Y-48722300D01*
X86845104Y-48723574D01*
X86850875Y-48723801D01*
X86850877Y-48723801D01*
X86914433Y-48726298D01*
X87055103Y-48731825D01*
X87263088Y-48701669D01*
X87268552Y-48699814D01*
X87268557Y-48699813D01*
X87456624Y-48635973D01*
X87456629Y-48635971D01*
X87462096Y-48634115D01*
X87474496Y-48627171D01*
X87552843Y-48583294D01*
X87645460Y-48531426D01*
X87807041Y-48397041D01*
X87818194Y-48383631D01*
X103324360Y-48383631D01*
X103324657Y-48388783D01*
X103324657Y-48388787D01*
X103331394Y-48505618D01*
X103338403Y-48627171D01*
X103339540Y-48632217D01*
X103339541Y-48632223D01*
X103361988Y-48731825D01*
X103392033Y-48865147D01*
X103393975Y-48869929D01*
X103393976Y-48869933D01*
X103442940Y-48990517D01*
X103483811Y-49091169D01*
X103611272Y-49299166D01*
X103770992Y-49483553D01*
X103958683Y-49639377D01*
X104169304Y-49762453D01*
X104397198Y-49849478D01*
X104402264Y-49850509D01*
X104402265Y-49850509D01*
X104631167Y-49897080D01*
X104631171Y-49897080D01*
X104636246Y-49898113D01*
X104641422Y-49898303D01*
X104641424Y-49898303D01*
X104874863Y-49906863D01*
X104874867Y-49906863D01*
X104880027Y-49907052D01*
X104885147Y-49906396D01*
X104885149Y-49906396D01*
X104961877Y-49896567D01*
X105121994Y-49876055D01*
X105126943Y-49874570D01*
X105126949Y-49874569D01*
X105350700Y-49807440D01*
X105350699Y-49807440D01*
X105355650Y-49805955D01*
X105574719Y-49698634D01*
X105578924Y-49695634D01*
X105578930Y-49695631D01*
X105769114Y-49559974D01*
X105769116Y-49559972D01*
X105773318Y-49556975D01*
X105946114Y-49384781D01*
X106088466Y-49186677D01*
X106125470Y-49111806D01*
X106194256Y-48972626D01*
X106194257Y-48972624D01*
X106196550Y-48967984D01*
X106231041Y-48854462D01*
X106265962Y-48739527D01*
X106265963Y-48739521D01*
X106267466Y-48734575D01*
X106292362Y-48545467D01*
X106298870Y-48496038D01*
X106298870Y-48496034D01*
X106299307Y-48492717D01*
X106299601Y-48480681D01*
X106301002Y-48423365D01*
X106301002Y-48423361D01*
X106301084Y-48420000D01*
X106281096Y-48176876D01*
X106221667Y-47940280D01*
X106163507Y-47806521D01*
X106126454Y-47721305D01*
X106126452Y-47721302D01*
X106124394Y-47716568D01*
X106004432Y-47531135D01*
X105994700Y-47516091D01*
X105994698Y-47516088D01*
X105991890Y-47511748D01*
X105955486Y-47471740D01*
X105831190Y-47335141D01*
X105831188Y-47335140D01*
X105827712Y-47331319D01*
X105823661Y-47328120D01*
X105823657Y-47328116D01*
X105640325Y-47183329D01*
X105640321Y-47183327D01*
X105636270Y-47180127D01*
X105631376Y-47177425D01*
X105528134Y-47120433D01*
X105422705Y-47062233D01*
X105417836Y-47060509D01*
X105417832Y-47060507D01*
X105197627Y-46982528D01*
X105197623Y-46982527D01*
X105192752Y-46980802D01*
X105187659Y-46979895D01*
X105187656Y-46979894D01*
X104957677Y-46938928D01*
X104957671Y-46938927D01*
X104952588Y-46938022D01*
X104872880Y-46937048D01*
X104713832Y-46935105D01*
X104713830Y-46935105D01*
X104708662Y-46935042D01*
X104467524Y-46971941D01*
X104235650Y-47047729D01*
X104019269Y-47160370D01*
X104015136Y-47163473D01*
X104015133Y-47163475D01*
X103828325Y-47303735D01*
X103824190Y-47306840D01*
X103820618Y-47310578D01*
X103674116Y-47463884D01*
X103655653Y-47483204D01*
X103652739Y-47487476D01*
X103652738Y-47487477D01*
X103622957Y-47531135D01*
X103518184Y-47684726D01*
X103501316Y-47721065D01*
X103419248Y-47897865D01*
X103415474Y-47905995D01*
X103350283Y-48141067D01*
X103324360Y-48383631D01*
X87818194Y-48383631D01*
X87941426Y-48235460D01*
X88021891Y-48091779D01*
X88041291Y-48057139D01*
X88041292Y-48057137D01*
X88044115Y-48052096D01*
X88045971Y-48046629D01*
X88045973Y-48046624D01*
X88109813Y-47858557D01*
X88109814Y-47858552D01*
X88111669Y-47853088D01*
X88141825Y-47645103D01*
X88143399Y-47585000D01*
X88124169Y-47375721D01*
X88116698Y-47349229D01*
X88076178Y-47205558D01*
X88067123Y-47173451D01*
X87974171Y-46984963D01*
X87928187Y-46923382D01*
X87851880Y-46821195D01*
X87851879Y-46821194D01*
X87848427Y-46816571D01*
X87844191Y-46812655D01*
X87698341Y-46677833D01*
X87698338Y-46677831D01*
X87694101Y-46673914D01*
X87516362Y-46561769D01*
X87321163Y-46483892D01*
X87315506Y-46482767D01*
X87315500Y-46482765D01*
X87120707Y-46444019D01*
X87120705Y-46444019D01*
X87115040Y-46442892D01*
X87109265Y-46442816D01*
X87109261Y-46442816D01*
X87004001Y-46441438D01*
X86904898Y-46440141D01*
X86899201Y-46441120D01*
X86899200Y-46441120D01*
X86703469Y-46474753D01*
X86697772Y-46475732D01*
X86500601Y-46548472D01*
X86319988Y-46655926D01*
X86161981Y-46794494D01*
X86147664Y-46812655D01*
X86048883Y-46937959D01*
X86031872Y-46959537D01*
X86029181Y-46964653D01*
X86029179Y-46964655D01*
X85936710Y-47140410D01*
X85934018Y-47145527D01*
X85871696Y-47346234D01*
X85871017Y-47351969D01*
X85871017Y-47351970D01*
X85849212Y-47536206D01*
X85827868Y-47586214D01*
X85621184Y-47586214D01*
X85599855Y-47542440D01*
X85598614Y-47532926D01*
X85598450Y-47531135D01*
X85584169Y-47375721D01*
X85576698Y-47349229D01*
X85536178Y-47205558D01*
X85527123Y-47173451D01*
X85434171Y-46984963D01*
X85388187Y-46923382D01*
X85311880Y-46821195D01*
X85311879Y-46821194D01*
X85308427Y-46816571D01*
X85304191Y-46812655D01*
X85158341Y-46677833D01*
X85158338Y-46677831D01*
X85154101Y-46673914D01*
X84976362Y-46561769D01*
X84781163Y-46483892D01*
X84775506Y-46482767D01*
X84775500Y-46482765D01*
X84580707Y-46444019D01*
X84580705Y-46444019D01*
X84575040Y-46442892D01*
X84569265Y-46442816D01*
X84569261Y-46442816D01*
X84464001Y-46441438D01*
X84364898Y-46440141D01*
X84359201Y-46441120D01*
X84359200Y-46441120D01*
X84163469Y-46474753D01*
X84157772Y-46475732D01*
X83960601Y-46548472D01*
X83779988Y-46655926D01*
X83621981Y-46794494D01*
X83607664Y-46812655D01*
X83508883Y-46937959D01*
X83491872Y-46959537D01*
X83489181Y-46964653D01*
X83489179Y-46964655D01*
X83396710Y-47140410D01*
X83394018Y-47145527D01*
X83331696Y-47346234D01*
X83331017Y-47351969D01*
X83331017Y-47351970D01*
X83309212Y-47536206D01*
X83287868Y-47586214D01*
X83081184Y-47586214D01*
X83059855Y-47542440D01*
X83058614Y-47532926D01*
X83058450Y-47531135D01*
X83044169Y-47375721D01*
X83036698Y-47349229D01*
X82996178Y-47205558D01*
X82987123Y-47173451D01*
X82894171Y-46984963D01*
X82848187Y-46923382D01*
X82771880Y-46821195D01*
X82771879Y-46821194D01*
X82768427Y-46816571D01*
X82764191Y-46812655D01*
X82618341Y-46677833D01*
X82618338Y-46677831D01*
X82614101Y-46673914D01*
X82436362Y-46561769D01*
X82241163Y-46483892D01*
X82235506Y-46482767D01*
X82235500Y-46482765D01*
X82040707Y-46444019D01*
X82040705Y-46444019D01*
X82035040Y-46442892D01*
X82029265Y-46442816D01*
X82029261Y-46442816D01*
X81924001Y-46441438D01*
X81824898Y-46440141D01*
X81819201Y-46441120D01*
X81819200Y-46441120D01*
X81623469Y-46474753D01*
X81617772Y-46475732D01*
X81420601Y-46548472D01*
X81239988Y-46655926D01*
X81081981Y-46794494D01*
X81067664Y-46812655D01*
X80968883Y-46937959D01*
X80951872Y-46959537D01*
X80949181Y-46964653D01*
X80949179Y-46964655D01*
X80856710Y-47140410D01*
X80854018Y-47145527D01*
X80791696Y-47346234D01*
X80791017Y-47351969D01*
X80791017Y-47351970D01*
X80769212Y-47536206D01*
X80747868Y-47586214D01*
X80541184Y-47586214D01*
X80519855Y-47542440D01*
X80518614Y-47532926D01*
X80518450Y-47531135D01*
X80504169Y-47375721D01*
X80496698Y-47349229D01*
X80456178Y-47205558D01*
X80447123Y-47173451D01*
X80354171Y-46984963D01*
X80308187Y-46923382D01*
X80231880Y-46821195D01*
X80231879Y-46821194D01*
X80228427Y-46816571D01*
X80224191Y-46812655D01*
X80078341Y-46677833D01*
X80078338Y-46677831D01*
X80074101Y-46673914D01*
X79896362Y-46561769D01*
X79701163Y-46483892D01*
X79695506Y-46482767D01*
X79695500Y-46482765D01*
X79500707Y-46444019D01*
X79500705Y-46444019D01*
X79495040Y-46442892D01*
X79489265Y-46442816D01*
X79489261Y-46442816D01*
X79384001Y-46441438D01*
X79284898Y-46440141D01*
X79279201Y-46441120D01*
X79279200Y-46441120D01*
X79083469Y-46474753D01*
X79077772Y-46475732D01*
X78880601Y-46548472D01*
X78699988Y-46655926D01*
X78541981Y-46794494D01*
X78527664Y-46812655D01*
X78428883Y-46937959D01*
X78411872Y-46959537D01*
X78409181Y-46964653D01*
X78409179Y-46964655D01*
X78316710Y-47140410D01*
X78314018Y-47145527D01*
X78251696Y-47346234D01*
X78226995Y-47554938D01*
X77610000Y-47554938D01*
X77610000Y-47526066D01*
X77603245Y-47463884D01*
X77552115Y-47327495D01*
X77464761Y-47210939D01*
X77348205Y-47123585D01*
X77211816Y-47072455D01*
X77149634Y-47065700D01*
X75681766Y-47065700D01*
X75619584Y-47072455D01*
X75483195Y-47123585D01*
X75366639Y-47210939D01*
X75279285Y-47327495D01*
X75228155Y-47463884D01*
X75221400Y-47526066D01*
X75221400Y-48993934D01*
X66233579Y-48993934D01*
X66278970Y-48939357D01*
X66386221Y-48747846D01*
X66428601Y-48623000D01*
X66454920Y-48545467D01*
X66454921Y-48545462D01*
X66456776Y-48539998D01*
X66457604Y-48534289D01*
X66457605Y-48534284D01*
X66487072Y-48331048D01*
X66488272Y-48322773D01*
X66489916Y-48260000D01*
X66469832Y-48041424D01*
X66449221Y-47968343D01*
X66411819Y-47835727D01*
X66411818Y-47835725D01*
X66410251Y-47830168D01*
X66395869Y-47801003D01*
X66315725Y-47638488D01*
X66313170Y-47633307D01*
X66274339Y-47581305D01*
X66185293Y-47462058D01*
X66185292Y-47462057D01*
X66181840Y-47457434D01*
X66067750Y-47351970D01*
X66024898Y-47312358D01*
X66024895Y-47312356D01*
X66020658Y-47308439D01*
X65835023Y-47191313D01*
X65806986Y-47180127D01*
X65707435Y-47140410D01*
X65631153Y-47109976D01*
X65625485Y-47108849D01*
X65625483Y-47108848D01*
X65421541Y-47068282D01*
X65421537Y-47068282D01*
X65415873Y-47067155D01*
X65410098Y-47067079D01*
X65410094Y-47067079D01*
X65299463Y-47065631D01*
X65196395Y-47064281D01*
X65190698Y-47065260D01*
X65190697Y-47065260D01*
X65000442Y-47097952D01*
X64980068Y-47101453D01*
X64774138Y-47177425D01*
X64769177Y-47180377D01*
X64769176Y-47180377D01*
X64590469Y-47286696D01*
X64590466Y-47286698D01*
X64585501Y-47289652D01*
X64420474Y-47434377D01*
X64284585Y-47606751D01*
X64281894Y-47611867D01*
X64281892Y-47611869D01*
X64243560Y-47684726D01*
X64182384Y-47801003D01*
X64117294Y-48010627D01*
X64091495Y-48228603D01*
X63617227Y-48228603D01*
X63660327Y-48153953D01*
X63696223Y-48091779D01*
X63696224Y-48091778D01*
X63699527Y-48086056D01*
X63758542Y-47904428D01*
X63766892Y-47824988D01*
X63777814Y-47721065D01*
X63778504Y-47714500D01*
X63771081Y-47643870D01*
X63759232Y-47531135D01*
X63759232Y-47531133D01*
X63758542Y-47524572D01*
X63699527Y-47342944D01*
X63690608Y-47327495D01*
X63607343Y-47183277D01*
X63604040Y-47177556D01*
X63591362Y-47163475D01*
X63537318Y-47103454D01*
X63532364Y-47097951D01*
X63501647Y-47033944D01*
X63500000Y-47013641D01*
X63500000Y-45846000D01*
X63520002Y-45777879D01*
X63573658Y-45731386D01*
X63626000Y-45720000D01*
X109729000Y-45720000D01*
X109797121Y-45740002D01*
G37*
%TD.AperFunction*%
%TD*%
M02*
