%TF.GenerationSoftware,KiCad,Pcbnew,(6.0.9)*%
%TF.CreationDate,2022-12-19T09:49:19-08:00*%
%TF.ProjectId,TinyG-SuperPid-Integrator,54696e79-472d-4537-9570-65725069642d,rev?*%
%TF.SameCoordinates,Original*%
%TF.FileFunction,Legend,Top*%
%TF.FilePolarity,Positive*%
%FSLAX46Y46*%
G04 Gerber Fmt 4.6, Leading zero omitted, Abs format (unit mm)*
G04 Created by KiCad (PCBNEW (6.0.9)) date 2022-12-19 09:49:19*
%MOMM*%
%LPD*%
G01*
G04 APERTURE LIST*
%ADD10C,0.150000*%
%ADD11C,0.120000*%
%ADD12C,0.127000*%
%ADD13C,0.200000*%
%ADD14C,0.400000*%
G04 APERTURE END LIST*
D10*
X35822142Y-89622380D02*
X36155476Y-90622380D01*
X36488809Y-89622380D01*
X36822142Y-90622380D02*
X36822142Y-89955714D01*
X36822142Y-89622380D02*
X36774523Y-89670000D01*
X36822142Y-89717619D01*
X36869761Y-89670000D01*
X36822142Y-89622380D01*
X36822142Y-89717619D01*
X37298333Y-89955714D02*
X37298333Y-90622380D01*
X37298333Y-90050952D02*
X37345952Y-90003333D01*
X37441190Y-89955714D01*
X37584047Y-89955714D01*
X37679285Y-90003333D01*
X37726904Y-90098571D01*
X37726904Y-90622380D01*
X38203095Y-90241428D02*
X38965000Y-90241428D01*
X95837619Y-85542380D02*
X95837619Y-84542380D01*
X96218571Y-84542380D01*
X96313809Y-84590000D01*
X96361428Y-84637619D01*
X96409047Y-84732857D01*
X96409047Y-84875714D01*
X96361428Y-84970952D01*
X96313809Y-85018571D01*
X96218571Y-85066190D01*
X95837619Y-85066190D01*
X96742381Y-84542380D02*
X96980476Y-85542380D01*
X97170952Y-84828095D01*
X97361428Y-85542380D01*
X97599523Y-84542380D01*
X97980476Y-85542380D02*
X97980476Y-84542380D01*
X98313809Y-85256666D01*
X98647142Y-84542380D01*
X98647142Y-85542380D01*
X96932857Y-90241428D02*
X97694761Y-90241428D01*
X97313809Y-90622380D02*
X97313809Y-89860476D01*
X98647142Y-89622380D02*
X98170952Y-89622380D01*
X98123333Y-90098571D01*
X98170952Y-90050952D01*
X98266190Y-90003333D01*
X98504285Y-90003333D01*
X98599523Y-90050952D01*
X98647142Y-90098571D01*
X98694761Y-90193809D01*
X98694761Y-90431904D01*
X98647142Y-90527142D01*
X98599523Y-90574761D01*
X98504285Y-90622380D01*
X98266190Y-90622380D01*
X98170952Y-90574761D01*
X98123333Y-90527142D01*
X36068095Y-63635000D02*
X35972857Y-63587380D01*
X35830000Y-63587380D01*
X35687142Y-63635000D01*
X35591904Y-63730238D01*
X35544285Y-63825476D01*
X35496666Y-64015952D01*
X35496666Y-64158809D01*
X35544285Y-64349285D01*
X35591904Y-64444523D01*
X35687142Y-64539761D01*
X35830000Y-64587380D01*
X35925238Y-64587380D01*
X36068095Y-64539761D01*
X36115714Y-64492142D01*
X36115714Y-64158809D01*
X35925238Y-64158809D01*
X36544285Y-64587380D02*
X36544285Y-63587380D01*
X37115714Y-64587380D01*
X37115714Y-63587380D01*
X37591904Y-64587380D02*
X37591904Y-63587380D01*
X37830000Y-63587380D01*
X37972857Y-63635000D01*
X38068095Y-63730238D01*
X38115714Y-63825476D01*
X38163333Y-64015952D01*
X38163333Y-64158809D01*
X38115714Y-64349285D01*
X38068095Y-64444523D01*
X37972857Y-64539761D01*
X37830000Y-64587380D01*
X37591904Y-64587380D01*
X25963809Y-67397380D02*
X26535238Y-67397380D01*
X26249523Y-68397380D02*
X26249523Y-67397380D01*
X26868571Y-68397380D02*
X26868571Y-67397380D01*
X27344761Y-68397380D02*
X27344761Y-67397380D01*
X27916190Y-68397380D01*
X27916190Y-67397380D01*
X28582857Y-67921190D02*
X28582857Y-68397380D01*
X28249523Y-67397380D02*
X28582857Y-67921190D01*
X28916190Y-67397380D01*
X29773333Y-67445000D02*
X29678095Y-67397380D01*
X29535238Y-67397380D01*
X29392380Y-67445000D01*
X29297142Y-67540238D01*
X29249523Y-67635476D01*
X29201904Y-67825952D01*
X29201904Y-67968809D01*
X29249523Y-68159285D01*
X29297142Y-68254523D01*
X29392380Y-68349761D01*
X29535238Y-68397380D01*
X29630476Y-68397380D01*
X29773333Y-68349761D01*
X29820952Y-68302142D01*
X29820952Y-67968809D01*
X29630476Y-67968809D01*
X48494761Y-64482023D02*
X48542380Y-64339166D01*
X48542380Y-64101071D01*
X48494761Y-64005833D01*
X48447142Y-63958214D01*
X48351904Y-63910595D01*
X48256666Y-63910595D01*
X48161428Y-63958214D01*
X48113809Y-64005833D01*
X48066190Y-64101071D01*
X48018571Y-64291547D01*
X47970952Y-64386785D01*
X47923333Y-64434404D01*
X47828095Y-64482023D01*
X47732857Y-64482023D01*
X47637619Y-64434404D01*
X47590000Y-64386785D01*
X47542380Y-64291547D01*
X47542380Y-64053452D01*
X47590000Y-63910595D01*
X48447142Y-62910595D02*
X48494761Y-62958214D01*
X48542380Y-63101071D01*
X48542380Y-63196309D01*
X48494761Y-63339166D01*
X48399523Y-63434404D01*
X48304285Y-63482023D01*
X48113809Y-63529642D01*
X47970952Y-63529642D01*
X47780476Y-63482023D01*
X47685238Y-63434404D01*
X47590000Y-63339166D01*
X47542380Y-63196309D01*
X47542380Y-63101071D01*
X47590000Y-62958214D01*
X47637619Y-62910595D01*
X47542380Y-62291547D02*
X47542380Y-62101071D01*
X47590000Y-62005833D01*
X47685238Y-61910595D01*
X47875714Y-61862976D01*
X48209047Y-61862976D01*
X48399523Y-61910595D01*
X48494761Y-62005833D01*
X48542380Y-62101071D01*
X48542380Y-62291547D01*
X48494761Y-62386785D01*
X48399523Y-62482023D01*
X48209047Y-62529642D01*
X47875714Y-62529642D01*
X47685238Y-62482023D01*
X47590000Y-62386785D01*
X47542380Y-62291547D01*
X47542380Y-61577261D02*
X47542380Y-61005833D01*
X48542380Y-61291547D02*
X47542380Y-61291547D01*
X47542380Y-60815357D02*
X47542380Y-60243928D01*
X48542380Y-60529642D02*
X47542380Y-60529642D01*
X47542380Y-59243928D02*
X48542380Y-59005833D01*
X47828095Y-58815357D01*
X48542380Y-58624880D01*
X47542380Y-58386785D01*
X48542380Y-58005833D02*
X47542380Y-58005833D01*
X48542380Y-57529642D02*
X47542380Y-57529642D01*
X48542380Y-56958214D01*
X47542380Y-56958214D01*
X48542380Y-56482023D02*
X47542380Y-56482023D01*
X48542380Y-55910595D01*
X47542380Y-55910595D01*
X50152380Y-63910595D02*
X50152380Y-64482023D01*
X50152380Y-64196309D02*
X49152380Y-64196309D01*
X49295238Y-64291547D01*
X49390476Y-64386785D01*
X49438095Y-64482023D01*
X49247619Y-63529642D02*
X49200000Y-63482023D01*
X49152380Y-63386785D01*
X49152380Y-63148690D01*
X49200000Y-63053452D01*
X49247619Y-63005833D01*
X49342857Y-62958214D01*
X49438095Y-62958214D01*
X49580952Y-63005833D01*
X50152380Y-63577261D01*
X50152380Y-62958214D01*
X49104761Y-61815357D02*
X50390476Y-62672500D01*
X49247619Y-61529642D02*
X49200000Y-61482023D01*
X49152380Y-61386785D01*
X49152380Y-61148690D01*
X49200000Y-61053452D01*
X49247619Y-61005833D01*
X49342857Y-60958214D01*
X49438095Y-60958214D01*
X49580952Y-61005833D01*
X50152380Y-61577261D01*
X50152380Y-60958214D01*
X49152380Y-60339166D02*
X49152380Y-60243928D01*
X49200000Y-60148690D01*
X49247619Y-60101071D01*
X49342857Y-60053452D01*
X49533333Y-60005833D01*
X49771428Y-60005833D01*
X49961904Y-60053452D01*
X50057142Y-60101071D01*
X50104761Y-60148690D01*
X50152380Y-60243928D01*
X50152380Y-60339166D01*
X50104761Y-60434404D01*
X50057142Y-60482023D01*
X49961904Y-60529642D01*
X49771428Y-60577261D01*
X49533333Y-60577261D01*
X49342857Y-60529642D01*
X49247619Y-60482023D01*
X49200000Y-60434404D01*
X49152380Y-60339166D01*
X49247619Y-59624880D02*
X49200000Y-59577261D01*
X49152380Y-59482023D01*
X49152380Y-59243928D01*
X49200000Y-59148690D01*
X49247619Y-59101071D01*
X49342857Y-59053452D01*
X49438095Y-59053452D01*
X49580952Y-59101071D01*
X50152380Y-59672500D01*
X50152380Y-59053452D01*
X49247619Y-58672500D02*
X49200000Y-58624880D01*
X49152380Y-58529642D01*
X49152380Y-58291547D01*
X49200000Y-58196309D01*
X49247619Y-58148690D01*
X49342857Y-58101071D01*
X49438095Y-58101071D01*
X49580952Y-58148690D01*
X50152380Y-58720119D01*
X50152380Y-58101071D01*
X96599523Y-74430000D02*
X96504285Y-74382380D01*
X96361428Y-74382380D01*
X96218570Y-74430000D01*
X96123332Y-74525238D01*
X96075713Y-74620476D01*
X96028094Y-74810952D01*
X96028094Y-74953809D01*
X96075713Y-75144285D01*
X96123332Y-75239523D01*
X96218570Y-75334761D01*
X96361428Y-75382380D01*
X96456666Y-75382380D01*
X96599523Y-75334761D01*
X96647142Y-75287142D01*
X96647142Y-74953809D01*
X96456666Y-74953809D01*
X97075713Y-75382380D02*
X97075713Y-74382380D01*
X97647142Y-75382380D01*
X97647142Y-74382380D01*
X98123332Y-75382380D02*
X98123332Y-74382380D01*
X98361428Y-74382380D01*
X98504285Y-74430000D01*
X98599523Y-74525238D01*
X98647142Y-74620476D01*
X98694761Y-74810952D01*
X98694761Y-74953809D01*
X98647142Y-75144285D01*
X98599523Y-75239523D01*
X98504285Y-75334761D01*
X98361428Y-75382380D01*
X98123332Y-75382380D01*
X35488966Y-53935549D02*
X35631824Y-53983168D01*
X35869919Y-53983168D01*
X35965157Y-53935549D01*
X36012776Y-53887930D01*
X36060395Y-53792692D01*
X36060395Y-53697454D01*
X36012776Y-53602216D01*
X35965157Y-53554597D01*
X35869919Y-53506978D01*
X35679443Y-53459359D01*
X35584205Y-53411740D01*
X35536586Y-53364121D01*
X35488966Y-53268883D01*
X35488966Y-53173645D01*
X35536586Y-53078407D01*
X35584205Y-53030788D01*
X35679443Y-52983168D01*
X35917538Y-52983168D01*
X36060395Y-53030788D01*
X36488966Y-53983168D02*
X36488966Y-52983168D01*
X36869919Y-52983168D01*
X36965157Y-53030788D01*
X37012776Y-53078407D01*
X37060395Y-53173645D01*
X37060395Y-53316502D01*
X37012776Y-53411740D01*
X36965157Y-53459359D01*
X36869919Y-53506978D01*
X36488966Y-53506978D01*
X37488966Y-53983168D02*
X37488966Y-52983168D01*
X37965157Y-53983168D02*
X37965157Y-52983168D01*
X38536586Y-53983168D01*
X38536586Y-52983168D01*
X28202142Y-79462380D02*
X28535476Y-80462380D01*
X28868809Y-79462380D01*
X29202142Y-80462380D02*
X29202142Y-79795714D01*
X29202142Y-79462380D02*
X29154523Y-79510000D01*
X29202142Y-79557619D01*
X29249761Y-79510000D01*
X29202142Y-79462380D01*
X29202142Y-79557619D01*
X29678333Y-79795714D02*
X29678333Y-80462380D01*
X29678333Y-79890952D02*
X29725952Y-79843333D01*
X29821190Y-79795714D01*
X29964047Y-79795714D01*
X30059285Y-79843333D01*
X30106904Y-79938571D01*
X30106904Y-80462380D01*
X30583095Y-80081428D02*
X31345000Y-80081428D01*
X30964047Y-80462380D02*
X30964047Y-79700476D01*
X40852380Y-64577261D02*
X40852380Y-64005833D01*
X41852380Y-64291547D02*
X40852380Y-64291547D01*
X41852380Y-63672500D02*
X40852380Y-63672500D01*
X41852380Y-63196309D02*
X40852380Y-63196309D01*
X41852380Y-62624880D01*
X40852380Y-62624880D01*
X41376190Y-61958214D02*
X41852380Y-61958214D01*
X40852380Y-62291547D02*
X41376190Y-61958214D01*
X40852380Y-61624880D01*
X40900000Y-60767738D02*
X40852380Y-60862976D01*
X40852380Y-61005833D01*
X40900000Y-61148690D01*
X40995238Y-61243928D01*
X41090476Y-61291547D01*
X41280952Y-61339166D01*
X41423809Y-61339166D01*
X41614285Y-61291547D01*
X41709523Y-61243928D01*
X41804761Y-61148690D01*
X41852380Y-61005833D01*
X41852380Y-60910595D01*
X41804761Y-60767738D01*
X41757142Y-60720119D01*
X41423809Y-60720119D01*
X41423809Y-60910595D01*
X43414761Y-64482023D02*
X43462380Y-64339166D01*
X43462380Y-64101071D01*
X43414761Y-64005833D01*
X43367142Y-63958214D01*
X43271904Y-63910595D01*
X43176666Y-63910595D01*
X43081428Y-63958214D01*
X43033809Y-64005833D01*
X42986190Y-64101071D01*
X42938571Y-64291547D01*
X42890952Y-64386785D01*
X42843333Y-64434404D01*
X42748095Y-64482023D01*
X42652857Y-64482023D01*
X42557619Y-64434404D01*
X42510000Y-64386785D01*
X42462380Y-64291547D01*
X42462380Y-64053452D01*
X42510000Y-63910595D01*
X42462380Y-63482023D02*
X43271904Y-63482023D01*
X43367142Y-63434404D01*
X43414761Y-63386785D01*
X43462380Y-63291547D01*
X43462380Y-63101071D01*
X43414761Y-63005833D01*
X43367142Y-62958214D01*
X43271904Y-62910595D01*
X42462380Y-62910595D01*
X43462380Y-62434404D02*
X42462380Y-62434404D01*
X42462380Y-62053452D01*
X42510000Y-61958214D01*
X42557619Y-61910595D01*
X42652857Y-61862976D01*
X42795714Y-61862976D01*
X42890952Y-61910595D01*
X42938571Y-61958214D01*
X42986190Y-62053452D01*
X42986190Y-62434404D01*
X42938571Y-61434404D02*
X42938571Y-61101071D01*
X43462380Y-60958214D02*
X43462380Y-61434404D01*
X42462380Y-61434404D01*
X42462380Y-60958214D01*
X43462380Y-59958214D02*
X42986190Y-60291547D01*
X43462380Y-60529642D02*
X42462380Y-60529642D01*
X42462380Y-60148690D01*
X42510000Y-60053452D01*
X42557619Y-60005833D01*
X42652857Y-59958214D01*
X42795714Y-59958214D01*
X42890952Y-60005833D01*
X42938571Y-60053452D01*
X42986190Y-60148690D01*
X42986190Y-60529642D01*
X43462380Y-59529642D02*
X42462380Y-59529642D01*
X42462380Y-59148690D01*
X42510000Y-59053452D01*
X42557619Y-59005833D01*
X42652857Y-58958214D01*
X42795714Y-58958214D01*
X42890952Y-59005833D01*
X42938571Y-59053452D01*
X42986190Y-59148690D01*
X42986190Y-59529642D01*
X43462380Y-58529642D02*
X42462380Y-58529642D01*
X43462380Y-58053452D02*
X42462380Y-58053452D01*
X42462380Y-57815357D01*
X42510000Y-57672500D01*
X42605238Y-57577261D01*
X42700476Y-57529642D01*
X42890952Y-57482023D01*
X43033809Y-57482023D01*
X43224285Y-57529642D01*
X43319523Y-57577261D01*
X43414761Y-57672500D01*
X43462380Y-57815357D01*
X43462380Y-58053452D01*
X45072380Y-64434404D02*
X44072380Y-64434404D01*
X45072380Y-63958214D02*
X44072380Y-63958214D01*
X45072380Y-63386785D01*
X44072380Y-63386785D01*
X44072380Y-63053452D02*
X44072380Y-62482023D01*
X45072380Y-62767738D02*
X44072380Y-62767738D01*
X44548571Y-62148690D02*
X44548571Y-61815357D01*
X45072380Y-61672500D02*
X45072380Y-62148690D01*
X44072380Y-62148690D01*
X44072380Y-61672500D01*
X44120000Y-60720119D02*
X44072380Y-60815357D01*
X44072380Y-60958214D01*
X44120000Y-61101071D01*
X44215238Y-61196309D01*
X44310476Y-61243928D01*
X44500952Y-61291547D01*
X44643809Y-61291547D01*
X44834285Y-61243928D01*
X44929523Y-61196309D01*
X45024761Y-61101071D01*
X45072380Y-60958214D01*
X45072380Y-60862976D01*
X45024761Y-60720119D01*
X44977142Y-60672500D01*
X44643809Y-60672500D01*
X44643809Y-60862976D01*
X45072380Y-59672500D02*
X44596190Y-60005833D01*
X45072380Y-60243928D02*
X44072380Y-60243928D01*
X44072380Y-59862976D01*
X44120000Y-59767738D01*
X44167619Y-59720119D01*
X44262857Y-59672500D01*
X44405714Y-59672500D01*
X44500952Y-59720119D01*
X44548571Y-59767738D01*
X44596190Y-59862976D01*
X44596190Y-60243928D01*
X44786666Y-59291547D02*
X44786666Y-58815357D01*
X45072380Y-59386785D02*
X44072380Y-59053452D01*
X45072380Y-58720119D01*
X44072380Y-58529642D02*
X44072380Y-57958214D01*
X45072380Y-58243928D02*
X44072380Y-58243928D01*
X44072380Y-57434404D02*
X44072380Y-57243928D01*
X44120000Y-57148690D01*
X44215238Y-57053452D01*
X44405714Y-57005833D01*
X44739047Y-57005833D01*
X44929523Y-57053452D01*
X45024761Y-57148690D01*
X45072380Y-57243928D01*
X45072380Y-57434404D01*
X45024761Y-57529642D01*
X44929523Y-57624880D01*
X44739047Y-57672500D01*
X44405714Y-57672500D01*
X44215238Y-57624880D01*
X44120000Y-57529642D01*
X44072380Y-57434404D01*
X45072380Y-56005833D02*
X44596190Y-56339166D01*
X45072380Y-56577261D02*
X44072380Y-56577261D01*
X44072380Y-56196309D01*
X44120000Y-56101071D01*
X44167619Y-56053452D01*
X44262857Y-56005833D01*
X44405714Y-56005833D01*
X44500952Y-56053452D01*
X44548571Y-56101071D01*
X44596190Y-56196309D01*
X44596190Y-56577261D01*
X45682380Y-64577261D02*
X46682380Y-64243928D01*
X45682380Y-63910595D01*
X46587142Y-63577261D02*
X46634761Y-63529642D01*
X46682380Y-63577261D01*
X46634761Y-63624880D01*
X46587142Y-63577261D01*
X46682380Y-63577261D01*
X46682380Y-61815357D02*
X46682380Y-62386785D01*
X46682380Y-62101071D02*
X45682380Y-62101071D01*
X45825238Y-62196309D01*
X45920476Y-62291547D01*
X45968095Y-62386785D01*
X46587142Y-61386785D02*
X46634761Y-61339166D01*
X46682380Y-61386785D01*
X46634761Y-61434404D01*
X46587142Y-61386785D01*
X46682380Y-61386785D01*
X45682380Y-60720119D02*
X45682380Y-60624880D01*
X45730000Y-60529642D01*
X45777619Y-60482023D01*
X45872857Y-60434404D01*
X46063333Y-60386785D01*
X46301428Y-60386785D01*
X46491904Y-60434404D01*
X46587142Y-60482023D01*
X46634761Y-60529642D01*
X46682380Y-60624880D01*
X46682380Y-60720119D01*
X46634761Y-60815357D01*
X46587142Y-60862976D01*
X46491904Y-60910595D01*
X46301428Y-60958214D01*
X46063333Y-60958214D01*
X45872857Y-60910595D01*
X45777619Y-60862976D01*
X45730000Y-60815357D01*
X45682380Y-60720119D01*
X96599523Y-47760000D02*
X96504285Y-47712380D01*
X96361428Y-47712380D01*
X96218570Y-47760000D01*
X96123332Y-47855238D01*
X96075713Y-47950476D01*
X96028094Y-48140952D01*
X96028094Y-48283809D01*
X96075713Y-48474285D01*
X96123332Y-48569523D01*
X96218570Y-48664761D01*
X96361428Y-48712380D01*
X96456666Y-48712380D01*
X96599523Y-48664761D01*
X96647142Y-48617142D01*
X96647142Y-48283809D01*
X96456666Y-48283809D01*
X97075713Y-48712380D02*
X97075713Y-47712380D01*
X97647142Y-48712380D01*
X97647142Y-47712380D01*
X98123332Y-48712380D02*
X98123332Y-47712380D01*
X98361428Y-47712380D01*
X98504285Y-47760000D01*
X98599523Y-47855238D01*
X98647142Y-47950476D01*
X98694761Y-48140952D01*
X98694761Y-48283809D01*
X98647142Y-48474285D01*
X98599523Y-48569523D01*
X98504285Y-48664761D01*
X98361428Y-48712380D01*
X98123332Y-48712380D01*
X96528095Y-54379761D02*
X96670952Y-54427380D01*
X96909047Y-54427380D01*
X97004285Y-54379761D01*
X97051904Y-54332142D01*
X97099523Y-54236904D01*
X97099523Y-54141666D01*
X97051904Y-54046428D01*
X97004285Y-53998809D01*
X96909047Y-53951190D01*
X96718571Y-53903571D01*
X96623333Y-53855952D01*
X96575714Y-53808333D01*
X96528095Y-53713095D01*
X96528095Y-53617857D01*
X96575714Y-53522619D01*
X96623333Y-53475000D01*
X96718571Y-53427380D01*
X96956666Y-53427380D01*
X97099523Y-53475000D01*
X97480476Y-54379761D02*
X97623333Y-54427380D01*
X97861428Y-54427380D01*
X97956666Y-54379761D01*
X98004285Y-54332142D01*
X98051904Y-54236904D01*
X98051904Y-54141666D01*
X98004285Y-54046428D01*
X97956666Y-53998809D01*
X97861428Y-53951190D01*
X97670952Y-53903571D01*
X97575714Y-53855952D01*
X97528095Y-53808333D01*
X97480476Y-53713095D01*
X97480476Y-53617857D01*
X97528095Y-53522619D01*
X97575714Y-53475000D01*
X97670952Y-53427380D01*
X97909047Y-53427380D01*
X98051904Y-53475000D01*
X99051904Y-54427380D02*
X98718571Y-53951190D01*
X98480476Y-54427380D02*
X98480476Y-53427380D01*
X98861428Y-53427380D01*
X98956666Y-53475000D01*
X99004285Y-53522619D01*
X99051904Y-53617857D01*
X99051904Y-53760714D01*
X99004285Y-53855952D01*
X98956666Y-53903571D01*
X98861428Y-53951190D01*
X98480476Y-53951190D01*
X96599523Y-80462380D02*
X96266190Y-79986190D01*
X96028095Y-80462380D02*
X96028095Y-79462380D01*
X96409047Y-79462380D01*
X96504285Y-79510000D01*
X96551904Y-79557619D01*
X96599523Y-79652857D01*
X96599523Y-79795714D01*
X96551904Y-79890952D01*
X96504285Y-79938571D01*
X96409047Y-79986190D01*
X96028095Y-79986190D01*
X97028095Y-79462380D02*
X97028095Y-80271904D01*
X97075714Y-80367142D01*
X97123333Y-80414761D01*
X97218571Y-80462380D01*
X97409047Y-80462380D01*
X97504285Y-80414761D01*
X97551904Y-80367142D01*
X97599523Y-80271904D01*
X97599523Y-79462380D01*
X98075714Y-80462380D02*
X98075714Y-79462380D01*
X98647142Y-80462380D01*
X98647142Y-79462380D01*
X101910000Y-95654761D02*
X102052857Y-95702380D01*
X102290952Y-95702380D01*
X102386190Y-95654761D01*
X102433809Y-95607142D01*
X102481428Y-95511904D01*
X102481428Y-95416666D01*
X102433809Y-95321428D01*
X102386190Y-95273809D01*
X102290952Y-95226190D01*
X102100476Y-95178571D01*
X102005238Y-95130952D01*
X101957619Y-95083333D01*
X101910000Y-94988095D01*
X101910000Y-94892857D01*
X101957619Y-94797619D01*
X102005238Y-94750000D01*
X102100476Y-94702380D01*
X102338571Y-94702380D01*
X102481428Y-94750000D01*
X102910000Y-94702380D02*
X102910000Y-95511904D01*
X102957619Y-95607142D01*
X103005238Y-95654761D01*
X103100476Y-95702380D01*
X103290952Y-95702380D01*
X103386190Y-95654761D01*
X103433809Y-95607142D01*
X103481428Y-95511904D01*
X103481428Y-94702380D01*
X103957619Y-95702380D02*
X103957619Y-94702380D01*
X104338571Y-94702380D01*
X104433809Y-94750000D01*
X104481428Y-94797619D01*
X104529047Y-94892857D01*
X104529047Y-95035714D01*
X104481428Y-95130952D01*
X104433809Y-95178571D01*
X104338571Y-95226190D01*
X103957619Y-95226190D01*
X104957619Y-95178571D02*
X105290952Y-95178571D01*
X105433809Y-95702380D02*
X104957619Y-95702380D01*
X104957619Y-94702380D01*
X105433809Y-94702380D01*
X106433809Y-95702380D02*
X106100476Y-95226190D01*
X105862380Y-95702380D02*
X105862380Y-94702380D01*
X106243333Y-94702380D01*
X106338571Y-94750000D01*
X106386190Y-94797619D01*
X106433809Y-94892857D01*
X106433809Y-95035714D01*
X106386190Y-95130952D01*
X106338571Y-95178571D01*
X106243333Y-95226190D01*
X105862380Y-95226190D01*
X106862380Y-95702380D02*
X106862380Y-94702380D01*
X107243333Y-94702380D01*
X107338571Y-94750000D01*
X107386190Y-94797619D01*
X107433809Y-94892857D01*
X107433809Y-95035714D01*
X107386190Y-95130952D01*
X107338571Y-95178571D01*
X107243333Y-95226190D01*
X106862380Y-95226190D01*
X107862380Y-95702380D02*
X107862380Y-94702380D01*
X108338571Y-95702380D02*
X108338571Y-94702380D01*
X108576666Y-94702380D01*
X108719523Y-94750000D01*
X108814761Y-94845238D01*
X108862380Y-94940476D01*
X108910000Y-95130952D01*
X108910000Y-95273809D01*
X108862380Y-95464285D01*
X108814761Y-95559523D01*
X108719523Y-95654761D01*
X108576666Y-95702380D01*
X108338571Y-95702380D01*
X35494100Y-49369405D02*
X35494100Y-48369405D01*
X35875052Y-48369405D01*
X35970290Y-48417025D01*
X36017909Y-48464644D01*
X36065528Y-48559882D01*
X36065528Y-48702739D01*
X36017909Y-48797977D01*
X35970290Y-48845596D01*
X35875052Y-48893215D01*
X35494100Y-48893215D01*
X36398862Y-48369405D02*
X36636957Y-49369405D01*
X36827433Y-48655120D01*
X37017909Y-49369405D01*
X37256004Y-48369405D01*
X37636957Y-49369405D02*
X37636957Y-48369405D01*
X37970290Y-49083691D01*
X38303623Y-48369405D01*
X38303623Y-49369405D01*
X36169176Y-59534625D02*
X36121557Y-59582244D01*
X35978700Y-59629863D01*
X35883462Y-59629863D01*
X35740605Y-59582244D01*
X35645367Y-59487006D01*
X35597748Y-59391768D01*
X35550129Y-59201292D01*
X35550129Y-59058435D01*
X35597748Y-58867959D01*
X35645367Y-58772721D01*
X35740605Y-58677483D01*
X35883462Y-58629863D01*
X35978700Y-58629863D01*
X36121557Y-58677483D01*
X36169176Y-58725102D01*
X36788224Y-58629863D02*
X36978700Y-58629863D01*
X37073938Y-58677483D01*
X37169176Y-58772721D01*
X37216795Y-58963197D01*
X37216795Y-59296530D01*
X37169176Y-59487006D01*
X37073938Y-59582244D01*
X36978700Y-59629863D01*
X36788224Y-59629863D01*
X36692986Y-59582244D01*
X36597748Y-59487006D01*
X36550129Y-59296530D01*
X36550129Y-58963197D01*
X36597748Y-58772721D01*
X36692986Y-58677483D01*
X36788224Y-58629863D01*
X37835843Y-58629863D02*
X38026319Y-58629863D01*
X38121557Y-58677483D01*
X38216795Y-58772721D01*
X38264414Y-58963197D01*
X38264414Y-59296530D01*
X38216795Y-59487006D01*
X38121557Y-59582244D01*
X38026319Y-59629863D01*
X37835843Y-59629863D01*
X37740605Y-59582244D01*
X37645367Y-59487006D01*
X37597748Y-59296530D01*
X37597748Y-58963197D01*
X37645367Y-58772721D01*
X37740605Y-58677483D01*
X37835843Y-58629863D01*
X39169176Y-59629863D02*
X38692986Y-59629863D01*
X38692986Y-58629863D01*
%TO.C,U2*%
X88987380Y-49616904D02*
X89796904Y-49616904D01*
X89892142Y-49569285D01*
X89939761Y-49521666D01*
X89987380Y-49426428D01*
X89987380Y-49235952D01*
X89939761Y-49140714D01*
X89892142Y-49093095D01*
X89796904Y-49045476D01*
X88987380Y-49045476D01*
X89082619Y-48616904D02*
X89035000Y-48569285D01*
X88987380Y-48474047D01*
X88987380Y-48235952D01*
X89035000Y-48140714D01*
X89082619Y-48093095D01*
X89177857Y-48045476D01*
X89273095Y-48045476D01*
X89415952Y-48093095D01*
X89987380Y-48664523D01*
X89987380Y-48045476D01*
X87844380Y-47585000D02*
X88082476Y-47585000D01*
X87987238Y-47823095D02*
X88082476Y-47585000D01*
X87987238Y-47346904D01*
X88272952Y-47727857D02*
X88082476Y-47585000D01*
X88272952Y-47442142D01*
X87844380Y-47585000D02*
X88082476Y-47585000D01*
X87987238Y-47823095D02*
X88082476Y-47585000D01*
X87987238Y-47346904D01*
X88272952Y-47727857D02*
X88082476Y-47585000D01*
X88272952Y-47442142D01*
%TO.C,J2*%
X97658333Y-83016666D02*
X98658333Y-83016666D01*
X98858333Y-83083333D01*
X98991666Y-83216666D01*
X99058333Y-83416666D01*
X99058333Y-83550000D01*
X97791666Y-82416666D02*
X97725000Y-82350000D01*
X97658333Y-82216666D01*
X97658333Y-81883333D01*
X97725000Y-81750000D01*
X97791666Y-81683333D01*
X97925000Y-81616666D01*
X98058333Y-81616666D01*
X98258333Y-81683333D01*
X99058333Y-82483333D01*
X99058333Y-81616666D01*
%TO.C,L1*%
X54427380Y-83351666D02*
X54427380Y-83827857D01*
X53427380Y-83827857D01*
X54427380Y-82494523D02*
X54427380Y-83065952D01*
X54427380Y-82780238D02*
X53427380Y-82780238D01*
X53570238Y-82875476D01*
X53665476Y-82970714D01*
X53713095Y-83065952D01*
%TO.C,RL1*%
X94432380Y-76136428D02*
X93956190Y-76469761D01*
X94432380Y-76707857D02*
X93432380Y-76707857D01*
X93432380Y-76326904D01*
X93480000Y-76231666D01*
X93527619Y-76184047D01*
X93622857Y-76136428D01*
X93765714Y-76136428D01*
X93860952Y-76184047D01*
X93908571Y-76231666D01*
X93956190Y-76326904D01*
X93956190Y-76707857D01*
X94432380Y-75231666D02*
X94432380Y-75707857D01*
X93432380Y-75707857D01*
X94432380Y-74374523D02*
X94432380Y-74945952D01*
X94432380Y-74660238D02*
X93432380Y-74660238D01*
X93575238Y-74755476D01*
X93670476Y-74850714D01*
X93718095Y-74945952D01*
%TO.C,R1*%
X63538472Y-48426666D02*
X63062282Y-48760000D01*
X63538472Y-48998095D02*
X62538472Y-48998095D01*
X62538472Y-48617142D01*
X62586092Y-48521904D01*
X62633711Y-48474285D01*
X62728949Y-48426666D01*
X62871806Y-48426666D01*
X62967044Y-48474285D01*
X63014663Y-48521904D01*
X63062282Y-48617142D01*
X63062282Y-48998095D01*
X63538472Y-47474285D02*
X63538472Y-48045714D01*
X63538472Y-47760000D02*
X62538472Y-47760000D01*
X62681330Y-47855238D01*
X62776568Y-47950476D01*
X62824187Y-48045714D01*
X69615004Y-47807619D02*
X69662623Y-47760000D01*
X69757861Y-47712380D01*
X69995957Y-47712380D01*
X70091195Y-47760000D01*
X70138814Y-47807619D01*
X70186433Y-47902857D01*
X70186433Y-47998095D01*
X70138814Y-48140952D01*
X69567385Y-48712380D01*
X70186433Y-48712380D01*
X70567385Y-47807619D02*
X70615004Y-47760000D01*
X70710242Y-47712380D01*
X70948338Y-47712380D01*
X71043576Y-47760000D01*
X71091195Y-47807619D01*
X71138814Y-47902857D01*
X71138814Y-47998095D01*
X71091195Y-48140952D01*
X70519766Y-48712380D01*
X71138814Y-48712380D01*
X71995957Y-47712380D02*
X71805480Y-47712380D01*
X71710242Y-47760000D01*
X71662623Y-47807619D01*
X71567385Y-47950476D01*
X71519766Y-48140952D01*
X71519766Y-48521904D01*
X71567385Y-48617142D01*
X71615004Y-48664761D01*
X71710242Y-48712380D01*
X71900719Y-48712380D01*
X71995957Y-48664761D01*
X72043576Y-48617142D01*
X72091195Y-48521904D01*
X72091195Y-48283809D01*
X72043576Y-48188571D01*
X71995957Y-48140952D01*
X71900719Y-48093333D01*
X71710242Y-48093333D01*
X71615004Y-48140952D01*
X71567385Y-48188571D01*
X71519766Y-48283809D01*
X76415700Y-47712380D02*
X76415700Y-47950476D01*
X76177604Y-47855238D02*
X76415700Y-47950476D01*
X76653795Y-47855238D01*
X76272842Y-48140952D02*
X76415700Y-47950476D01*
X76558557Y-48140952D01*
%TO.C,D1*%
X50983530Y-51368031D02*
X49983530Y-51368031D01*
X49983530Y-51129936D01*
X50031150Y-50987078D01*
X50126388Y-50891840D01*
X50221626Y-50844221D01*
X50412102Y-50796602D01*
X50554959Y-50796602D01*
X50745435Y-50844221D01*
X50840673Y-50891840D01*
X50935911Y-50987078D01*
X50983530Y-51129936D01*
X50983530Y-51368031D01*
X50983530Y-49844221D02*
X50983530Y-50415650D01*
X50983530Y-50129936D02*
X49983530Y-50129936D01*
X50126388Y-50225174D01*
X50221626Y-50320412D01*
X50269245Y-50415650D01*
%TO.C,R9*%
X93162380Y-87161666D02*
X92686190Y-87495000D01*
X93162380Y-87733095D02*
X92162380Y-87733095D01*
X92162380Y-87352142D01*
X92210000Y-87256904D01*
X92257619Y-87209285D01*
X92352857Y-87161666D01*
X92495714Y-87161666D01*
X92590952Y-87209285D01*
X92638571Y-87256904D01*
X92686190Y-87352142D01*
X92686190Y-87733095D01*
X93162380Y-86685476D02*
X93162380Y-86495000D01*
X93114761Y-86399761D01*
X93067142Y-86352142D01*
X92924285Y-86256904D01*
X92733809Y-86209285D01*
X92352857Y-86209285D01*
X92257619Y-86256904D01*
X92210000Y-86304523D01*
X92162380Y-86399761D01*
X92162380Y-86590238D01*
X92210000Y-86685476D01*
X92257619Y-86733095D01*
X92352857Y-86780714D01*
X92590952Y-86780714D01*
X92686190Y-86733095D01*
X92733809Y-86685476D01*
X92781428Y-86590238D01*
X92781428Y-86399761D01*
X92733809Y-86304523D01*
X92686190Y-86256904D01*
X92590952Y-86209285D01*
X83483804Y-86542619D02*
X83531423Y-86495000D01*
X83626661Y-86447380D01*
X83864757Y-86447380D01*
X83959995Y-86495000D01*
X84007614Y-86542619D01*
X84055233Y-86637857D01*
X84055233Y-86733095D01*
X84007614Y-86875952D01*
X83436185Y-87447380D01*
X84055233Y-87447380D01*
X84436185Y-86542619D02*
X84483804Y-86495000D01*
X84579042Y-86447380D01*
X84817138Y-86447380D01*
X84912376Y-86495000D01*
X84959995Y-86542619D01*
X85007614Y-86637857D01*
X85007614Y-86733095D01*
X84959995Y-86875952D01*
X84388566Y-87447380D01*
X85007614Y-87447380D01*
X85864757Y-86447380D02*
X85674280Y-86447380D01*
X85579042Y-86495000D01*
X85531423Y-86542619D01*
X85436185Y-86685476D01*
X85388566Y-86875952D01*
X85388566Y-87256904D01*
X85436185Y-87352142D01*
X85483804Y-87399761D01*
X85579042Y-87447380D01*
X85769519Y-87447380D01*
X85864757Y-87399761D01*
X85912376Y-87352142D01*
X85959995Y-87256904D01*
X85959995Y-87018809D01*
X85912376Y-86923571D01*
X85864757Y-86875952D01*
X85769519Y-86828333D01*
X85579042Y-86828333D01*
X85483804Y-86875952D01*
X85436185Y-86923571D01*
X85388566Y-87018809D01*
X79159300Y-86447380D02*
X79159300Y-86685476D01*
X78921204Y-86590238D02*
X79159300Y-86685476D01*
X79397395Y-86590238D01*
X79016442Y-86875952D02*
X79159300Y-86685476D01*
X79302157Y-86875952D01*
%TO.C,J1*%
X34793333Y-68411666D02*
X35793333Y-68411666D01*
X35993333Y-68478333D01*
X36126666Y-68611666D01*
X36193333Y-68811666D01*
X36193333Y-68945000D01*
X36193333Y-67011666D02*
X36193333Y-67811666D01*
X36193333Y-67411666D02*
X34793333Y-67411666D01*
X34993333Y-67545000D01*
X35126666Y-67678333D01*
X35193333Y-67811666D01*
%TO.C,U1*%
X75512380Y-70591904D02*
X76321904Y-70591904D01*
X76417142Y-70544285D01*
X76464761Y-70496666D01*
X76512380Y-70401428D01*
X76512380Y-70210952D01*
X76464761Y-70115714D01*
X76417142Y-70068095D01*
X76321904Y-70020476D01*
X75512380Y-70020476D01*
X76512380Y-69020476D02*
X76512380Y-69591904D01*
X76512380Y-69306190D02*
X75512380Y-69306190D01*
X75655238Y-69401428D01*
X75750476Y-69496666D01*
X75798095Y-69591904D01*
%TO.C,J5*%
X97658333Y-51266666D02*
X98658333Y-51266666D01*
X98858333Y-51333333D01*
X98991666Y-51466666D01*
X99058333Y-51666666D01*
X99058333Y-51800000D01*
X97658333Y-49933333D02*
X97658333Y-50600000D01*
X98325000Y-50666666D01*
X98258333Y-50600000D01*
X98191666Y-50466666D01*
X98191666Y-50133333D01*
X98258333Y-50000000D01*
X98325000Y-49933333D01*
X98458333Y-49866666D01*
X98791666Y-49866666D01*
X98925000Y-49933333D01*
X98991666Y-50000000D01*
X99058333Y-50133333D01*
X99058333Y-50466666D01*
X98991666Y-50600000D01*
X98925000Y-50666666D01*
%TO.C,C2*%
X93712142Y-64936666D02*
X93759761Y-64984285D01*
X93807380Y-65127142D01*
X93807380Y-65222380D01*
X93759761Y-65365238D01*
X93664523Y-65460476D01*
X93569285Y-65508095D01*
X93378809Y-65555714D01*
X93235952Y-65555714D01*
X93045476Y-65508095D01*
X92950238Y-65460476D01*
X92855000Y-65365238D01*
X92807380Y-65222380D01*
X92807380Y-65127142D01*
X92855000Y-64984285D01*
X92902619Y-64936666D01*
X92902619Y-64555714D02*
X92855000Y-64508095D01*
X92807380Y-64412857D01*
X92807380Y-64174761D01*
X92855000Y-64079523D01*
X92902619Y-64031904D01*
X92997857Y-63984285D01*
X93093095Y-63984285D01*
X93235952Y-64031904D01*
X93807380Y-64603333D01*
X93807380Y-63984285D01*
%TO.C,J4*%
X92796566Y-70183829D02*
X93511914Y-70183829D01*
X93654984Y-70231519D01*
X93750364Y-70326899D01*
X93798054Y-70469968D01*
X93798054Y-70565348D01*
X93130395Y-69277721D02*
X93798054Y-69277721D01*
X92748876Y-69516170D02*
X93464224Y-69754620D01*
X93464224Y-69134651D01*
%TO.C,R8*%
X93162380Y-83512344D02*
X92686190Y-83845678D01*
X93162380Y-84083773D02*
X92162380Y-84083773D01*
X92162380Y-83702820D01*
X92210000Y-83607582D01*
X92257619Y-83559963D01*
X92352857Y-83512344D01*
X92495714Y-83512344D01*
X92590952Y-83559963D01*
X92638571Y-83607582D01*
X92686190Y-83702820D01*
X92686190Y-84083773D01*
X92590952Y-82940916D02*
X92543333Y-83036154D01*
X92495714Y-83083773D01*
X92400476Y-83131392D01*
X92352857Y-83131392D01*
X92257619Y-83083773D01*
X92210000Y-83036154D01*
X92162380Y-82940916D01*
X92162380Y-82750439D01*
X92210000Y-82655201D01*
X92257619Y-82607582D01*
X92352857Y-82559963D01*
X92400476Y-82559963D01*
X92495714Y-82607582D01*
X92543333Y-82655201D01*
X92590952Y-82750439D01*
X92590952Y-82940916D01*
X92638571Y-83036154D01*
X92686190Y-83083773D01*
X92781428Y-83131392D01*
X92971904Y-83131392D01*
X93067142Y-83083773D01*
X93114761Y-83036154D01*
X93162380Y-82940916D01*
X93162380Y-82750439D01*
X93114761Y-82655201D01*
X93067142Y-82607582D01*
X92971904Y-82559963D01*
X92781428Y-82559963D01*
X92686190Y-82607582D01*
X92638571Y-82655201D01*
X92590952Y-82750439D01*
X82698090Y-82798058D02*
X83317138Y-82798058D01*
X82983804Y-83179011D01*
X83126661Y-83179011D01*
X83221900Y-83226630D01*
X83269519Y-83274249D01*
X83317138Y-83369487D01*
X83317138Y-83607582D01*
X83269519Y-83702820D01*
X83221900Y-83750439D01*
X83126661Y-83798058D01*
X82840947Y-83798058D01*
X82745709Y-83750439D01*
X82698090Y-83702820D01*
X83888566Y-83226630D02*
X83793328Y-83179011D01*
X83745709Y-83131392D01*
X83698090Y-83036154D01*
X83698090Y-82988535D01*
X83745709Y-82893297D01*
X83793328Y-82845678D01*
X83888566Y-82798058D01*
X84079042Y-82798058D01*
X84174280Y-82845678D01*
X84221900Y-82893297D01*
X84269519Y-82988535D01*
X84269519Y-83036154D01*
X84221900Y-83131392D01*
X84174280Y-83179011D01*
X84079042Y-83226630D01*
X83888566Y-83226630D01*
X83793328Y-83274249D01*
X83745709Y-83321868D01*
X83698090Y-83417106D01*
X83698090Y-83607582D01*
X83745709Y-83702820D01*
X83793328Y-83750439D01*
X83888566Y-83798058D01*
X84079042Y-83798058D01*
X84174280Y-83750439D01*
X84221900Y-83702820D01*
X84269519Y-83607582D01*
X84269519Y-83417106D01*
X84221900Y-83321868D01*
X84174280Y-83274249D01*
X84079042Y-83226630D01*
X84698090Y-83702820D02*
X84745709Y-83750439D01*
X84698090Y-83798058D01*
X84650471Y-83750439D01*
X84698090Y-83702820D01*
X84698090Y-83798058D01*
X85079042Y-82798058D02*
X85698090Y-82798058D01*
X85364757Y-83179011D01*
X85507614Y-83179011D01*
X85602852Y-83226630D01*
X85650471Y-83274249D01*
X85698090Y-83369487D01*
X85698090Y-83607582D01*
X85650471Y-83702820D01*
X85602852Y-83750439D01*
X85507614Y-83798058D01*
X85221900Y-83798058D01*
X85126661Y-83750439D01*
X85079042Y-83702820D01*
X86126661Y-83798058D02*
X86126661Y-82798058D01*
X86698090Y-83798058D02*
X86269519Y-83226630D01*
X86698090Y-82798058D02*
X86126661Y-83369487D01*
X79159300Y-82798058D02*
X79159300Y-83036154D01*
X78921204Y-82940916D02*
X79159300Y-83036154D01*
X79397395Y-82940916D01*
X79016442Y-83226630D02*
X79159300Y-83036154D01*
X79302157Y-83226630D01*
%TO.C,Cin1*%
X26392142Y-73824491D02*
X26439761Y-73872110D01*
X26487380Y-74014968D01*
X26487380Y-74110206D01*
X26439761Y-74253063D01*
X26344523Y-74348301D01*
X26249285Y-74395920D01*
X26058809Y-74443539D01*
X25915952Y-74443539D01*
X25725476Y-74395920D01*
X25630238Y-74348301D01*
X25535000Y-74253063D01*
X25487380Y-74110206D01*
X25487380Y-74014968D01*
X25535000Y-73872110D01*
X25582619Y-73824491D01*
X26487380Y-73395920D02*
X25820714Y-73395920D01*
X25487380Y-73395920D02*
X25535000Y-73443539D01*
X25582619Y-73395920D01*
X25535000Y-73348301D01*
X25487380Y-73395920D01*
X25582619Y-73395920D01*
X25820714Y-72919729D02*
X26487380Y-72919729D01*
X25915952Y-72919729D02*
X25868333Y-72872110D01*
X25820714Y-72776872D01*
X25820714Y-72634015D01*
X25868333Y-72538777D01*
X25963571Y-72491158D01*
X26487380Y-72491158D01*
X26487380Y-71491158D02*
X26487380Y-72062587D01*
X26487380Y-71776872D02*
X25487380Y-71776872D01*
X25630238Y-71872110D01*
X25725476Y-71967349D01*
X25773095Y-72062587D01*
%TO.C,R10*%
X93162380Y-91447857D02*
X92686190Y-91781190D01*
X93162380Y-92019285D02*
X92162380Y-92019285D01*
X92162380Y-91638333D01*
X92210000Y-91543095D01*
X92257619Y-91495476D01*
X92352857Y-91447857D01*
X92495714Y-91447857D01*
X92590952Y-91495476D01*
X92638571Y-91543095D01*
X92686190Y-91638333D01*
X92686190Y-92019285D01*
X93162380Y-90495476D02*
X93162380Y-91066904D01*
X93162380Y-90781190D02*
X92162380Y-90781190D01*
X92305238Y-90876428D01*
X92400476Y-90971666D01*
X92448095Y-91066904D01*
X92162380Y-89876428D02*
X92162380Y-89781190D01*
X92210000Y-89685952D01*
X92257619Y-89638333D01*
X92352857Y-89590714D01*
X92543333Y-89543095D01*
X92781428Y-89543095D01*
X92971904Y-89590714D01*
X93067142Y-89638333D01*
X93114761Y-89685952D01*
X93162380Y-89781190D01*
X93162380Y-89876428D01*
X93114761Y-89971666D01*
X93067142Y-90019285D01*
X92971904Y-90066904D01*
X92781428Y-90114523D01*
X92543333Y-90114523D01*
X92352857Y-90066904D01*
X92257619Y-90019285D01*
X92210000Y-89971666D01*
X92162380Y-89876428D01*
X83483804Y-90352619D02*
X83531423Y-90305000D01*
X83626661Y-90257380D01*
X83864757Y-90257380D01*
X83959995Y-90305000D01*
X84007614Y-90352619D01*
X84055233Y-90447857D01*
X84055233Y-90543095D01*
X84007614Y-90685952D01*
X83436185Y-91257380D01*
X84055233Y-91257380D01*
X84436185Y-90352619D02*
X84483804Y-90305000D01*
X84579042Y-90257380D01*
X84817138Y-90257380D01*
X84912376Y-90305000D01*
X84959995Y-90352619D01*
X85007614Y-90447857D01*
X85007614Y-90543095D01*
X84959995Y-90685952D01*
X84388566Y-91257380D01*
X85007614Y-91257380D01*
X85864757Y-90257380D02*
X85674280Y-90257380D01*
X85579042Y-90305000D01*
X85531423Y-90352619D01*
X85436185Y-90495476D01*
X85388566Y-90685952D01*
X85388566Y-91066904D01*
X85436185Y-91162142D01*
X85483804Y-91209761D01*
X85579042Y-91257380D01*
X85769519Y-91257380D01*
X85864757Y-91209761D01*
X85912376Y-91162142D01*
X85959995Y-91066904D01*
X85959995Y-90828809D01*
X85912376Y-90733571D01*
X85864757Y-90685952D01*
X85769519Y-90638333D01*
X85579042Y-90638333D01*
X85483804Y-90685952D01*
X85436185Y-90733571D01*
X85388566Y-90828809D01*
X79159300Y-90257380D02*
X79159300Y-90495476D01*
X78921204Y-90400238D02*
X79159300Y-90495476D01*
X79397395Y-90400238D01*
X79016442Y-90685952D02*
X79159300Y-90495476D01*
X79302157Y-90685952D01*
%TO.C,U3*%
X88837380Y-61681904D02*
X89646904Y-61681904D01*
X89742142Y-61634285D01*
X89789761Y-61586666D01*
X89837380Y-61491428D01*
X89837380Y-61300952D01*
X89789761Y-61205714D01*
X89742142Y-61158095D01*
X89646904Y-61110476D01*
X88837380Y-61110476D01*
X88837380Y-60729523D02*
X88837380Y-60110476D01*
X89218333Y-60443809D01*
X89218333Y-60300952D01*
X89265952Y-60205714D01*
X89313571Y-60158095D01*
X89408809Y-60110476D01*
X89646904Y-60110476D01*
X89742142Y-60158095D01*
X89789761Y-60205714D01*
X89837380Y-60300952D01*
X89837380Y-60586666D01*
X89789761Y-60681904D01*
X89742142Y-60729523D01*
X87844380Y-60285000D02*
X88082476Y-60285000D01*
X87987238Y-60523095D02*
X88082476Y-60285000D01*
X87987238Y-60046904D01*
X88272952Y-60427857D02*
X88082476Y-60285000D01*
X88272952Y-60142142D01*
X87844380Y-60285000D02*
X88082476Y-60285000D01*
X87987238Y-60523095D02*
X88082476Y-60285000D01*
X87987238Y-60046904D01*
X88272952Y-60427857D02*
X88082476Y-60285000D01*
X88272952Y-60142142D01*
%TO.C,Cb1*%
X67820912Y-69765122D02*
X67868531Y-69812741D01*
X67916150Y-69955598D01*
X67916150Y-70050836D01*
X67868531Y-70193694D01*
X67773293Y-70288932D01*
X67678055Y-70336551D01*
X67487579Y-70384170D01*
X67344722Y-70384170D01*
X67154246Y-70336551D01*
X67059008Y-70288932D01*
X66963770Y-70193694D01*
X66916150Y-70050836D01*
X66916150Y-69955598D01*
X66963770Y-69812741D01*
X67011389Y-69765122D01*
X67916150Y-69336551D02*
X66916150Y-69336551D01*
X67297103Y-69336551D02*
X67249484Y-69241313D01*
X67249484Y-69050836D01*
X67297103Y-68955598D01*
X67344722Y-68907979D01*
X67439960Y-68860360D01*
X67725674Y-68860360D01*
X67820912Y-68907979D01*
X67868531Y-68955598D01*
X67916150Y-69050836D01*
X67916150Y-69241313D01*
X67868531Y-69336551D01*
X67916150Y-67907979D02*
X67916150Y-68479408D01*
X67916150Y-68193694D02*
X66916150Y-68193694D01*
X67059008Y-68288932D01*
X67154246Y-68384170D01*
X67201865Y-68479408D01*
%TO.C,Cinx1*%
X47440790Y-69603962D02*
X47488409Y-69651581D01*
X47536028Y-69794438D01*
X47536028Y-69889677D01*
X47488409Y-70032534D01*
X47393171Y-70127772D01*
X47297933Y-70175391D01*
X47107457Y-70223010D01*
X46964600Y-70223010D01*
X46774124Y-70175391D01*
X46678886Y-70127772D01*
X46583648Y-70032534D01*
X46536028Y-69889677D01*
X46536028Y-69794438D01*
X46583648Y-69651581D01*
X46631267Y-69603962D01*
X47536028Y-69175391D02*
X46869362Y-69175391D01*
X46536028Y-69175391D02*
X46583648Y-69223010D01*
X46631267Y-69175391D01*
X46583648Y-69127772D01*
X46536028Y-69175391D01*
X46631267Y-69175391D01*
X46869362Y-68699200D02*
X47536028Y-68699200D01*
X46964600Y-68699200D02*
X46916981Y-68651581D01*
X46869362Y-68556343D01*
X46869362Y-68413486D01*
X46916981Y-68318248D01*
X47012219Y-68270629D01*
X47536028Y-68270629D01*
X47536028Y-67889677D02*
X46869362Y-67365867D01*
X46869362Y-67889677D02*
X47536028Y-67365867D01*
X47536028Y-66461105D02*
X47536028Y-67032534D01*
X47536028Y-66746819D02*
X46536028Y-66746819D01*
X46678886Y-66842058D01*
X46774124Y-66937296D01*
X46821743Y-67032534D01*
%TO.C,C1*%
X93712142Y-52851666D02*
X93759761Y-52899285D01*
X93807380Y-53042142D01*
X93807380Y-53137380D01*
X93759761Y-53280238D01*
X93664523Y-53375476D01*
X93569285Y-53423095D01*
X93378809Y-53470714D01*
X93235952Y-53470714D01*
X93045476Y-53423095D01*
X92950238Y-53375476D01*
X92855000Y-53280238D01*
X92807380Y-53137380D01*
X92807380Y-53042142D01*
X92855000Y-52899285D01*
X92902619Y-52851666D01*
X93807380Y-51899285D02*
X93807380Y-52470714D01*
X93807380Y-52185000D02*
X92807380Y-52185000D01*
X92950238Y-52280238D01*
X93045476Y-52375476D01*
X93093095Y-52470714D01*
%TO.C,Cout1*%
X66397142Y-88352142D02*
X66444761Y-88399761D01*
X66492380Y-88542619D01*
X66492380Y-88637857D01*
X66444761Y-88780714D01*
X66349523Y-88875952D01*
X66254285Y-88923571D01*
X66063809Y-88971190D01*
X65920952Y-88971190D01*
X65730476Y-88923571D01*
X65635238Y-88875952D01*
X65540000Y-88780714D01*
X65492380Y-88637857D01*
X65492380Y-88542619D01*
X65540000Y-88399761D01*
X65587619Y-88352142D01*
X66492380Y-87780714D02*
X66444761Y-87875952D01*
X66397142Y-87923571D01*
X66301904Y-87971190D01*
X66016190Y-87971190D01*
X65920952Y-87923571D01*
X65873333Y-87875952D01*
X65825714Y-87780714D01*
X65825714Y-87637857D01*
X65873333Y-87542619D01*
X65920952Y-87495000D01*
X66016190Y-87447380D01*
X66301904Y-87447380D01*
X66397142Y-87495000D01*
X66444761Y-87542619D01*
X66492380Y-87637857D01*
X66492380Y-87780714D01*
X65825714Y-86590238D02*
X66492380Y-86590238D01*
X65825714Y-87018809D02*
X66349523Y-87018809D01*
X66444761Y-86971190D01*
X66492380Y-86875952D01*
X66492380Y-86733095D01*
X66444761Y-86637857D01*
X66397142Y-86590238D01*
X65825714Y-86256904D02*
X65825714Y-85875952D01*
X65492380Y-86114047D02*
X66349523Y-86114047D01*
X66444761Y-86066428D01*
X66492380Y-85971190D01*
X66492380Y-85875952D01*
X66492380Y-85018809D02*
X66492380Y-85590238D01*
X66492380Y-85304523D02*
X65492380Y-85304523D01*
X65635238Y-85399761D01*
X65730476Y-85495000D01*
X65778095Y-85590238D01*
%TO.C,J3*%
X32274243Y-80362453D02*
X33274243Y-80362453D01*
X33474243Y-80429120D01*
X33607576Y-80562453D01*
X33674243Y-80762453D01*
X33674243Y-80895787D01*
X32274243Y-79829120D02*
X32274243Y-78962453D01*
X32807576Y-79429120D01*
X32807576Y-79229120D01*
X32874243Y-79095787D01*
X32940910Y-79029120D01*
X33074243Y-78962453D01*
X33407576Y-78962453D01*
X33540910Y-79029120D01*
X33607576Y-79095787D01*
X33674243Y-79229120D01*
X33674243Y-79629120D01*
X33607576Y-79762453D01*
X33540910Y-79829120D01*
%TO.C,R7*%
X93162380Y-79863022D02*
X92686190Y-80196356D01*
X93162380Y-80434451D02*
X92162380Y-80434451D01*
X92162380Y-80053498D01*
X92210000Y-79958260D01*
X92257619Y-79910641D01*
X92352857Y-79863022D01*
X92495714Y-79863022D01*
X92590952Y-79910641D01*
X92638571Y-79958260D01*
X92686190Y-80053498D01*
X92686190Y-80434451D01*
X92162380Y-79529689D02*
X92162380Y-78863022D01*
X93162380Y-79291594D01*
X83102552Y-79482070D02*
X83102552Y-80148736D01*
X82864457Y-79101117D02*
X82626362Y-79815403D01*
X83245409Y-79815403D01*
X83531124Y-79148736D02*
X84197790Y-79148736D01*
X83769219Y-80148736D01*
X84578743Y-80148736D02*
X84578743Y-79148736D01*
X85150171Y-80148736D02*
X84721600Y-79577308D01*
X85150171Y-79148736D02*
X84578743Y-79720165D01*
X79443267Y-79148736D02*
X79443267Y-79386832D01*
X79205171Y-79291594D02*
X79443267Y-79386832D01*
X79681362Y-79291594D01*
X79300409Y-79577308D02*
X79443267Y-79386832D01*
X79586124Y-79577308D01*
%TO.C,R2*%
X63538472Y-51752031D02*
X63062282Y-52085365D01*
X63538472Y-52323460D02*
X62538472Y-52323460D01*
X62538472Y-51942507D01*
X62586092Y-51847269D01*
X62633711Y-51799650D01*
X62728949Y-51752031D01*
X62871806Y-51752031D01*
X62967044Y-51799650D01*
X63014663Y-51847269D01*
X63062282Y-51942507D01*
X63062282Y-52323460D01*
X62633711Y-51371079D02*
X62586092Y-51323460D01*
X62538472Y-51228222D01*
X62538472Y-50990126D01*
X62586092Y-50894888D01*
X62633711Y-50847269D01*
X62728949Y-50799650D01*
X62824187Y-50799650D01*
X62967044Y-50847269D01*
X63538472Y-51418698D01*
X63538472Y-50799650D01*
X69615004Y-51132984D02*
X69662623Y-51085365D01*
X69757861Y-51037745D01*
X69995957Y-51037745D01*
X70091195Y-51085365D01*
X70138814Y-51132984D01*
X70186433Y-51228222D01*
X70186433Y-51323460D01*
X70138814Y-51466317D01*
X69567385Y-52037745D01*
X70186433Y-52037745D01*
X70567385Y-51132984D02*
X70615004Y-51085365D01*
X70710242Y-51037745D01*
X70948338Y-51037745D01*
X71043576Y-51085365D01*
X71091195Y-51132984D01*
X71138814Y-51228222D01*
X71138814Y-51323460D01*
X71091195Y-51466317D01*
X70519766Y-52037745D01*
X71138814Y-52037745D01*
X71995957Y-51037745D02*
X71805480Y-51037745D01*
X71710242Y-51085365D01*
X71662623Y-51132984D01*
X71567385Y-51275841D01*
X71519766Y-51466317D01*
X71519766Y-51847269D01*
X71567385Y-51942507D01*
X71615004Y-51990126D01*
X71710242Y-52037745D01*
X71900719Y-52037745D01*
X71995957Y-51990126D01*
X72043576Y-51942507D01*
X72091195Y-51847269D01*
X72091195Y-51609174D01*
X72043576Y-51513936D01*
X71995957Y-51466317D01*
X71900719Y-51418698D01*
X71710242Y-51418698D01*
X71615004Y-51466317D01*
X71567385Y-51513936D01*
X71519766Y-51609174D01*
X76415700Y-51037745D02*
X76415700Y-51275841D01*
X76177604Y-51180603D02*
X76415700Y-51275841D01*
X76653795Y-51180603D01*
X76272842Y-51466317D02*
X76415700Y-51275841D01*
X76558557Y-51466317D01*
%TO.C,D2*%
X75032380Y-88363095D02*
X74032380Y-88363095D01*
X74032380Y-88125000D01*
X74080000Y-87982142D01*
X74175238Y-87886904D01*
X74270476Y-87839285D01*
X74460952Y-87791666D01*
X74603809Y-87791666D01*
X74794285Y-87839285D01*
X74889523Y-87886904D01*
X74984761Y-87982142D01*
X75032380Y-88125000D01*
X75032380Y-88363095D01*
X74127619Y-87410714D02*
X74080000Y-87363095D01*
X74032380Y-87267857D01*
X74032380Y-87029761D01*
X74080000Y-86934523D01*
X74127619Y-86886904D01*
X74222857Y-86839285D01*
X74318095Y-86839285D01*
X74460952Y-86886904D01*
X75032380Y-87458333D01*
X75032380Y-86839285D01*
%TO.C,R5*%
X63563685Y-62381424D02*
X63087495Y-62714758D01*
X63563685Y-62952853D02*
X62563685Y-62952853D01*
X62563685Y-62571900D01*
X62611305Y-62476662D01*
X62658924Y-62429043D01*
X62754162Y-62381424D01*
X62897019Y-62381424D01*
X62992257Y-62429043D01*
X63039876Y-62476662D01*
X63087495Y-62571900D01*
X63087495Y-62952853D01*
X62563685Y-61476662D02*
X62563685Y-61952853D01*
X63039876Y-62000472D01*
X62992257Y-61952853D01*
X62944638Y-61857615D01*
X62944638Y-61619519D01*
X62992257Y-61524281D01*
X63039876Y-61476662D01*
X63135114Y-61429043D01*
X63373209Y-61429043D01*
X63468447Y-61476662D01*
X63516066Y-61524281D01*
X63563685Y-61619519D01*
X63563685Y-61857615D01*
X63516066Y-61952853D01*
X63468447Y-62000472D01*
X70089037Y-62000472D02*
X70089037Y-62667138D01*
X69850942Y-61619519D02*
X69612847Y-62333805D01*
X70231894Y-62333805D01*
X70517609Y-61667138D02*
X71184275Y-61667138D01*
X70755704Y-62667138D01*
X71565228Y-62667138D02*
X71565228Y-61667138D01*
X72136656Y-62667138D02*
X71708085Y-62095710D01*
X72136656Y-61667138D02*
X71565228Y-62238567D01*
X65312152Y-61667138D02*
X65312152Y-61905234D01*
X65074056Y-61809996D02*
X65312152Y-61905234D01*
X65550247Y-61809996D01*
X65169294Y-62095710D02*
X65312152Y-61905234D01*
X65455009Y-62095710D01*
%TO.C,R3*%
X63538472Y-55077396D02*
X63062282Y-55410730D01*
X63538472Y-55648825D02*
X62538472Y-55648825D01*
X62538472Y-55267872D01*
X62586092Y-55172634D01*
X62633711Y-55125015D01*
X62728949Y-55077396D01*
X62871806Y-55077396D01*
X62967044Y-55125015D01*
X63014663Y-55172634D01*
X63062282Y-55267872D01*
X63062282Y-55648825D01*
X62538472Y-54744063D02*
X62538472Y-54125015D01*
X62919425Y-54458349D01*
X62919425Y-54315491D01*
X62967044Y-54220253D01*
X63014663Y-54172634D01*
X63109901Y-54125015D01*
X63347996Y-54125015D01*
X63443234Y-54172634D01*
X63490853Y-54220253D01*
X63538472Y-54315491D01*
X63538472Y-54601206D01*
X63490853Y-54696444D01*
X63443234Y-54744063D01*
X70270714Y-55363110D02*
X69699285Y-55363110D01*
X69985000Y-55363110D02*
X69985000Y-54363110D01*
X69889761Y-54505968D01*
X69794523Y-54601206D01*
X69699285Y-54648825D01*
X70699285Y-55363110D02*
X70699285Y-54363110D01*
X71270714Y-55363110D02*
X70842142Y-54791682D01*
X71270714Y-54363110D02*
X70699285Y-54934539D01*
%TO.C,R4*%
X63513521Y-58698884D02*
X63037331Y-59032218D01*
X63513521Y-59270313D02*
X62513521Y-59270313D01*
X62513521Y-58889360D01*
X62561141Y-58794122D01*
X62608760Y-58746503D01*
X62703998Y-58698884D01*
X62846855Y-58698884D01*
X62942093Y-58746503D01*
X62989712Y-58794122D01*
X63037331Y-58889360D01*
X63037331Y-59270313D01*
X62846855Y-57841741D02*
X63513521Y-57841741D01*
X62465902Y-58079837D02*
X63180188Y-58317932D01*
X63180188Y-57698884D01*
X70613863Y-58984598D02*
X70042434Y-58984598D01*
X70328149Y-58984598D02*
X70328149Y-57984598D01*
X70232910Y-58127456D01*
X70137672Y-58222694D01*
X70042434Y-58270313D01*
X71042434Y-58984598D02*
X71042434Y-57984598D01*
X71613863Y-58984598D02*
X71185291Y-58413170D01*
X71613863Y-57984598D02*
X71042434Y-58556027D01*
X76390749Y-57984598D02*
X76390749Y-58222694D01*
X76152653Y-58127456D02*
X76390749Y-58222694D01*
X76628844Y-58127456D01*
X76247891Y-58413170D02*
X76390749Y-58222694D01*
X76533606Y-58413170D01*
%TO.C,R6*%
X63563685Y-66030746D02*
X63087495Y-66364080D01*
X63563685Y-66602175D02*
X62563685Y-66602175D01*
X62563685Y-66221222D01*
X62611305Y-66125984D01*
X62658924Y-66078365D01*
X62754162Y-66030746D01*
X62897019Y-66030746D01*
X62992257Y-66078365D01*
X63039876Y-66125984D01*
X63087495Y-66221222D01*
X63087495Y-66602175D01*
X62563685Y-65173603D02*
X62563685Y-65364080D01*
X62611305Y-65459318D01*
X62658924Y-65506937D01*
X62801781Y-65602175D01*
X62992257Y-65649794D01*
X63373209Y-65649794D01*
X63468447Y-65602175D01*
X63516066Y-65554556D01*
X63563685Y-65459318D01*
X63563685Y-65268841D01*
X63516066Y-65173603D01*
X63468447Y-65125984D01*
X63373209Y-65078365D01*
X63135114Y-65078365D01*
X63039876Y-65125984D01*
X62992257Y-65173603D01*
X62944638Y-65268841D01*
X62944638Y-65459318D01*
X62992257Y-65554556D01*
X63039876Y-65602175D01*
X63135114Y-65649794D01*
X69812276Y-65745032D02*
X69717038Y-65697413D01*
X69669419Y-65649794D01*
X69621800Y-65554556D01*
X69621800Y-65506937D01*
X69669419Y-65411699D01*
X69717038Y-65364080D01*
X69812276Y-65316460D01*
X70002752Y-65316460D01*
X70097990Y-65364080D01*
X70145609Y-65411699D01*
X70193228Y-65506937D01*
X70193228Y-65554556D01*
X70145609Y-65649794D01*
X70097990Y-65697413D01*
X70002752Y-65745032D01*
X69812276Y-65745032D01*
X69717038Y-65792651D01*
X69669419Y-65840270D01*
X69621800Y-65935508D01*
X69621800Y-66125984D01*
X69669419Y-66221222D01*
X69717038Y-66268841D01*
X69812276Y-66316460D01*
X70002752Y-66316460D01*
X70097990Y-66268841D01*
X70145609Y-66221222D01*
X70193228Y-66125984D01*
X70193228Y-65935508D01*
X70145609Y-65840270D01*
X70097990Y-65792651D01*
X70002752Y-65745032D01*
X70574181Y-65411699D02*
X70621800Y-65364080D01*
X70717038Y-65316460D01*
X70955133Y-65316460D01*
X71050371Y-65364080D01*
X71097990Y-65411699D01*
X71145609Y-65506937D01*
X71145609Y-65602175D01*
X71097990Y-65745032D01*
X70526562Y-66316460D01*
X71145609Y-66316460D01*
X71574181Y-66316460D02*
X71574181Y-65316460D01*
X72145609Y-66316460D02*
X71717038Y-65745032D01*
X72145609Y-65316460D02*
X71574181Y-65887889D01*
X76446305Y-65316460D02*
X76446305Y-65554556D01*
X76208209Y-65459318D02*
X76446305Y-65554556D01*
X76684400Y-65459318D01*
X76303447Y-65745032D02*
X76446305Y-65554556D01*
X76589162Y-65745032D01*
D11*
%TO.C,U2*%
X88138000Y-49337600D02*
X78232000Y-49337600D01*
X78232000Y-49337600D02*
X78232000Y-55992400D01*
X88138000Y-55992400D02*
X88138000Y-49337600D01*
X78232000Y-55992400D02*
X88138000Y-55992400D01*
D12*
%TO.C,J2*%
X108775000Y-92670000D02*
X99775000Y-92670000D01*
X99775000Y-72670000D02*
X108775000Y-72670000D01*
X108775000Y-72670000D02*
X108775000Y-92670000D01*
X99775000Y-92670000D02*
X99775000Y-72670000D01*
D13*
X109875000Y-90170000D02*
G75*
G03*
X109875000Y-90170000I-100000J0D01*
G01*
D11*
%TO.C,L1*%
X53605000Y-79605000D02*
G75*
G03*
X53605000Y-79605000I-8520000J0D01*
G01*
X46425000Y-79605000D02*
G75*
G03*
X46425000Y-79605000I-1340000J0D01*
G01*
%TO.C,RL1*%
X90345000Y-77285000D02*
X90345000Y-73845000D01*
X81105000Y-73845000D02*
X81105000Y-77285000D01*
X90345000Y-73845000D02*
X81105000Y-73845000D01*
X80415000Y-75565000D02*
X81105000Y-75565000D01*
X81105000Y-77285000D02*
X90345000Y-77285000D01*
X91035000Y-75565000D02*
X90345000Y-75565000D01*
%TO.C,R1*%
X74129700Y-46888400D02*
X67576500Y-46888400D01*
X67576500Y-49631600D02*
X74129700Y-49631600D01*
X67576500Y-46888400D02*
X67576500Y-49631600D01*
X74129700Y-49631600D02*
X74129700Y-46888400D01*
%TO.C,D1*%
X51433318Y-49807801D02*
X51433318Y-65697801D01*
X59093318Y-65697801D02*
X59093318Y-68222801D01*
X51433318Y-65697801D02*
X61673318Y-65697801D01*
X51433318Y-49807801D02*
X61673318Y-49807801D01*
X54013318Y-65697801D02*
X54013318Y-68237801D01*
X61673318Y-49807801D02*
X61673318Y-65697801D01*
%TO.C,R9*%
X81445300Y-88366600D02*
X87998500Y-88366600D01*
X81445300Y-85623400D02*
X81445300Y-88366600D01*
X87998500Y-85623400D02*
X81445300Y-85623400D01*
X87998500Y-88366600D02*
X87998500Y-85623400D01*
D12*
%TO.C,J1*%
X34807500Y-66515000D02*
X25807500Y-66515000D01*
X25807500Y-66515000D02*
X25807500Y-46515000D01*
X25807500Y-46515000D02*
X34807500Y-46515000D01*
X34807500Y-46515000D02*
X34807500Y-66515000D01*
D13*
X24907500Y-49015000D02*
G75*
G03*
X24907500Y-49015000I-100000J0D01*
G01*
D11*
%TO.C,U1*%
X60835000Y-77470000D02*
X59971000Y-77470000D01*
X60835000Y-73660000D02*
X56170000Y-73660000D01*
X60835000Y-76200000D02*
X56170000Y-76200000D01*
X60835000Y-71080000D02*
X60835000Y-81320000D01*
X76725000Y-71080000D02*
X60835000Y-71080000D01*
X60835000Y-72390000D02*
X59955000Y-72390000D01*
X60835000Y-80010000D02*
X59971000Y-80010000D01*
X60835000Y-74930000D02*
X59971000Y-74930000D01*
X76725000Y-81320000D02*
X60835000Y-81320000D01*
X60835000Y-78740000D02*
X56170000Y-78740000D01*
X76725000Y-71080000D02*
X76725000Y-81320000D01*
D12*
%TO.C,J5*%
X108812500Y-55920000D02*
X99812500Y-55920000D01*
X99812500Y-55920000D02*
X99812500Y-45920000D01*
X99812500Y-45920000D02*
X108812500Y-45920000D01*
X108812500Y-45920000D02*
X108812500Y-55920000D01*
D13*
X109912500Y-53420000D02*
G75*
G03*
X109912500Y-53420000I-100000J0D01*
G01*
D11*
%TO.C,C2*%
X90010000Y-66790000D02*
X89385000Y-66790000D01*
X89385000Y-62750000D02*
X89385000Y-66790000D01*
X92225000Y-62750000D02*
X92225000Y-66790000D01*
X90010000Y-62750000D02*
X89385000Y-62750000D01*
X92225000Y-62750000D02*
X91600000Y-62750000D01*
X92225000Y-66790000D02*
X91600000Y-66790000D01*
D12*
%TO.C,J4*%
X109535000Y-71432500D02*
X94935000Y-71432500D01*
X94935000Y-57132500D02*
X109535000Y-57132500D01*
X94935000Y-71432500D02*
X94935000Y-57132500D01*
X109535000Y-57132500D02*
X109535000Y-71432500D01*
D14*
X96565000Y-72282500D02*
G75*
G03*
X96565000Y-72282500I-200000J0D01*
G01*
D11*
%TO.C,R8*%
X87998500Y-81974078D02*
X81445300Y-81974078D01*
X81445300Y-81974078D02*
X81445300Y-84717278D01*
X81445300Y-84717278D02*
X87998500Y-84717278D01*
X87998500Y-84717278D02*
X87998500Y-81974078D01*
%TO.C,Cin1*%
X33343000Y-76563349D02*
X28887000Y-76563349D01*
X30075000Y-74603349D02*
X27310000Y-74603349D01*
X35157000Y-73682349D02*
X27073000Y-73682349D01*
X32760000Y-76883349D02*
X29470000Y-76883349D01*
X30075000Y-74923349D02*
X27449000Y-74923349D01*
X34559000Y-75323349D02*
X32155000Y-75323349D01*
X34060000Y-75963349D02*
X28170000Y-75963349D01*
X34480000Y-75443349D02*
X32155000Y-75443349D01*
X33671000Y-76323349D02*
X28559000Y-76323349D01*
X35117000Y-73923349D02*
X32155000Y-73923349D01*
X30075000Y-74803349D02*
X27393000Y-74803349D01*
X30075000Y-74163349D02*
X27168000Y-74163349D01*
X34365000Y-75603349D02*
X32155000Y-75603349D01*
X34742000Y-75003349D02*
X32155000Y-75003349D01*
X33005000Y-76763349D02*
X29225000Y-76763349D01*
X30075000Y-74043349D02*
X27139000Y-74043349D01*
X32568000Y-76963349D02*
X29662000Y-76963349D01*
X31648000Y-77203349D02*
X30582000Y-77203349D01*
X30075000Y-74403349D02*
X27238000Y-74403349D01*
X35082000Y-74083349D02*
X32155000Y-74083349D01*
X30075000Y-74963349D02*
X27468000Y-74963349D01*
X35176000Y-73522349D02*
X27054000Y-73522349D01*
X33402000Y-76523349D02*
X28828000Y-76523349D01*
X35051000Y-74203349D02*
X32155000Y-74203349D01*
X33460000Y-76483349D02*
X28770000Y-76483349D01*
X35191000Y-73322349D02*
X27039000Y-73322349D01*
X33217000Y-76643349D02*
X29013000Y-76643349D01*
X30075000Y-74843349D02*
X27411000Y-74843349D01*
X35183000Y-73442349D02*
X27047000Y-73442349D01*
X30075000Y-75043349D02*
X27509000Y-75043349D01*
X35029000Y-74283349D02*
X32155000Y-74283349D01*
X30075000Y-74283349D02*
X27201000Y-74283349D01*
X32928000Y-76803349D02*
X29302000Y-76803349D01*
X34304000Y-75683349D02*
X32155000Y-75683349D01*
X34837000Y-74803349D02*
X32155000Y-74803349D01*
X30075000Y-74883349D02*
X27429000Y-74883349D01*
X34271000Y-75723349D02*
X32155000Y-75723349D01*
X30075000Y-75363349D02*
X27697000Y-75363349D01*
X34699000Y-75083349D02*
X32155000Y-75083349D01*
X30075000Y-75323349D02*
X27671000Y-75323349D01*
X30075000Y-74523349D02*
X27280000Y-74523349D01*
X34920000Y-74603349D02*
X32155000Y-74603349D01*
X30075000Y-74443349D02*
X27252000Y-74443349D01*
X30075000Y-75403349D02*
X27723000Y-75403349D01*
X33569000Y-76403349D02*
X28661000Y-76403349D01*
X35004000Y-74363349D02*
X32155000Y-74363349D01*
X34721000Y-75043349D02*
X32155000Y-75043349D01*
X30075000Y-75523349D02*
X27806000Y-75523349D01*
X35167000Y-73602349D02*
X27063000Y-73602349D01*
X32461000Y-77003349D02*
X29769000Y-77003349D01*
X30075000Y-75483349D02*
X27777000Y-75483349D01*
X30075000Y-74323349D02*
X27213000Y-74323349D01*
X30075000Y-75723349D02*
X27959000Y-75723349D01*
X34584000Y-75283349D02*
X32155000Y-75283349D01*
X34608000Y-75243349D02*
X32155000Y-75243349D01*
X30075000Y-75643349D02*
X27895000Y-75643349D01*
X34453000Y-75483349D02*
X32155000Y-75483349D01*
X33856000Y-76163349D02*
X28374000Y-76163349D01*
X34889000Y-74683349D02*
X32155000Y-74683349D01*
X30075000Y-75603349D02*
X27865000Y-75603349D01*
X34507000Y-75403349D02*
X32155000Y-75403349D01*
X33812000Y-76203349D02*
X28418000Y-76203349D01*
X35172000Y-73562349D02*
X27058000Y-73562349D01*
X30075000Y-74563349D02*
X27294000Y-74563349D01*
X35195000Y-73122349D02*
X27035000Y-73122349D01*
X35195000Y-73162349D02*
X27035000Y-73162349D01*
X31883000Y-77163349D02*
X30347000Y-77163349D01*
X30075000Y-73883349D02*
X27105000Y-73883349D01*
X35194000Y-73242349D02*
X27036000Y-73242349D01*
X34992000Y-74403349D02*
X32155000Y-74403349D01*
X30075000Y-74723349D02*
X27358000Y-74723349D01*
X34801000Y-74883349D02*
X32155000Y-74883349D01*
X32846000Y-76843349D02*
X29384000Y-76843349D01*
X33982000Y-76043349D02*
X28248000Y-76043349D01*
X30075000Y-75443349D02*
X27750000Y-75443349D01*
X30075000Y-74083349D02*
X27148000Y-74083349D01*
X35132000Y-73843349D02*
X32155000Y-73843349D01*
X30075000Y-75803349D02*
X28025000Y-75803349D01*
X33515000Y-76443349D02*
X28715000Y-76443349D01*
X34632000Y-75203349D02*
X32155000Y-75203349D01*
X33719000Y-76283349D02*
X28511000Y-76283349D01*
X34170000Y-75843349D02*
X32155000Y-75843349D01*
X30075000Y-74683349D02*
X27341000Y-74683349D01*
X35040000Y-74243349D02*
X32155000Y-74243349D01*
X33281000Y-76603349D02*
X28949000Y-76603349D01*
X30075000Y-74203349D02*
X27179000Y-74203349D01*
X35100000Y-74003349D02*
X32155000Y-74003349D01*
X35180000Y-73482349D02*
X27050000Y-73482349D01*
X30075000Y-74123349D02*
X27158000Y-74123349D01*
X34533000Y-75363349D02*
X32155000Y-75363349D01*
X35109000Y-73963349D02*
X32155000Y-73963349D01*
X33430000Y-68712651D02*
X33430000Y-69512651D01*
X34936000Y-74563349D02*
X32155000Y-74563349D01*
X34762000Y-74963349D02*
X32155000Y-74963349D01*
X32063000Y-77123349D02*
X30167000Y-77123349D01*
X34655000Y-75163349D02*
X32155000Y-75163349D01*
X30075000Y-75883349D02*
X28096000Y-75883349D01*
X30075000Y-73963349D02*
X27121000Y-73963349D01*
X34677000Y-75123349D02*
X32155000Y-75123349D01*
X35145000Y-73762349D02*
X27085000Y-73762349D01*
X30075000Y-75123349D02*
X27553000Y-75123349D01*
X33941000Y-76083349D02*
X28289000Y-76083349D01*
X34424000Y-75523349D02*
X32155000Y-75523349D01*
X35192000Y-73282349D02*
X27038000Y-73282349D01*
X34395000Y-75563349D02*
X32155000Y-75563349D01*
X34855000Y-74763349D02*
X32155000Y-74763349D01*
X35195000Y-73202349D02*
X27035000Y-73202349D01*
X30075000Y-74003349D02*
X27130000Y-74003349D01*
X34134000Y-75883349D02*
X32155000Y-75883349D01*
X30075000Y-75083349D02*
X27531000Y-75083349D01*
X33149000Y-76683349D02*
X29081000Y-76683349D01*
X30075000Y-74483349D02*
X27265000Y-74483349D01*
X35091000Y-74043349D02*
X32155000Y-74043349D01*
X30075000Y-74643349D02*
X27325000Y-74643349D01*
X35072000Y-74123349D02*
X32155000Y-74123349D01*
X34022000Y-76003349D02*
X28208000Y-76003349D01*
X34239000Y-75763349D02*
X32155000Y-75763349D01*
X30075000Y-73843349D02*
X27098000Y-73843349D01*
X30075000Y-75243349D02*
X27622000Y-75243349D01*
X34872000Y-74723349D02*
X32155000Y-74723349D01*
X33766000Y-76243349D02*
X28464000Y-76243349D01*
X34098000Y-75923349D02*
X28132000Y-75923349D01*
X34950000Y-74523349D02*
X32155000Y-74523349D01*
X30075000Y-75203349D02*
X27598000Y-75203349D01*
X33899000Y-76123349D02*
X28331000Y-76123349D01*
X35062000Y-74163349D02*
X32155000Y-74163349D01*
X30075000Y-75763349D02*
X27991000Y-75763349D01*
X33079000Y-76723349D02*
X29151000Y-76723349D01*
X30075000Y-75003349D02*
X27488000Y-75003349D01*
X34819000Y-74843349D02*
X32155000Y-74843349D01*
X30075000Y-75283349D02*
X27646000Y-75283349D01*
X34965000Y-74483349D02*
X32155000Y-74483349D01*
X35152000Y-73722349D02*
X27078000Y-73722349D01*
X30075000Y-74763349D02*
X27375000Y-74763349D01*
X34781000Y-74923349D02*
X32155000Y-74923349D01*
X34205000Y-75803349D02*
X32155000Y-75803349D01*
X35189000Y-73362349D02*
X27041000Y-73362349D01*
X30075000Y-74363349D02*
X27226000Y-74363349D01*
X30075000Y-75683349D02*
X27926000Y-75683349D01*
X32667000Y-76923349D02*
X29563000Y-76923349D01*
X30075000Y-75843349D02*
X28060000Y-75843349D01*
X34335000Y-75643349D02*
X32155000Y-75643349D01*
X35186000Y-73402349D02*
X27044000Y-73402349D01*
X30075000Y-75563349D02*
X27835000Y-75563349D01*
X30075000Y-73923349D02*
X27113000Y-73923349D01*
X35125000Y-73883349D02*
X32155000Y-73883349D01*
X33830000Y-69112651D02*
X33030000Y-69112651D01*
X30075000Y-74243349D02*
X27190000Y-74243349D01*
X30075000Y-75163349D02*
X27575000Y-75163349D01*
X34978000Y-74443349D02*
X32155000Y-74443349D01*
X32344000Y-77043349D02*
X29886000Y-77043349D01*
X35139000Y-73802349D02*
X27091000Y-73802349D01*
X35017000Y-74323349D02*
X32155000Y-74323349D01*
X35163000Y-73642349D02*
X27067000Y-73642349D01*
X33620000Y-76363349D02*
X28610000Y-76363349D01*
X32213000Y-77083349D02*
X30017000Y-77083349D01*
X34905000Y-74643349D02*
X32155000Y-74643349D01*
X35235000Y-73122349D02*
G75*
G03*
X35235000Y-73122349I-4120000J0D01*
G01*
%TO.C,R10*%
X87998500Y-89433400D02*
X81445300Y-89433400D01*
X87998500Y-92176600D02*
X87998500Y-89433400D01*
X81445300Y-89433400D02*
X81445300Y-92176600D01*
X81445300Y-92176600D02*
X87998500Y-92176600D01*
%TO.C,U3*%
X78232000Y-68692400D02*
X88138000Y-68692400D01*
X88138000Y-68692400D02*
X88138000Y-62037600D01*
X78232000Y-62037600D02*
X78232000Y-68692400D01*
X88138000Y-62037600D02*
X78232000Y-62037600D01*
%TO.C,Cb1*%
X62230203Y-67664865D02*
X62230203Y-68289865D01*
X62230203Y-69879865D02*
X62230203Y-70504865D01*
X66270203Y-67664865D02*
X66270203Y-68289865D01*
X62230203Y-67664865D02*
X66270203Y-67664865D01*
X66270203Y-69879865D02*
X66270203Y-70504865D01*
X62230203Y-70504865D02*
X66270203Y-70504865D01*
%TO.C,Cinx1*%
X50982685Y-70362058D02*
X50982685Y-66322058D01*
X50357685Y-66322058D02*
X50982685Y-66322058D01*
X50357685Y-70362058D02*
X50982685Y-70362058D01*
X48142685Y-70362058D02*
X48767685Y-70362058D01*
X48142685Y-66322058D02*
X48767685Y-66322058D01*
X48142685Y-70362058D02*
X48142685Y-66322058D01*
%TO.C,C1*%
X90010000Y-54705000D02*
X89385000Y-54705000D01*
X90010000Y-50665000D02*
X89385000Y-50665000D01*
X89385000Y-50665000D02*
X89385000Y-54705000D01*
X92225000Y-50665000D02*
X92225000Y-54705000D01*
X92225000Y-54705000D02*
X91600000Y-54705000D01*
X92225000Y-50665000D02*
X91600000Y-50665000D01*
%TO.C,Cout1*%
X62858077Y-91237742D02*
X56646077Y-91237742D01*
X62191077Y-91677742D02*
X57313077Y-91677742D01*
X62627077Y-81717096D02*
X62627077Y-82717096D01*
X58511077Y-88477742D02*
X54834077Y-88477742D01*
X58511077Y-89037742D02*
X55014077Y-89037742D01*
X58511077Y-89637742D02*
X55290077Y-89637742D01*
X58511077Y-88877742D02*
X54955077Y-88877742D01*
X64147077Y-89757742D02*
X60993077Y-89757742D01*
X64763077Y-88037742D02*
X54741077Y-88037742D01*
X63741077Y-90357742D02*
X60993077Y-90357742D01*
X58511077Y-89957742D02*
X55479077Y-89957742D01*
X58511077Y-89477742D02*
X55207077Y-89477742D01*
X64589077Y-88757742D02*
X60993077Y-88757742D01*
X58511077Y-90357742D02*
X55763077Y-90357742D01*
X64717077Y-88277742D02*
X54787077Y-88277742D01*
X58511077Y-88757742D02*
X54915077Y-88757742D01*
X64734077Y-88197742D02*
X54770077Y-88197742D01*
X58511077Y-90797742D02*
X56151077Y-90797742D01*
X64297077Y-89477742D02*
X60993077Y-89477742D01*
X63772077Y-90317742D02*
X60993077Y-90317742D01*
X61494077Y-91997742D02*
X58010077Y-91997742D01*
X63610077Y-90517742D02*
X60993077Y-90517742D01*
X62117077Y-91717742D02*
X57387077Y-91717742D01*
X64832077Y-87276742D02*
X54672077Y-87276742D01*
X64825077Y-87476742D02*
X54679077Y-87476742D01*
X64831077Y-87316742D02*
X54673077Y-87316742D01*
X63946077Y-90077742D02*
X60993077Y-90077742D01*
X63918077Y-90117742D02*
X60993077Y-90117742D01*
X62697077Y-91357742D02*
X56807077Y-91357742D01*
X64810077Y-87676742D02*
X54694077Y-87676742D01*
X64817077Y-87596742D02*
X54687077Y-87596742D01*
X64490077Y-89037742D02*
X60993077Y-89037742D01*
X64726077Y-88237742D02*
X54778077Y-88237742D01*
X63802077Y-90277742D02*
X60993077Y-90277742D01*
X64820077Y-87556742D02*
X54684077Y-87556742D01*
X58511077Y-89597742D02*
X55269077Y-89597742D01*
X58511077Y-90637742D02*
X55999077Y-90637742D01*
X58511077Y-90717742D02*
X56073077Y-90717742D01*
X64680077Y-88437742D02*
X54824077Y-88437742D01*
X64626077Y-88637742D02*
X60993077Y-88637742D01*
X64409077Y-89237742D02*
X60993077Y-89237742D01*
X64235077Y-89597742D02*
X60993077Y-89597742D01*
X58511077Y-90197742D02*
X55642077Y-90197742D01*
X58511077Y-90037742D02*
X55531077Y-90037742D01*
X64830077Y-87356742D02*
X54674077Y-87356742D01*
X64806077Y-87716742D02*
X54698077Y-87716742D01*
X63099077Y-91037742D02*
X56405077Y-91037742D01*
X61961077Y-91797742D02*
X57543077Y-91797742D01*
X64373077Y-89317742D02*
X60993077Y-89317742D01*
X58511077Y-89677742D02*
X55312077Y-89677742D01*
X62908077Y-91197742D02*
X56596077Y-91197742D01*
X58511077Y-89437742D02*
X55188077Y-89437742D01*
X58511077Y-90917742D02*
X56274077Y-90917742D01*
X64670077Y-88477742D02*
X60993077Y-88477742D01*
X64256077Y-89557742D02*
X60993077Y-89557742D01*
X58511077Y-90677742D02*
X56036077Y-90677742D01*
X64099077Y-89837742D02*
X60993077Y-89837742D01*
X63353077Y-90797742D02*
X60993077Y-90797742D01*
X63677077Y-90437742D02*
X60993077Y-90437742D01*
X58511077Y-90277742D02*
X55702077Y-90277742D01*
X62397077Y-91557742D02*
X57107077Y-91557742D01*
X64563077Y-88837742D02*
X60993077Y-88837742D01*
X64787077Y-87876742D02*
X54717077Y-87876742D01*
X62522077Y-91477742D02*
X56982077Y-91477742D01*
X58511077Y-89517742D02*
X55227077Y-89517742D01*
X58511077Y-88597742D02*
X54867077Y-88597742D01*
X64475077Y-89077742D02*
X60993077Y-89077742D01*
X58511077Y-89837742D02*
X55405077Y-89837742D01*
X61789077Y-91877742D02*
X57715077Y-91877742D01*
X63709077Y-90397742D02*
X60993077Y-90397742D01*
X58511077Y-89197742D02*
X55078077Y-89197742D01*
X64832077Y-87236742D02*
X54672077Y-87236742D01*
X64169077Y-89717742D02*
X60993077Y-89717742D01*
X64214077Y-89637742D02*
X60993077Y-89637742D01*
X63313077Y-90837742D02*
X60993077Y-90837742D01*
X64442077Y-89157742D02*
X60993077Y-89157742D01*
X61262077Y-92077742D02*
X58242077Y-92077742D01*
X58511077Y-90877742D02*
X56232077Y-90877742D01*
X64802077Y-87756742D02*
X54702077Y-87756742D01*
X58511077Y-89117742D02*
X55045077Y-89117742D01*
X58511077Y-89717742D02*
X55335077Y-89717742D01*
X58511077Y-89397742D02*
X55168077Y-89397742D01*
X58511077Y-89237742D02*
X55095077Y-89237742D01*
X62331077Y-91597742D02*
X57173077Y-91597742D01*
X63505077Y-90637742D02*
X60993077Y-90637742D01*
X58511077Y-90397742D02*
X55795077Y-90397742D01*
X64814077Y-87636742D02*
X54690077Y-87636742D01*
X63862077Y-90197742D02*
X60993077Y-90197742D01*
X58511077Y-90557742D02*
X55928077Y-90557742D01*
X62958077Y-91157742D02*
X56546077Y-91157742D01*
X64822077Y-87516742D02*
X54682077Y-87516742D01*
X64192077Y-89677742D02*
X60993077Y-89677742D01*
X58511077Y-88997742D02*
X54998077Y-88997742D01*
X61382077Y-92037742D02*
X58122077Y-92037742D01*
X63006077Y-91117742D02*
X56498077Y-91117742D01*
X58511077Y-89997742D02*
X55505077Y-89997742D01*
X58511077Y-90757742D02*
X56112077Y-90757742D01*
X61696077Y-91917742D02*
X57808077Y-91917742D01*
X64708077Y-88317742D02*
X54796077Y-88317742D01*
X58511077Y-90477742D02*
X55860077Y-90477742D01*
X58511077Y-90837742D02*
X56191077Y-90837742D01*
X64535077Y-88917742D02*
X60993077Y-88917742D01*
X58511077Y-88637742D02*
X54878077Y-88637742D01*
X58511077Y-90597742D02*
X55963077Y-90597742D01*
X64637077Y-88597742D02*
X60993077Y-88597742D01*
X64829077Y-87396742D02*
X54675077Y-87396742D01*
X64690077Y-88397742D02*
X54814077Y-88397742D01*
X64742077Y-88157742D02*
X54762077Y-88157742D01*
X62041077Y-91757742D02*
X57463077Y-91757742D01*
X63973077Y-90037742D02*
X60993077Y-90037742D01*
X64832077Y-87196742D02*
X54672077Y-87196742D01*
X58511077Y-90117742D02*
X55586077Y-90117742D01*
X62806077Y-91277742D02*
X56698077Y-91277742D01*
X58511077Y-89757742D02*
X55357077Y-89757742D01*
X62641077Y-91397742D02*
X56863077Y-91397742D01*
X64506077Y-88997742D02*
X60993077Y-88997742D01*
X63127077Y-82217096D02*
X62127077Y-82217096D01*
X64123077Y-89797742D02*
X60993077Y-89797742D01*
X64776077Y-87957742D02*
X54728077Y-87957742D01*
X64050077Y-89917742D02*
X60993077Y-89917742D01*
X61877077Y-91837742D02*
X57627077Y-91837742D01*
X62461077Y-91517742D02*
X57043077Y-91517742D01*
X58511077Y-90157742D02*
X55614077Y-90157742D01*
X58511077Y-89797742D02*
X55381077Y-89797742D01*
X62582077Y-91437742D02*
X56922077Y-91437742D01*
X60814077Y-92197742D02*
X58690077Y-92197742D01*
X58511077Y-89357742D02*
X55149077Y-89357742D01*
X64797077Y-87796742D02*
X54707077Y-87796742D01*
X58511077Y-90317742D02*
X55732077Y-90317742D01*
X63576077Y-90557742D02*
X60993077Y-90557742D01*
X58511077Y-88837742D02*
X54941077Y-88837742D01*
X58511077Y-89317742D02*
X55131077Y-89317742D01*
X63468077Y-90677742D02*
X60993077Y-90677742D01*
X62752077Y-91317742D02*
X56752077Y-91317742D01*
X63053077Y-91077742D02*
X56451077Y-91077742D01*
X64549077Y-88877742D02*
X60993077Y-88877742D01*
X58511077Y-88557742D02*
X54855077Y-88557742D01*
X58511077Y-89077742D02*
X55029077Y-89077742D01*
X58511077Y-89917742D02*
X55454077Y-89917742D01*
X63644077Y-90477742D02*
X60993077Y-90477742D01*
X58511077Y-88917742D02*
X54969077Y-88917742D01*
X63272077Y-90877742D02*
X60993077Y-90877742D01*
X60351077Y-92277742D02*
X59153077Y-92277742D01*
X58511077Y-90437742D02*
X55827077Y-90437742D01*
X64770077Y-87997742D02*
X54734077Y-87997742D01*
X64459077Y-89117742D02*
X60993077Y-89117742D01*
X64827077Y-87436742D02*
X54677077Y-87436742D01*
X61130077Y-92117742D02*
X58374077Y-92117742D01*
X58511077Y-88517742D02*
X54845077Y-88517742D01*
X64756077Y-88077742D02*
X54748077Y-88077742D01*
X58511077Y-89157742D02*
X55062077Y-89157742D01*
X58511077Y-90077742D02*
X55558077Y-90077742D01*
X58511077Y-89877742D02*
X55429077Y-89877742D01*
X64520077Y-88957742D02*
X60993077Y-88957742D01*
X60614077Y-92237742D02*
X58890077Y-92237742D01*
X58511077Y-88797742D02*
X54928077Y-88797742D01*
X63392077Y-90757742D02*
X60993077Y-90757742D01*
X64277077Y-89517742D02*
X60993077Y-89517742D01*
X64576077Y-88797742D02*
X60993077Y-88797742D01*
X64614077Y-88677742D02*
X60993077Y-88677742D01*
X63230077Y-90917742D02*
X60993077Y-90917742D01*
X63999077Y-89997742D02*
X60993077Y-89997742D01*
X58511077Y-90237742D02*
X55672077Y-90237742D01*
X63188077Y-90957742D02*
X56316077Y-90957742D01*
X58511077Y-88717742D02*
X54902077Y-88717742D01*
X63541077Y-90597742D02*
X60993077Y-90597742D01*
X62262077Y-91637742D02*
X57242077Y-91637742D01*
X64602077Y-88717742D02*
X60993077Y-88717742D01*
X64355077Y-89357742D02*
X60993077Y-89357742D01*
X64792077Y-87836742D02*
X54712077Y-87836742D01*
X58511077Y-88677742D02*
X54890077Y-88677742D01*
X60982077Y-92157742D02*
X58522077Y-92157742D01*
X64316077Y-89437742D02*
X60993077Y-89437742D01*
X64426077Y-89197742D02*
X60993077Y-89197742D01*
X58511077Y-89277742D02*
X55113077Y-89277742D01*
X64649077Y-88557742D02*
X60993077Y-88557742D01*
X64659077Y-88517742D02*
X60993077Y-88517742D01*
X63144077Y-90997742D02*
X56360077Y-90997742D01*
X64075077Y-89877742D02*
X60993077Y-89877742D01*
X61598077Y-91957742D02*
X57906077Y-91957742D01*
X58511077Y-89557742D02*
X55248077Y-89557742D01*
X64336077Y-89397742D02*
X60993077Y-89397742D01*
X63431077Y-90717742D02*
X60993077Y-90717742D01*
X63890077Y-90157742D02*
X60993077Y-90157742D01*
X63832077Y-90237742D02*
X60993077Y-90237742D01*
X58511077Y-88957742D02*
X54984077Y-88957742D01*
X64782077Y-87917742D02*
X54722077Y-87917742D01*
X64699077Y-88357742D02*
X54805077Y-88357742D01*
X64749077Y-88117742D02*
X54755077Y-88117742D01*
X64025077Y-89957742D02*
X60993077Y-89957742D01*
X64391077Y-89277742D02*
X60993077Y-89277742D01*
X58511077Y-90517742D02*
X55894077Y-90517742D01*
X64872077Y-87196742D02*
G75*
G03*
X64872077Y-87196742I-5120000J0D01*
G01*
D12*
%TO.C,J3*%
X25828410Y-91880787D02*
X25828410Y-81880787D01*
X34828410Y-81880787D02*
X34828410Y-91880787D01*
X34828410Y-91880787D02*
X25828410Y-91880787D01*
X25828410Y-81880787D02*
X34828410Y-81880787D01*
D13*
X24928410Y-84380787D02*
G75*
G03*
X24928410Y-84380787I-100000J0D01*
G01*
D11*
%TO.C,R7*%
X88066767Y-81067956D02*
X88066767Y-78324756D01*
X81513567Y-81067956D02*
X88066767Y-81067956D01*
X88066767Y-78324756D02*
X81513567Y-78324756D01*
X81513567Y-78324756D02*
X81513567Y-81067956D01*
%TO.C,R2*%
X67576500Y-52956965D02*
X74129700Y-52956965D01*
X74129700Y-52956965D02*
X74129700Y-50213765D01*
X74129700Y-50213765D02*
X67576500Y-50213765D01*
X67576500Y-50213765D02*
X67576500Y-52956965D01*
%TO.C,D2*%
X72519000Y-85565000D02*
X72200000Y-85565000D01*
X70040000Y-85565000D02*
X69721000Y-85565000D01*
X72200724Y-89868242D02*
G75*
G03*
X72518749Y-85565000I-1080724J2243242D01*
G01*
X69721251Y-85565000D02*
G75*
G03*
X70039276Y-89868242I1398749J-2060000D01*
G01*
X72200961Y-89307713D02*
G75*
G03*
X72200000Y-85941670I-1080961J1682713D01*
G01*
X70040000Y-85941670D02*
G75*
G03*
X70039039Y-89307713I1080000J-1683330D01*
G01*
%TO.C,R5*%
X67598152Y-60843158D02*
X67598152Y-63586358D01*
X74151352Y-60843158D02*
X67598152Y-60843158D01*
X74151352Y-63586358D02*
X74151352Y-60843158D01*
X67598152Y-63586358D02*
X74151352Y-63586358D01*
%TO.C,R3*%
X67576500Y-53539130D02*
X67576500Y-56282330D01*
X67576500Y-56282330D02*
X74129700Y-56282330D01*
X74129700Y-56282330D02*
X74129700Y-53539130D01*
X74129700Y-53539130D02*
X67576500Y-53539130D01*
%TO.C,R4*%
X74104749Y-59903818D02*
X74104749Y-57160618D01*
X67551549Y-57160618D02*
X67551549Y-59903818D01*
X67551549Y-59903818D02*
X74104749Y-59903818D01*
X74104749Y-57160618D02*
X67551549Y-57160618D01*
%TO.C,R6*%
X67607105Y-67235680D02*
X74160305Y-67235680D01*
X74160305Y-64492480D02*
X67607105Y-64492480D01*
X67607105Y-64492480D02*
X67607105Y-67235680D01*
X74160305Y-67235680D02*
X74160305Y-64492480D01*
%TD*%
M02*
