M48
; DRILL file {KiCad (6.0.9)} date Mon Dec 19 09:42:43 2022
; FORMAT={-:-/ absolute / inch / decimal}
; #@! TF.CreationDate,2022-12-19T09:42:43-08:00
; #@! TF.GenerationSoftware,Kicad,Pcbnew,(6.0.9)
; #@! TF.FileFunction,Plated,1,4,PTH
FMAT,2
INCH
; #@! TA.AperFunction,Plated,PTH,ViaDrill
T1C0.0157
; #@! TA.AperFunction,Plated,PTH,ComponentDrill
T2C0.0300
; #@! TA.AperFunction,Plated,PTH,ComponentDrill
T3C0.0315
; #@! TA.AperFunction,Plated,PTH,ComponentDrill
T4C0.0340
; #@! TA.AperFunction,Plated,PTH,ComponentDrill
T5C0.0354
; #@! TA.AperFunction,Plated,PTH,ComponentDrill
T6C0.0394
; #@! TA.AperFunction,Plated,PTH,ComponentDrill
T7C0.0433
; #@! TA.AperFunction,Plated,PTH,ComponentDrill
T8C0.0512
; #@! TA.AperFunction,Plated,PTH,ComponentDrill
T9C0.0906
%
G90
G05
T1
X2.475Y-1.8785
X2.475Y-2.375
X2.975Y-3.4
X2.975Y-3.575
X3.075Y-2.45
X3.075Y-3.35
X3.175Y-3.075
X3.225Y-2.025
X3.225Y-2.2
X3.275Y-3.35
X3.325Y-1.975
X3.325Y-2.175
X3.5Y-2.425
X3.5Y-2.625
X3.5Y-2.7
X3.7Y-2.425
X3.725Y-2.5
X3.725Y-2.7
T2
X3.125Y-1.8734
X3.125Y-2.2734
X3.125Y-2.3734
X3.125Y-2.7734
X3.225Y-1.8734
X3.225Y-2.2734
X3.225Y-2.3734
X3.225Y-2.7734
X3.325Y-1.8734
X3.325Y-2.2734
X3.325Y-2.3734
X3.325Y-2.7734
X3.425Y-1.8734
X3.425Y-2.2734
X3.425Y-2.3734
X3.425Y-2.7734
T3
X1.225Y-2.8099
X1.225Y-2.9477
X1.9513Y-2.6414
X1.9513Y-2.7398
X2.4803Y-2.7199
X2.5787Y-2.7199
X3.125Y-2.975
X3.575Y-2.025
X3.575Y-2.1234
X3.575Y-2.5008
X3.575Y-2.5992
X3.625Y-2.975
T4
X2.5695Y-2.3044
X2.5705Y-1.9
X2.5705Y-2.0309
X2.5705Y-2.1618
X2.5713Y-2.4494
X2.5717Y-2.5931
X3.0075Y-2.3044
X3.0085Y-1.9
X3.0085Y-2.0309
X3.0085Y-2.1618
X3.0093Y-2.4494
X3.0097Y-2.5931
X3.1165Y-3.2813
X3.1165Y-3.425
X3.1165Y-3.575
X3.1192Y-3.1377
X3.5545Y-3.2813
X3.5545Y-3.425
X3.5545Y-3.575
X3.5572Y-3.1377
T5
X2.8Y-3.3998
X2.8Y-3.4998
X3.7939Y-2.393
X3.7939Y-2.4914
X3.7939Y-2.5702
X3.7939Y-2.6686
T6
X1.775Y-2.8965
X1.775Y-3.3717
X2.3524Y-3.3345
X2.3524Y-3.5314
T7
X2.1265Y-2.7318
X2.1695Y-2.9
X2.1695Y-3.0
X2.1695Y-3.1
X2.3191Y-2.85
X2.3191Y-2.95
X2.3191Y-3.05
X2.3191Y-3.15
X2.3265Y-2.7318
T8
X1.1735Y-1.9297
X1.1735Y-2.1266
X1.1735Y-2.3234
X1.1735Y-2.5203
X1.1743Y-3.3221
X1.1743Y-3.5189
X4.125Y-2.9594
X4.125Y-3.1563
X4.125Y-3.3531
X4.125Y-3.55
X4.1265Y-1.9063
X4.1265Y-2.1031
T9
X3.899Y-2.334
X3.899Y-2.7277
T0
M30
